<?xml version="1.0" encoding="iso-8859-1"?>
<!-- Generator: Adobe Illustrator 29.8.4, SVG Export Plug-In . SVG Version: 9.03 Build 0)  -->
<svg version="1.1" id="Layer_1" xmlns="http://www.w3.org/2000/svg" xmlns:xlink="http://www.w3.org/1999/xlink" x="0px" y="0px"
	 viewBox="0 0 1500 297" enable-background="new 0 0 1500 297" xml:space="preserve">
<rect id="bg-white" fill="#FFFFFF" width="1500" height="297"/>
<line fill="none" stroke="#834187" stroke-width="16" stroke-linecap="round" stroke-miterlimit="10" x1="90" y1="249" x2="1410" y2="249"/>
<circle fill="#FFFFFF" stroke="#000000" stroke-width="6" stroke-miterlimit="10" cx="90" cy="249" r="10"/>
<g>
	<path d="M90.93,223c0.32,0.12,0.63,0.1,0.91-0.07c0.29-0.17,0.75-0.62,1.4-1.39c0.65-0.76,1.22-1.28,1.72-1.55
		c0.81-0.47,1.73-0.5,2.8-0.11s1.81,1.07,2.23,2.04c0.42,0.97,0.43,2.04,0,3.22c-0.58,1.59-1.77,2.62-3.56,3.09l-0.85-1.92
		c1.19-0.16,1.98-0.77,2.36-1.81c0.18-0.5,0.19-0.98,0.01-1.42c-0.18-0.43-0.5-0.73-0.97-0.91c-0.47-0.17-0.92-0.11-1.35,0.19
		c-0.21,0.14-0.66,0.62-1.33,1.43c-0.68,0.81-1.33,1.34-1.94,1.6c-0.61,0.25-1.29,0.24-2.03-0.03c-0.95-0.35-1.61-0.96-1.99-1.86
		s-0.39-1.84-0.02-2.86c0.46-1.25,1.28-2.21,2.46-2.86l1.08,1.7c-0.81,0.31-1.33,0.81-1.57,1.5c-0.17,0.45-0.18,0.87-0.05,1.26
		C90.37,222.63,90.61,222.88,90.93,223z"/>
	<path d="M89.13,214.68l0.75-2.05l6.29,2.29c-0.56-0.89-0.69-1.79-0.35-2.72c0.34-0.93,0.89-1.53,1.67-1.81
		c0.6-0.22,1.36-0.16,2.28,0.17l4.6,1.67l-0.75,2.05l-4-1.46c-0.59-0.21-1.02-0.29-1.3-0.24c-0.48,0.08-0.82,0.41-1.03,0.98
		c-0.38,1.03,0.12,1.8,1.5,2.3l3.76,1.37l-0.75,2.05L89.13,214.68z"/>
	<path d="M104.37,201.87l-2,5.49c1.33,0.42,2.2,0.06,2.61-1.08c0.26-0.71,0.14-1.41-0.35-2.1l0.99-1.78
		c1.29,1.19,1.62,2.65,0.98,4.42c-0.44,1.2-1.14,2.02-2.11,2.48c-0.97,0.46-2.04,0.47-3.22,0.04s-2-1.12-2.45-2.08
		c-0.45-0.96-0.47-2.01-0.05-3.18c0.42-1.17,1.11-1.95,2.06-2.37c0.95-0.41,2.03-0.39,3.26,0.06L104.37,201.87z M101.09,206.82
		l1.26-3.47c-1.05-0.13-1.75,0.28-2.09,1.21C99.94,205.47,100.23,206.31,101.09,206.82z"/>
	<path d="M112.92,200.9l-0.75,2.05l-11.23-4.09l0.75-2.05l0.95,0.35c-0.55-0.92-0.66-1.88-0.29-2.87c0.36-0.99,1.04-1.7,2.04-2.12
		c1-0.42,2.05-0.43,3.15-0.03c1.11,0.4,1.91,1.09,2.41,2.05c0.5,0.96,0.57,1.93,0.22,2.89s-1.05,1.66-2.09,2.05L112.92,200.9z
		 M103.96,195.57c-0.21,0.57-0.18,1.12,0.07,1.67c0.25,0.55,0.67,0.92,1.23,1.13c0.57,0.21,1.13,0.19,1.67-0.07
		c0.55-0.26,0.92-0.66,1.13-1.23c0.2-0.56,0.18-1.12-0.07-1.67c-0.25-0.55-0.65-0.93-1.22-1.14c-0.57-0.21-1.12-0.18-1.67,0.07
		C104.54,194.59,104.17,195,103.96,195.57z"/>
	<path d="M116.42,191.28l-0.75,2.05l-11.23-4.09l0.75-2.05l0.95,0.35c-0.55-0.92-0.66-1.88-0.29-2.87c0.36-0.99,1.04-1.7,2.04-2.12
		c1-0.42,2.05-0.43,3.15-0.03c1.11,0.4,1.91,1.09,2.41,2.05s0.57,1.93,0.22,2.89s-1.05,1.66-2.09,2.05L116.42,191.28z
		 M107.46,185.95c-0.21,0.57-0.18,1.12,0.07,1.67c0.25,0.55,0.67,0.92,1.23,1.13c0.57,0.21,1.13,0.19,1.67-0.07
		c0.55-0.26,0.92-0.66,1.13-1.23c0.2-0.56,0.18-1.12-0.07-1.67c-0.25-0.55-0.65-0.93-1.22-1.14c-0.57-0.21-1.12-0.18-1.67,0.07
		C108.04,184.97,107.67,185.38,107.46,185.95z"/>
	<path d="M109.99,174l0.75-2.05l7.33,2.67l-0.75,2.05l-0.95-0.35c0.55,0.92,0.65,1.88,0.29,2.88s-1.04,1.71-2.04,2.12
		c-0.99,0.41-2.04,0.42-3.14,0.02c-1.1-0.4-1.91-1.09-2.41-2.04c-0.5-0.96-0.57-1.93-0.22-2.9c0.36-0.97,1.05-1.66,2.08-2.05
		L109.99,174z M110.93,176.41c-0.21,0.58-0.19,1.14,0.06,1.68c0.25,0.55,0.66,0.92,1.23,1.13c0.57,0.21,1.13,0.19,1.67-0.07
		c0.55-0.26,0.92-0.66,1.13-1.23s0.18-1.12-0.07-1.67c-0.25-0.55-0.66-0.92-1.23-1.13c-0.57-0.21-1.12-0.18-1.67,0.06
		C111.52,175.43,111.14,175.84,110.93,176.41z"/>
	<path d="M119.52,170.62l-0.75,2.05l-7.33-2.67l0.75-2.05l1.11,0.41c-0.72-0.83-0.91-1.71-0.57-2.62c0.11-0.29,0.27-0.57,0.51-0.83
		l1.8,0.98c-0.28,0.24-0.49,0.54-0.6,0.88c-0.43,1.17,0.09,2.03,1.56,2.56L119.52,170.62z"/>
	<path d="M110.34,156.42l0.75-2.05l12.67,4.61l-0.75,2.05l-0.95-0.35c0.55,0.92,0.66,1.88,0.29,2.88c-0.36,1-1.04,1.71-2.04,2.12
		c-0.99,0.41-2.04,0.42-3.14,0.02c-1.1-0.4-1.91-1.09-2.41-2.04c-0.5-0.96-0.57-1.93-0.22-2.9c0.36-0.97,1.05-1.66,2.08-2.05
		L110.34,156.42z M116.63,160.77c-0.21,0.58-0.19,1.14,0.06,1.68c0.25,0.55,0.66,0.92,1.23,1.13c0.57,0.21,1.13,0.19,1.67-0.07
		c0.55-0.26,0.92-0.66,1.13-1.23s0.18-1.12-0.07-1.67c-0.25-0.55-0.66-0.92-1.23-1.13c-0.57-0.21-1.12-0.18-1.67,0.06
		C117.21,159.79,116.83,160.2,116.63,160.77z"/>
	<path d="M119.84,155.01l2.56-7.04l1.7,0.62l-2.56,7.04L119.84,155.01z"/>
	<path d="M129.78,142.41l-0.8,2.2l-5.18-1.88l-7.52,1.67l0.95-2.6l4.81-1.01l-3.05-3.81l0.95-2.62l4.66,6.18L129.78,142.41z"/>
	<path d="M124.95,132.19c0.45-1.23,1.18-2.1,2.17-2.6c1-0.51,2.08-0.55,3.24-0.13s1.96,1.15,2.39,2.19
		c0.43,1.05,0.43,2.19-0.02,3.43c-0.46,1.25-1.19,2.11-2.21,2.61c-1.01,0.5-2.09,0.54-3.23,0.12c-1.15-0.42-1.94-1.15-2.37-2.2
		C124.48,134.56,124.5,133.42,124.95,132.19z M126.78,132.88c-0.21,0.57-0.19,1.13,0.06,1.68c0.25,0.55,0.66,0.93,1.23,1.14
		c0.57,0.21,1.13,0.19,1.67-0.07c0.55-0.26,0.93-0.67,1.13-1.24c0.21-0.57,0.19-1.14-0.07-1.69c-0.25-0.55-0.66-0.92-1.23-1.13
		c-0.57-0.21-1.12-0.18-1.67,0.07C127.36,131.9,126.99,132.31,126.78,132.88z"/>
	<path d="M127.26,126.54l0.75-2.05l0.92,0.33c-0.61-0.93-0.67-1.72-0.31-2.71c0.33-0.9,0.88-1.51,1.65-1.81
		c0.58-0.23,1.33-0.17,2.24,0.16l4.65,1.69l-0.75,2.05l-4.06-1.48c-0.56-0.2-0.98-0.28-1.26-0.22c-0.47,0.07-0.8,0.4-1.01,0.99
		c-0.38,1.03,0.11,1.8,1.47,2.29l3.79,1.38l-0.75,2.05L127.26,126.54z"/>
	<path d="M133.32,109.89l7.05,2.57c0.75,0.27,1.32,0.54,1.69,0.81c0.37,0.27,0.68,0.63,0.92,1.07c0.6,1.03,0.64,2.25,0.12,3.66
		c-0.51,1.41-1.44,2.3-2.78,2.66c-0.57,0.15-1.12,0.16-1.67,0.03l0.81-2.24c0.96,0.11,1.6-0.3,1.95-1.24
		c0.2-0.55,0.18-1.07-0.04-1.57c-0.21-0.42-0.67-0.76-1.36-1.02l-1.1-0.4c0.3,0.55,0.47,1.04,0.53,1.48
		c0.05,0.45-0.02,0.93-0.21,1.45c-0.36,1-1.02,1.7-1.98,2.1c-0.96,0.4-2,0.4-3.13-0.02c-1.13-0.41-1.95-1.09-2.45-2.04
		c-0.51-0.95-0.58-1.92-0.22-2.91s1.05-1.66,2.07-2.02l-0.95-0.35L133.32,109.89z M133.54,114.31c-0.21,0.57-0.18,1.12,0.07,1.67
		c0.25,0.55,0.66,0.92,1.23,1.13c0.57,0.21,1.13,0.19,1.67-0.07c0.55-0.26,0.93-0.66,1.13-1.23s0.18-1.12-0.07-1.67
		c-0.25-0.55-0.66-0.92-1.23-1.13c-0.57-0.21-1.12-0.18-1.67,0.06C134.12,113.34,133.74,113.75,133.54,114.31z"/>
	<path d="M140.68,102.11l-2,5.49c1.33,0.42,2.2,0.06,2.61-1.08c0.26-0.71,0.14-1.41-0.35-2.1l0.99-1.78
		c1.29,1.19,1.62,2.65,0.98,4.42c-0.44,1.2-1.14,2.02-2.11,2.48c-0.97,0.46-2.04,0.47-3.22,0.04c-1.18-0.43-2-1.12-2.45-2.08
		c-0.45-0.96-0.47-2.01-0.05-3.18c0.42-1.17,1.11-1.95,2.06-2.37c0.95-0.41,2.03-0.39,3.26,0.06L140.68,102.11z M137.4,107.06
		l1.26-3.47c-1.05-0.13-1.75,0.28-2.09,1.21C136.25,105.71,136.54,106.55,137.4,107.06z"/>
</g>
<circle fill="#FFFFFF" stroke="#000000" stroke-width="6" stroke-miterlimit="10" cx="420" cy="249" r="10"/>
<g>
	<path d="M428.57,228.16l-11.28-4.11l1.02-2.79c0.46-1.27,1.02-2.11,1.68-2.5c0.77-0.48,1.67-0.54,2.67-0.18
		c0.62,0.23,1.11,0.56,1.46,1.01c0.16,0.23,0.28,0.59,0.38,1.06c0.4-0.62,0.81-1.02,1.25-1.21c0.73-0.34,1.56-0.35,2.47-0.02
		c0.92,0.33,1.55,0.94,1.9,1.8c0.35,0.87,0.3,1.91-0.15,3.14L428.57,228.16z M422.79,223.56l0.23-0.63
		c0.42-1.14,0.13-1.89-0.84-2.24s-1.67,0.03-2.07,1.14l-0.24,0.66L422.79,223.56z M427.6,225.31l0.35-0.95
		c0.53-1.46,0.28-2.39-0.75-2.76c-0.57-0.21-1.07-0.14-1.5,0.2c-0.33,0.24-0.64,0.76-0.93,1.54l-0.3,0.83L427.6,225.31z"/>
	<path d="M426.68,210.56l0.75-2.05l7.33,2.67l-0.75,2.05l-0.95-0.35c0.55,0.92,0.65,1.88,0.29,2.87c-0.36,1-1.04,1.71-2.04,2.12
		c-0.99,0.42-2.04,0.42-3.14,0.03c-1.1-0.4-1.91-1.09-2.41-2.05s-0.57-1.93-0.22-2.9c0.36-0.97,1.05-1.66,2.08-2.05L426.68,210.56z
		 M427.63,212.97c-0.21,0.58-0.19,1.14,0.06,1.68c0.25,0.55,0.66,0.92,1.23,1.13c0.57,0.21,1.13,0.19,1.67-0.07
		c0.55-0.26,0.92-0.66,1.13-1.23c0.2-0.56,0.18-1.12-0.07-1.67c-0.25-0.55-0.66-0.92-1.23-1.13c-0.57-0.21-1.12-0.18-1.67,0.06
		C428.21,211.98,427.84,212.4,427.63,212.97z"/>
	<path d="M435.27,206.29l-7.47,1.21l0.87-2.39l4.96-0.68l-3.4-3.6l0.86-2.35l9.08,10.01l-0.84,2.32L435.27,206.29z"/>
	<path d="M431.92,196.15l4.85-0.42l-3.45-3.42l0.84-2.3l6.1,6.49l-0.34,0.93l-8.84,1.02L431.92,196.15z"/>
	<path d="M430.6,186.34c0.12-0.34,0.34-0.59,0.67-0.74c0.33-0.15,0.66-0.16,1-0.04s0.59,0.36,0.74,0.68
		c0.16,0.33,0.18,0.67,0.05,1.01c-0.12,0.34-0.35,0.58-0.68,0.73c-0.33,0.15-0.67,0.17-1.01,0.04s-0.59-0.36-0.74-0.69
		C430.48,187.01,430.47,186.67,430.6,186.34z M435.29,186.91l7.33,2.67l-0.74,2.04l-7.33-2.67L435.29,186.91z"/>
	<path d="M442.61,179.23l-2,5.49c1.33,0.42,2.2,0.06,2.61-1.08c0.26-0.71,0.14-1.41-0.35-2.1l0.99-1.78
		c1.29,1.19,1.62,2.66,0.98,4.42c-0.44,1.2-1.14,2.02-2.11,2.48c-0.97,0.46-2.04,0.47-3.22,0.04c-1.18-0.43-2-1.12-2.45-2.08
		c-0.45-0.96-0.47-2.01-0.05-3.18c0.42-1.16,1.11-1.95,2.06-2.37c0.95-0.41,2.03-0.39,3.26,0.06L442.61,179.23z M439.33,184.18
		l1.26-3.47c-1.05-0.13-1.75,0.28-2.09,1.21C438.18,182.83,438.47,183.67,439.33,184.18z"/>
	<path d="M439.54,175.22l4.93-0.38l-3.7-3.61l0.32-0.88l5.22-0.36l-3.58-3.52l0.83-2.29l6.09,6.51l-0.34,0.92l-5.17,0.37l3.73,3.57
		l-0.34,0.94l-8.84,1.04L439.54,175.22z"/>
</g>
<circle fill="#FFFFFF" stroke="#000000" stroke-width="6" stroke-miterlimit="10" cx="750" cy="249" r="10"/>
<g>
	<path d="M758.57,228.16l-11.28-4.11l1.02-2.79c0.46-1.27,1.02-2.11,1.68-2.5c0.77-0.48,1.67-0.54,2.67-0.18
		c0.62,0.23,1.11,0.56,1.46,1.01c0.16,0.23,0.28,0.59,0.38,1.06c0.4-0.62,0.81-1.02,1.25-1.21c0.73-0.34,1.56-0.35,2.47-0.02
		c0.92,0.33,1.55,0.94,1.9,1.8c0.35,0.87,0.3,1.91-0.15,3.14L758.57,228.16z M752.79,223.56l0.23-0.63
		c0.42-1.14,0.13-1.89-0.84-2.24s-1.67,0.03-2.07,1.14l-0.24,0.66L752.79,223.56z M757.6,225.31l0.35-0.95
		c0.53-1.46,0.28-2.39-0.75-2.76c-0.57-0.21-1.07-0.14-1.5,0.2c-0.33,0.24-0.64,0.76-0.93,1.54l-0.3,0.83L757.6,225.31z"/>
	<path d="M761.26,210.43l-2,5.49c1.33,0.42,2.2,0.06,2.61-1.08c0.26-0.71,0.14-1.41-0.35-2.1l0.99-1.78
		c1.29,1.19,1.62,2.65,0.98,4.42c-0.44,1.2-1.14,2.02-2.11,2.48s-2.04,0.47-3.22,0.04s-2-1.12-2.45-2.08s-0.47-2.01-0.05-3.18
		c0.42-1.16,1.11-1.95,2.06-2.37c0.95-0.41,2.03-0.39,3.26,0.06L761.26,210.43z M757.98,215.38l1.26-3.47
		c-1.05-0.13-1.75,0.28-2.09,1.21C756.82,214.02,757.12,214.87,757.98,215.38z"/>
	<path d="M760.95,204.15c-0.48,0.31-0.78,0.62-0.89,0.92s-0.13,0.55-0.08,0.75c0.07,0.2,0.19,0.33,0.36,0.39
		c0.17,0.06,0.34,0.04,0.51-0.08c0.16-0.12,0.45-0.43,0.85-0.92c0.41-0.5,0.76-0.86,1.07-1.05c0.57-0.4,1.22-0.47,1.95-0.21
		s1.25,0.78,1.53,1.53c0.29,0.76,0.26,1.59-0.07,2.49c-0.4,1.11-1.14,1.88-2.23,2.33l-0.86-1.53c0.78-0.36,1.28-0.84,1.49-1.42
		c0.19-0.52-0.02-1.07-0.46-1.22c-0.22-0.08-0.41-0.08-0.58,0.02c-0.16,0.1-0.46,0.4-0.89,0.92c-0.43,0.52-0.77,0.86-1.03,1.02
		c-0.52,0.36-1.11,0.42-1.79,0.17s-1.15-0.7-1.41-1.35c-0.26-0.65-0.23-1.39,0.07-2.21c0.3-0.83,0.84-1.49,1.62-2L760.95,204.15z"/>
	<path d="M763.42,197.35c-0.48,0.31-0.78,0.61-0.89,0.92c-0.11,0.3-0.13,0.55-0.08,0.75c0.07,0.2,0.19,0.33,0.36,0.39
		c0.17,0.06,0.34,0.04,0.51-0.08c0.16-0.12,0.45-0.43,0.85-0.92c0.41-0.5,0.76-0.86,1.07-1.05c0.57-0.4,1.22-0.47,1.95-0.21
		c0.74,0.27,1.25,0.78,1.53,1.53c0.29,0.76,0.26,1.59-0.06,2.49c-0.4,1.11-1.14,1.88-2.23,2.33l-0.86-1.53
		c0.78-0.36,1.28-0.84,1.49-1.42c0.19-0.52-0.02-1.06-0.46-1.22c-0.22-0.08-0.41-0.08-0.58,0.02c-0.16,0.1-0.46,0.4-0.89,0.92
		c-0.43,0.52-0.77,0.86-1.03,1.02c-0.52,0.36-1.11,0.42-1.79,0.17c-0.69-0.25-1.15-0.7-1.41-1.35c-0.26-0.65-0.23-1.38,0.07-2.21
		c0.3-0.83,0.84-1.49,1.62-2L763.42,197.35z"/>
	<path d="M764.8,188.26l0.75-2.05l7.33,2.67l-0.75,2.05l-0.95-0.35c0.55,0.92,0.66,1.88,0.29,2.88c-0.36,1-1.04,1.71-2.04,2.12
		c-0.99,0.42-2.04,0.43-3.14,0.03c-1.1-0.4-1.91-1.09-2.41-2.04s-0.57-1.93-0.21-2.9c0.35-0.97,1.05-1.66,2.08-2.05L764.8,188.26z
		 M765.74,190.67c-0.21,0.58-0.19,1.14,0.06,1.68c0.25,0.55,0.66,0.92,1.23,1.13c0.57,0.21,1.13,0.19,1.67-0.07
		c0.55-0.26,0.92-0.66,1.13-1.23c0.2-0.56,0.18-1.12-0.07-1.67c-0.25-0.55-0.66-0.92-1.23-1.13c-0.57-0.21-1.12-0.18-1.67,0.06
		C766.33,189.68,765.95,190.1,765.74,190.67z"/>
	<path d="M774.33,184.87l-0.75,2.05l-7.33-2.67l0.75-2.05l1.12,0.41c-0.72-0.83-0.91-1.71-0.57-2.62c0.11-0.29,0.27-0.57,0.51-0.83
		l1.8,0.98c-0.28,0.24-0.48,0.54-0.6,0.88c-0.43,1.17,0.09,2.03,1.56,2.56L774.33,184.87z"/>
	<path d="M764.54,175.5c0.12-0.34,0.34-0.59,0.67-0.74c0.33-0.15,0.66-0.16,1-0.04c0.34,0.12,0.59,0.36,0.74,0.68
		c0.16,0.33,0.18,0.67,0.05,1.01c-0.12,0.34-0.35,0.58-0.68,0.73s-0.67,0.17-1.01,0.04c-0.34-0.12-0.59-0.36-0.74-0.69
		C764.43,176.18,764.42,175.84,764.54,175.5z M769.23,176.08l7.33,2.67l-0.74,2.04l-7.33-2.67L769.23,176.08z"/>
	<path d="M771.1,170.24c0.45-1.23,1.17-2.1,2.17-2.6s2.08-0.55,3.24-0.13c1.16,0.42,1.96,1.15,2.39,2.19
		c0.43,1.05,0.43,2.19-0.02,3.43c-0.45,1.25-1.19,2.11-2.2,2.61s-2.09,0.54-3.23,0.12c-1.15-0.42-1.94-1.15-2.37-2.2
		C770.63,172.61,770.65,171.47,771.1,170.24z M772.93,170.93c-0.21,0.57-0.19,1.13,0.06,1.68c0.25,0.55,0.66,0.93,1.23,1.14
		c0.57,0.21,1.13,0.19,1.67-0.07c0.55-0.26,0.93-0.67,1.13-1.24s0.19-1.14-0.07-1.69c-0.25-0.55-0.66-0.92-1.23-1.13
		c-0.57-0.21-1.12-0.18-1.67,0.07C773.51,169.95,773.14,170.36,772.93,170.93z"/>
	<path d="M773.41,164.59l0.75-2.05l0.92,0.33c-0.61-0.93-0.67-1.72-0.31-2.71c0.33-0.9,0.88-1.5,1.65-1.81
		c0.58-0.23,1.33-0.17,2.24,0.16l4.65,1.69l-0.75,2.05l-4.06-1.48c-0.56-0.2-0.98-0.28-1.26-0.22c-0.47,0.07-0.8,0.4-1.01,0.99
		c-0.38,1.03,0.11,1.8,1.47,2.29l3.79,1.38l-0.75,2.05L773.41,164.59z"/>
</g>
<circle fill="#FFFFFF" stroke="#000000" stroke-width="6" stroke-miterlimit="10" cx="1080" cy="249" r="10"/>
<g>
	<path d="M1078.09,221.85l9.37,3.41l1.26-3.47l1.91,0.69l-2.06,5.67l-11.28-4.11L1078.09,221.85z"/>
	<path d="M1090.4,212.78l-2,5.49c1.33,0.42,2.2,0.06,2.61-1.08c0.26-0.71,0.14-1.41-0.35-2.1l0.99-1.78
		c1.29,1.19,1.62,2.65,0.98,4.42c-0.44,1.2-1.14,2.02-2.11,2.48c-0.97,0.46-2.04,0.47-3.22,0.04c-1.18-0.43-2-1.12-2.45-2.08
		c-0.45-0.96-0.47-2.01-0.05-3.18c0.42-1.17,1.11-1.95,2.06-2.37c0.95-0.41,2.03-0.39,3.26,0.06L1090.4,212.78z M1087.12,217.73
		l1.26-3.47c-1.05-0.13-1.75,0.28-2.09,1.21C1085.97,216.38,1086.26,217.22,1087.12,217.73z"/>
	<path d="M1090.09,206.5c-0.48,0.31-0.78,0.62-0.89,0.92c-0.11,0.31-0.13,0.55-0.08,0.75c0.07,0.2,0.19,0.33,0.36,0.39
		c0.17,0.06,0.34,0.04,0.51-0.08c0.16-0.12,0.45-0.43,0.85-0.92c0.41-0.5,0.76-0.85,1.07-1.05c0.57-0.4,1.22-0.47,1.96-0.21
		s1.25,0.78,1.53,1.53c0.29,0.76,0.26,1.59-0.07,2.49c-0.4,1.11-1.14,1.88-2.23,2.33l-0.86-1.53c0.78-0.36,1.28-0.83,1.49-1.42
		c0.19-0.52-0.02-1.07-0.46-1.22c-0.22-0.08-0.41-0.08-0.58,0.02c-0.16,0.1-0.46,0.41-0.89,0.92c-0.43,0.52-0.77,0.86-1.03,1.02
		c-0.52,0.36-1.11,0.42-1.79,0.17c-0.69-0.25-1.15-0.7-1.41-1.35c-0.26-0.65-0.23-1.39,0.07-2.21c0.3-0.83,0.84-1.49,1.62-2
		L1090.09,206.5z"/>
	<path d="M1084.82,199.05l12.67,4.61l-0.75,2.05l-12.67-4.61L1084.82,199.05z"/>
	<path d="M1086.92,196.45c0.12-0.34,0.34-0.59,0.67-0.74c0.33-0.15,0.66-0.16,1-0.04c0.34,0.12,0.59,0.36,0.74,0.68
		c0.16,0.33,0.18,0.67,0.05,1.01c-0.12,0.34-0.35,0.58-0.68,0.73c-0.33,0.15-0.67,0.17-1.01,0.04c-0.34-0.12-0.59-0.36-0.74-0.69
		C1086.8,197.13,1086.79,196.79,1086.92,196.45z M1091.61,197.03l7.33,2.67l-0.74,2.04l-7.33-2.67L1091.61,197.03z"/>
	<path d="M1098.93,189.35l-2,5.49c1.33,0.42,2.2,0.06,2.61-1.08c0.26-0.71,0.14-1.41-0.35-2.1l0.99-1.78
		c1.29,1.19,1.62,2.66,0.98,4.42c-0.44,1.2-1.14,2.02-2.11,2.48c-0.97,0.46-2.04,0.47-3.22,0.04c-1.18-0.43-2-1.12-2.45-2.08
		c-0.46-0.96-0.47-2.01-0.05-3.18c0.42-1.16,1.11-1.95,2.06-2.37c0.95-0.41,2.03-0.39,3.26,0.06L1098.93,189.35z M1095.65,194.3
		l1.26-3.47c-1.05-0.13-1.75,0.28-2.09,1.21C1094.5,192.95,1094.79,193.79,1095.65,194.3z"/>
</g>
<circle fill="#FFFFFF" stroke="#000000" stroke-width="6" stroke-miterlimit="10" cx="1410" cy="249" r="10"/>
<g>
	<path d="M1418.57,228.16l-11.28-4.11l1.18-3.23c0.6-1.64,1.53-2.83,2.77-3.56c0.75-0.45,1.57-0.71,2.46-0.79
		c0.89-0.08,1.75,0.04,2.6,0.35c0.84,0.31,1.58,0.78,2.22,1.42c0.64,0.64,1.1,1.38,1.39,2.22c0.49,1.34,0.44,2.84-0.16,4.5
		L1418.57,228.16z M1417.46,225.26l0.22-0.59c0.49-1.35,0.56-2.45,0.19-3.33c-0.39-1.01-1.31-1.86-2.4-2.26
		c-1.15-0.42-2.24-0.36-3.25,0.2c-0.86,0.45-1.53,1.34-2.01,2.67l-0.22,0.59L1417.46,225.26z"/>
	<path d="M1416.4,210.61c0.45-1.23,1.18-2.1,2.17-2.6s2.08-0.55,3.24-0.13s1.96,1.15,2.39,2.19c0.43,1.05,0.43,2.19-0.02,3.43
		c-0.45,1.25-1.19,2.11-2.2,2.61c-1.01,0.5-2.09,0.54-3.23,0.12c-1.15-0.42-1.94-1.15-2.37-2.2
		C1415.94,212.98,1415.96,211.84,1416.4,210.61z M1418.24,211.3c-0.21,0.57-0.19,1.13,0.06,1.68c0.25,0.55,0.66,0.93,1.23,1.14
		c0.57,0.21,1.13,0.19,1.67-0.07c0.55-0.26,0.93-0.67,1.14-1.24c0.21-0.57,0.19-1.14-0.07-1.69c-0.25-0.55-0.66-0.92-1.23-1.13
		c-0.57-0.21-1.12-0.18-1.67,0.07C1418.82,210.32,1418.44,210.73,1418.24,211.3z"/>
	<path d="M1418.72,204.96l0.75-2.05l0.92,0.33c-0.61-0.93-0.67-1.72-0.31-2.71c0.33-0.9,0.88-1.51,1.65-1.81
		c0.58-0.23,1.33-0.17,2.24,0.16l4.65,1.69l-0.75,2.05l-4.06-1.48c-0.56-0.2-0.98-0.28-1.26-0.22c-0.47,0.07-0.8,0.4-1.01,0.99
		c-0.38,1.03,0.11,1.8,1.47,2.29l3.79,1.38l-0.75,2.05L1418.72,204.96z"/>
	<path d="M1430.76,194.67l-10.72-6.28l0.55-1.5l8.5-0.4l-6.21-5.88l0.55-1.52l12.17,2.3l-0.81,2.22l-7.32-1.52l5.98,5.67l-0.22,0.61
		l-8.19,0.41l6.54,3.66L1430.76,194.67z"/>
	<path d="M1424.92,174.46c0.12-0.34,0.34-0.58,0.67-0.74s0.66-0.16,1-0.04c0.34,0.12,0.59,0.36,0.74,0.68
		c0.16,0.33,0.18,0.67,0.05,1.01c-0.12,0.34-0.35,0.58-0.68,0.73s-0.67,0.17-1.01,0.04c-0.34-0.12-0.59-0.36-0.74-0.69
		C1424.8,175.14,1424.8,174.8,1424.92,174.46z M1429.61,175.04l7.33,2.67l-0.74,2.04l-7.33-2.67L1429.61,175.04z"/>
	<path d="M1425.72,169.11l12.67,4.61l-0.75,2.05l-12.67-4.61L1425.72,169.11z"/>
	<path d="M1427.17,165.1l12.67,4.61l-0.75,2.05l-12.67-4.61L1427.17,165.1z"/>
	<path d="M1436.4,161.71c-0.48,0.31-0.78,0.62-0.89,0.92c-0.11,0.31-0.13,0.55-0.08,0.75c0.07,0.2,0.19,0.33,0.36,0.39
		c0.17,0.06,0.34,0.04,0.51-0.08c0.16-0.12,0.45-0.43,0.85-0.92c0.41-0.5,0.76-0.85,1.07-1.05c0.57-0.4,1.22-0.47,1.96-0.21
		s1.25,0.78,1.53,1.53c0.29,0.76,0.26,1.59-0.07,2.49c-0.4,1.11-1.14,1.88-2.23,2.33l-0.86-1.53c0.78-0.36,1.28-0.83,1.49-1.42
		c0.19-0.52-0.02-1.07-0.46-1.22c-0.22-0.08-0.41-0.08-0.58,0.02c-0.16,0.1-0.46,0.41-0.89,0.92c-0.43,0.52-0.77,0.86-1.03,1.02
		c-0.52,0.36-1.11,0.42-1.79,0.17c-0.69-0.25-1.15-0.7-1.41-1.35c-0.26-0.65-0.23-1.39,0.07-2.21c0.3-0.83,0.84-1.49,1.62-2
		L1436.4,161.71z"/>
</g>
<g>
	<path fill="#9B9B9B" d="M692.26,288.22v2.95h-1.43v-7.34h2.12c0.83,0,1.46,0.17,1.87,0.52c0.48,0.4,0.73,0.96,0.73,1.65
		c0,0.7-0.22,1.23-0.66,1.62c-0.27,0.24-0.61,0.4-1.01,0.47l2.31,3.09h-1.76l-1.98-2.95H692.26z M692.26,287.21h0.42
		c0.91,0,1.4-0.41,1.4-1.12c0-0.74-0.46-1.1-1.38-1.1h-0.44V287.21z"/>
	<path fill="#9B9B9B" d="M700.42,286.4h1.33v4.76h-1.33v-0.62c-0.41,0.51-0.94,0.77-1.59,0.77s-1.2-0.24-1.64-0.72
		c-0.45-0.48-0.67-1.09-0.67-1.8s0.23-1.32,0.67-1.81c0.45-0.49,0.99-0.73,1.62-0.73s1.17,0.26,1.61,0.77V286.4z M699.24,287.45
		c-0.38,0-0.69,0.13-0.95,0.39c-0.26,0.26-0.39,0.57-0.39,0.95s0.13,0.69,0.39,0.95c0.26,0.26,0.57,0.39,0.94,0.39
		s0.68-0.13,0.95-0.39c0.26-0.26,0.39-0.57,0.39-0.94c0-0.37-0.13-0.68-0.38-0.95C699.93,287.58,699.61,287.45,699.24,287.45z"/>
	<path fill="#9B9B9B" d="M703.69,283.59c0.22,0,0.41,0.07,0.56,0.23s0.23,0.34,0.23,0.56c0,0.22-0.08,0.41-0.24,0.57
		c-0.16,0.16-0.35,0.24-0.57,0.24s-0.41-0.08-0.56-0.24s-0.24-0.35-0.24-0.57s0.08-0.41,0.24-0.57
		C703.27,283.66,703.46,283.59,703.69,283.59z M704.33,286.4v4.76h-1.33v-4.76H704.33z"/>
	<path fill="#9B9B9B" d="M706.92,282.93v8.24h-1.33v-8.24H706.92z"/>
	<path fill="#9B9B9B" d="M715.04,285.07h-2.45v1.63h2.3v1.24h-2.3v3.22h-1.43v-7.34h3.88V285.07z"/>
	<path fill="#9B9B9B" d="M719.61,286.4h1.33v4.76h-1.33v-0.62c-0.41,0.51-0.94,0.77-1.59,0.77s-1.2-0.24-1.64-0.72
		c-0.45-0.48-0.67-1.09-0.67-1.8s0.23-1.32,0.67-1.81c0.45-0.49,0.99-0.73,1.62-0.73s1.17,0.26,1.61,0.77V286.4z M718.42,287.45
		c-0.38,0-0.69,0.13-0.95,0.39c-0.26,0.26-0.39,0.57-0.39,0.95s0.13,0.69,0.39,0.95c0.26,0.26,0.57,0.39,0.94,0.39
		s0.68-0.13,0.95-0.39c0.26-0.26,0.39-0.57,0.39-0.94c0-0.37-0.13-0.68-0.38-0.95C719.11,287.58,718.79,287.45,718.42,287.45z"/>
	<path fill="#9B9B9B" d="M722.22,286.4h1.33v0.6c0.41-0.54,0.85-0.75,1.49-0.75c0.59,0,1.05,0.19,1.39,0.57
		c0.25,0.29,0.38,0.73,0.38,1.32v3.02h-1.33v-2.64c0-0.37-0.04-0.62-0.13-0.77c-0.14-0.25-0.4-0.38-0.78-0.38
		c-0.67,0-1.01,0.44-1.01,1.32v2.46h-1.33V286.4z"/>
	<path fill="#9B9B9B" d="M730.68,287.52c-0.28-0.21-0.52-0.32-0.71-0.32s-0.34,0.04-0.45,0.11c-0.1,0.08-0.15,0.18-0.15,0.29
		s0.05,0.2,0.15,0.27c0.1,0.07,0.34,0.17,0.71,0.3s0.65,0.26,0.83,0.39c0.35,0.24,0.53,0.6,0.53,1.08s-0.19,0.88-0.56,1.2
		c-0.38,0.32-0.86,0.48-1.44,0.48c-0.72,0-1.32-0.26-1.8-0.79l0.7-0.81c0.37,0.37,0.75,0.56,1.13,0.56c0.34,0,0.61-0.24,0.61-0.52
		c0-0.15-0.04-0.25-0.13-0.33c-0.09-0.07-0.33-0.18-0.71-0.32c-0.39-0.14-0.66-0.26-0.8-0.38c-0.32-0.22-0.47-0.55-0.47-0.99
		s0.16-0.81,0.48-1.09c0.32-0.28,0.75-0.42,1.28-0.42s1.03,0.17,1.49,0.51L730.68,287.52z"/>
	<path fill="#9B9B9B" d="M740.78,285.8c-0.56-0.55-1.17-0.83-1.82-0.83s-1.21,0.25-1.68,0.74c-0.47,0.49-0.7,1.1-0.7,1.81
		c0,0.71,0.23,1.31,0.7,1.79c0.46,0.48,1.04,0.71,1.73,0.71c0.34,0,0.65-0.06,0.92-0.18c0.27-0.12,0.55-0.33,0.84-0.62v1.68
		c-0.62,0.29-1.21,0.43-1.79,0.43c-1.08,0-2-0.37-2.75-1.1s-1.12-1.63-1.12-2.7c0-1.07,0.38-1.98,1.13-2.73s1.67-1.13,2.74-1.13
		c0.6,0,1.19,0.15,1.79,0.45V285.8z"/>
	<path fill="#9B9B9B" d="M745.54,286.4h1.33v4.76h-1.33v-0.62c-0.41,0.51-0.94,0.77-1.59,0.77s-1.2-0.24-1.64-0.72
		c-0.45-0.48-0.67-1.09-0.67-1.8s0.23-1.32,0.67-1.81c0.45-0.49,0.99-0.73,1.62-0.73s1.17,0.26,1.61,0.77V286.4z M744.35,287.45
		c-0.38,0-0.69,0.13-0.95,0.39c-0.26,0.26-0.39,0.57-0.39,0.95s0.13,0.69,0.39,0.95c0.26,0.26,0.57,0.39,0.94,0.39
		s0.68-0.13,0.95-0.39c0.26-0.26,0.39-0.57,0.39-0.94c0-0.37-0.13-0.68-0.38-0.95C745.04,287.58,744.72,287.45,744.35,287.45z"/>
	<path fill="#9B9B9B" d="M748.14,286.4h1.33v0.6c0.41-0.54,0.85-0.75,1.49-0.75c0.59,0,1.05,0.19,1.39,0.57
		c0.25,0.29,0.38,0.73,0.38,1.32v3.02h-1.33v-2.64c0-0.37-0.04-0.62-0.13-0.77c-0.14-0.25-0.4-0.38-0.78-0.38
		c-0.67,0-1.01,0.44-1.01,1.32v2.46h-1.33V286.4z"/>
	<path fill="#9B9B9B" d="M757.65,286.4h1.33v4.76h-1.33v-0.62c-0.41,0.51-0.94,0.77-1.59,0.77c-0.65,0-1.2-0.24-1.64-0.72
		c-0.45-0.48-0.67-1.09-0.67-1.8s0.23-1.32,0.67-1.81c0.45-0.49,0.99-0.73,1.62-0.73c0.63,0,1.17,0.26,1.61,0.77V286.4z
		 M756.47,287.45c-0.38,0-0.69,0.13-0.95,0.39c-0.26,0.26-0.39,0.57-0.39,0.95s0.13,0.69,0.39,0.95c0.26,0.26,0.58,0.39,0.94,0.39
		s0.68-0.13,0.95-0.39c0.26-0.26,0.39-0.57,0.39-0.94c0-0.37-0.13-0.68-0.38-0.95C757.15,287.58,756.84,287.45,756.47,287.45z"/>
	<path fill="#9B9B9B" d="M763.91,282.93h1.33v8.24h-1.33v-0.62c-0.41,0.51-0.94,0.77-1.59,0.77s-1.2-0.24-1.64-0.72
		c-0.45-0.48-0.67-1.09-0.67-1.8s0.23-1.32,0.67-1.81c0.45-0.49,0.99-0.73,1.62-0.73s1.17,0.26,1.61,0.77V282.93z M762.72,287.45
		c-0.38,0-0.69,0.13-0.95,0.39c-0.26,0.26-0.39,0.57-0.39,0.95s0.13,0.69,0.39,0.95c0.26,0.26,0.57,0.39,0.94,0.39
		s0.68-0.13,0.95-0.39c0.26-0.26,0.39-0.57,0.39-0.94c0-0.37-0.13-0.68-0.38-0.95C763.41,287.58,763.09,287.45,762.72,287.45z"/>
	<path fill="#9B9B9B" d="M770.21,286.4h1.33v4.76h-1.33v-0.62c-0.41,0.51-0.94,0.77-1.59,0.77c-0.65,0-1.2-0.24-1.64-0.72
		c-0.45-0.48-0.67-1.09-0.67-1.8s0.23-1.32,0.67-1.81c0.45-0.49,0.99-0.73,1.62-0.73c0.63,0,1.17,0.26,1.61,0.77V286.4z
		 M769.02,287.45c-0.38,0-0.69,0.13-0.95,0.39c-0.26,0.26-0.39,0.57-0.39,0.95s0.13,0.69,0.39,0.95c0.26,0.26,0.57,0.39,0.94,0.39
		s0.68-0.13,0.95-0.39c0.26-0.26,0.39-0.57,0.39-0.94c0-0.37-0.13-0.68-0.38-0.95C769.71,287.58,769.39,287.45,769.02,287.45z"/>
	<path fill="#9B9B9B" d="M774.93,288.09h7.4v1.11h-7.4V288.09z"/>
	<path fill="#9B9B9B" d="M790.6,289.93v1.24h-5.33l2.17-2.46c0.67-0.76,1.11-1.33,1.34-1.69c0.23-0.36,0.34-0.7,0.34-1.01
		c0-0.31-0.11-0.58-0.32-0.79c-0.22-0.21-0.49-0.32-0.8-0.32c-0.32,0-0.58,0.11-0.76,0.32c-0.19,0.21-0.29,0.51-0.31,0.89h-1.53
		c0.05-0.76,0.31-1.36,0.77-1.81c0.46-0.45,1.06-0.67,1.8-0.67c0.74,0,1.35,0.23,1.85,0.67c0.49,0.45,0.74,1.04,0.74,1.76
		s-0.45,1.56-1.33,2.5l-1.28,1.35H790.6z"/>
	<path fill="#9B9B9B" d="M794.45,283.64c0.83,0,1.52,0.38,2.07,1.12c0.5,0.7,0.76,1.62,0.76,2.73s-0.25,2.03-0.76,2.74
		c-0.52,0.7-1.29,1.12-2.08,1.12c-0.85,0-1.54-0.37-2.06-1.1s-0.78-1.65-0.78-2.78s0.25-2.02,0.76-2.72
		C792.92,284.02,793.61,283.64,794.45,283.64z M794.44,284.91c-0.41,0-0.75,0.24-1.02,0.72c-0.27,0.48-0.4,1.1-0.4,1.86
		c0,0.76,0.13,1.38,0.4,1.87c0.26,0.49,0.61,0.73,1.02,0.73c0.41,0,0.76-0.24,1.02-0.72c0.26-0.48,0.39-1.11,0.39-1.86
		c0-0.76-0.13-1.38-0.4-1.86S794.85,284.91,794.44,284.91z"/>
	<path fill="#9B9B9B" d="M803.07,289.93v1.24h-5.33l2.16-2.46c0.67-0.76,1.11-1.33,1.34-1.69c0.23-0.36,0.34-0.7,0.34-1.01
		c0-0.31-0.11-0.58-0.32-0.79c-0.22-0.21-0.49-0.32-0.81-0.32c-0.32,0-0.57,0.11-0.76,0.32c-0.19,0.21-0.3,0.51-0.31,0.89h-1.53
		c0.05-0.76,0.31-1.36,0.77-1.81c0.46-0.45,1.06-0.67,1.8-0.67c0.74,0,1.35,0.23,1.85,0.67c0.49,0.45,0.74,1.04,0.74,1.76
		s-0.45,1.56-1.33,2.5l-1.28,1.35H803.07z"/>
	<path fill="#9B9B9B" d="M809.02,287.04c0.44,0.47,0.66,1.06,0.66,1.79s-0.26,1.33-0.77,1.8c-0.52,0.48-1.19,0.72-2,0.72
		s-1.49-0.24-2.01-0.71c-0.52-0.47-0.79-1.07-0.79-1.81s0.31-1.51,0.92-2.32l2.23-2.98l1.02,0.76l-1.74,2.23
		c0.31-0.12,0.6-0.19,0.86-0.19C808.04,286.34,808.58,286.57,809.02,287.04z M806.91,287.48c-0.38,0-0.7,0.13-0.97,0.39
		c-0.26,0.26-0.4,0.59-0.4,0.98s0.13,0.71,0.4,0.97s0.59,0.4,0.96,0.4s0.69-0.13,0.96-0.4s0.39-0.58,0.39-0.97s-0.13-0.7-0.38-0.97
		C807.61,287.62,807.29,287.48,806.91,287.48z"/>
</g>
<g>
	<path d="M23.11,25.33v24.38h9.02v4.96H17.39V25.33H23.11z"/>
	<path d="M38.04,24.36c0.88,0,1.63,0.3,2.26,0.92s0.92,1.38,0.92,2.26s-0.32,1.65-0.95,2.28c-0.62,0.64-1.4,0.97-2.28,0.97
		s-1.63-0.32-2.26-0.95s-0.95-1.4-0.95-2.28s0.32-1.65,0.97-2.28C36.39,24.66,37.16,24.36,38.04,24.36z M40.64,35.62v19.06h-5.31
		V35.62H40.64z"/>
	<path d="M45.67,35.62H51V38c1.63-2.17,3.39-2.99,5.97-2.99c2.34,0,4.19,0.75,5.54,2.28c1.01,1.14,1.5,2.9,1.5,5.29v12.1h-5.33V44.1
		c0-1.46-0.17-2.49-0.54-3.07c-0.56-1.01-1.59-1.5-3.12-1.5c-2.69,0-4.04,1.76-4.04,5.29v9.86h-5.33V35.62z"/>
	<path d="M87.84,46.02H73.55c0.15,3.42,1.7,5.11,4.66,5.09c1.85,0,3.35-0.86,4.53-2.56l4.92,0.79c-1.65,3.95-4.75,5.93-9.32,5.95
		c-3.12,0-5.59-0.92-7.46-2.77s-2.79-4.3-2.79-7.37s0.9-5.52,2.73-7.37s4.23-2.77,7.26-2.77s5.41,0.92,7.15,2.75s2.6,4.34,2.6,7.54
		V46.02z M73.73,42.62h9.02c-0.58-2.51-2.11-3.78-4.53-3.78C75.88,38.84,74.18,40.21,73.73,42.62z"/>
	<path d="M121.01,30.29h-9.69l-1.14,4.58c0.9-0.11,1.61-0.17,2.15-0.17c2.88,0,5.26,0.97,7.15,2.92s2.84,4.43,2.84,7.43
		s-1.07,5.48-3.2,7.43c-2.15,1.96-5.01,2.94-8.55,2.94s-6.6-1.27-9.11-3.82l1.89-4.98c2.15,2.49,4.6,3.74,7.35,3.74
		c1.65,0,3.05-0.56,4.19-1.65s1.72-2.43,1.72-4.04s-0.64-2.99-1.93-4.12s-2.9-1.7-4.81-1.7s-3.78,0.62-5.59,1.89h-0.3l3.48-15.4
		h13.56V30.29z"/>
	<path d="M139.58,42.36h18.3v4.43h-18.3V42.36z"/>
	<path d="M191.83,30.29h-10.51v6.53h10.12v4.96h-10.12v7.93h10.51v4.96h-16.22V25.33h16.22V30.29z"/>
	<path d="M216.32,35.62v18.35c0,1.96-0.15,3.48-0.45,4.55c-0.32,1.07-0.88,2.08-1.7,3.01c-1.87,2.23-4.64,3.35-8.31,3.35
		s-6.49-1.4-8.44-4.17c-0.82-1.18-1.31-2.45-1.46-3.8h5.82c0.54,2.3,2.02,3.44,4.47,3.44c1.44,0,2.62-0.47,3.57-1.4
		c0.79-0.84,1.18-2.17,1.2-3.97v-2.86c-1.01,1.14-2,1.96-2.96,2.45c-0.99,0.49-2.15,0.73-3.5,0.73c-2.6,0-4.77-0.92-6.49-2.79
		s-2.58-4.25-2.58-7.2s0.88-5.39,2.64-7.35s3.93-2.94,6.51-2.94s4.71,1.03,6.38,3.07v-2.47H216.32z M206.33,39.81
		c-1.48,0-2.73,0.52-3.78,1.55s-1.57,2.3-1.57,3.78s0.52,2.75,1.57,3.78c1.05,1.05,2.3,1.57,3.76,1.57s2.73-0.52,3.78-1.57
		c1.05-1.03,1.57-2.28,1.57-3.76s-0.52-2.73-1.55-3.78C209.06,40.32,207.81,39.81,206.33,39.81z"/>
	<path d="M226.97,21.72v32.96h-5.33V21.72H226.97z"/>
	<path d="M234.69,24.36c0.88,0,1.63,0.3,2.26,0.92s0.92,1.38,0.92,2.26s-0.32,1.65-0.95,2.28c-0.62,0.64-1.4,0.97-2.28,0.97
		s-1.63-0.32-2.26-0.95s-0.95-1.4-0.95-2.28s0.32-1.65,0.97-2.28C233.03,24.66,233.81,24.36,234.69,24.36z M237.29,35.62v19.06
		h-5.31V35.62H237.29z"/>
	<path d="M242.31,35.62h5.33V38c1.63-2.17,3.39-2.99,5.97-2.99c2.34,0,4.19,0.75,5.54,2.28c1.01,1.14,1.5,2.9,1.5,5.29v12.1h-5.33
		V44.1c0-1.46-0.17-2.49-0.54-3.07c-0.56-1.01-1.59-1.5-3.12-1.5c-2.69,0-4.04,1.76-4.04,5.29v9.86h-5.33V35.62z"/>
	<path d="M271.12,40.24v14.44h-5.33V40.24h-2.11v-4.62h2.11v-6.51h5.33v6.51h3.78v4.62H271.12z"/>
	<path d="M287.6,35.02c3.2,0,5.8,0.95,7.8,2.81s3.01,4.32,3.01,7.33s-1.01,5.46-3.03,7.33c-2.04,1.87-4.66,2.81-7.91,2.81
		s-5.84-0.97-7.84-2.88s-2.99-4.34-2.99-7.33s1.03-5.41,3.07-7.28S284.4,35.02,287.6,35.02z M287.54,39.81
		c-1.48,0-2.75,0.52-3.8,1.55s-1.59,2.3-1.59,3.78s0.52,2.75,1.57,3.78c1.05,1.05,2.32,1.57,3.8,1.57s2.77-0.52,3.82-1.57
		c1.05-1.03,1.57-2.28,1.57-3.76s-0.52-2.73-1.57-3.78S289.02,39.81,287.54,39.81z"/>
	<path d="M302.51,35.62h5.33V38c1.63-2.17,3.39-2.99,5.97-2.99c2.34,0,4.19,0.75,5.54,2.28c1.01,1.14,1.5,2.9,1.5,5.29v12.1h-5.33
		V44.1c0-1.46-0.17-2.49-0.54-3.07c-0.56-1.01-1.59-1.5-3.12-1.5c-2.69,0-4.04,1.76-4.04,5.29v9.86h-5.33V35.62z"/>
	<path d="M358.95,33.21c-2.23-2.21-4.66-3.31-7.28-3.31s-4.86,0.99-6.7,2.94c-1.87,1.96-2.79,4.38-2.79,7.24s0.92,5.24,2.79,7.15
		c1.85,1.91,4.17,2.86,6.94,2.86c1.38,0,2.6-0.24,3.67-0.73s2.19-1.31,3.37-2.47v6.72c-2.47,1.14-4.86,1.72-7.18,1.72
		c-4.34,0-8.01-1.46-11-4.4s-4.49-6.53-4.49-10.81s1.5-7.91,4.53-10.94s6.68-4.53,10.96-4.53c2.38,0,4.77,0.6,7.18,1.8V33.21z"/>
	<path d="M368.75,54.67h-5.33V35.62h5.33v2.9c1.31-2.34,3.16-3.52,5.54-3.5c0.75,0,1.53,0.15,2.32,0.47l-0.75,4.96
		c-0.79-0.45-1.63-0.67-2.54-0.64c-3.05,0-4.58,1.91-4.58,5.71V54.67z"/>
	<path d="M388.99,35.02c3.2,0,5.8,0.95,7.8,2.81s3.01,4.32,3.01,7.33s-1.01,5.46-3.03,7.33c-2.04,1.87-4.66,2.81-7.91,2.81
		s-5.84-0.97-7.84-2.88s-2.99-4.34-2.99-7.33s1.03-5.41,3.07-7.28S385.79,35.02,388.99,35.02z M388.92,39.81
		c-1.48,0-2.75,0.52-3.8,1.55s-1.59,2.3-1.59,3.78s0.52,2.75,1.57,3.78c1.05,1.05,2.32,1.57,3.8,1.57s2.77-0.52,3.82-1.57
		c1.05-1.03,1.57-2.28,1.57-3.76s-0.52-2.73-1.57-3.78S390.41,39.81,388.92,39.81z"/>
	<path d="M414.32,40.06c-1.12-0.84-2.06-1.27-2.86-1.27s-1.38,0.15-1.78,0.45c-0.41,0.32-0.6,0.71-0.6,1.16s0.19,0.82,0.6,1.1
		s1.35,0.67,2.84,1.18s2.6,1.03,3.31,1.57c1.4,0.97,2.11,2.41,2.11,4.32s-0.75,3.52-2.23,4.79c-1.5,1.29-3.44,1.93-5.78,1.93
		c-2.88,0-5.29-1.05-7.22-3.18l2.79-3.24c1.48,1.48,2.99,2.23,4.51,2.23c1.35,0,2.43-0.95,2.43-2.08c0-0.58-0.17-1.01-0.54-1.31
		c-0.37-0.28-1.31-0.71-2.86-1.27s-2.62-1.05-3.2-1.5c-1.27-0.88-1.89-2.19-1.89-3.97s0.64-3.22,1.93-4.36
		c1.27-1.14,2.99-1.7,5.13-1.7s4.12,0.69,5.95,2.04L414.32,40.06z"/>
	<path d="M432,40.06c-1.12-0.84-2.06-1.27-2.86-1.27s-1.38,0.15-1.78,0.45c-0.41,0.32-0.6,0.71-0.6,1.16s0.19,0.82,0.6,1.1
		s1.35,0.67,2.84,1.18s2.6,1.03,3.31,1.57c1.4,0.97,2.11,2.41,2.11,4.32s-0.75,3.52-2.23,4.79c-1.5,1.29-3.44,1.93-5.78,1.93
		c-2.88,0-5.29-1.05-7.22-3.18l2.79-3.24c1.48,1.48,2.99,2.23,4.51,2.23c1.35,0,2.43-0.95,2.43-2.08c0-0.58-0.17-1.01-0.54-1.31
		c-0.37-0.28-1.31-0.71-2.86-1.27s-2.62-1.05-3.2-1.5c-1.27-0.88-1.89-2.19-1.89-3.97s0.64-3.22,1.93-4.36
		c1.27-1.14,2.99-1.7,5.13-1.7s4.12,0.69,5.95,2.04L432,40.06z"/>
	<path d="M445.19,40.24v14.44h-5.33V40.24h-2.11v-4.62h2.11v-6.51h5.33v6.51h3.78v4.62H445.19z"/>
	<path d="M461.67,35.02c3.2,0,5.8,0.95,7.8,2.81s3.01,4.32,3.01,7.33s-1.01,5.46-3.03,7.33c-2.04,1.87-4.66,2.81-7.91,2.81
		s-5.84-0.97-7.84-2.88s-2.99-4.34-2.99-7.33s1.03-5.41,3.07-7.28S458.47,35.02,461.67,35.02z M461.61,39.81
		c-1.48,0-2.75,0.52-3.8,1.55s-1.59,2.3-1.59,3.78s0.52,2.75,1.57,3.78c1.05,1.05,2.32,1.57,3.8,1.57s2.77-0.52,3.82-1.57
		c1.05-1.03,1.57-2.28,1.57-3.76s-0.52-2.73-1.57-3.78S463.09,39.81,461.61,39.81z"/>
	<path d="M479.09,35.62l5.01,11l5.2-11.52h2.28l5.2,11.69l5.09-11.17h5.95l-9.86,19.44h-2.41l-5.16-11.56l-5.07,11.56h-2.45
		l-9.78-19.44H479.09z"/>
	<path d="M510.46,35.62h5.33V38c1.63-2.17,3.39-2.99,5.97-2.99c2.34,0,4.19,0.75,5.54,2.28c1.01,1.14,1.5,2.9,1.5,5.29v12.1h-5.33
		V44.1c0-1.46-0.17-2.49-0.54-3.07c-0.56-1.01-1.59-1.5-3.12-1.5c-2.69,0-4.04,1.76-4.04,5.29v9.86h-5.33V35.62z"/>
	<path d="M551.3,51.6c0.62,3.24,1.5,5.99,2.62,8.23l-4.28,2.32c-1.27-2.41-2.19-4.9-2.77-7.48c-1.05-4.4-1.59-8.85-1.59-13.34
		c0-8.04,1.46-14.82,4.36-20.37l4.28,2.34c-2.38,5.07-3.57,11.15-3.57,18.22C550.36,44.98,550.68,48.36,551.3,51.6z"/>
	<path d="M569.59,54.67h-5.74V30.29h-6.55v-4.96h18.88v4.96h-6.6V54.67z"/>
	<path d="M579.88,54.67V25.33h7.26c3.31,0,5.69,0.58,7.15,1.76c1.76,1.38,2.64,3.37,2.64,5.97c0,1.61-0.37,3.01-1.1,4.19
		c-0.41,0.56-1.12,1.14-2.11,1.76c1.76,0.39,3.03,1.01,3.82,1.85c1.4,1.4,2.11,3.29,2.11,5.67s-0.86,4.34-2.56,5.87
		s-4.15,2.28-7.35,2.28H579.88z M585.59,37.55h1.63c2.96,0,4.45-1.27,4.45-3.8s-1.46-3.8-4.36-3.8h-1.72V37.55z M585.59,50.05h2.47
		c3.8,0,5.71-1.35,5.71-4.04c0-1.48-0.58-2.58-1.72-3.27c-0.84-0.56-2.28-0.84-4.32-0.84h-2.15V50.05z"/>
	<path d="M604.95,54.67V25.33h8.4c4.28,0,7.78,1.14,10.51,3.39c1.65,1.35,2.94,3.01,3.87,4.98s1.38,4.06,1.38,6.25
		s-0.47,4.28-1.4,6.27c-0.95,2-2.26,3.67-3.93,5.05c-2.66,2.26-6.14,3.39-10.46,3.39H604.95z M610.66,49.71h1.55
		c3.5,0,6.1-0.77,7.82-2.34c2-1.74,3.18-4.58,3.18-7.39c0-2.99-1.05-5.44-3.18-7.3c-1.76-1.59-4.36-2.38-7.82-2.38h-1.55V49.71z"/>
	<path d="M637.13,31.56c-0.62-3.24-1.5-5.99-2.62-8.25l4.25-2.34c1.27,2.41,2.19,4.9,2.77,7.48c1.05,4.4,1.59,8.85,1.59,13.34
		c0,8.04-1.46,14.82-4.36,20.37l-4.25-2.32c2.38-5.09,3.57-11.17,3.57-18.22C638.08,38.17,637.76,34.82,637.13,31.56z"/>
</g>
</svg>
