<?xml version="1.0" encoding="iso-8859-1"?>
<!-- Generator: Adobe Illustrator 29.8.4, SVG Export Plug-In . SVG Version: 9.03 Build 0)  -->
<svg version="1.1" id="Layer_1" xmlns="http://www.w3.org/2000/svg" xmlns:xlink="http://www.w3.org/1999/xlink" x="0px" y="0px"
	 viewBox="0 0 1500 273" enable-background="new 0 0 1500 273" xml:space="preserve">
<rect id="bg-white" fill="#FFFFFF" width="1500" height="273"/>
<line fill="none" stroke="#8A999A" stroke-width="8" stroke-linecap="round" stroke-miterlimit="10" x1="95" y1="238" x2="1405" y2="238"/>
<circle fill="#FFFFFF" stroke="#000000" stroke-width="3" stroke-miterlimit="10" cx="95" cy="238" r="10"/>
<g>
	<path d="M93.88,219.7l1.24-4.63l-4.23-1.13l0.57-2.14l10.95,2.93l-0.57,2.14l-4.86-1.3l-1.24,4.63l4.86,1.3l-0.57,2.13l-10.95-2.93
		l0.57-2.13L93.88,219.7z"/>
	<path d="M96.42,208.64l4.03,1.08c1.08,0.29,1.76-0.04,2.02-1.01c0.26-0.97-0.16-1.6-1.24-1.89l-4.03-1.08l0.53-1.99l4.35,1.17
		c1.92,0.52,2.66,2.02,2.07,4.23c-0.59,2.21-1.99,3.16-3.91,2.65l-4.35-1.17L96.42,208.64z"/>
	<path d="M103.46,196.25l3.65,0.98l-0.53,1.99l-3.78-1.01c-0.55-0.15-0.96-0.21-1.2-0.18s-0.46,0.13-0.64,0.29
		c-0.18,0.17-0.3,0.37-0.36,0.59c-0.12,0.45,0.02,0.99,0.4,1.36c0.19,0.19,0.61,0.37,1.24,0.53l3.65,0.98l-0.53,1.99l-7.11-1.91
		l0.53-1.99l0.83,0.22c-0.53-0.8-0.68-1.65-0.44-2.55c0.24-0.9,0.86-1.49,1.86-1.76c-0.72-0.79-0.95-1.66-0.69-2.62
		c0.26-0.95,0.78-1.54,1.58-1.78c0.48-0.14,1.08-0.11,1.82,0.08l4.59,1.23l-0.53,1.99l-3.89-1.04c-0.51-0.14-0.91-0.18-1.18-0.14
		c-0.47,0.07-0.76,0.35-0.89,0.83C101.57,195.25,102.12,195.89,103.46,196.25z"/>
	<path d="M97.06,185.51l6.11,1.64c-0.58-0.87-0.75-1.78-0.5-2.73c0.25-0.95,0.83-1.65,1.73-2.12c0.9-0.47,1.89-0.56,2.97-0.27
		c1.08,0.29,1.89,0.86,2.44,1.72c0.54,0.86,0.68,1.77,0.42,2.74s-0.86,1.66-1.79,2.07l0.92,0.25l-0.53,1.99l-12.3-3.3L97.06,185.51z
		 M104.29,185.54c-0.15,0.55-0.08,1.07,0.2,1.57c0.28,0.5,0.7,0.82,1.25,0.96c0.55,0.15,1.08,0.08,1.57-0.21
		c0.5-0.29,0.81-0.7,0.96-1.25c0.15-0.54,0.08-1.07-0.21-1.57c-0.28-0.5-0.69-0.82-1.24-0.97c-0.55-0.15-1.07-0.08-1.57,0.21
		C104.75,184.57,104.44,184.98,104.29,185.54z"/>
	<path d="M109.97,173.59l-1.43,5.33c1.29,0.29,2.08-0.12,2.37-1.23c0.18-0.69,0.01-1.34-0.5-1.95l0.79-1.76
		c1.31,1.01,1.74,2.36,1.29,4.07c-0.31,1.16-0.9,1.99-1.78,2.5c-0.88,0.51-1.88,0.61-3.03,0.31c-1.15-0.31-1.97-0.89-2.48-1.75
		c-0.51-0.87-0.61-1.86-0.31-2.99c0.3-1.13,0.89-1.93,1.74-2.4c0.86-0.47,1.88-0.54,3.08-0.22L109.97,173.59z M107.29,178.52
		l0.9-3.37c-1-0.04-1.62,0.41-1.86,1.31C106.1,177.34,106.44,178.11,107.29,178.52z"/>
	<path d="M114.14,170.96l-0.53,1.99l-7.11-1.91l0.53-1.99l1.08,0.29c-0.74-0.72-1-1.53-0.75-2.42c0.08-0.28,0.21-0.55,0.41-0.82
		l1.78,0.78c-0.25,0.25-0.41,0.54-0.49,0.88c-0.31,1.14,0.25,1.9,1.67,2.28L114.14,170.96z"/>
	<path d="M110.48,152.58c-1.05,0.61-1.7,1.41-1.96,2.39c-0.26,0.98-0.12,1.91,0.43,2.8c0.54,0.89,1.36,1.48,2.42,1.77
		c1.07,0.29,2.05,0.18,2.95-0.33c0.9-0.5,1.48-1.27,1.76-2.3c0.14-0.51,0.17-0.99,0.09-1.44c-0.08-0.45-0.27-0.95-0.58-1.51
		l2.51,0.67c0.18,1.04,0.16,1.98-0.08,2.85c-0.43,1.62-1.35,2.84-2.74,3.67c-1.4,0.82-2.89,1.02-4.48,0.6
		c-1.6-0.43-2.8-1.35-3.63-2.79s-1.02-2.95-0.6-4.54c0.24-0.89,0.7-1.72,1.39-2.5L110.48,152.58z"/>
	<path d="M112.59,147.41c0.32-1.19,0.93-2.07,1.83-2.63c0.9-0.56,1.91-0.69,3.04-0.39c1.12,0.3,1.94,0.92,2.43,1.86
		c0.49,0.95,0.58,2.02,0.26,3.23c-0.32,1.21-0.94,2.08-1.86,2.64c-0.91,0.55-1.92,0.68-3.03,0.38c-1.11-0.3-1.92-0.93-2.41-1.88
		C112.35,149.69,112.27,148.61,112.59,147.41z M114.37,147.92c-0.15,0.55-0.08,1.08,0.2,1.57c0.28,0.5,0.7,0.82,1.25,0.97
		s1.08,0.08,1.57-0.21c0.5-0.29,0.82-0.71,0.96-1.26c0.15-0.55,0.08-1.09-0.2-1.58c-0.28-0.5-0.69-0.81-1.25-0.96
		c-0.55-0.15-1.07-0.08-1.57,0.21C114.83,146.94,114.52,147.36,114.37,147.92z"/>
	<path d="M109.65,138.53l12.3,3.29l-0.53,1.99l-12.3-3.29L109.65,138.53z"/>
	<path d="M110.69,134.64l12.3,3.29l-0.53,1.99l-12.3-3.29L110.69,134.64z"/>
	<path d="M122.14,128.18l-1.43,5.33c1.29,0.29,2.08-0.12,2.37-1.23c0.18-0.69,0.01-1.34-0.5-1.95l0.79-1.76
		c1.31,1.01,1.74,2.37,1.29,4.08c-0.31,1.16-0.9,1.99-1.78,2.5s-1.88,0.61-3.03,0.31c-1.15-0.31-1.97-0.89-2.48-1.75
		c-0.51-0.87-0.61-1.86-0.31-2.99c0.3-1.13,0.89-1.93,1.74-2.39s1.88-0.54,3.07-0.22L122.14,128.18z M119.46,133.11l0.9-3.37
		c-1-0.04-1.62,0.41-1.86,1.31C118.27,131.93,118.61,132.7,119.46,133.11z"/>
	<path d="M120.65,118.23l6.85,1.83c0.73,0.2,1.28,0.4,1.66,0.62c0.37,0.23,0.69,0.54,0.95,0.93c0.65,0.92,0.79,2.07,0.42,3.44
		s-1.17,2.28-2.4,2.73c-0.52,0.19-1.04,0.25-1.56,0.17l0.58-2.17c0.91,0.03,1.49-0.41,1.73-1.32c0.14-0.54,0.09-1.02-0.16-1.47
		c-0.23-0.38-0.69-0.66-1.36-0.85l-1.07-0.29c0.32,0.49,0.53,0.94,0.62,1.35c0.09,0.42,0.06,0.87-0.08,1.38
		c-0.26,0.97-0.82,1.69-1.69,2.14c-0.87,0.45-1.85,0.54-2.95,0.24c-1.1-0.29-1.92-0.87-2.48-1.72s-0.71-1.76-0.45-2.72
		c0.26-0.96,0.86-1.65,1.79-2.07l-0.92-0.25L120.65,118.23z M121.21,122.38c-0.15,0.55-0.08,1.07,0.2,1.57
		c0.28,0.5,0.7,0.82,1.25,0.96c0.55,0.15,1.08,0.08,1.57-0.21c0.5-0.29,0.82-0.7,0.96-1.25c0.15-0.54,0.08-1.07-0.21-1.57
		c-0.28-0.5-0.69-0.81-1.25-0.96c-0.55-0.15-1.07-0.08-1.57,0.2C121.68,121.41,121.36,121.83,121.21,122.38z"/>
	<path d="M126.93,110.31l-1.43,5.33c1.29,0.29,2.08-0.12,2.37-1.23c0.18-0.69,0.01-1.34-0.5-1.95l0.79-1.76
		c1.31,1.01,1.74,2.37,1.29,4.07c-0.31,1.16-0.9,1.99-1.78,2.51c-0.88,0.51-1.88,0.61-3.03,0.31c-1.15-0.31-1.97-0.89-2.48-1.75
		c-0.51-0.87-0.61-1.86-0.31-2.99c0.3-1.13,0.89-1.93,1.74-2.4c0.86-0.47,1.88-0.54,3.08-0.22L126.93,110.31z M124.25,115.24
		l0.9-3.37c-1-0.04-1.62,0.41-1.87,1.31C123.05,114.06,123.4,114.83,124.25,115.24z"/>
</g>
<circle fill="#FFFFFF" stroke="#000000" stroke-width="3" stroke-miterlimit="10" cx="172.06" cy="238" r="10"/>
<g>
	<path d="M166.4,219.7l8.12-0.46l-6.84-4.7l0.31-1.16l8.23-0.52l-6.75-4.63l0.6-2.25l10.07,7.11l-0.4,1.5l-7.81,0.51l6.48,4.48
		l-0.4,1.5l-12.21,0.88L166.4,219.7z"/>
	<path d="M179.76,200.73l-1.43,5.33c1.29,0.29,2.08-0.12,2.37-1.23c0.18-0.69,0.01-1.34-0.5-1.95l0.79-1.76
		c1.31,1.01,1.74,2.36,1.29,4.07c-0.31,1.16-0.9,1.99-1.78,2.5c-0.88,0.51-1.88,0.61-3.03,0.31c-1.15-0.31-1.97-0.89-2.48-1.75
		s-0.61-1.86-0.31-2.99c0.3-1.13,0.89-1.93,1.74-2.4c0.86-0.47,1.88-0.54,3.08-0.22L179.76,200.73z M177.08,205.66l0.9-3.37
		c-1-0.04-1.62,0.41-1.87,1.31C175.89,204.47,176.23,205.25,177.08,205.66z"/>
	<path d="M178.95,194.85c-0.42,0.33-0.68,0.64-0.76,0.94c-0.08,0.3-0.08,0.53-0.01,0.71c0.08,0.18,0.21,0.29,0.37,0.34
		s0.32,0.01,0.47-0.11c0.14-0.12,0.38-0.44,0.72-0.94s0.65-0.87,0.92-1.08c0.5-0.42,1.11-0.54,1.82-0.35
		c0.71,0.19,1.24,0.63,1.57,1.31c0.33,0.69,0.38,1.48,0.14,2.35c-0.29,1.08-0.92,1.87-1.91,2.38l-0.93-1.37
		c0.7-0.4,1.13-0.89,1.28-1.46c0.14-0.5-0.11-1-0.54-1.11c-0.22-0.06-0.39-0.04-0.54,0.07c-0.14,0.11-0.4,0.42-0.76,0.94
		c-0.36,0.52-0.65,0.87-0.88,1.04c-0.46,0.38-1.01,0.49-1.67,0.31c-0.67-0.18-1.14-0.56-1.43-1.16c-0.3-0.59-0.33-1.28-0.12-2.09
		s0.67-1.47,1.36-2.02L178.95,194.85z"/>
	<path d="M180.34,189.94l5.39,1.44l-0.53,1.99l-5.39-1.44l-0.21,0.79l-1.72-0.46l0.21-0.79l-2.43-0.65l0.53-1.99l2.43,0.65
		l0.38-1.41l1.72,0.46L180.34,189.94z"/>
	<path d="M184.51,181.32l3.65,0.98l-0.53,1.99l-3.78-1.01c-0.55-0.15-0.96-0.21-1.2-0.18c-0.24,0.03-0.45,0.13-0.64,0.29
		c-0.18,0.17-0.3,0.37-0.37,0.59c-0.12,0.45,0.02,0.99,0.4,1.36c0.19,0.19,0.61,0.37,1.24,0.53l3.65,0.98l-0.53,1.99l-7.11-1.91
		l0.53-1.99l0.83,0.22c-0.53-0.8-0.68-1.65-0.44-2.55c0.24-0.9,0.86-1.49,1.86-1.76c-0.72-0.79-0.95-1.66-0.69-2.62
		c0.25-0.95,0.78-1.54,1.58-1.78c0.48-0.14,1.08-0.12,1.83,0.08l4.59,1.23l-0.53,1.99l-3.89-1.04c-0.51-0.14-0.91-0.18-1.18-0.15
		c-0.47,0.07-0.76,0.35-0.89,0.84C182.63,180.33,183.17,180.96,184.51,181.32z"/>
	<path d="M183.54,170.19c0.32-1.19,0.93-2.07,1.83-2.63c0.9-0.56,1.91-0.69,3.04-0.39c1.12,0.3,1.94,0.92,2.43,1.86
		c0.49,0.95,0.58,2.02,0.26,3.23c-0.32,1.21-0.94,2.08-1.86,2.64c-0.91,0.55-1.92,0.68-3.03,0.38s-1.92-0.93-2.41-1.88
		C183.3,172.47,183.22,171.39,183.54,170.19z M185.32,170.7c-0.15,0.55-0.08,1.08,0.2,1.57c0.28,0.5,0.7,0.82,1.25,0.97
		s1.08,0.08,1.57-0.21c0.5-0.29,0.82-0.71,0.96-1.26c0.15-0.55,0.08-1.09-0.2-1.58c-0.28-0.5-0.69-0.81-1.25-0.96
		c-0.55-0.15-1.07-0.08-1.57,0.21C185.79,169.72,185.47,170.14,185.32,170.7z"/>
	<path d="M192.9,164.61l-0.53,1.99l-7.11-1.91l0.53-1.99l1.08,0.29c-0.74-0.72-1-1.53-0.75-2.42c0.07-0.28,0.21-0.55,0.41-0.82
		l1.78,0.78c-0.25,0.25-0.41,0.54-0.49,0.88c-0.3,1.14,0.26,1.9,1.67,2.28L192.9,164.61z"/>
	<path d="M192.58,152.88l-1.43,5.33c1.29,0.29,2.08-0.12,2.37-1.23c0.18-0.69,0.01-1.34-0.5-1.95l0.79-1.76
		c1.31,1.01,1.74,2.37,1.29,4.08c-0.31,1.16-0.9,1.99-1.78,2.5s-1.88,0.61-3.03,0.31c-1.15-0.31-1.97-0.89-2.48-1.76
		c-0.51-0.87-0.61-1.86-0.31-2.99c0.3-1.13,0.89-1.93,1.74-2.39s1.88-0.54,3.07-0.22L192.58,152.88z M189.9,157.8l0.9-3.37
		c-1-0.04-1.62,0.41-1.86,1.31C188.71,156.62,189.05,157.39,189.9,157.8z"/>
</g>
<circle fill="#FFFFFF" stroke="#000000" stroke-width="3" stroke-miterlimit="10" cx="249.12" cy="238" r="10"/>
<g>
	<path d="M253.98,224.23l-10.61-5.03l0.39-1.46l7.96-1.07l-6.33-5.02l0.4-1.47l11.64,1.16l-0.58,2.16l-7.02-0.82l6.09,4.85
		l-0.16,0.59l-7.68,1.06l6.46,2.91L253.98,224.23z"/>
	<path d="M252.23,202.34l0.53-1.99l7.11,1.91l-0.53,1.99l-0.92-0.25c0.6,0.82,0.77,1.71,0.51,2.68s-0.84,1.69-1.74,2.16
		c-0.9,0.47-1.89,0.57-2.95,0.28c-1.07-0.29-1.88-0.86-2.43-1.73c-0.55-0.86-0.7-1.77-0.44-2.71c0.25-0.95,0.85-1.64,1.79-2.1
		L252.23,202.34z M253.32,204.53c-0.15,0.56-0.08,1.09,0.2,1.57c0.28,0.5,0.7,0.82,1.25,0.96c0.55,0.15,1.08,0.08,1.57-0.21
		c0.5-0.29,0.82-0.7,0.96-1.25c0.15-0.54,0.08-1.07-0.21-1.57c-0.28-0.5-0.69-0.81-1.25-0.96c-0.55-0.15-1.07-0.08-1.56,0.19
		C253.78,203.56,253.46,203.98,253.32,204.53z"/>
	<path d="M260.91,198.37l-0.53,1.99l-7.11-1.91l0.53-1.99l1.08,0.29c-0.74-0.72-1-1.53-0.75-2.42c0.07-0.28,0.21-0.55,0.41-0.82
		l1.78,0.78c-0.25,0.25-0.41,0.54-0.49,0.88c-0.3,1.14,0.26,1.9,1.67,2.28L260.91,198.37z"/>
	<path d="M257.23,190.54l5.39,1.44l-0.53,1.99l-5.39-1.44l-0.21,0.79l-1.72-0.46l0.21-0.79l-2.43-0.65l0.53-1.99l2.43,0.65
		l0.38-1.41l1.72,0.46L257.23,190.54z"/>
	<path d="M252.26,185.43c0.09-0.33,0.28-0.58,0.57-0.75c0.29-0.17,0.61-0.21,0.93-0.12c0.33,0.09,0.58,0.29,0.76,0.58
		c0.18,0.3,0.22,0.62,0.13,0.95s-0.28,0.58-0.58,0.75c-0.29,0.17-0.62,0.21-0.95,0.13c-0.33-0.09-0.58-0.29-0.75-0.59
		C252.2,186.07,252.17,185.76,252.26,185.43z M256.72,185.58l7.11,1.91l-0.53,1.98l-7.11-1.91L256.72,185.58z"/>
	<path d="M257.22,183.71l0.53-1.99l0.89,0.24c-0.65-0.83-0.78-1.57-0.52-2.53c0.23-0.87,0.7-1.49,1.41-1.84
		c0.53-0.26,1.23-0.27,2.12-0.03l4.51,1.21l-0.53,1.99l-3.94-1.06c-0.54-0.15-0.95-0.19-1.2-0.11c-0.43,0.11-0.72,0.44-0.87,1.01
		c-0.27,1,0.25,1.68,1.57,2.04l3.68,0.99l-0.53,1.99L257.22,183.71z"/>
	<path d="M263.48,165.36l1.34-5c1.44,0.39,2.47,0.88,3.09,1.44c1.6,1.39,2.17,3.36,1.59,5.53c-0.45,1.66-1.35,2.89-2.71,3.69
		s-2.87,0.98-4.53,0.53c-1.66-0.44-2.88-1.36-3.68-2.75s-0.97-2.92-0.52-4.61c0.56-2.08,1.83-3.42,3.84-4.01l0.5,2.14
		c-1.26,0.37-2.06,1.17-2.39,2.4c-0.28,1.03-0.15,1.99,0.39,2.86s1.35,1.46,2.44,1.75s2.08,0.2,2.97-0.3
		c0.89-0.49,1.47-1.25,1.75-2.28c0.21-0.78,0.18-1.48-0.11-2.13c-0.28-0.64-0.76-1.1-1.44-1.36l-0.69,2.57L263.48,165.36z"/>
	<path d="M271.66,158.26l-0.53,1.99l-7.11-1.91l0.53-1.99l1.08,0.29c-0.74-0.72-1-1.53-0.75-2.42c0.08-0.28,0.21-0.55,0.41-0.82
		l1.78,0.78c-0.25,0.25-0.41,0.54-0.49,0.88c-0.3,1.14,0.26,1.9,1.68,2.28L271.66,158.26z"/>
	<path d="M266.35,148.74c0.32-1.19,0.93-2.07,1.83-2.63c0.9-0.56,1.91-0.69,3.03-0.39c1.12,0.3,1.94,0.92,2.43,1.86
		c0.49,0.95,0.58,2.02,0.26,3.23s-0.95,2.08-1.86,2.64c-0.91,0.55-1.92,0.68-3.03,0.38c-1.11-0.3-1.92-0.93-2.41-1.88
		C266.11,151.02,266.03,149.94,266.35,148.74z M268.13,149.25c-0.15,0.55-0.08,1.08,0.2,1.57c0.28,0.5,0.7,0.82,1.25,0.97
		s1.08,0.08,1.57-0.21c0.5-0.29,0.82-0.71,0.96-1.26c0.15-0.55,0.08-1.08-0.2-1.58c-0.28-0.5-0.69-0.81-1.25-0.96
		c-0.55-0.15-1.07-0.08-1.57,0.21S268.28,148.69,268.13,149.25z"/>
	<path d="M268.31,142.3l4.53-0.79l-3.53-2.93l0.6-2.24l6.28,5.61l-0.24,0.9l-8.23,1.69L268.31,142.3z"/>
	<path d="M275.83,129.77l-1.43,5.33c1.29,0.29,2.08-0.12,2.37-1.23c0.18-0.69,0.01-1.34-0.5-1.95l0.79-1.76
		c1.31,1.01,1.74,2.36,1.29,4.08c-0.31,1.16-0.9,1.99-1.78,2.5c-0.88,0.51-1.88,0.61-3.03,0.3c-1.15-0.31-1.97-0.89-2.48-1.75
		c-0.51-0.87-0.61-1.86-0.31-2.99c0.3-1.13,0.89-1.93,1.74-2.39c0.86-0.47,1.88-0.54,3.08-0.22L275.83,129.77z M273.15,134.7
		l0.9-3.37c-1-0.03-1.62,0.41-1.86,1.31C271.96,133.52,272.3,134.29,273.15,134.7z"/>
</g>
<circle fill="#FFFFFF" stroke="#000000" stroke-width="3" stroke-miterlimit="10" cx="326.18" cy="238" r="10"/>
<g>
	<path d="M330.62,216.53l-1.2,4.48l2.05,1.61l-0.61,2.27l-9.91-7.74l0.43-1.61l12.42-1.6l-0.61,2.29L330.62,216.53z M328.72,216.74
		l-4.35,0.48l3.51,2.64L328.72,216.74z"/>
	<path d="M322.3,207.66l12.3,3.29l-0.53,1.99l-12.3-3.29L322.3,207.66z"/>
	<path d="M323.34,203.77l6.11,1.64c-0.58-0.87-0.75-1.78-0.5-2.73c0.25-0.95,0.83-1.65,1.73-2.12c0.9-0.47,1.89-0.56,2.97-0.27
		c1.08,0.29,1.89,0.86,2.44,1.72c0.54,0.86,0.68,1.77,0.42,2.74c-0.26,0.97-0.86,1.66-1.79,2.07l0.92,0.25l-0.53,1.99l-12.3-3.29
		L323.34,203.77z M330.57,203.8c-0.15,0.55-0.08,1.07,0.2,1.57c0.28,0.5,0.7,0.82,1.25,0.96s1.08,0.08,1.57-0.21
		c0.5-0.29,0.81-0.7,0.96-1.25c0.15-0.55,0.08-1.07-0.21-1.57c-0.28-0.5-0.69-0.82-1.24-0.97c-0.55-0.15-1.07-0.08-1.57,0.21
		C331.04,202.83,330.72,203.25,330.57,203.8z"/>
	<path d="M326.56,195.71c0.09-0.33,0.28-0.58,0.57-0.75c0.29-0.17,0.61-0.21,0.93-0.12c0.33,0.09,0.59,0.29,0.76,0.58
		c0.18,0.3,0.22,0.62,0.13,0.95c-0.09,0.33-0.28,0.58-0.58,0.75c-0.29,0.17-0.62,0.21-0.94,0.12s-0.59-0.29-0.75-0.59
		C326.51,196.35,326.47,196.04,326.56,195.71z M331.02,195.86l7.11,1.91l-0.53,1.98l-7.11-1.91L331.02,195.86z"/>
	<path d="M332.29,190.21c0.32-1.19,0.93-2.07,1.83-2.63s1.91-0.69,3.03-0.39c1.12,0.3,1.94,0.92,2.43,1.86
		c0.49,0.95,0.58,2.02,0.26,3.23c-0.33,1.21-0.95,2.08-1.86,2.64c-0.91,0.55-1.92,0.68-3.03,0.38c-1.11-0.3-1.92-0.93-2.41-1.88
		C332.05,192.49,331.97,191.41,332.29,190.21z M334.08,190.72c-0.15,0.55-0.08,1.08,0.2,1.57c0.28,0.5,0.7,0.82,1.25,0.97
		s1.08,0.08,1.57-0.21c0.5-0.29,0.82-0.71,0.96-1.26c0.15-0.55,0.08-1.08-0.2-1.58c-0.28-0.5-0.69-0.81-1.25-0.96
		c-0.55-0.15-1.07-0.08-1.57,0.21S334.22,190.16,334.08,190.72z"/>
	<path d="M334.01,184.71l0.53-1.99l0.89,0.24c-0.65-0.83-0.78-1.57-0.52-2.53c0.23-0.87,0.7-1.49,1.41-1.84
		c0.53-0.26,1.23-0.27,2.12-0.03l4.51,1.21l-0.53,1.99l-3.94-1.06c-0.54-0.15-0.95-0.19-1.2-0.11c-0.43,0.11-0.72,0.44-0.87,1.01
		c-0.27,1,0.25,1.68,1.57,2.04l3.68,0.99l-0.53,1.99L334.01,184.71z"/>
</g>
<circle fill="#FFFFFF" stroke="#000000" stroke-width="3" stroke-miterlimit="10" cx="403.24" cy="238" r="10"/>
<g>
	<path d="M400.65,219.41c0.31,0.08,0.6,0.04,0.85-0.14c0.25-0.18,0.66-0.65,1.21-1.42c0.55-0.77,1.04-1.3,1.49-1.6
		c0.72-0.5,1.59-0.61,2.62-0.34c1.03,0.28,1.79,0.86,2.27,1.73s0.57,1.89,0.26,3.03c-0.42,1.55-1.45,2.61-3.09,3.2l-0.96-1.74
		c1.11-0.25,1.8-0.88,2.07-1.9c0.13-0.49,0.1-0.94-0.1-1.33c-0.21-0.39-0.53-0.65-0.99-0.77c-0.46-0.12-0.87-0.03-1.25,0.29
		c-0.19,0.15-0.57,0.64-1.14,1.46s-1.14,1.37-1.69,1.66c-0.55,0.29-1.19,0.33-1.91,0.14c-0.92-0.25-1.6-0.77-2.03-1.58
		c-0.43-0.81-0.51-1.7-0.25-2.69c0.33-1.22,1.02-2.18,2.08-2.9l1.16,1.51c-0.73,0.36-1.19,0.88-1.36,1.54
		c-0.12,0.44-0.1,0.83,0.06,1.19C400.09,219.11,400.33,219.33,400.65,219.41z"/>
	<path d="M405.72,211.55l5.39,1.44l-0.53,1.99l-5.39-1.44l-0.21,0.79l-1.72-0.46l0.21-0.79l-2.43-0.65l0.53-1.99l2.43,0.65
		l0.38-1.41l1.72,0.46L405.72,211.55z"/>
	<path d="M410.42,202.67l-1.43,5.33c1.29,0.29,2.08-0.12,2.37-1.23c0.18-0.69,0.01-1.34-0.5-1.95l0.79-1.76
		c1.31,1.01,1.74,2.37,1.29,4.08c-0.31,1.16-0.9,1.99-1.78,2.5c-0.88,0.51-1.88,0.61-3.03,0.31c-1.15-0.31-1.97-0.89-2.48-1.75
		c-0.51-0.87-0.61-1.86-0.31-2.99c0.3-1.13,0.89-1.93,1.74-2.4c0.86-0.47,1.88-0.54,3.08-0.22L410.42,202.67z M407.74,207.59
		l0.9-3.37c-1-0.04-1.62,0.41-1.86,1.31C406.54,206.42,406.89,207.19,407.74,207.59z"/>
	<path d="M407.2,199.15l4.53-0.79l-3.53-2.93l0.6-2.24l6.27,5.61l-0.24,0.9l-8.23,1.69L407.2,199.15z"/>
	<path d="M414.72,186.62l-1.43,5.33c1.29,0.29,2.08-0.12,2.37-1.23c0.18-0.69,0.01-1.34-0.5-1.95l0.79-1.76
		c1.31,1.01,1.74,2.37,1.29,4.08c-0.31,1.16-0.9,1.99-1.78,2.5c-0.88,0.51-1.88,0.61-3.03,0.3c-1.15-0.31-1.97-0.89-2.48-1.75
		c-0.51-0.87-0.61-1.86-0.31-2.99c0.3-1.13,0.89-1.93,1.74-2.4c0.86-0.47,1.88-0.54,3.08-0.22L414.72,186.62z M412.04,191.54
		l0.9-3.37c-1-0.04-1.62,0.41-1.87,1.31C410.84,190.36,411.19,191.13,412.04,191.54z"/>
	<path d="M411.24,184.07l0.53-1.99l0.89,0.24c-0.65-0.83-0.78-1.57-0.52-2.53c0.23-0.87,0.7-1.49,1.41-1.84
		c0.53-0.26,1.23-0.27,2.12-0.03l4.51,1.21l-0.53,1.99l-3.94-1.06c-0.54-0.15-0.95-0.19-1.2-0.11c-0.43,0.11-0.72,0.44-0.87,1.01
		c-0.27,1,0.25,1.68,1.57,2.04l3.68,0.99l-0.53,1.99L411.24,184.07z"/>
	<path d="M416.29,171.88c-0.42,0.33-0.68,0.64-0.76,0.94c-0.08,0.3-0.08,0.53-0.01,0.71c0.08,0.18,0.21,0.3,0.37,0.34
		s0.32,0.01,0.47-0.12c0.14-0.12,0.38-0.44,0.72-0.94c0.34-0.5,0.65-0.87,0.92-1.08c0.5-0.42,1.11-0.55,1.82-0.35
		s1.24,0.63,1.57,1.31c0.33,0.69,0.38,1.48,0.14,2.35c-0.29,1.07-0.92,1.87-1.91,2.38l-0.93-1.37c0.7-0.4,1.13-0.89,1.29-1.46
		c0.14-0.5-0.11-1-0.54-1.11c-0.22-0.06-0.39-0.04-0.54,0.07c-0.14,0.11-0.4,0.42-0.76,0.94c-0.36,0.52-0.65,0.87-0.88,1.04
		c-0.46,0.38-1.01,0.49-1.67,0.31c-0.67-0.18-1.14-0.56-1.43-1.16c-0.3-0.59-0.33-1.29-0.12-2.09s0.67-1.47,1.36-2.02L416.29,171.88
		z"/>
	<path d="M416.14,164.9c0.32-1.19,0.93-2.07,1.83-2.63c0.9-0.56,1.91-0.69,3.04-0.39c1.12,0.3,1.94,0.92,2.43,1.86
		c0.49,0.95,0.58,2.02,0.26,3.23s-0.94,2.08-1.86,2.64c-0.91,0.55-1.92,0.68-3.03,0.38c-1.11-0.3-1.92-0.93-2.41-1.88
		C415.9,167.17,415.82,166.1,416.14,164.9z M417.92,165.4c-0.15,0.55-0.08,1.08,0.2,1.57c0.28,0.5,0.7,0.82,1.25,0.97
		s1.08,0.08,1.57-0.21c0.5-0.29,0.82-0.71,0.96-1.26c0.15-0.55,0.08-1.09-0.2-1.58c-0.28-0.5-0.69-0.81-1.25-0.96
		c-0.55-0.15-1.07-0.08-1.57,0.21C418.38,164.43,418.07,164.85,417.92,165.4z"/>
	<path d="M417.85,159.4l0.53-1.99l0.89,0.24c-0.65-0.83-0.78-1.57-0.52-2.53c0.23-0.87,0.7-1.49,1.41-1.84
		c0.52-0.26,1.23-0.27,2.12-0.03l4.51,1.21l-0.53,1.99l-3.94-1.06c-0.54-0.15-0.95-0.19-1.2-0.11c-0.43,0.11-0.72,0.44-0.87,1.01
		c-0.27,1,0.25,1.68,1.57,2.04l3.68,0.99l-0.53,1.99L417.85,159.4z"/>
</g>
<circle fill="#FFFFFF" stroke="#000000" stroke-width="3" stroke-miterlimit="10" cx="480.29" cy="238" r="10"/>
<g>
	<path d="M485.16,224.23l-10.61-5.03l0.39-1.46l7.96-1.07l-6.33-5.02l0.4-1.47l11.64,1.16l-0.58,2.16l-7.02-0.82l6.09,4.85
		l-0.16,0.59l-7.68,1.06l6.46,2.91L485.16,224.23z"/>
	<path d="M482.71,204.02c0.32-1.2,0.93-2.07,1.83-2.63c0.9-0.56,1.91-0.69,3.04-0.39s1.94,0.92,2.43,1.86
		c0.49,0.95,0.58,2.02,0.26,3.23c-0.32,1.21-0.94,2.08-1.86,2.64c-0.91,0.55-1.92,0.68-3.03,0.38c-1.12-0.3-1.92-0.93-2.41-1.88
		C482.47,206.29,482.39,205.21,482.71,204.02z M484.49,204.52c-0.15,0.55-0.08,1.08,0.2,1.57c0.28,0.5,0.7,0.82,1.25,0.97
		c0.55,0.15,1.08,0.08,1.57-0.21c0.5-0.29,0.82-0.71,0.97-1.26c0.15-0.55,0.08-1.08-0.2-1.58c-0.28-0.5-0.69-0.81-1.25-0.96
		c-0.55-0.15-1.07-0.08-1.57,0.21C484.96,203.55,484.64,203.97,484.49,204.52z"/>
	<path d="M484.96,196.53l4.03,1.08c1.08,0.29,1.76-0.04,2.02-1.01c0.26-0.97-0.16-1.6-1.24-1.89l-4.03-1.08l0.53-1.99l4.35,1.17
		c1.92,0.52,2.66,2.02,2.07,4.23s-1.99,3.16-3.91,2.65l-4.35-1.17L484.96,196.53z"/>
	<path d="M486.78,189.74l0.53-1.99l0.89,0.24c-0.65-0.83-0.78-1.57-0.52-2.53c0.23-0.87,0.7-1.49,1.41-1.84
		c0.53-0.26,1.23-0.27,2.12-0.03l4.51,1.21l-0.53,1.99l-3.95-1.06c-0.54-0.15-0.95-0.19-1.2-0.11c-0.43,0.11-0.72,0.44-0.87,1.01
		c-0.27,1,0.25,1.68,1.57,2.04l3.68,0.99l-0.53,1.99L486.78,189.74z"/>
	<path d="M491.38,179.45l5.39,1.44l-0.53,1.99l-5.39-1.44l-0.21,0.79l-1.72-0.46l0.21-0.79l-2.43-0.65l0.53-1.99l2.43,0.65
		l0.38-1.41l1.72,0.46L491.38,179.45z"/>
	<path d="M488.83,165.73c0.44-1.63,1.36-2.85,2.77-3.68c1.41-0.83,2.92-1.03,4.54-0.6c1.61,0.43,2.81,1.36,3.61,2.8
		c0.79,1.43,0.96,2.97,0.52,4.62c-0.44,1.65-1.37,2.88-2.78,3.7c-1.41,0.82-2.92,1.01-4.52,0.58s-2.8-1.37-3.6-2.81
		C488.58,168.89,488.4,167.35,488.83,165.73z M490.78,166.27c-0.27,1-0.13,1.97,0.41,2.88c0.54,0.92,1.33,1.52,2.37,1.8
		c1.04,0.28,2.03,0.16,2.96-0.36s1.53-1.27,1.8-2.29c0.27-1.01,0.13-1.97-0.41-2.89c-0.55-0.91-1.34-1.5-2.38-1.78
		c-1.04-0.28-2.03-0.16-2.95,0.35C491.65,164.5,491.05,165.27,490.78,166.27z"/>
	<path d="M490.27,155.96l12.3,3.3l-0.53,1.99l-12.3-3.3L490.27,155.96z"/>
	<path d="M492.03,153.35c0.09-0.33,0.28-0.58,0.57-0.75c0.29-0.17,0.61-0.21,0.93-0.12c0.33,0.09,0.58,0.29,0.76,0.58
		c0.18,0.3,0.22,0.62,0.13,0.95c-0.09,0.33-0.28,0.58-0.58,0.75c-0.29,0.17-0.62,0.21-0.95,0.12c-0.33-0.09-0.58-0.29-0.75-0.59
		C491.97,154,491.94,153.68,492.03,153.35z M496.49,153.5l7.11,1.91l-0.53,1.98l-7.11-1.91L496.49,153.5z"/>
	<path d="M497.36,150.26l4.53-0.79l-3.53-2.93l0.6-2.24l6.27,5.61l-0.24,0.9l-8.23,1.69L497.36,150.26z"/>
	<path d="M504.88,137.73l-1.43,5.33c1.29,0.29,2.08-0.12,2.37-1.23c0.18-0.69,0.01-1.34-0.5-1.95l0.79-1.76
		c1.31,1.01,1.74,2.37,1.29,4.07c-0.31,1.16-0.9,1.99-1.78,2.5c-0.88,0.51-1.88,0.61-3.03,0.31c-1.15-0.31-1.97-0.89-2.48-1.75
		s-0.61-1.86-0.31-2.99s0.89-1.93,1.74-2.4c0.86-0.47,1.88-0.54,3.08-0.22L504.88,137.73z M502.2,142.66l0.9-3.37
		c-1-0.03-1.62,0.41-1.86,1.31C501,141.48,501.34,142.25,502.2,142.66z"/>
</g>
<circle fill="#FFFFFF" stroke="#000000" stroke-width="3" stroke-miterlimit="10" cx="557.35" cy="238" r="10"/>
<g>
	<path d="M558.55,220.32l4.4,1.18l-0.57,2.13l-10.95-2.93l0.85-3.17c0.33-1.24,0.84-2.1,1.52-2.58c0.79-0.56,1.72-0.7,2.75-0.42
		c1.04,0.28,1.76,0.82,2.15,1.63c0.25,0.5,0.35,1.06,0.29,1.69l5.53-2.21l-0.7,2.63l-5.19,1.77L558.55,220.32z M557.04,219.92
		l0.17-0.63c0.36-1.35-0.05-2.25-1.12-2.53c-1.1-0.29-1.83,0.24-2.19,1.61l-0.18,0.66L557.04,219.92z"/>
	<path d="M558.42,209.08c0.32-1.19,0.93-2.07,1.83-2.63c0.9-0.56,1.91-0.69,3.04-0.39c1.12,0.3,1.94,0.92,2.43,1.86
		c0.49,0.95,0.58,2.02,0.26,3.23c-0.32,1.21-0.94,2.08-1.86,2.64c-0.91,0.55-1.92,0.68-3.03,0.38c-1.11-0.3-1.92-0.93-2.41-1.88
		C558.18,211.35,558.1,210.27,558.42,209.08z M560.2,209.58c-0.15,0.55-0.08,1.08,0.2,1.57c0.28,0.5,0.7,0.82,1.25,0.97
		s1.08,0.08,1.57-0.21c0.5-0.29,0.82-0.71,0.96-1.26c0.15-0.55,0.08-1.09-0.2-1.58c-0.28-0.5-0.69-0.81-1.25-0.96
		c-0.55-0.15-1.07-0.08-1.57,0.21S560.35,209.03,560.2,209.58z"/>
	<path d="M560.38,202.64l4.61-0.77l-3.78-3.09l0.23-0.85l4.88-0.77l-3.66-3.02l0.59-2.22l6.27,5.62l-0.24,0.9l-4.83,0.77l3.81,3.05
		l-0.25,0.91l-8.23,1.7L560.38,202.64z"/>
	<path d="M563.52,190.93l0.53-1.99l0.89,0.24c-0.65-0.83-0.78-1.57-0.52-2.53c0.23-0.87,0.7-1.49,1.41-1.84
		c0.53-0.26,1.23-0.27,2.12-0.03l4.51,1.21l-0.53,1.99l-3.95-1.06c-0.54-0.15-0.95-0.19-1.2-0.11c-0.43,0.11-0.72,0.44-0.87,1.01
		c-0.27,1,0.25,1.68,1.57,2.04l3.68,0.99l-0.53,1.99L563.52,190.93z"/>
	<path d="M568.12,180.64l5.39,1.44l-0.53,1.99l-5.39-1.44l-0.21,0.79l-1.72-0.46l0.21-0.79l-2.43-0.65l0.53-1.99l2.43,0.65
		l0.38-1.41l1.72,0.46L568.12,180.64z"/>
	<path d="M574.73,177.55l-0.53,1.99l-7.11-1.91l0.53-1.99l1.08,0.29c-0.74-0.72-1-1.53-0.75-2.42c0.08-0.28,0.21-0.55,0.41-0.82
		l1.78,0.78c-0.25,0.25-0.41,0.54-0.49,0.88c-0.3,1.14,0.26,1.9,1.68,2.28L574.73,177.55z"/>
	<path d="M574.41,165.82l-1.43,5.33c1.29,0.29,2.08-0.12,2.37-1.23c0.19-0.69,0.02-1.34-0.5-1.95l0.79-1.76
		c1.31,1.01,1.74,2.36,1.29,4.07c-0.31,1.16-0.9,1.99-1.78,2.5c-0.88,0.51-1.88,0.61-3.03,0.31c-1.15-0.31-1.97-0.89-2.48-1.75
		c-0.51-0.87-0.61-1.86-0.31-2.99c0.3-1.13,0.89-1.93,1.74-2.4c0.86-0.47,1.88-0.54,3.08-0.22L574.41,165.82z M571.73,170.75
		l0.9-3.37c-1-0.04-1.62,0.41-1.86,1.31C570.53,169.56,570.88,170.34,571.73,170.75z"/>
	<path d="M576.69,157.32l-1.43,5.33c1.29,0.29,2.08-0.12,2.37-1.23c0.19-0.69,0.02-1.34-0.5-1.95l0.79-1.76
		c1.31,1.01,1.74,2.37,1.29,4.07c-0.31,1.16-0.9,1.99-1.78,2.5c-0.88,0.51-1.88,0.61-3.03,0.31c-1.15-0.31-1.97-0.89-2.48-1.75
		c-0.51-0.87-0.61-1.86-0.31-2.99c0.3-1.13,0.89-1.93,1.74-2.4c0.86-0.47,1.88-0.54,3.08-0.22L576.69,157.32z M574.01,162.25
		l0.9-3.37c-1-0.04-1.62,0.41-1.86,1.31C572.81,161.07,573.15,161.84,574.01,162.25z"/>
	<path d="M581.35,152.85l-10.61-5.03l0.39-1.46l7.96-1.07l-6.33-5.02l0.4-1.48l11.64,1.16l-0.58,2.16l-7.02-0.82l6.09,4.85
		l-0.16,0.59l-7.68,1.06l6.46,2.91L581.35,152.85z"/>
	<path d="M574.19,134.31c0.09-0.33,0.28-0.58,0.57-0.75s0.61-0.21,0.93-0.12c0.33,0.09,0.59,0.29,0.76,0.58
		c0.18,0.3,0.22,0.62,0.13,0.95c-0.09,0.33-0.28,0.58-0.58,0.75c-0.29,0.17-0.62,0.21-0.94,0.12s-0.58-0.29-0.75-0.59
		C574.13,134.96,574.1,134.64,574.19,134.31z M578.65,134.47l7.11,1.91l-0.53,1.98l-7.11-1.91L578.65,134.47z"/>
	<path d="M574.5,129.21l12.3,3.3l-0.53,1.99l-12.3-3.3L574.5,129.21z"/>
	<path d="M575.54,125.33l12.3,3.3l-0.53,1.99l-12.3-3.3L575.54,125.33z"/>
	<path d="M583.94,121.37c-0.42,0.33-0.68,0.64-0.76,0.94c-0.08,0.3-0.08,0.53-0.01,0.71c0.08,0.18,0.21,0.3,0.37,0.34
		s0.32,0.01,0.47-0.11c0.14-0.12,0.38-0.44,0.72-0.94c0.34-0.5,0.65-0.87,0.92-1.08c0.5-0.43,1.11-0.55,1.82-0.35
		c0.71,0.19,1.24,0.63,1.56,1.31c0.33,0.69,0.38,1.48,0.14,2.35c-0.29,1.07-0.92,1.87-1.91,2.38l-0.93-1.37
		c0.7-0.4,1.13-0.89,1.29-1.46c0.13-0.5-0.11-1-0.54-1.11c-0.22-0.06-0.39-0.04-0.54,0.07c-0.14,0.11-0.4,0.42-0.76,0.94
		c-0.36,0.52-0.65,0.87-0.88,1.04c-0.46,0.38-1.01,0.49-1.67,0.31c-0.67-0.18-1.14-0.56-1.43-1.16c-0.3-0.59-0.34-1.29-0.12-2.09
		s0.67-1.47,1.36-2.02L583.94,121.37z"/>
</g>
<circle fill="#FFFFFF" stroke="#000000" stroke-width="3" stroke-miterlimit="10" cx="634.41" cy="238" r="10"/>
<g>
	<path d="M635.95,220.41l4.06,1.09l-0.57,2.13l-10.95-2.93l0.86-3.2c0.19-0.71,0.41-1.27,0.64-1.67c0.25-0.4,0.57-0.73,0.97-1
		c0.87-0.56,1.83-0.7,2.87-0.43c1.03,0.28,1.79,0.81,2.28,1.58s0.56,1.79,0.22,3.05L635.95,220.41z M634.1,219.92l0.23-0.87
		c0.36-1.34,0.01-2.15-1.04-2.43c-1.11-0.3-1.77,0.2-2.18,1.7l-0.2,0.74L634.1,219.92z"/>
	<path d="M640.27,207.61l-1.43,5.33c1.29,0.29,2.08-0.12,2.37-1.23c0.19-0.69,0.02-1.34-0.5-1.95l0.79-1.76
		c1.31,1.01,1.74,2.37,1.29,4.08c-0.31,1.16-0.9,1.99-1.78,2.5c-0.88,0.51-1.88,0.61-3.03,0.31c-1.15-0.31-1.97-0.89-2.48-1.76
		c-0.51-0.87-0.61-1.86-0.31-2.99c0.3-1.13,0.89-1.93,1.74-2.39c0.86-0.47,1.88-0.54,3.08-0.22L640.27,207.61z M637.59,212.53
		l0.9-3.37c-1-0.04-1.62,0.41-1.86,1.31C636.4,211.35,636.74,212.12,637.59,212.53z"/>
	<path d="M638.25,199.61l0.53-1.99l7.11,1.91l-0.53,1.99l-0.92-0.25c0.6,0.82,0.77,1.71,0.51,2.68c-0.26,0.97-0.84,1.69-1.74,2.16
		c-0.9,0.47-1.89,0.57-2.95,0.28c-1.07-0.29-1.88-0.87-2.43-1.73c-0.55-0.86-0.7-1.77-0.44-2.71c0.25-0.95,0.85-1.64,1.79-2.1
		L638.25,199.61z M639.34,201.8c-0.15,0.56-0.08,1.09,0.2,1.57c0.28,0.5,0.7,0.82,1.25,0.96c0.55,0.15,1.08,0.08,1.57-0.21
		c0.5-0.29,0.82-0.7,0.96-1.25c0.15-0.54,0.08-1.07-0.21-1.57c-0.28-0.5-0.69-0.81-1.25-0.96c-0.55-0.15-1.07-0.08-1.56,0.19
		C639.81,200.82,639.49,201.24,639.34,201.8z"/>
	<path d="M646.94,195.63l-0.53,1.99l-7.11-1.91l0.53-1.99l1.08,0.29c-0.74-0.72-1-1.53-0.75-2.42c0.08-0.28,0.21-0.55,0.41-0.82
		l1.78,0.78c-0.25,0.25-0.41,0.54-0.49,0.88c-0.3,1.14,0.26,1.9,1.68,2.28L646.94,195.63z"/>
	<path d="M636.24,186.37l12.3,3.3l-0.53,1.99l-12.3-3.3L636.24,186.37z"/>
	<path d="M638.21,179.01l0.53-1.99l12.3,3.29l-0.53,1.99l-0.92-0.25c0.6,0.82,0.77,1.71,0.51,2.68c-0.26,0.97-0.84,1.69-1.74,2.16
		c-0.9,0.47-1.89,0.57-2.95,0.28s-1.88-0.87-2.43-1.73c-0.55-0.86-0.69-1.77-0.44-2.71c0.25-0.95,0.85-1.65,1.79-2.1L638.21,179.01z
		 M644.49,182.59c-0.15,0.56-0.08,1.09,0.2,1.57c0.28,0.5,0.7,0.82,1.25,0.96c0.55,0.15,1.08,0.08,1.57-0.21
		c0.5-0.29,0.82-0.7,0.96-1.25c0.15-0.54,0.08-1.07-0.21-1.57c-0.28-0.5-0.69-0.81-1.25-0.96c-0.55-0.15-1.07-0.08-1.56,0.19
		C644.95,181.62,644.64,182.04,644.49,182.59z"/>
	<path d="M645.92,171l0.53-1.99l7.11,1.91l-0.53,1.99l-0.92-0.25c0.6,0.82,0.77,1.71,0.51,2.68c-0.26,0.97-0.84,1.69-1.74,2.16
		c-0.9,0.47-1.89,0.57-2.95,0.28c-1.07-0.29-1.88-0.87-2.43-1.73c-0.55-0.86-0.7-1.77-0.44-2.71s0.85-1.65,1.79-2.1L645.92,171z
		 M647.01,173.19c-0.15,0.56-0.08,1.09,0.2,1.57c0.28,0.5,0.7,0.82,1.25,0.96s1.08,0.08,1.57-0.21c0.5-0.29,0.81-0.7,0.96-1.25
		c0.15-0.55,0.08-1.07-0.21-1.57c-0.28-0.5-0.69-0.81-1.25-0.96c-0.55-0.15-1.07-0.08-1.56,0.19
		C647.48,172.21,647.16,172.64,647.01,173.19z"/>
	<path d="M642.31,163.73l12.3,3.3l-0.53,1.99l-12.3-3.3L642.31,163.73z"/>
	<path d="M653.76,157.27l-1.43,5.33c1.29,0.29,2.08-0.12,2.37-1.23c0.18-0.69,0.01-1.34-0.5-1.95l0.79-1.76
		c1.31,1.01,1.74,2.37,1.29,4.08c-0.31,1.16-0.9,1.99-1.78,2.5c-0.88,0.51-1.88,0.61-3.03,0.3c-1.15-0.31-1.97-0.89-2.48-1.75
		c-0.51-0.87-0.61-1.86-0.31-2.99c0.3-1.13,0.89-1.93,1.74-2.4c0.86-0.47,1.88-0.54,3.08-0.22L653.76,157.27z M651.08,162.2
		l0.9-3.37c-1-0.04-1.62,0.41-1.86,1.31C649.88,161.02,650.23,161.79,651.08,162.2z"/>
</g>
<circle fill="#FFFFFF" stroke="#000000" stroke-width="3" stroke-miterlimit="10" cx="711.47" cy="238" r="10"/>
<g>
	<path d="M716.5,223.63l-10.95-2.93l0.84-3.14c0.43-1.59,1.2-2.79,2.32-3.58c0.67-0.48,1.42-0.8,2.25-0.94
		c0.83-0.15,1.65-0.11,2.47,0.11c0.82,0.22,1.55,0.6,2.2,1.15c0.65,0.55,1.14,1.21,1.49,1.97c0.58,1.22,0.65,2.63,0.22,4.24
		L716.5,223.63z M715.22,221l0.15-0.58c0.35-1.31,0.32-2.36-0.09-3.15c-0.45-0.92-1.39-1.64-2.44-1.93
		c-1.12-0.3-2.13-0.15-3.04,0.46c-0.77,0.5-1.33,1.39-1.67,2.68l-0.15,0.58L715.22,221z"/>
	<path d="M712.78,209.07l4.03,1.08c1.08,0.29,1.76-0.04,2.02-1.02c0.26-0.97-0.16-1.6-1.24-1.89l-4.03-1.08l0.53-1.99l4.35,1.17
		c1.92,0.52,2.66,2.02,2.07,4.23c-0.59,2.21-1.99,3.16-3.91,2.65l-4.35-1.17L712.78,209.07z"/>
	<path d="M714.6,202.28l0.53-1.99l0.89,0.24c-0.65-0.83-0.78-1.57-0.52-2.53c0.23-0.87,0.7-1.49,1.41-1.84
		c0.53-0.26,1.23-0.27,2.12-0.03l4.51,1.21l-0.53,1.99l-3.94-1.06c-0.54-0.15-0.95-0.18-1.2-0.11c-0.43,0.11-0.72,0.44-0.87,1.01
		c-0.27,1,0.25,1.68,1.57,2.04l3.68,0.99l-0.53,1.99L714.6,202.28z"/>
	<path d="M720.54,188.78c-0.55,0.41-0.9,0.9-1.05,1.47c-0.15,0.57-0.09,1.09,0.18,1.58c0.27,0.49,0.69,0.81,1.27,0.97
		c0.58,0.15,1.1,0.09,1.58-0.2c0.48-0.29,0.8-0.72,0.96-1.3c0.16-0.58,0.11-1.17-0.15-1.78l1.93,0.52c0.14,0.67,0.12,1.31-0.04,1.94
		c-0.3,1.11-0.9,1.93-1.83,2.48c-0.91,0.55-1.91,0.68-2.98,0.4c-1.07-0.29-1.87-0.91-2.41-1.85c-0.53-0.94-0.65-1.97-0.35-3.08
		c0.17-0.65,0.48-1.21,0.91-1.69L720.54,188.78z"/>
	<path d="M720.24,181.23l0.53-1.99l7.11,1.91l-0.53,1.99l-0.92-0.25c0.6,0.82,0.77,1.71,0.51,2.68c-0.26,0.97-0.84,1.69-1.74,2.16
		c-0.9,0.47-1.89,0.57-2.96,0.28c-1.07-0.29-1.88-0.87-2.43-1.73c-0.55-0.86-0.7-1.77-0.44-2.71c0.25-0.95,0.85-1.64,1.79-2.1
		L720.24,181.23z M721.32,183.42c-0.15,0.56-0.08,1.09,0.2,1.57c0.28,0.5,0.7,0.82,1.25,0.96c0.55,0.15,1.08,0.08,1.57-0.21
		c0.5-0.29,0.81-0.7,0.96-1.25c0.15-0.54,0.08-1.07-0.21-1.57c-0.28-0.5-0.69-0.81-1.25-0.96c-0.55-0.15-1.07-0.08-1.56,0.19
		C721.79,182.45,721.47,182.87,721.32,183.42z"/>
	<path d="M721.28,177.34l0.53-1.99l0.89,0.24c-0.65-0.83-0.78-1.57-0.52-2.53c0.23-0.87,0.7-1.49,1.41-1.84
		c0.53-0.26,1.23-0.27,2.12-0.03l4.51,1.21l-0.53,1.99l-3.94-1.06c-0.54-0.15-0.95-0.18-1.2-0.11c-0.43,0.11-0.72,0.44-0.87,1.01
		c-0.27,1,0.25,1.68,1.57,2.04l3.68,0.99l-0.53,1.99L721.28,177.34z"/>
	<path d="M723.89,167.57l4.61-0.77l-3.78-3.09l0.23-0.85l4.88-0.77l-3.66-3.02l0.6-2.22l6.27,5.62l-0.24,0.9l-4.83,0.77l3.81,3.05
		l-0.25,0.91l-8.23,1.7L723.89,167.57z"/>
	<path d="M727.7,152.47c0.32-1.19,0.93-2.07,1.83-2.63c0.9-0.56,1.91-0.69,3.04-0.39c1.12,0.3,1.94,0.92,2.43,1.86
		c0.49,0.95,0.58,2.02,0.26,3.23s-0.95,2.08-1.86,2.64c-0.91,0.55-1.92,0.68-3.03,0.38c-1.11-0.3-1.92-0.93-2.41-1.87
		C727.46,154.75,727.38,153.67,727.7,152.47z M729.48,152.98c-0.15,0.55-0.08,1.08,0.2,1.57c0.28,0.5,0.7,0.82,1.25,0.97
		s1.08,0.08,1.57-0.21c0.5-0.29,0.82-0.71,0.96-1.26s0.08-1.09-0.2-1.58c-0.28-0.5-0.69-0.81-1.25-0.96
		c-0.55-0.15-1.07-0.08-1.57,0.21C729.95,152,729.63,152.42,729.48,152.98z"/>
	<path d="M730.19,143.2c0.32-1.2,0.93-2.07,1.83-2.63c0.9-0.56,1.91-0.69,3.04-0.39c1.12,0.3,1.94,0.92,2.43,1.86
		c0.49,0.95,0.58,2.02,0.26,3.23c-0.32,1.21-0.94,2.08-1.86,2.64c-0.91,0.55-1.92,0.68-3.03,0.38s-1.92-0.93-2.41-1.88
		C729.95,145.47,729.87,144.39,730.19,143.2z M731.97,143.7c-0.15,0.55-0.08,1.08,0.2,1.57c0.28,0.5,0.7,0.82,1.25,0.97
		c0.55,0.15,1.08,0.08,1.57-0.21c0.5-0.29,0.82-0.71,0.97-1.26c0.15-0.55,0.08-1.09-0.2-1.58c-0.28-0.5-0.69-0.81-1.25-0.96
		c-0.55-0.15-1.07-0.08-1.57,0.21C732.44,142.72,732.12,143.15,731.97,143.7z"/>
	<path d="M728.18,130.85l0.53-1.99l12.3,3.3l-0.53,1.99l-0.92-0.25c0.6,0.82,0.77,1.71,0.51,2.68c-0.26,0.97-0.84,1.69-1.74,2.16
		c-0.9,0.47-1.89,0.57-2.95,0.28c-1.07-0.29-1.88-0.87-2.43-1.73c-0.55-0.86-0.7-1.77-0.44-2.71c0.25-0.95,0.85-1.65,1.79-2.1
		L728.18,130.85z M734.45,134.43c-0.15,0.56-0.08,1.09,0.2,1.57c0.28,0.5,0.7,0.82,1.25,0.96s1.08,0.08,1.57-0.21
		c0.5-0.29,0.82-0.7,0.96-1.25c0.15-0.55,0.08-1.07-0.21-1.57c-0.28-0.5-0.69-0.81-1.25-0.96c-0.55-0.15-1.07-0.08-1.56,0.19
		C734.92,133.46,734.6,133.88,734.45,134.43z"/>
	<path d="M737.11,124.91c-0.42,0.33-0.68,0.64-0.76,0.94c-0.08,0.3-0.08,0.53-0.01,0.71c0.08,0.18,0.21,0.29,0.37,0.34
		s0.32,0.01,0.47-0.11c0.14-0.12,0.38-0.44,0.72-0.94c0.34-0.5,0.65-0.87,0.92-1.08c0.5-0.42,1.11-0.54,1.82-0.35
		c0.71,0.19,1.24,0.63,1.56,1.31c0.33,0.69,0.38,1.48,0.14,2.35c-0.29,1.07-0.92,1.87-1.91,2.38l-0.93-1.37
		c0.7-0.4,1.13-0.89,1.28-1.46c0.14-0.5-0.11-1-0.53-1.12c-0.22-0.06-0.39-0.04-0.54,0.07c-0.14,0.11-0.4,0.42-0.76,0.94
		c-0.36,0.52-0.65,0.87-0.88,1.04c-0.46,0.39-1.01,0.49-1.67,0.31c-0.67-0.18-1.14-0.56-1.43-1.16c-0.3-0.59-0.34-1.28-0.12-2.09
		s0.67-1.47,1.36-2.02L737.11,124.91z"/>
</g>
<circle fill="#FFFFFF" stroke="#000000" stroke-width="3" stroke-miterlimit="10" cx="788.53" cy="238" r="10"/>
<g>
	<path d="M793.4,224.23l-10.61-5.03l0.39-1.46l7.96-1.07l-6.33-5.02l0.4-1.47l11.64,1.16l-0.58,2.16l-7.02-0.82l6.09,4.85
		l-0.16,0.59l-7.68,1.06l6.46,2.91L793.4,224.23z"/>
	<path d="M786.24,205.69c0.09-0.33,0.28-0.58,0.57-0.75s0.61-0.21,0.93-0.12c0.33,0.09,0.59,0.29,0.76,0.58
		c0.18,0.3,0.22,0.62,0.13,0.95c-0.09,0.33-0.28,0.58-0.58,0.75c-0.29,0.17-0.62,0.21-0.94,0.12s-0.58-0.29-0.75-0.59
		C786.19,206.34,786.15,206.02,786.24,205.69z M790.7,205.84l7.11,1.91l-0.53,1.98l-7.11-1.91L790.7,205.84z"/>
	<path d="M786.55,200.59l12.3,3.3l-0.53,1.99l-12.3-3.3L786.55,200.59z"/>
	<path d="M792.6,198.73l4.53-0.79l-3.53-2.93l0.6-2.24l6.28,5.61l-0.24,0.9l-8.23,1.69L792.6,198.73z"/>
	<path d="M795.83,186.71l0.53-1.99l7.11,1.91l-0.53,1.99l-0.92-0.25c0.6,0.82,0.77,1.71,0.51,2.68s-0.84,1.69-1.74,2.16
		c-0.9,0.47-1.89,0.57-2.95,0.28c-1.07-0.29-1.88-0.86-2.43-1.73c-0.55-0.86-0.69-1.77-0.44-2.71c0.25-0.95,0.85-1.64,1.79-2.1
		L795.83,186.71z M796.91,188.9c-0.15,0.56-0.08,1.09,0.2,1.57c0.28,0.5,0.7,0.82,1.25,0.96c0.55,0.15,1.08,0.08,1.57-0.21
		c0.5-0.29,0.81-0.7,0.96-1.25s0.08-1.07-0.21-1.57c-0.28-0.5-0.69-0.81-1.25-0.96c-0.55-0.15-1.07-0.08-1.56,0.19
		C797.38,187.93,797.06,188.35,796.91,188.9z"/>
	<path d="M796.87,182.82l0.53-1.99l0.89,0.24c-0.65-0.83-0.78-1.57-0.52-2.53c0.23-0.87,0.7-1.49,1.41-1.84
		c0.53-0.26,1.23-0.27,2.12-0.03l4.51,1.21l-0.53,1.99l-3.94-1.06c-0.54-0.15-0.95-0.18-1.2-0.11c-0.43,0.11-0.72,0.44-0.87,1.01
		c-0.27,1,0.25,1.68,1.57,2.04l3.68,0.99l-0.53,1.99L796.87,182.82z"/>
	<path d="M803.68,168.25l4.4,1.18l-0.57,2.13l-10.95-2.93l0.85-3.17c0.33-1.24,0.84-2.1,1.52-2.58c0.79-0.56,1.72-0.7,2.75-0.42
		c1.04,0.28,1.76,0.82,2.15,1.63c0.25,0.5,0.35,1.06,0.29,1.69l5.54-2.21l-0.71,2.63l-5.19,1.77L803.68,168.25z M802.17,167.85
		l0.17-0.63c0.36-1.35-0.05-2.25-1.12-2.53c-1.1-0.29-1.83,0.24-2.19,1.61l-0.18,0.66L802.17,167.85z"/>
	<path d="M803.31,158.76l4.03,1.08c1.08,0.29,1.76-0.04,2.02-1.02c0.26-0.97-0.16-1.6-1.24-1.89l-4.03-1.08l0.53-1.99l4.35,1.17
		c1.92,0.52,2.66,2.02,2.07,4.23s-1.99,3.16-3.91,2.65l-4.35-1.17L803.31,158.76z"/>
	<path d="M810.35,146.37l3.65,0.98l-0.53,1.99l-3.78-1.01c-0.55-0.15-0.96-0.21-1.2-0.18c-0.24,0.03-0.46,0.13-0.64,0.29
		s-0.3,0.37-0.36,0.59c-0.12,0.45,0.02,0.98,0.4,1.36c0.19,0.19,0.61,0.37,1.24,0.53l3.65,0.98l-0.53,1.99l-7.11-1.91l0.53-1.99
		l0.83,0.22c-0.53-0.8-0.68-1.65-0.44-2.55c0.24-0.9,0.86-1.49,1.86-1.76c-0.72-0.79-0.95-1.66-0.69-2.62
		c0.26-0.95,0.78-1.54,1.58-1.78c0.48-0.14,1.08-0.12,1.82,0.08l4.59,1.23l-0.53,1.99l-3.89-1.04c-0.51-0.14-0.91-0.18-1.18-0.15
		c-0.47,0.07-0.76,0.35-0.89,0.83C808.47,145.37,809.01,146.01,810.35,146.37z"/>
	<path d="M804.67,136.9c0.09-0.33,0.28-0.58,0.57-0.75c0.29-0.17,0.61-0.21,0.93-0.12c0.33,0.09,0.58,0.29,0.76,0.58
		c0.18,0.3,0.22,0.62,0.13,0.95s-0.28,0.58-0.58,0.75c-0.29,0.17-0.62,0.21-0.95,0.12c-0.33-0.09-0.58-0.29-0.75-0.59
		C804.62,137.55,804.58,137.23,804.67,136.9z M809.13,137.06l7.11,1.91l-0.53,1.98l-7.11-1.91L809.13,137.06z"/>
	<path d="M804.98,131.8l7.79,2.09l-1.89-3.35l0.72-2.69l2.23,4.17l4.96-2.53l-0.74,2.74l-3.77,1.84l0.16,0.27l2.84,0.76l-0.53,1.99
		l-12.3-3.3L804.98,131.8z"/>
	<path d="M817.56,121.11l-1.43,5.33c1.29,0.29,2.08-0.12,2.37-1.23c0.18-0.69,0.01-1.34-0.5-1.95l0.79-1.76
		c1.31,1.01,1.74,2.36,1.29,4.07c-0.31,1.16-0.9,1.99-1.78,2.5c-0.88,0.51-1.88,0.61-3.03,0.31c-1.15-0.31-1.97-0.89-2.48-1.75
		c-0.51-0.87-0.61-1.86-0.31-2.99s0.89-1.93,1.74-2.4c0.86-0.47,1.88-0.54,3.08-0.22L817.56,121.11z M814.89,126.04l0.9-3.37
		c-1-0.04-1.62,0.41-1.86,1.31C813.69,124.86,814.03,125.63,814.89,126.04z"/>
</g>
<circle fill="#FFFFFF" stroke="#000000" stroke-width="3" stroke-miterlimit="10" cx="865.59" cy="238" r="10"/>
<g>
	<path d="M863.14,215.14l-1.05,3.92l2.44,0.65l1.01-3.78l1.85,0.5l-1.01,3.78l2.96,0.79l1.05-3.92l1.85,0.5l-1.62,6.05l-10.95-2.93
		l1.62-6.05L863.14,215.14z"/>
	<path d="M870.81,208.31l3.65,0.98l-0.53,1.99l-3.78-1.01c-0.55-0.15-0.96-0.21-1.2-0.18s-0.46,0.13-0.64,0.29s-0.3,0.37-0.36,0.59
		c-0.12,0.45,0.02,0.98,0.4,1.36c0.19,0.19,0.61,0.37,1.24,0.53l3.65,0.98l-0.53,1.99l-7.11-1.91l0.53-1.99l0.83,0.22
		c-0.53-0.8-0.68-1.65-0.44-2.55c0.24-0.9,0.86-1.49,1.86-1.76c-0.72-0.79-0.95-1.66-0.69-2.62c0.26-0.95,0.78-1.54,1.58-1.78
		c0.48-0.14,1.08-0.12,1.83,0.08l4.59,1.23l-0.53,1.99l-3.89-1.04c-0.51-0.14-0.91-0.18-1.18-0.15c-0.47,0.07-0.76,0.35-0.89,0.84
		C868.93,207.32,869.47,207.95,870.81,208.31z"/>
	<path d="M874.82,195l-1.43,5.33c1.29,0.29,2.08-0.12,2.37-1.23c0.18-0.69,0.01-1.34-0.5-1.95l0.79-1.76
		c1.31,1.01,1.74,2.37,1.29,4.08c-0.31,1.16-0.9,1.99-1.78,2.5c-0.88,0.51-1.88,0.61-3.03,0.3c-1.15-0.31-1.97-0.89-2.48-1.75
		c-0.51-0.87-0.61-1.86-0.31-2.99c0.3-1.13,0.89-1.93,1.74-2.4c0.86-0.47,1.88-0.54,3.08-0.22L874.82,195z M872.14,199.93l0.9-3.37
		c-1-0.04-1.62,0.41-1.86,1.31C870.95,198.75,871.29,199.52,872.14,199.93z"/>
	<path d="M878.99,192.37l-0.53,1.99l-7.11-1.91l0.53-1.99l1.08,0.29c-0.74-0.72-1-1.53-0.75-2.42c0.08-0.28,0.21-0.55,0.41-0.82
		l1.78,0.78c-0.25,0.25-0.41,0.54-0.49,0.88c-0.31,1.14,0.26,1.9,1.67,2.28L878.99,192.37z"/>
	<path d="M879.74,185.23l-6.93,1.75l0.62-2.32l4.61-1.05l-3.5-3.1l0.61-2.29l9.36,8.67l-0.6,2.25L879.74,185.23z"/>
</g>
<circle fill="#FFFFFF" stroke="#000000" stroke-width="3" stroke-miterlimit="10" cx="942.65" cy="238" r="10"/>
<g>
	<path d="M940.06,219.41c0.31,0.08,0.6,0.04,0.85-0.14c0.25-0.18,0.66-0.65,1.21-1.42c0.55-0.77,1.04-1.3,1.49-1.6
		c0.72-0.5,1.59-0.61,2.62-0.34c1.03,0.28,1.79,0.86,2.27,1.73s0.57,1.89,0.26,3.03c-0.42,1.55-1.45,2.61-3.09,3.2l-0.96-1.74
		c1.11-0.25,1.8-0.88,2.07-1.9c0.13-0.49,0.1-0.94-0.1-1.33c-0.21-0.39-0.53-0.65-0.99-0.77c-0.46-0.12-0.87-0.03-1.25,0.29
		c-0.19,0.15-0.57,0.64-1.14,1.46s-1.14,1.37-1.69,1.66c-0.55,0.29-1.19,0.33-1.91,0.14c-0.92-0.25-1.6-0.77-2.03-1.58
		c-0.43-0.81-0.51-1.7-0.25-2.69c0.33-1.22,1.02-2.18,2.08-2.9l1.16,1.51c-0.73,0.36-1.19,0.88-1.36,1.54
		c-0.12,0.44-0.1,0.83,0.06,1.19C939.5,219.11,939.75,219.33,940.06,219.41z"/>
	<path d="M938.93,211.02c0.09-0.33,0.28-0.58,0.57-0.75s0.61-0.21,0.93-0.12c0.33,0.09,0.59,0.29,0.76,0.58
		c0.18,0.3,0.22,0.62,0.13,0.95c-0.09,0.33-0.28,0.58-0.58,0.75c-0.29,0.17-0.62,0.21-0.94,0.12s-0.58-0.29-0.75-0.59
		C938.88,211.67,938.84,211.35,938.93,211.02z M943.39,211.18l7.11,1.91l-0.53,1.98l-7.11-1.91L943.39,211.18z"/>
	<path d="M945.88,201.87l6.85,1.83c0.73,0.2,1.28,0.4,1.65,0.62c0.37,0.23,0.69,0.54,0.95,0.93c0.65,0.92,0.79,2.07,0.42,3.44
		c-0.37,1.37-1.17,2.28-2.4,2.73c-0.52,0.19-1.04,0.24-1.57,0.17l0.58-2.17c0.91,0.03,1.48-0.41,1.73-1.32
		c0.14-0.54,0.09-1.03-0.16-1.47c-0.23-0.38-0.69-0.66-1.36-0.85l-1.07-0.29c0.32,0.49,0.53,0.94,0.62,1.35
		c0.08,0.42,0.06,0.88-0.08,1.38c-0.26,0.97-0.82,1.69-1.69,2.14c-0.87,0.46-1.85,0.54-2.94,0.24c-1.1-0.29-1.93-0.87-2.48-1.72
		s-0.71-1.76-0.45-2.72s0.86-1.65,1.79-2.07l-0.92-0.25L945.88,201.87z M946.45,206.01c-0.15,0.55-0.08,1.07,0.2,1.57
		c0.28,0.5,0.7,0.82,1.25,0.96s1.08,0.08,1.57-0.21c0.5-0.29,0.81-0.7,0.96-1.25c0.15-0.55,0.08-1.07-0.21-1.57
		c-0.28-0.5-0.69-0.81-1.25-0.96c-0.55-0.15-1.07-0.08-1.57,0.2C946.91,205.05,946.6,205.46,946.45,206.01z"/>
	<path d="M946.39,199.96l0.53-1.99l0.89,0.24c-0.65-0.83-0.78-1.57-0.52-2.53c0.23-0.87,0.7-1.49,1.41-1.84
		c0.53-0.26,1.23-0.27,2.12-0.03l4.51,1.21l-0.53,1.99l-3.95-1.06c-0.54-0.15-0.95-0.19-1.2-0.11c-0.43,0.11-0.72,0.44-0.87,1.01
		c-0.27,1,0.25,1.68,1.57,2.04l3.68,0.99l-0.53,1.99L946.39,199.96z"/>
	<path d="M954.49,185.26l-1.43,5.33c1.29,0.29,2.08-0.12,2.37-1.23c0.18-0.69,0.01-1.34-0.5-1.95l0.79-1.76
		c1.31,1.01,1.74,2.36,1.29,4.08c-0.31,1.16-0.9,1.99-1.78,2.5c-0.88,0.51-1.88,0.61-3.03,0.3c-1.15-0.31-1.97-0.89-2.48-1.75
		c-0.51-0.87-0.61-1.86-0.31-2.99c0.3-1.13,0.89-1.93,1.74-2.4c0.86-0.47,1.88-0.54,3.08-0.21L954.49,185.26z M951.81,190.19
		l0.9-3.37c-1-0.03-1.62,0.41-1.86,1.31C950.62,189.01,950.96,189.78,951.81,190.19z"/>
	<path d="M953.31,181.06l5.39,1.44l-0.53,1.99l-5.39-1.44l-0.21,0.79l-1.72-0.46l0.21-0.79l-2.43-0.65l0.53-1.99l2.43,0.65
		l0.38-1.41l1.72,0.46L953.31,181.06z"/>
	<path d="M959.95,168.55l-1.2,4.48l2.05,1.61l-0.61,2.27l-9.91-7.74l0.43-1.61l12.42-1.6l-0.61,2.29L959.95,168.55z M958.04,168.77
		l-4.35,0.48l3.51,2.64L958.04,168.77z"/>
	<path d="M963.92,162.99l-0.53,1.99l-7.11-1.91l0.53-1.99l1.08,0.29c-0.74-0.72-1-1.53-0.75-2.42c0.08-0.28,0.21-0.55,0.41-0.82
		l1.78,0.78c-0.25,0.25-0.41,0.54-0.49,0.88c-0.3,1.14,0.26,1.9,1.68,2.28L963.92,162.99z"/>
	<path d="M965.52,157.01l-0.53,1.99l-7.11-1.91l0.53-1.99l1.08,0.29c-0.74-0.72-1-1.53-0.75-2.42c0.08-0.28,0.21-0.55,0.41-0.82
		l1.78,0.78c-0.25,0.25-0.41,0.54-0.5,0.88c-0.3,1.14,0.26,1.9,1.68,2.28L965.52,157.01z"/>
	<path d="M960.21,147.49c0.32-1.2,0.93-2.07,1.83-2.63c0.9-0.56,1.91-0.69,3.04-0.39c1.12,0.3,1.94,0.92,2.43,1.86
		c0.49,0.95,0.58,2.02,0.26,3.23s-0.94,2.08-1.86,2.64c-0.91,0.55-1.92,0.68-3.03,0.38c-1.11-0.3-1.92-0.93-2.41-1.88
		C959.97,149.77,959.89,148.69,960.21,147.49z M961.99,148c-0.15,0.55-0.08,1.08,0.2,1.57c0.28,0.5,0.7,0.82,1.25,0.97
		s1.08,0.08,1.57-0.21c0.5-0.29,0.82-0.71,0.96-1.26c0.15-0.55,0.08-1.09-0.2-1.58c-0.28-0.5-0.69-0.81-1.25-0.96
		c-0.55-0.15-1.07-0.08-1.57,0.21C962.46,147.02,962.14,147.44,961.99,148z"/>
	<path d="M962.18,141.05l4.61-0.77l-3.78-3.09l0.23-0.85l4.88-0.77l-3.66-3.02l0.59-2.22l6.27,5.62l-0.24,0.9l-4.83,0.77l3.81,3.05
		l-0.25,0.91l-8.23,1.7L962.18,141.05z"/>
</g>
<circle fill="#FFFFFF" stroke="#000000" stroke-width="3" stroke-miterlimit="10" cx="1019.71" cy="238" r="10"/>
<g>
	<path d="M1024.73,223.63l-11.2-3l0.4-1.48l9.41-4.63l-7.38-1.98l0.57-2.13l11.17,2.99l-0.4,1.48l-9.41,4.62l7.41,1.99
		L1024.73,223.63z"/>
	<path d="M1021.75,205.42c0.32-1.19,0.93-2.07,1.83-2.63s1.91-0.69,3.03-0.39c1.12,0.3,1.94,0.92,2.43,1.86
		c0.49,0.95,0.58,2.02,0.26,3.23c-0.32,1.21-0.94,2.08-1.86,2.64c-0.91,0.55-1.92,0.68-3.03,0.38c-1.11-0.3-1.92-0.93-2.41-1.88
		C1021.51,207.69,1021.43,206.61,1021.75,205.42z M1023.53,205.92c-0.15,0.55-0.08,1.08,0.2,1.57s0.7,0.82,1.25,0.97
		s1.08,0.08,1.57-0.21c0.5-0.29,0.82-0.71,0.96-1.26c0.15-0.55,0.08-1.09-0.2-1.58c-0.28-0.5-0.69-0.81-1.25-0.96
		c-0.55-0.15-1.07-0.08-1.57,0.21C1024,204.94,1023.68,205.37,1023.53,205.92z"/>
	<path d="M1031.11,199.83l-0.53,1.99l-7.11-1.91l0.53-1.99l1.08,0.29c-0.74-0.72-1-1.53-0.75-2.42c0.08-0.28,0.21-0.55,0.41-0.82
		l1.78,0.78c-0.25,0.25-0.41,0.54-0.49,0.88c-0.31,1.14,0.26,1.9,1.67,2.28L1031.11,199.83z"/>
	<path d="M1027.44,191.99l5.39,1.44l-0.53,1.99l-5.39-1.44l-0.21,0.77l-1.72-0.46l0.21-0.77l-2.28-0.61c-0.94-0.25-1.61-0.66-2-1.24
		c-0.47-0.74-0.6-1.52-0.38-2.35c0.09-0.35,0.27-0.68,0.53-0.98l1.8,0.48c-0.28,0.34-0.45,0.62-0.5,0.84
		c-0.11,0.39-0.01,0.69,0.3,0.91c0.18,0.15,0.54,0.3,1.06,0.44l1.99,0.53l0.49-1.82l1.72,0.46L1027.44,191.99z"/>
	<path d="M1022.56,186.48c0.09-0.33,0.28-0.58,0.57-0.75c0.29-0.17,0.61-0.21,0.93-0.12s0.58,0.29,0.76,0.58
		c0.18,0.3,0.22,0.62,0.13,0.95c-0.09,0.33-0.28,0.58-0.58,0.75c-0.29,0.17-0.62,0.21-0.95,0.12s-0.58-0.29-0.75-0.59
		C1022.51,187.12,1022.47,186.81,1022.56,186.48z M1027.02,186.63l7.11,1.91l-0.53,1.98l-7.11-1.91L1027.02,186.63z"/>
	<path d="M1027.53,184.76l0.53-1.99l0.89,0.24c-0.65-0.83-0.78-1.57-0.52-2.53c0.23-0.87,0.7-1.49,1.41-1.84
		c0.53-0.26,1.23-0.27,2.12-0.03l4.51,1.21l-0.53,1.99l-3.95-1.06c-0.54-0.15-0.95-0.19-1.2-0.11c-0.43,0.11-0.72,0.44-0.87,1.01
		c-0.27,1,0.25,1.68,1.57,2.04l3.68,0.99l-0.53,1.99L1027.53,184.76z"/>
	<path d="M1033.47,171.26c-0.55,0.41-0.89,0.9-1.05,1.47s-0.09,1.09,0.18,1.59c0.27,0.49,0.69,0.81,1.27,0.97
		c0.58,0.16,1.1,0.09,1.58-0.2c0.48-0.29,0.8-0.72,0.96-1.3s0.11-1.17-0.15-1.78l1.93,0.52c0.14,0.67,0.12,1.3-0.04,1.94
		c-0.3,1.11-0.9,1.93-1.83,2.48c-0.91,0.55-1.91,0.68-2.98,0.4c-1.07-0.29-1.87-0.91-2.41-1.85c-0.53-0.94-0.65-1.97-0.35-3.08
		c0.17-0.65,0.48-1.21,0.91-1.69L1033.47,171.26z"/>
	<path d="M1026.56,167.61l0.53-1.99l6.11,1.64c-0.61-0.79-0.79-1.63-0.55-2.53c0.24-0.9,0.71-1.51,1.42-1.84
		c0.55-0.26,1.27-0.26,2.16-0.02l4.46,1.2l-0.53,1.99l-3.89-1.04c-0.57-0.15-0.98-0.19-1.24-0.12c-0.44,0.11-0.74,0.45-0.89,1.01
		c-0.27,1,0.26,1.69,1.6,2.04l3.65,0.98l-0.53,1.99L1026.56,167.61z"/>
	<path d="M1032.61,149.42c0.44-1.63,1.36-2.85,2.77-3.68c1.41-0.83,2.92-1.03,4.54-0.6c1.61,0.43,2.81,1.36,3.61,2.8
		c0.79,1.43,0.96,2.97,0.52,4.63c-0.44,1.65-1.37,2.88-2.78,3.7c-1.41,0.82-2.92,1.01-4.52,0.58s-2.8-1.37-3.6-2.81
		C1032.36,152.58,1032.18,151.04,1032.61,149.42z M1034.56,149.96c-0.27,1-0.13,1.97,0.41,2.88c0.54,0.92,1.33,1.52,2.37,1.79
		s2.03,0.16,2.96-0.36c0.93-0.52,1.53-1.27,1.8-2.29c0.27-1.01,0.13-1.97-0.41-2.89c-0.55-0.91-1.34-1.5-2.38-1.78
		c-1.04-0.28-2.03-0.16-2.95,0.35C1035.43,148.2,1034.83,148.96,1034.56,149.96z"/>
	<path d="M1040.17,137.58l0.53-1.99l7.11,1.91l-0.53,1.99l-0.92-0.25c0.6,0.82,0.77,1.71,0.51,2.68s-0.84,1.69-1.74,2.16
		c-0.9,0.47-1.89,0.57-2.95,0.28c-1.07-0.29-1.88-0.87-2.43-1.73c-0.55-0.86-0.69-1.77-0.44-2.71c0.25-0.95,0.85-1.64,1.79-2.1
		L1040.17,137.58z M1041.26,139.77c-0.15,0.56-0.08,1.09,0.2,1.57c0.28,0.5,0.7,0.81,1.25,0.96s1.08,0.08,1.57-0.21
		c0.5-0.29,0.82-0.7,0.96-1.25c0.15-0.55,0.08-1.07-0.21-1.57c-0.28-0.5-0.69-0.81-1.25-0.96c-0.55-0.15-1.07-0.08-1.56,0.19
		C1041.72,138.8,1041.41,139.22,1041.26,139.77z"/>
	<path d="M1036.56,130.31l7.78,2.09l-1.89-3.35l0.72-2.69l2.23,4.17l4.96-2.53l-0.73,2.74l-3.77,1.84l0.16,0.27l2.84,0.76
		l-0.53,1.99l-12.3-3.3L1036.56,130.31z"/>
	<path d="M1039.66,118.73l0.53-1.99l12.3,3.3l-0.53,1.99l-0.92-0.25c0.6,0.82,0.77,1.71,0.51,2.68c-0.26,0.97-0.84,1.69-1.74,2.16
		c-0.9,0.47-1.89,0.57-2.96,0.28c-1.07-0.29-1.88-0.87-2.43-1.73c-0.55-0.86-0.7-1.77-0.44-2.71s0.85-1.65,1.79-2.1L1039.66,118.73z
		 M1045.94,122.31c-0.15,0.56-0.08,1.09,0.2,1.57c0.28,0.5,0.7,0.82,1.25,0.96s1.08,0.08,1.57-0.21c0.5-0.29,0.81-0.7,0.96-1.25
		c0.15-0.55,0.08-1.07-0.21-1.57c-0.28-0.5-0.69-0.81-1.25-0.96c-0.55-0.15-1.07-0.08-1.56,0.19
		C1046.4,121.33,1046.08,121.75,1045.94,122.31z"/>
	<path d="M1047.37,110.71l0.53-1.99l7.11,1.91l-0.53,1.99l-0.92-0.25c0.6,0.82,0.77,1.71,0.51,2.68s-0.84,1.69-1.74,2.16
		c-0.9,0.47-1.89,0.57-2.95,0.28c-1.07-0.29-1.88-0.87-2.43-1.73c-0.55-0.86-0.7-1.77-0.44-2.71c0.25-0.95,0.85-1.64,1.79-2.1
		L1047.37,110.71z M1048.46,112.9c-0.15,0.56-0.08,1.09,0.2,1.57c0.28,0.5,0.7,0.81,1.25,0.96s1.08,0.08,1.57-0.21
		c0.5-0.29,0.82-0.7,0.96-1.25c0.15-0.55,0.08-1.07-0.21-1.57c-0.28-0.5-0.69-0.81-1.25-0.96c-0.55-0.15-1.07-0.08-1.56,0.19
		C1048.92,111.93,1048.6,112.35,1048.46,112.9z"/>
	<path d="M1043.75,103.44l12.3,3.3l-0.53,1.99l-12.3-3.3L1043.75,103.44z"/>
	<path d="M1055.21,96.98l-1.43,5.33c1.29,0.29,2.08-0.12,2.37-1.23c0.18-0.69,0.01-1.34-0.5-1.95l0.79-1.76
		c1.31,1.01,1.74,2.36,1.29,4.07c-0.31,1.16-0.9,1.99-1.78,2.5c-0.88,0.51-1.88,0.61-3.03,0.31c-1.15-0.31-1.97-0.89-2.48-1.75
		c-0.51-0.87-0.61-1.86-0.31-2.99s0.89-1.93,1.74-2.4c0.86-0.47,1.88-0.54,3.07-0.22L1055.21,96.98z M1052.53,101.91l0.9-3.37
		c-1-0.04-1.62,0.41-1.86,1.31C1051.33,100.73,1051.67,101.5,1052.53,101.91z"/>
</g>
<circle fill="#FFFFFF" stroke="#000000" stroke-width="3" stroke-miterlimit="10" cx="1096.76" cy="238" r="10"/>
<g>
	<path d="M1091.99,216.38l7.39,1.98c1.44,0.38,2.37,0.98,2.81,1.79c0.36,0.69,0.41,1.49,0.17,2.38c-0.24,0.89-0.8,1.62-1.69,2.16
		l-1.22-1.69c0.49-0.17,0.8-0.48,0.92-0.94c0.12-0.46-0.01-0.82-0.41-1.09c-0.24-0.17-0.74-0.35-1.5-0.57l-7.05-1.89L1091.99,216.38
		z"/>
	<path d="M1097.89,209.75l0.53-1.99l7.11,1.91l-0.53,1.99l-0.92-0.25c0.6,0.82,0.77,1.71,0.51,2.68c-0.26,0.97-0.84,1.69-1.74,2.16
		c-0.9,0.47-1.89,0.57-2.95,0.28c-1.07-0.29-1.88-0.86-2.43-1.73c-0.55-0.86-0.7-1.77-0.44-2.71c0.25-0.95,0.85-1.64,1.79-2.1
		L1097.89,209.75z M1098.98,211.94c-0.15,0.56-0.08,1.09,0.2,1.57c0.28,0.5,0.7,0.82,1.25,0.96c0.55,0.15,1.08,0.08,1.57-0.21
		c0.5-0.29,0.82-0.7,0.96-1.25c0.15-0.54,0.08-1.07-0.21-1.57c-0.28-0.5-0.69-0.81-1.25-0.96c-0.55-0.15-1.07-0.08-1.56,0.19
		C1099.45,210.96,1099.13,211.39,1098.98,211.94z"/>
	<path d="M1098.93,205.86l0.53-1.99l0.89,0.24c-0.65-0.83-0.78-1.57-0.52-2.53c0.23-0.87,0.7-1.49,1.41-1.84
		c0.53-0.26,1.23-0.27,2.12-0.03l4.51,1.21l-0.53,1.99l-3.95-1.06c-0.54-0.15-0.95-0.18-1.2-0.11c-0.43,0.11-0.72,0.44-0.87,1.01
		c-0.27,1,0.25,1.68,1.57,2.04l3.68,0.99l-0.53,1.99L1098.93,205.86z"/>
	<path d="M1107.03,191.16l-1.43,5.33c1.29,0.29,2.08-0.12,2.37-1.23c0.18-0.69,0.01-1.34-0.5-1.95l0.79-1.76
		c1.31,1.01,1.74,2.37,1.29,4.08c-0.31,1.16-0.9,1.99-1.78,2.5c-0.88,0.51-1.88,0.61-3.03,0.31c-1.15-0.31-1.97-0.89-2.48-1.75
		c-0.51-0.87-0.61-1.86-0.31-2.99c0.3-1.13,0.89-1.93,1.74-2.39c0.86-0.47,1.88-0.54,3.07-0.22L1107.03,191.16z M1104.35,196.09
		l0.9-3.37c-1-0.04-1.62,0.41-1.86,1.31C1103.15,194.91,1103.5,195.68,1104.35,196.09z"/>
	<path d="M1106.11,179.06l0.53-1.99l7.11,1.91l-0.53,1.99l-0.92-0.25c0.6,0.82,0.77,1.71,0.51,2.68c-0.26,0.97-0.84,1.69-1.74,2.16
		c-0.9,0.47-1.89,0.57-2.95,0.28c-1.07-0.29-1.88-0.87-2.43-1.73c-0.55-0.86-0.7-1.77-0.44-2.71s0.85-1.65,1.79-2.1L1106.11,179.06z
		 M1107.2,181.25c-0.15,0.56-0.08,1.09,0.2,1.57c0.28,0.5,0.7,0.82,1.25,0.96s1.08,0.08,1.57-0.21c0.5-0.29,0.81-0.7,0.96-1.25
		c0.15-0.55,0.08-1.07-0.21-1.57c-0.28-0.5-0.69-0.81-1.25-0.96c-0.55-0.15-1.07-0.08-1.56,0.19
		C1107.67,180.27,1107.35,180.69,1107.2,181.25z"/>
	<path d="M1107.15,175.17l0.53-1.99l0.89,0.24c-0.65-0.83-0.78-1.57-0.52-2.53c0.23-0.87,0.7-1.49,1.41-1.84
		c0.53-0.26,1.23-0.27,2.12-0.03l4.51,1.21l-0.53,1.99l-3.94-1.06c-0.54-0.15-0.95-0.19-1.2-0.11c-0.43,0.11-0.72,0.44-0.87,1.01
		c-0.27,1,0.25,1.68,1.57,2.04l3.68,0.99l-0.53,1.99L1107.15,175.17z"/>
	<path d="M1105.77,159.58l0.53-1.99l12.3,3.3l-0.53,1.99l-0.92-0.25c0.6,0.82,0.77,1.71,0.51,2.68s-0.84,1.69-1.74,2.16
		c-0.9,0.47-1.89,0.57-2.95,0.28c-1.07-0.29-1.88-0.86-2.43-1.73c-0.55-0.86-0.7-1.77-0.44-2.71s0.85-1.64,1.79-2.1L1105.77,159.58z
		 M1112.05,163.16c-0.15,0.56-0.08,1.09,0.2,1.57c0.28,0.5,0.7,0.82,1.25,0.96c0.55,0.15,1.08,0.08,1.57-0.21
		c0.5-0.29,0.81-0.7,0.96-1.25s0.08-1.07-0.21-1.57c-0.28-0.5-0.69-0.81-1.25-0.96c-0.55-0.15-1.07-0.08-1.56,0.19
		C1112.52,162.18,1112.2,162.61,1112.05,163.16z"/>
	<path d="M1112.75,146.33l-0.98,3.66l2.44,0.65l0.92-3.43l1.85,0.5l-0.92,3.43l4.81,1.29l-0.57,2.13l-10.95-2.93l1.55-5.8
		L1112.75,146.33z"/>
	<path d="M1111.21,143.24c0.09-0.33,0.28-0.58,0.57-0.75c0.29-0.17,0.61-0.21,0.93-0.12c0.33,0.09,0.58,0.29,0.76,0.58
		c0.18,0.3,0.22,0.62,0.13,0.95c-0.09,0.33-0.28,0.58-0.58,0.75c-0.29,0.17-0.62,0.21-0.94,0.12c-0.33-0.09-0.59-0.29-0.75-0.59
		C1111.15,143.88,1111.12,143.56,1111.21,143.24z M1115.67,143.39l7.11,1.91l-0.53,1.98l-7.11-1.91L1115.67,143.39z"/>
	<path d="M1116.17,141.52l0.53-1.99l0.89,0.24c-0.65-0.83-0.78-1.57-0.52-2.53c0.23-0.87,0.7-1.49,1.41-1.84
		c0.52-0.26,1.23-0.27,2.12-0.03l4.51,1.21l-0.53,1.99l-3.94-1.06c-0.54-0.15-0.95-0.19-1.2-0.11c-0.43,0.11-0.72,0.44-0.87,1.01
		c-0.27,1,0.25,1.68,1.57,2.04l3.68,0.99l-0.53,1.99L1116.17,141.52z"/>
	<path d="M1122.12,128.02c-0.55,0.41-0.9,0.9-1.05,1.47s-0.09,1.09,0.18,1.58c0.27,0.49,0.69,0.81,1.27,0.97
		c0.58,0.15,1.1,0.09,1.58-0.2s0.8-0.72,0.96-1.3c0.15-0.58,0.11-1.17-0.15-1.78l1.93,0.52c0.14,0.67,0.12,1.3-0.04,1.94
		c-0.3,1.11-0.9,1.93-1.83,2.48c-0.91,0.55-1.91,0.68-2.98,0.4c-1.07-0.29-1.87-0.91-2.41-1.85c-0.53-0.94-0.65-1.97-0.35-3.08
		c0.17-0.65,0.48-1.21,0.91-1.69L1122.12,128.02z"/>
	<path d="M1115.21,124.37l0.53-1.99l6.11,1.64c-0.61-0.79-0.79-1.63-0.55-2.53c0.24-0.9,0.71-1.51,1.42-1.84
		c0.55-0.26,1.26-0.26,2.16-0.02l4.47,1.2l-0.53,1.99l-3.89-1.04c-0.57-0.15-0.98-0.19-1.24-0.12c-0.44,0.11-0.74,0.45-0.89,1.01
		c-0.27,1,0.26,1.69,1.6,2.04l3.65,0.98l-0.53,1.99L1115.21,124.37z"/>
</g>
<circle fill="#FFFFFF" stroke="#000000" stroke-width="3" stroke-miterlimit="10" cx="1173.82" cy="238" r="10"/>
<g>
	<path d="M1178.85,223.63l-10.95-2.93l0.84-3.14c0.43-1.59,1.2-2.79,2.32-3.58c0.67-0.48,1.42-0.8,2.25-0.94
		c0.83-0.15,1.65-0.11,2.47,0.11c0.82,0.22,1.55,0.6,2.2,1.15c0.65,0.55,1.14,1.21,1.49,1.97c0.58,1.22,0.65,2.63,0.22,4.24
		L1178.85,223.63z M1177.57,221l0.15-0.58c0.35-1.31,0.32-2.36-0.09-3.15c-0.45-0.92-1.39-1.64-2.44-1.93
		c-1.12-0.3-2.13-0.15-3.04,0.46c-0.77,0.5-1.33,1.39-1.67,2.68l-0.15,0.58L1177.57,221z"/>
	<path d="M1182.24,210.97l-0.53,1.99l-7.11-1.91l0.53-1.99l1.08,0.29c-0.74-0.72-1-1.53-0.75-2.42c0.08-0.28,0.21-0.55,0.41-0.82
		l1.78,0.78c-0.25,0.25-0.41,0.54-0.49,0.88c-0.31,1.14,0.26,1.9,1.67,2.28L1182.24,210.97z"/>
	<path d="M1172.26,202.96c0.09-0.33,0.28-0.58,0.57-0.75s0.61-0.21,0.93-0.12c0.33,0.09,0.59,0.29,0.76,0.58
		c0.18,0.3,0.22,0.62,0.13,0.95s-0.28,0.58-0.58,0.75c-0.29,0.17-0.62,0.21-0.94,0.13c-0.33-0.09-0.58-0.29-0.75-0.59
		C1172.21,203.61,1172.17,203.29,1172.26,202.96z M1176.72,203.12l7.11,1.91l-0.53,1.98l-7.11-1.91L1176.72,203.12z"/>
	<path d="M1179.5,199.65l5.39,1.44l-0.53,1.99l-5.39-1.44l-0.21,0.77l-1.72-0.46l0.21-0.77l-2.28-0.61c-0.94-0.25-1.61-0.66-2-1.24
		c-0.47-0.74-0.6-1.52-0.38-2.35c0.09-0.35,0.27-0.68,0.53-0.98l1.8,0.48c-0.28,0.34-0.45,0.62-0.5,0.84
		c-0.11,0.39-0.01,0.7,0.3,0.91c0.18,0.15,0.54,0.3,1.06,0.44l1.99,0.53l0.49-1.82l1.72,0.46L1179.5,199.65z"/>
	<path d="M1180.9,194.42l5.39,1.44l-0.53,1.99l-5.39-1.44l-0.21,0.79l-1.72-0.46l0.21-0.79l-2.43-0.65l0.53-1.99l2.43,0.65
		l0.38-1.41l1.72,0.46L1180.9,194.42z"/>
	<path d="M1180.31,189.74l4.61-0.77l-3.78-3.09l0.23-0.85l4.88-0.77l-3.66-3.02l0.6-2.22l6.27,5.62l-0.24,0.9l-4.83,0.77l3.81,3.05
		l-0.24,0.91l-8.23,1.7L1180.31,189.74z"/>
	<path d="M1184.11,174.64c0.32-1.2,0.93-2.07,1.83-2.63c0.9-0.56,1.91-0.69,3.04-0.39c1.12,0.3,1.94,0.92,2.43,1.86
		c0.49,0.95,0.58,2.02,0.26,3.23s-0.95,2.08-1.86,2.64c-0.91,0.55-1.92,0.68-3.03,0.38c-1.11-0.3-1.92-0.93-2.41-1.87
		C1183.87,176.92,1183.79,175.84,1184.11,174.64z M1185.9,175.15c-0.15,0.55-0.08,1.08,0.2,1.57c0.28,0.5,0.7,0.82,1.25,0.97
		c0.55,0.15,1.08,0.08,1.57-0.21c0.5-0.29,0.82-0.71,0.96-1.26c0.15-0.55,0.08-1.09-0.2-1.58c-0.28-0.5-0.69-0.81-1.25-0.96
		s-1.07-0.08-1.57,0.21C1186.36,174.17,1186.04,174.59,1185.9,175.15z"/>
	<path d="M1186.6,165.37c0.32-1.19,0.93-2.07,1.83-2.63c0.9-0.56,1.91-0.69,3.04-0.39s1.94,0.92,2.43,1.86
		c0.49,0.95,0.58,2.02,0.26,3.23s-0.94,2.08-1.86,2.64s-1.92,0.68-3.03,0.38c-1.12-0.3-1.92-0.93-2.41-1.88
		C1186.36,167.64,1186.28,166.56,1186.6,165.37z M1188.38,165.87c-0.15,0.55-0.08,1.08,0.2,1.57c0.28,0.5,0.7,0.82,1.25,0.97
		s1.08,0.08,1.57-0.21c0.5-0.29,0.82-0.71,0.97-1.26c0.15-0.55,0.08-1.08-0.2-1.58c-0.28-0.5-0.69-0.81-1.25-0.96
		c-0.55-0.15-1.07-0.08-1.57,0.21C1188.85,164.89,1188.53,165.32,1188.38,165.87z"/>
	<path d="M1184.59,153.02l0.53-1.99l12.3,3.29l-0.53,1.99l-0.92-0.25c0.6,0.82,0.77,1.71,0.51,2.68c-0.26,0.97-0.84,1.69-1.74,2.16
		c-0.9,0.47-1.89,0.57-2.95,0.28c-1.07-0.29-1.88-0.87-2.43-1.73c-0.55-0.86-0.7-1.77-0.44-2.71c0.25-0.95,0.85-1.64,1.79-2.1
		L1184.59,153.02z M1190.86,156.6c-0.15,0.56-0.08,1.09,0.2,1.57c0.28,0.5,0.7,0.82,1.25,0.96c0.55,0.15,1.08,0.08,1.57-0.21
		c0.5-0.29,0.81-0.7,0.96-1.25c0.15-0.54,0.08-1.07-0.21-1.57c-0.28-0.5-0.69-0.81-1.25-0.96c-0.55-0.15-1.07-0.08-1.56,0.19
		C1191.33,155.62,1191.01,156.05,1190.86,156.6z"/>
</g>
<circle fill="#FFFFFF" stroke="#000000" stroke-width="3" stroke-miterlimit="10" cx="1250.88" cy="238" r="10"/>
<g>
	<path d="M1256.83,220.2l-0.57,2.14l-9.1-2.44l-0.66,2.45l-1.85-0.5l1.89-7.05l1.85,0.5l-0.66,2.46L1256.83,220.2z"/>
	<path d="M1251.26,211.64c0.32-1.19,0.93-2.07,1.83-2.63c0.9-0.56,1.91-0.69,3.04-0.39s1.94,0.92,2.43,1.86
		c0.49,0.95,0.58,2.02,0.26,3.23c-0.32,1.21-0.94,2.08-1.86,2.64c-0.91,0.55-1.92,0.68-3.03,0.38c-1.12-0.3-1.92-0.93-2.41-1.88
		C1251.02,213.91,1250.94,212.83,1251.26,211.64z M1253.04,212.14c-0.15,0.55-0.08,1.08,0.2,1.57c0.28,0.5,0.7,0.82,1.25,0.97
		s1.08,0.08,1.57-0.21c0.5-0.29,0.82-0.71,0.97-1.26c0.15-0.55,0.08-1.08-0.2-1.58c-0.28-0.5-0.69-0.81-1.25-0.96
		c-0.55-0.15-1.07-0.08-1.57,0.21C1253.51,211.17,1253.19,211.59,1253.04,212.14z"/>
	<path d="M1248.32,202.75l6.11,1.64c-0.58-0.87-0.75-1.78-0.5-2.73c0.25-0.95,0.83-1.65,1.73-2.12c0.9-0.47,1.89-0.56,2.97-0.27
		c1.08,0.29,1.89,0.86,2.44,1.72s0.68,1.77,0.42,2.74c-0.26,0.97-0.86,1.66-1.79,2.07l0.92,0.25l-0.53,1.99l-12.3-3.3
		L1248.32,202.75z M1255.55,202.78c-0.15,0.55-0.08,1.07,0.2,1.57c0.28,0.5,0.7,0.81,1.25,0.96s1.08,0.08,1.57-0.21
		c0.5-0.29,0.81-0.7,0.96-1.25s0.08-1.07-0.21-1.57c-0.28-0.5-0.69-0.82-1.24-0.97c-0.55-0.15-1.07-0.08-1.57,0.21
		C1256.01,201.82,1255.7,202.23,1255.55,202.78z"/>
	<path d="M1261.23,190.84l-1.43,5.33c1.29,0.29,2.08-0.12,2.37-1.23c0.19-0.69,0.02-1.34-0.5-1.95l0.79-1.76
		c1.31,1.01,1.74,2.37,1.29,4.08c-0.31,1.16-0.9,1.99-1.78,2.5c-0.88,0.51-1.88,0.61-3.03,0.31c-1.15-0.31-1.97-0.89-2.48-1.75
		c-0.51-0.87-0.61-1.86-0.31-2.99c0.3-1.13,0.89-1.93,1.74-2.39c0.86-0.47,1.88-0.54,3.08-0.22L1261.23,190.84z M1258.55,195.77
		l0.9-3.37c-1-0.04-1.62,0.41-1.86,1.31C1257.36,194.59,1257.7,195.36,1258.55,195.77z"/>
	<path d="M1265.4,188.21l-0.53,1.99l-7.11-1.91l0.53-1.99l1.08,0.29c-0.74-0.72-1-1.53-0.75-2.42c0.08-0.28,0.21-0.55,0.41-0.82
		l1.78,0.78c-0.25,0.25-0.41,0.54-0.49,0.88c-0.3,1.14,0.26,1.9,1.68,2.28L1265.4,188.21z"/>
	<path d="M1264.57,176.71l3.65,0.98l-0.53,1.99l-3.78-1.01c-0.55-0.15-0.96-0.21-1.2-0.18c-0.24,0.03-0.46,0.13-0.64,0.29
		s-0.3,0.37-0.36,0.59c-0.12,0.45,0.02,0.98,0.4,1.36c0.19,0.19,0.61,0.37,1.24,0.53l3.65,0.98l-0.53,1.99l-7.11-1.91l0.53-1.99
		l0.83,0.22c-0.53-0.8-0.68-1.65-0.44-2.55c0.24-0.9,0.86-1.49,1.86-1.76c-0.72-0.79-0.95-1.66-0.69-2.62
		c0.26-0.95,0.78-1.54,1.58-1.78c0.48-0.14,1.08-0.12,1.83,0.08l4.59,1.23l-0.53,1.99l-3.89-1.04c-0.51-0.14-0.91-0.18-1.18-0.15
		c-0.47,0.07-0.76,0.35-0.89,0.83C1262.69,175.72,1263.23,176.35,1264.57,176.71z"/>
	<path d="M1263.6,165.58c0.32-1.19,0.93-2.07,1.83-2.63c0.9-0.56,1.91-0.69,3.04-0.39c1.12,0.3,1.94,0.92,2.43,1.86
		c0.49,0.95,0.58,2.02,0.26,3.23s-0.95,2.08-1.86,2.64c-0.91,0.55-1.92,0.68-3.03,0.38c-1.11-0.3-1.92-0.93-2.41-1.87
		C1263.36,167.86,1263.28,166.78,1263.6,165.58z M1265.38,166.09c-0.15,0.55-0.08,1.08,0.2,1.57c0.28,0.5,0.7,0.82,1.25,0.97
		s1.08,0.08,1.57-0.21c0.5-0.29,0.82-0.71,0.96-1.26c0.15-0.55,0.08-1.09-0.2-1.58c-0.28-0.5-0.69-0.81-1.25-0.96
		c-0.55-0.15-1.07-0.08-1.57,0.21C1265.85,165.11,1265.53,165.53,1265.38,166.09z"/>
	<path d="M1272.96,160l-0.53,1.99l-7.11-1.91l0.53-1.99l1.08,0.29c-0.74-0.72-1-1.53-0.75-2.42c0.08-0.28,0.21-0.55,0.41-0.82
		l1.78,0.78c-0.25,0.25-0.41,0.54-0.49,0.88c-0.3,1.14,0.26,1.9,1.67,2.28L1272.96,160z"/>
	<path d="M1273.71,152.85l-6.93,1.75l0.62-2.32l4.61-1.05l-3.5-3.1l0.61-2.29l9.36,8.67l-0.6,2.25L1273.71,152.85z"/>
</g>
<circle fill="#FFFFFF" stroke="#000000" stroke-width="3" stroke-miterlimit="10" cx="1327.94" cy="238" r="10"/>
<g>
	<path d="M1325.35,219.41c0.31,0.08,0.6,0.04,0.85-0.14c0.25-0.18,0.66-0.65,1.21-1.42c0.55-0.77,1.04-1.3,1.49-1.6
		c0.72-0.5,1.59-0.61,2.62-0.34c1.03,0.28,1.79,0.86,2.27,1.73s0.57,1.89,0.26,3.03c-0.42,1.55-1.45,2.61-3.09,3.2l-0.96-1.74
		c1.11-0.25,1.8-0.88,2.07-1.9c0.13-0.49,0.1-0.94-0.1-1.33c-0.21-0.39-0.53-0.65-0.99-0.77c-0.46-0.12-0.87-0.03-1.25,0.29
		c-0.19,0.15-0.57,0.64-1.14,1.46s-1.14,1.37-1.69,1.66c-0.55,0.29-1.19,0.33-1.91,0.14c-0.92-0.25-1.6-0.77-2.03-1.58
		c-0.43-0.81-0.51-1.7-0.25-2.69c0.33-1.22,1.02-2.18,2.08-2.9l1.16,1.51c-0.73,0.36-1.19,0.88-1.36,1.54
		c-0.12,0.44-0.1,0.83,0.06,1.19C1324.8,219.11,1325.04,219.33,1325.35,219.41z"/>
	<path d="M1333.92,207.17l-1.43,5.33c1.29,0.29,2.08-0.12,2.37-1.23c0.18-0.69,0.01-1.34-0.5-1.95l0.79-1.76
		c1.31,1.01,1.74,2.37,1.29,4.07c-0.31,1.16-0.9,1.99-1.78,2.5c-0.88,0.51-1.88,0.61-3.03,0.31c-1.15-0.31-1.97-0.89-2.48-1.75
		s-0.61-1.86-0.31-2.99s0.89-1.93,1.74-2.4c0.86-0.47,1.88-0.54,3.07-0.22L1333.92,207.17z M1331.24,212.1l0.9-3.37
		c-1-0.03-1.62,0.41-1.86,1.31C1330.04,210.92,1330.38,211.69,1331.24,212.1z"/>
	<path d="M1330.44,204.62l0.53-1.99l0.89,0.24c-0.65-0.83-0.78-1.57-0.52-2.53c0.23-0.87,0.7-1.49,1.41-1.84
		c0.52-0.26,1.23-0.27,2.12-0.03l4.51,1.21l-0.53,1.99l-3.94-1.06c-0.54-0.15-0.95-0.18-1.2-0.11c-0.43,0.11-0.72,0.44-0.87,1.01
		c-0.27,1,0.25,1.68,1.57,2.04l3.68,0.99l-0.53,1.99L1330.44,204.62z"/>
	<path d="M1335.04,194.34l5.39,1.44l-0.53,1.99l-5.39-1.44l-0.21,0.79l-1.72-0.46l0.21-0.79l-2.43-0.65l0.53-1.99l2.43,0.65
		l0.38-1.41l1.72,0.46L1335.04,194.34z"/>
	<path d="M1330.06,189.22c0.09-0.33,0.28-0.58,0.57-0.75c0.29-0.17,0.61-0.21,0.93-0.12c0.33,0.09,0.58,0.29,0.76,0.58
		c0.18,0.3,0.22,0.62,0.13,0.95c-0.09,0.33-0.28,0.58-0.58,0.75c-0.29,0.17-0.62,0.21-0.94,0.12s-0.59-0.29-0.75-0.59
		C1330.01,189.87,1329.97,189.55,1330.06,189.22z M1334.52,189.38l7.11,1.91l-0.53,1.98l-7.11-1.91L1334.52,189.38z"/>
	<path d="M1335.03,187.5l0.53-1.99l0.89,0.24c-0.65-0.83-0.78-1.57-0.52-2.53c0.23-0.87,0.7-1.49,1.41-1.84
		c0.53-0.26,1.23-0.27,2.12-0.03l4.51,1.21l-0.53,1.99l-3.95-1.06c-0.54-0.15-0.95-0.19-1.2-0.11c-0.43,0.11-0.72,0.44-0.87,1.01
		c-0.27,1,0.25,1.68,1.57,2.04l3.68,0.99l-0.53,1.99L1335.03,187.5z"/>
	<path d="M1343.12,172.8l-1.43,5.33c1.29,0.29,2.08-0.12,2.37-1.23c0.19-0.69,0.02-1.34-0.5-1.95l0.79-1.76
		c1.31,1.01,1.74,2.37,1.29,4.07c-0.31,1.16-0.9,1.99-1.78,2.51c-0.88,0.51-1.88,0.61-3.03,0.3c-1.15-0.31-1.97-0.89-2.48-1.75
		c-0.51-0.87-0.61-1.86-0.31-2.99s0.89-1.93,1.74-2.39c0.86-0.47,1.88-0.54,3.08-0.22L1343.12,172.8z M1340.45,177.73l0.9-3.37
		c-1-0.03-1.62,0.41-1.86,1.31C1339.25,176.55,1339.59,177.32,1340.45,177.73z"/>
	<path d="M1335.01,166.83l12.3,3.3l-0.53,1.99l-12.3-3.3L1335.01,166.83z"/>
</g>
<circle fill="#FFFFFF" stroke="#000000" stroke-width="3" stroke-miterlimit="10" cx="1405" cy="238" r="10"/>
<g>
	<path d="M1402.48,215.4l-0.98,3.66l2.44,0.65l0.92-3.43l1.85,0.5l-0.92,3.43l4.81,1.29l-0.57,2.13l-10.95-2.93l1.55-5.8
		L1402.48,215.4z"/>
	<path d="M1400.94,212.3c0.09-0.33,0.28-0.58,0.57-0.75c0.29-0.17,0.61-0.21,0.93-0.12c0.33,0.09,0.59,0.29,0.76,0.58
		c0.18,0.3,0.22,0.62,0.13,0.95c-0.09,0.33-0.28,0.58-0.58,0.75c-0.29,0.17-0.62,0.21-0.94,0.12c-0.33-0.09-0.58-0.29-0.75-0.59
		C1400.88,212.95,1400.85,212.63,1400.94,212.3z M1405.4,212.46l7.11,1.91l-0.53,1.98l-7.11-1.91L1405.4,212.46z"/>
	<path d="M1405.9,210.58l0.53-1.99l0.89,0.24c-0.65-0.83-0.78-1.57-0.52-2.53c0.23-0.87,0.7-1.49,1.41-1.84
		c0.53-0.26,1.23-0.27,2.12-0.03l4.52,1.21l-0.53,1.99l-3.95-1.06c-0.54-0.15-0.95-0.18-1.2-0.11c-0.43,0.11-0.72,0.44-0.87,1.01
		c-0.27,1,0.25,1.68,1.57,2.04l3.68,0.99l-0.53,1.99L1405.9,210.58z"/>
	<path d="M1411.85,197.09c-0.55,0.41-0.89,0.9-1.05,1.47c-0.15,0.57-0.09,1.09,0.18,1.58c0.27,0.49,0.69,0.81,1.27,0.97
		c0.58,0.15,1.1,0.09,1.58-0.2c0.48-0.29,0.8-0.72,0.96-1.3s0.11-1.17-0.15-1.78l1.93,0.52c0.14,0.67,0.12,1.31-0.04,1.94
		c-0.3,1.11-0.9,1.93-1.83,2.48c-0.91,0.55-1.91,0.68-2.98,0.4c-1.07-0.29-1.87-0.91-2.41-1.85c-0.53-0.94-0.65-1.97-0.35-3.08
		c0.17-0.65,0.48-1.21,0.91-1.69L1411.85,197.09z"/>
	<path d="M1404.93,193.44l0.53-1.99l6.11,1.64c-0.61-0.79-0.79-1.63-0.55-2.53c0.24-0.9,0.71-1.51,1.42-1.84
		c0.55-0.26,1.27-0.26,2.16-0.02l4.46,1.2l-0.53,1.99l-3.89-1.04c-0.57-0.15-0.98-0.19-1.24-0.12c-0.44,0.11-0.74,0.46-0.89,1.01
		c-0.27,1,0.26,1.69,1.6,2.04l3.65,0.98l-0.53,1.99L1404.93,193.44z"/>
	<path d="M1410.08,179.63l8.12-0.46l-6.84-4.7l0.31-1.16l8.23-0.52l-6.75-4.63l0.6-2.25l10.07,7.11l-0.4,1.5l-7.81,0.51l6.47,4.48
		l-0.4,1.5l-12.21,0.88L1410.08,179.63z"/>
	<path d="M1423.44,160.66l-1.43,5.33c1.29,0.29,2.08-0.12,2.37-1.23c0.18-0.69,0.01-1.34-0.5-1.95l0.79-1.76
		c1.31,1.01,1.74,2.37,1.29,4.08c-0.31,1.16-0.9,1.99-1.78,2.5s-1.88,0.61-3.03,0.31c-1.15-0.31-1.97-0.89-2.48-1.75
		s-0.61-1.86-0.31-2.99c0.3-1.13,0.89-1.93,1.74-2.4c0.86-0.47,1.88-0.54,3.07-0.22L1423.44,160.66z M1420.76,165.59l0.9-3.37
		c-1-0.04-1.62,0.41-1.86,1.31C1419.56,164.41,1419.91,165.18,1420.76,165.59z"/>
	<path d="M1422.63,154.78c-0.42,0.33-0.68,0.64-0.76,0.94c-0.08,0.3-0.08,0.53-0.01,0.71c0.08,0.18,0.21,0.3,0.37,0.34
		s0.32,0.01,0.47-0.12c0.14-0.12,0.38-0.44,0.72-0.94c0.34-0.5,0.65-0.87,0.92-1.08c0.5-0.42,1.11-0.54,1.82-0.35
		c0.71,0.19,1.24,0.63,1.56,1.31c0.33,0.69,0.38,1.48,0.14,2.35c-0.29,1.07-0.92,1.87-1.91,2.38l-0.93-1.37
		c0.7-0.41,1.13-0.89,1.28-1.46c0.14-0.5-0.11-1-0.54-1.12c-0.22-0.06-0.39-0.04-0.54,0.07c-0.14,0.11-0.4,0.42-0.76,0.94
		c-0.36,0.52-0.65,0.87-0.88,1.04c-0.46,0.38-1.01,0.49-1.67,0.31c-0.67-0.18-1.14-0.56-1.43-1.16c-0.3-0.59-0.33-1.28-0.12-2.09
		s0.67-1.47,1.36-2.02L1422.63,154.78z"/>
	<path d="M1424.01,149.88l5.39,1.44l-0.53,1.99l-5.39-1.44l-0.21,0.79l-1.72-0.46l0.21-0.79l-2.43-0.65l0.53-1.99l2.43,0.65
		l0.38-1.41l1.72,0.46L1424.01,149.88z"/>
</g>
<g>
	<path fill="#9B9B9B" d="M668.61,270.01v-10.02h4.44c0.89,0,1.57,0.09,2.04,0.27c0.46,0.18,0.84,0.5,1.11,0.95s0.42,0.96,0.42,1.51
		c0,0.71-0.23,1.31-0.69,1.8s-1.17,0.8-2.13,0.93c0.35,0.17,0.62,0.33,0.8,0.5c0.39,0.36,0.75,0.8,1.1,1.33l1.74,2.73h-1.67
		l-1.33-2.08c-0.39-0.6-0.71-1.06-0.96-1.38s-0.48-0.54-0.67-0.67s-0.4-0.22-0.6-0.27c-0.15-0.03-0.4-0.05-0.74-0.05h-1.54v4.45
		H668.61z M669.93,264.42h2.85c0.61,0,1.08-0.06,1.42-0.19c0.34-0.12,0.6-0.33,0.78-0.6c0.18-0.28,0.27-0.58,0.27-0.9
		c0-0.47-0.17-0.86-0.52-1.17s-0.89-0.46-1.63-0.46h-3.17V264.42z"/>
	<path fill="#9B9B9B" d="M683.28,269.12c-0.46,0.39-0.89,0.66-1.32,0.82s-0.87,0.24-1.36,0.24c-0.8,0-1.41-0.2-1.84-0.58
		c-0.43-0.39-0.64-0.89-0.64-1.49c0-0.36,0.08-0.68,0.24-0.97c0.16-0.29,0.37-0.53,0.64-0.71s0.56-0.31,0.89-0.4
		c0.24-0.06,0.61-0.12,1.09-0.18c0.99-0.12,1.73-0.26,2.19-0.42c0-0.17,0.01-0.28,0.01-0.32c0-0.5-0.12-0.85-0.35-1.06
		c-0.31-0.28-0.78-0.42-1.4-0.42c-0.58,0-1.01,0.1-1.28,0.3c-0.28,0.2-0.48,0.56-0.61,1.08l-1.2-0.16c0.11-0.51,0.29-0.93,0.54-1.25
		c0.25-0.32,0.61-0.56,1.09-0.73c0.47-0.17,1.02-0.26,1.65-0.26c0.62,0,1.12,0.07,1.51,0.22s0.67,0.33,0.85,0.55
		c0.18,0.22,0.31,0.5,0.38,0.84c0.04,0.21,0.06,0.59,0.06,1.13v1.64c0,1.14,0.03,1.87,0.08,2.17c0.05,0.3,0.16,0.59,0.31,0.87h-1.29
		C683.4,269.76,683.31,269.46,683.28,269.12z M683.18,266.37c-0.45,0.18-1.12,0.34-2.01,0.46c-0.51,0.07-0.86,0.16-1.07,0.25
		s-0.37,0.22-0.49,0.4c-0.11,0.18-0.17,0.37-0.17,0.58c0,0.33,0.12,0.6,0.37,0.82s0.61,0.33,1.09,0.33c0.47,0,0.9-0.1,1.26-0.31
		c0.37-0.21,0.64-0.49,0.81-0.85c0.13-0.28,0.2-0.69,0.2-1.23V266.37z"/>
	<path fill="#9B9B9B" d="M686.33,261.41v-1.42h1.23v1.42H686.33z M686.33,270.01v-7.26h1.23v7.26H686.33z"/>
	<path fill="#9B9B9B" d="M689.41,270.01v-10.02h1.23v10.02H689.41z"/>
	<path fill="#9B9B9B" d="M696.66,270.01v-10.02h6.76v1.18h-5.43v3.1h4.7v1.18h-4.7v4.55H696.66z"/>
	<path fill="#9B9B9B" d="M709.73,269.12c-0.46,0.39-0.89,0.66-1.32,0.82s-0.87,0.24-1.36,0.24c-0.8,0-1.41-0.2-1.84-0.58
		c-0.43-0.39-0.64-0.89-0.64-1.49c0-0.36,0.08-0.68,0.24-0.97c0.16-0.29,0.37-0.53,0.64-0.71s0.56-0.31,0.89-0.4
		c0.24-0.06,0.61-0.12,1.09-0.18c0.99-0.12,1.73-0.26,2.19-0.42c0-0.17,0.01-0.28,0.01-0.32c0-0.5-0.12-0.85-0.35-1.06
		c-0.31-0.28-0.78-0.42-1.4-0.42c-0.58,0-1.01,0.1-1.28,0.3c-0.28,0.2-0.48,0.56-0.61,1.08l-1.2-0.16c0.11-0.51,0.29-0.93,0.54-1.25
		c0.25-0.32,0.61-0.56,1.09-0.73c0.47-0.17,1.02-0.26,1.65-0.26c0.62,0,1.12,0.07,1.51,0.22s0.67,0.33,0.85,0.55
		c0.18,0.22,0.31,0.5,0.38,0.84c0.04,0.21,0.06,0.59,0.06,1.13v1.64c0,1.14,0.03,1.87,0.08,2.17c0.05,0.3,0.16,0.59,0.31,0.87h-1.29
		C709.84,269.76,709.76,269.46,709.73,269.12z M709.62,266.37c-0.45,0.18-1.12,0.34-2.01,0.46c-0.51,0.07-0.86,0.16-1.07,0.25
		s-0.37,0.22-0.49,0.4c-0.11,0.18-0.17,0.37-0.17,0.58c0,0.33,0.12,0.6,0.37,0.82s0.61,0.33,1.09,0.33c0.47,0,0.9-0.1,1.26-0.31
		c0.37-0.21,0.64-0.49,0.81-0.85c0.13-0.28,0.2-0.69,0.2-1.23V266.37z"/>
	<path fill="#9B9B9B" d="M712.77,270.01v-7.26h1.11v1.03c0.53-0.8,1.3-1.2,2.31-1.2c0.44,0,0.84,0.08,1.21,0.24
		c0.37,0.16,0.64,0.36,0.82,0.62s0.31,0.56,0.38,0.91c0.05,0.23,0.07,0.63,0.07,1.2v4.46h-1.23v-4.42c0-0.5-0.05-0.88-0.14-1.12
		c-0.1-0.25-0.27-0.45-0.51-0.59c-0.24-0.15-0.53-0.22-0.86-0.22c-0.52,0-0.98,0.17-1.36,0.5s-0.57,0.96-0.57,1.89v3.96H712.77z"/>
	<path fill="#9B9B9B" d="M720.07,267.85l1.22-0.19c0.07,0.49,0.26,0.86,0.57,1.12s0.75,0.39,1.31,0.39c0.56,0,0.98-0.12,1.26-0.35
		c0.27-0.23,0.41-0.5,0.41-0.81c0-0.28-0.12-0.5-0.36-0.66c-0.17-0.11-0.59-0.25-1.26-0.42c-0.9-0.23-1.53-0.42-1.88-0.59
		c-0.35-0.17-0.61-0.4-0.79-0.69c-0.18-0.29-0.27-0.62-0.27-0.97c0-0.32,0.07-0.62,0.22-0.9c0.15-0.28,0.35-0.5,0.6-0.69
		c0.19-0.14,0.45-0.26,0.78-0.36c0.33-0.1,0.68-0.15,1.06-0.15c0.57,0,1.07,0.08,1.5,0.25s0.75,0.39,0.95,0.67
		c0.21,0.28,0.35,0.66,0.42,1.12l-1.2,0.16c-0.05-0.37-0.21-0.67-0.48-0.88s-0.63-0.31-1.11-0.31c-0.56,0-0.97,0.09-1.21,0.28
		s-0.36,0.41-0.36,0.66c0,0.16,0.05,0.3,0.15,0.43c0.1,0.13,0.26,0.24,0.47,0.33c0.12,0.05,0.49,0.15,1.09,0.31
		c0.87,0.23,1.48,0.42,1.82,0.57c0.34,0.15,0.61,0.36,0.81,0.65s0.29,0.63,0.29,1.05c0,0.41-0.12,0.8-0.36,1.16
		c-0.24,0.36-0.58,0.64-1.04,0.84c-0.45,0.2-0.96,0.3-1.53,0.3c-0.94,0-1.66-0.2-2.16-0.59S720.21,268.62,720.07,267.85z"/>
	<path fill="#9B9B9B" d="M738.76,266.5l1.33,0.33c-0.28,1.09-0.78,1.92-1.5,2.49c-0.72,0.57-1.61,0.86-2.65,0.86
		c-1.08,0-1.96-0.22-2.64-0.66c-0.68-0.44-1.19-1.08-1.54-1.91s-0.53-1.73-0.53-2.69c0-1.04,0.2-1.95,0.6-2.73
		c0.4-0.78,0.97-1.37,1.7-1.77c0.74-0.4,1.55-0.6,2.43-0.6c1,0,1.85,0.25,2.53,0.77s1.16,1.23,1.43,2.15l-1.31,0.31
		c-0.23-0.73-0.57-1.26-1.01-1.59s-1-0.5-1.67-0.5c-0.77,0-1.41,0.18-1.93,0.55s-0.88,0.87-1.09,1.49
		c-0.21,0.62-0.31,1.26-0.31,1.92c0,0.85,0.12,1.6,0.37,2.23c0.25,0.64,0.63,1.11,1.16,1.43s1.09,0.47,1.7,0.47
		c0.74,0,1.37-0.21,1.89-0.64S738.58,267.34,738.76,266.5z"/>
	<path fill="#9B9B9B" d="M746.3,269.12c-0.46,0.39-0.89,0.66-1.32,0.82s-0.87,0.24-1.36,0.24c-0.8,0-1.41-0.2-1.84-0.58
		c-0.43-0.39-0.64-0.89-0.64-1.49c0-0.36,0.08-0.68,0.24-0.97c0.16-0.29,0.37-0.53,0.64-0.71s0.56-0.31,0.89-0.4
		c0.24-0.06,0.61-0.12,1.09-0.18c0.99-0.12,1.73-0.26,2.19-0.42c0-0.17,0.01-0.28,0.01-0.32c0-0.5-0.12-0.85-0.35-1.06
		c-0.31-0.28-0.78-0.42-1.4-0.42c-0.58,0-1.01,0.1-1.28,0.3c-0.28,0.2-0.48,0.56-0.61,1.08l-1.2-0.16c0.11-0.51,0.29-0.93,0.54-1.25
		c0.25-0.32,0.61-0.56,1.09-0.73c0.47-0.17,1.02-0.26,1.65-0.26c0.62,0,1.12,0.07,1.51,0.22s0.67,0.33,0.85,0.55
		c0.18,0.22,0.31,0.5,0.38,0.84c0.04,0.21,0.06,0.59,0.06,1.13v1.64c0,1.14,0.03,1.87,0.08,2.17c0.05,0.3,0.16,0.59,0.31,0.87h-1.29
		C746.42,269.76,746.33,269.46,746.3,269.12z M746.2,266.37c-0.45,0.18-1.12,0.34-2.01,0.46c-0.51,0.07-0.86,0.16-1.07,0.25
		s-0.37,0.22-0.49,0.4c-0.11,0.18-0.17,0.37-0.17,0.58c0,0.33,0.12,0.6,0.37,0.82s0.61,0.33,1.09,0.33c0.47,0,0.9-0.1,1.26-0.31
		c0.37-0.21,0.64-0.49,0.81-0.85c0.13-0.28,0.2-0.69,0.2-1.23V266.37z"/>
	<path fill="#9B9B9B" d="M749.35,270.01v-7.26h1.11v1.03c0.53-0.8,1.3-1.2,2.31-1.2c0.44,0,0.84,0.08,1.21,0.24
		c0.37,0.16,0.64,0.36,0.82,0.62c0.18,0.25,0.31,0.56,0.38,0.91c0.05,0.23,0.07,0.63,0.07,1.2v4.46h-1.23v-4.42
		c0-0.5-0.05-0.88-0.14-1.12c-0.1-0.25-0.27-0.45-0.51-0.59c-0.24-0.15-0.53-0.22-0.86-0.22c-0.52,0-0.98,0.17-1.36,0.5
		c-0.38,0.33-0.57,0.96-0.57,1.89v3.96H749.35z"/>
	<path fill="#9B9B9B" d="M761.87,269.12c-0.46,0.39-0.89,0.66-1.32,0.82s-0.87,0.24-1.36,0.24c-0.8,0-1.41-0.2-1.84-0.58
		c-0.43-0.39-0.64-0.89-0.64-1.49c0-0.36,0.08-0.68,0.24-0.97c0.16-0.29,0.37-0.53,0.64-0.71s0.56-0.31,0.89-0.4
		c0.24-0.06,0.61-0.12,1.09-0.18c0.99-0.12,1.72-0.26,2.19-0.42c0-0.17,0.01-0.28,0.01-0.32c0-0.5-0.12-0.85-0.35-1.06
		c-0.31-0.28-0.78-0.42-1.4-0.42c-0.58,0-1.01,0.1-1.28,0.3c-0.28,0.2-0.48,0.56-0.61,1.08l-1.2-0.16c0.11-0.51,0.29-0.93,0.54-1.25
		c0.25-0.32,0.61-0.56,1.09-0.73c0.47-0.17,1.02-0.26,1.65-0.26c0.62,0,1.12,0.07,1.51,0.22c0.39,0.15,0.67,0.33,0.86,0.55
		c0.18,0.22,0.31,0.5,0.38,0.84c0.04,0.21,0.06,0.59,0.06,1.13v1.64c0,1.14,0.03,1.87,0.08,2.17c0.05,0.3,0.16,0.59,0.31,0.87h-1.29
		C761.99,269.76,761.91,269.46,761.87,269.12z M761.77,266.37c-0.45,0.18-1.12,0.34-2.01,0.46c-0.51,0.07-0.86,0.16-1.07,0.25
		c-0.21,0.09-0.37,0.22-0.49,0.4c-0.11,0.18-0.17,0.37-0.17,0.58c0,0.33,0.12,0.6,0.37,0.82s0.61,0.33,1.09,0.33
		c0.47,0,0.89-0.1,1.26-0.31c0.37-0.21,0.64-0.49,0.81-0.85c0.13-0.28,0.2-0.69,0.2-1.23V266.37z"/>
	<path fill="#9B9B9B" d="M769.63,270.01v-0.92c-0.46,0.72-1.14,1.08-2.03,1.08c-0.58,0-1.11-0.16-1.6-0.48s-0.86-0.76-1.13-1.34
		c-0.27-0.57-0.4-1.23-0.4-1.97c0-0.72,0.12-1.38,0.36-1.97c0.24-0.59,0.6-1.04,1.09-1.36c0.48-0.31,1.02-0.47,1.62-0.47
		c0.44,0,0.83,0.09,1.17,0.28c0.34,0.18,0.62,0.42,0.83,0.72v-3.6h1.22v10.02H769.63z M765.74,266.39c0,0.93,0.2,1.62,0.59,2.08
		c0.39,0.46,0.85,0.69,1.39,0.69c0.54,0,1-0.22,1.37-0.66c0.38-0.44,0.56-1.11,0.56-2.01c0-0.99-0.19-1.72-0.57-2.19
		s-0.86-0.7-1.42-0.7c-0.55,0-1,0.22-1.37,0.67S765.74,265.43,765.74,266.39z"/>
	<path fill="#9B9B9B" d="M777.44,269.12c-0.46,0.39-0.89,0.66-1.32,0.82s-0.87,0.24-1.36,0.24c-0.8,0-1.41-0.2-1.84-0.58
		c-0.43-0.39-0.64-0.89-0.64-1.49c0-0.36,0.08-0.68,0.24-0.97c0.16-0.29,0.37-0.53,0.64-0.71s0.56-0.31,0.89-0.4
		c0.24-0.06,0.61-0.12,1.09-0.18c0.99-0.12,1.72-0.26,2.19-0.42c0-0.17,0.01-0.28,0.01-0.32c0-0.5-0.12-0.85-0.35-1.06
		c-0.31-0.28-0.78-0.42-1.4-0.42c-0.58,0-1.01,0.1-1.28,0.3c-0.28,0.2-0.48,0.56-0.61,1.08l-1.2-0.16c0.11-0.51,0.29-0.93,0.54-1.25
		c0.25-0.32,0.61-0.56,1.09-0.73c0.47-0.17,1.02-0.26,1.65-0.26c0.62,0,1.12,0.07,1.51,0.22c0.39,0.15,0.67,0.33,0.86,0.55
		c0.18,0.22,0.31,0.5,0.38,0.84c0.04,0.21,0.06,0.59,0.06,1.13v1.64c0,1.14,0.03,1.87,0.08,2.17c0.05,0.3,0.16,0.59,0.31,0.87h-1.29
		C777.56,269.76,777.48,269.46,777.44,269.12z M777.34,266.37c-0.45,0.18-1.12,0.34-2.01,0.46c-0.51,0.07-0.86,0.16-1.07,0.25
		c-0.21,0.09-0.37,0.22-0.49,0.4c-0.11,0.18-0.17,0.37-0.17,0.58c0,0.33,0.12,0.6,0.37,0.82s0.61,0.33,1.09,0.33
		c0.47,0,0.89-0.1,1.26-0.31c0.37-0.21,0.64-0.49,0.81-0.85c0.13-0.28,0.2-0.69,0.2-1.23V266.37z"/>
	<path fill="#9B9B9B" d="M783.46,266.88v-0.99h14v0.99H783.46z"/>
	<path fill="#9B9B9B" d="M808.4,268.83v1.18h-6.62c-0.01-0.3,0.04-0.58,0.14-0.85c0.17-0.45,0.44-0.9,0.81-1.33s0.91-0.94,1.61-1.52
		c1.09-0.89,1.82-1.6,2.21-2.12c0.38-0.52,0.57-1.01,0.57-1.48c0-0.49-0.17-0.9-0.52-1.23c-0.35-0.34-0.8-0.5-1.36-0.5
		c-0.59,0-1.07,0.18-1.42,0.53s-0.54,0.85-0.54,1.48l-1.27-0.13c0.09-0.94,0.41-1.66,0.98-2.16c0.56-0.5,1.32-0.74,2.28-0.74
		c0.96,0,1.72,0.27,2.28,0.8s0.84,1.19,0.84,1.98c0,0.4-0.08,0.79-0.25,1.18s-0.44,0.79-0.82,1.22s-1.01,1.02-1.9,1.76
		c-0.74,0.62-1.21,1.04-1.42,1.26c-0.21,0.22-0.38,0.44-0.52,0.67H808.4z"/>
	<path fill="#9B9B9B" d="M809.71,265.07c0-1.18,0.12-2.14,0.37-2.86c0.24-0.72,0.61-1.28,1.09-1.67s1.09-0.59,1.81-0.59
		c0.54,0,1.01,0.11,1.42,0.32c0.41,0.22,0.74,0.53,1,0.94c0.26,0.41,0.47,0.9,0.62,1.49c0.15,0.58,0.22,1.38,0.22,2.37
		c0,1.18-0.12,2.12-0.36,2.85c-0.24,0.72-0.6,1.28-1.08,1.68c-0.48,0.39-1.09,0.59-1.82,0.59c-0.97,0-1.72-0.35-2.28-1.04
		C810.05,268.31,809.71,266.95,809.71,265.07z M810.98,265.07c0,1.65,0.19,2.74,0.58,3.28c0.39,0.54,0.86,0.82,1.42,0.82
		c0.57,0,1.04-0.27,1.43-0.82s0.58-1.64,0.58-3.28c0-1.65-0.19-2.75-0.58-3.29s-0.87-0.81-1.44-0.81c-0.56,0-1.02,0.24-1.35,0.72
		C811.19,262.3,810.98,263.43,810.98,265.07z"/>
	<path fill="#9B9B9B" d="M823.97,268.83v1.18h-6.62c-0.01-0.3,0.04-0.58,0.14-0.85c0.17-0.45,0.44-0.9,0.81-1.33
		s0.91-0.94,1.61-1.52c1.09-0.89,1.82-1.6,2.21-2.12c0.38-0.52,0.57-1.01,0.57-1.48c0-0.49-0.17-0.9-0.52-1.23
		c-0.35-0.34-0.8-0.5-1.36-0.5c-0.59,0-1.07,0.18-1.42,0.53s-0.54,0.85-0.54,1.48l-1.27-0.13c0.09-0.94,0.41-1.66,0.98-2.16
		c0.56-0.5,1.32-0.74,2.28-0.74c0.96,0,1.72,0.27,2.28,0.8s0.84,1.19,0.84,1.98c0,0.4-0.08,0.79-0.25,1.18s-0.44,0.79-0.82,1.22
		s-1.01,1.02-1.9,1.76c-0.74,0.62-1.21,1.04-1.42,1.26c-0.21,0.22-0.38,0.44-0.52,0.67H823.97z"/>
	<path fill="#9B9B9B" d="M831.67,262.45l-1.22,0.1c-0.11-0.48-0.26-0.83-0.46-1.05c-0.33-0.35-0.74-0.53-1.23-0.53
		c-0.39,0-0.74,0.11-1.03,0.33c-0.39,0.28-0.69,0.7-0.92,1.24c-0.22,0.54-0.34,1.31-0.35,2.32c0.3-0.45,0.66-0.79,1.09-1
		c0.43-0.22,0.88-0.33,1.35-0.33c0.82,0,1.52,0.3,2.09,0.91c0.58,0.6,0.86,1.38,0.86,2.34c0,0.63-0.13,1.21-0.41,1.75
		c-0.27,0.54-0.64,0.95-1.12,1.24c-0.47,0.29-1.01,0.43-1.61,0.43c-1.03,0-1.86-0.38-2.51-1.13c-0.65-0.75-0.97-2-0.97-3.73
		c0-1.94,0.36-3.34,1.07-4.22c0.62-0.77,1.46-1.15,2.52-1.15c0.79,0,1.44,0.22,1.94,0.66S831.57,261.67,831.67,262.45z
		 M826.65,266.77c0,0.42,0.09,0.83,0.27,1.22s0.43,0.68,0.76,0.89c0.32,0.2,0.66,0.3,1.02,0.3c0.52,0,0.97-0.21,1.34-0.63
		c0.37-0.42,0.56-0.99,0.56-1.71c0-0.69-0.18-1.24-0.55-1.64c-0.37-0.4-0.83-0.6-1.39-0.6c-0.56,0-1.03,0.2-1.42,0.6
		C826.84,265.6,826.65,266.12,826.65,266.77z"/>
</g>
<g>
	<path d="M19.71,21.33v24.38h9.02v4.96H14V21.33H19.71z"/>
	<path d="M34.65,20.36c0.88,0,1.63,0.3,2.26,0.92s0.92,1.38,0.92,2.26s-0.32,1.65-0.95,2.28c-0.62,0.64-1.4,0.97-2.28,0.97
		s-1.63-0.32-2.26-0.95s-0.95-1.4-0.95-2.28s0.32-1.65,0.97-2.28C32.99,20.66,33.77,20.36,34.65,20.36z M37.25,31.62v19.06h-5.31
		V31.62H37.25z"/>
	<path d="M42.27,31.62h5.33V34c1.63-2.17,3.39-2.99,5.97-2.99c2.34,0,4.19,0.75,5.54,2.28c1.01,1.14,1.5,2.9,1.5,5.29v12.1h-5.33
		V40.1c0-1.46-0.17-2.49-0.54-3.07c-0.56-1.01-1.59-1.5-3.12-1.5c-2.69,0-4.04,1.76-4.04,5.29v9.86h-5.33V31.62z"/>
	<path d="M84.45,42.02H70.16c0.15,3.42,1.7,5.11,4.66,5.09c1.85,0,3.35-0.86,4.53-2.56l4.92,0.79c-1.65,3.95-4.75,5.93-9.32,5.95
		c-3.12,0-5.59-0.92-7.46-2.77s-2.79-4.3-2.79-7.37s0.9-5.52,2.73-7.37s4.23-2.77,7.26-2.77s5.41,0.92,7.15,2.75s2.6,4.34,2.6,7.54
		V42.02z M70.33,38.62h9.02c-0.58-2.51-2.11-3.78-4.53-3.78C72.48,34.84,70.78,36.21,70.33,38.62z"/>
	<path d="M117.88,34.15c1.76,1.87,2.64,4.25,2.64,7.15s-1.03,5.31-3.09,7.22c-2.08,1.93-4.75,2.9-8.01,2.9s-5.95-0.95-8.04-2.84
		s-3.14-4.3-3.14-7.24s1.22-6.04,3.7-9.28l8.94-11.92l4.06,3.03l-6.96,8.94c1.22-0.49,2.38-0.75,3.44-0.75
		C113.97,31.36,116.12,32.28,117.88,34.15z M109.43,35.94c-1.53,0-2.81,0.52-3.87,1.57s-1.59,2.36-1.59,3.91s0.54,2.84,1.59,3.89
		s2.34,1.59,3.82,1.59s2.77-0.54,3.82-1.59s1.57-2.34,1.57-3.87s-0.52-2.81-1.53-3.89C112.23,36.47,110.96,35.94,109.43,35.94z"/>
	<path d="M132.87,38.36h9.9v4.43h-9.9V38.36z"/>
	<path d="M172.68,26.29h-9.82v6.53h9.2v4.96h-9.2v12.89h-5.71V21.33h15.53V26.29z"/>
	<path d="M179.39,20.36c0.88,0,1.63,0.3,2.26,0.92s0.92,1.38,0.92,2.26s-0.32,1.65-0.95,2.28c-0.62,0.64-1.4,0.97-2.28,0.97
		s-1.63-0.32-2.26-0.95s-0.95-1.4-0.95-2.28s0.32-1.65,0.97-2.28C177.73,20.66,178.51,20.36,179.39,20.36z M181.99,31.62v19.06
		h-5.31V31.62H181.99z"/>
	<path d="M187.01,31.62h5.33V34c1.63-2.17,3.39-2.99,5.97-2.99c2.34,0,4.19,0.75,5.54,2.28c1.01,1.14,1.5,2.9,1.5,5.29v12.1h-5.33
		V40.1c0-1.46-0.17-2.49-0.54-3.07c-0.56-1.01-1.59-1.5-3.12-1.5c-2.69,0-4.04,1.76-4.04,5.29v9.86h-5.33V31.62z"/>
	<path d="M224.74,37.44c-1.4-1.1-2.86-1.63-4.38-1.63s-2.79,0.49-3.85,1.5s-1.57,2.28-1.57,3.82s0.52,2.81,1.57,3.82
		s2.34,1.53,3.89,1.53s2.99-0.52,4.34-1.57v5.18c-1.57,0.79-3.18,1.18-4.88,1.2c-2.96,0-5.44-0.97-7.43-2.9
		c-2-1.91-2.99-4.32-2.99-7.18s1.01-5.29,3.01-7.26c2-1.96,4.49-2.94,7.46-2.94c1.74,0,3.35,0.39,4.83,1.14V37.44z"/>
	<path d="M229.23,17.72h5.33v16.37c1.57-2.04,3.54-3.07,5.95-3.07s4.25,0.77,5.56,2.32c1.01,1.2,1.5,2.99,1.5,5.37v11.97h-5.33
		V40.25c0-1.53-0.17-2.58-0.54-3.18c-0.58-1.03-1.63-1.55-3.12-1.55c-2.69,0-4.04,1.78-4.04,5.37v9.78h-5.33V17.72z"/>
	<path d="M267.19,21.33l6.6,19.98l7.18-20.24h3.12l6.81,20.24l7.05-19.98h6.04l-11.04,29.93h-4.02l-6.51-19.19l-6.85,19.19h-4.02
		l-10.38-29.93H267.19z"/>
	<path d="M323.57,42.02h-14.29c0.15,3.42,1.7,5.11,4.66,5.09c1.85,0,3.35-0.86,4.53-2.56l4.92,0.79c-1.65,3.95-4.75,5.93-9.32,5.95
		c-3.12,0-5.59-0.92-7.46-2.77s-2.79-4.3-2.79-7.37s0.9-5.52,2.73-7.37s4.23-2.77,7.26-2.77s5.41,0.92,7.15,2.75s2.6,4.34,2.6,7.54
		V42.02z M309.45,38.62h9.02c-0.58-2.51-2.11-3.78-4.53-3.78C311.6,34.84,309.9,36.21,309.45,38.62z"/>
	<path d="M337.73,36.06c-1.12-0.84-2.06-1.27-2.86-1.27s-1.38,0.15-1.78,0.45c-0.41,0.32-0.6,0.71-0.6,1.16s0.19,0.82,0.6,1.1
		s1.35,0.67,2.84,1.18s2.6,1.03,3.31,1.57c1.4,0.97,2.11,2.41,2.11,4.32s-0.75,3.52-2.23,4.79c-1.5,1.29-3.44,1.93-5.78,1.93
		c-2.88,0-5.29-1.05-7.22-3.18l2.79-3.24c1.48,1.48,2.99,2.23,4.51,2.23c1.35,0,2.43-0.95,2.43-2.08c0-0.58-0.17-1.01-0.54-1.31
		c-0.37-0.28-1.31-0.71-2.86-1.27s-2.62-1.05-3.2-1.5c-1.27-0.88-1.89-2.19-1.89-3.97s0.64-3.22,1.93-4.36
		c1.27-1.14,2.99-1.7,5.13-1.7s4.12,0.69,5.95,2.04L337.73,36.06z"/>
	<path d="M350.92,36.24v14.44h-5.33V36.24h-2.11v-4.62h2.11v-6.51h5.33v6.51h3.78v4.62H350.92z"/>
	<path d="M374.96,21.33v24.38h9.02v4.96h-14.74V21.33H374.96z"/>
	<path d="M393.65,38.88v11.79h-5.71V21.33h8.49c3.33,0,5.82,0.69,7.48,2.06c1.93,1.61,2.9,3.82,2.9,6.6c0,2.79-0.88,4.94-2.64,6.47
		c-1.07,0.97-2.43,1.59-4.04,1.87l9.24,12.35h-7.05l-7.91-11.79H393.65z M393.65,34.84h1.68c3.63,0,5.59-1.63,5.59-4.49
		c0-2.94-1.83-4.4-5.5-4.4h-1.76V34.84z"/>
	<path d="M422.25,50.67h-5.74V26.29h-6.55v-4.96h18.88v4.96h-6.6V50.67z"/>
</g>
<g>
	<path fill="#5A5A5A" d="M18.25,77.45V66.08H14v-1.52h10.21v1.52h-4.26v11.36H18.25z"/>
	<path fill="#5A5A5A" d="M23.18,72.78c0-1.73,0.48-3.01,1.44-3.84c0.8-0.69,1.78-1.04,2.94-1.04c1.28,0,2.33,0.42,3.15,1.26
		s1.22,2,1.22,3.48c0,1.2-0.18,2.15-0.54,2.83c-0.36,0.69-0.88,1.22-1.57,1.6s-1.44,0.57-2.25,0.57c-1.31,0-2.36-0.42-3.17-1.26
		S23.18,74.36,23.18,72.78z M24.8,72.78c0,1.2,0.26,2.09,0.78,2.68c0.52,0.6,1.18,0.89,1.97,0.89c0.79,0,1.44-0.3,1.96-0.9
		s0.78-1.51,0.78-2.73c0-1.15-0.26-2.03-0.79-2.62c-0.52-0.59-1.18-0.89-1.96-0.89c-0.79,0-1.45,0.3-1.97,0.89
		S24.8,71.58,24.8,72.78z"/>
	<path fill="#5A5A5A" d="M33.76,77.45v-9.33h1.42v1.42c0.36-0.66,0.7-1.1,1.01-1.31s0.65-0.32,1.02-0.32c0.53,0,1.08,0.17,1.63,0.51
		l-0.54,1.47c-0.39-0.23-0.77-0.34-1.16-0.34c-0.35,0-0.66,0.1-0.93,0.31s-0.47,0.5-0.59,0.87c-0.18,0.56-0.26,1.18-0.26,1.85v4.89
		H33.76z"/>
	<path fill="#5A5A5A" d="M39.18,72.78c0-1.73,0.48-3.01,1.44-3.84c0.8-0.69,1.78-1.04,2.94-1.04c1.28,0,2.33,0.42,3.15,1.26
		s1.22,2,1.22,3.48c0,1.2-0.18,2.15-0.54,2.83c-0.36,0.69-0.88,1.22-1.57,1.6s-1.44,0.57-2.25,0.57c-1.31,0-2.36-0.42-3.17-1.26
		S39.18,74.36,39.18,72.78z M40.81,72.78c0,1.2,0.26,2.09,0.78,2.68c0.52,0.6,1.18,0.89,1.97,0.89c0.79,0,1.44-0.3,1.96-0.9
		s0.78-1.51,0.78-2.73c0-1.15-0.26-2.03-0.79-2.62c-0.52-0.59-1.18-0.89-1.96-0.89c-0.79,0-1.45,0.3-1.97,0.89
		S40.81,71.58,40.81,72.78z"/>
	<path fill="#5A5A5A" d="M49.78,77.45v-9.33h1.42v1.33c0.69-1.03,1.68-1.54,2.97-1.54c0.56,0,1.08,0.1,1.55,0.3
		c0.47,0.2,0.82,0.47,1.06,0.8s0.4,0.72,0.49,1.17c0.06,0.29,0.09,0.81,0.09,1.54v5.74h-1.58v-5.68c0-0.64-0.06-1.13-0.18-1.45
		s-0.34-0.57-0.65-0.77c-0.31-0.19-0.68-0.29-1.1-0.29c-0.67,0-1.26,0.21-1.74,0.64s-0.73,1.24-0.73,2.43v5.1H49.78z"/>
	<path fill="#5A5A5A" d="M63.25,76.03l0.23,1.4c-0.45,0.09-0.84,0.14-1.2,0.14c-0.57,0-1.02-0.09-1.34-0.27s-0.54-0.42-0.67-0.72
		s-0.19-0.92-0.19-1.87v-5.37h-1.16v-1.23h1.16V65.8l1.57-0.95v3.26h1.59v1.23h-1.59v5.46c0,0.45,0.03,0.74,0.08,0.87
		s0.15,0.23,0.27,0.31s0.31,0.11,0.54,0.11C62.73,76.09,62.96,76.07,63.25,76.03z"/>
	<path fill="#5A5A5A" d="M64.2,72.78c0-1.73,0.48-3.01,1.44-3.84c0.8-0.69,1.78-1.04,2.94-1.04c1.28,0,2.33,0.42,3.15,1.26
		s1.22,2,1.22,3.48c0,1.2-0.18,2.15-0.54,2.83c-0.36,0.69-0.88,1.22-1.57,1.6s-1.44,0.57-2.25,0.57c-1.31,0-2.36-0.42-3.17-1.26
		S64.2,74.36,64.2,72.78z M65.83,72.78c0,1.2,0.26,2.09,0.78,2.68c0.52,0.6,1.18,0.89,1.97,0.89c0.79,0,1.44-0.3,1.96-0.9
		s0.78-1.51,0.78-2.73c0-1.15-0.26-2.03-0.79-2.62c-0.52-0.59-1.18-0.89-1.96-0.89c-0.79,0-1.45,0.3-1.97,0.89
		S65.83,71.58,65.83,72.78z"/>
	<path fill="#5A5A5A" d="M82.96,77.45V66.08h-4.25v-1.52h10.21v1.52h-4.26v11.36H82.96z"/>
	<path fill="#5A5A5A" d="M89.79,77.45v-9.33h1.42v1.42c0.36-0.66,0.7-1.1,1.01-1.31s0.65-0.32,1.02-0.32c0.53,0,1.08,0.17,1.63,0.51
		l-0.54,1.47c-0.39-0.23-0.77-0.34-1.16-0.34c-0.35,0-0.66,0.1-0.93,0.31s-0.47,0.5-0.59,0.87c-0.18,0.56-0.26,1.18-0.26,1.85v4.89
		H89.79z"/>
	<path fill="#5A5A5A" d="M101.89,76.3c-0.59,0.5-1.15,0.85-1.69,1.05s-1.12,0.31-1.74,0.31c-1.03,0-1.81-0.25-2.36-0.75
		c-0.55-0.5-0.83-1.14-0.83-1.92c0-0.46,0.1-0.88,0.31-1.25c0.21-0.38,0.48-0.68,0.82-0.91s0.72-0.4,1.14-0.52
		c0.31-0.08,0.78-0.16,1.41-0.24c1.28-0.15,2.22-0.33,2.82-0.54c0.01-0.22,0.01-0.35,0.01-0.41c0-0.64-0.15-1.1-0.45-1.36
		c-0.4-0.36-1-0.54-1.8-0.54c-0.74,0-1.29,0.13-1.65,0.39s-0.62,0.72-0.79,1.38l-1.55-0.21c0.14-0.66,0.37-1.2,0.69-1.6
		c0.32-0.41,0.79-0.72,1.4-0.94c0.61-0.22,1.32-0.33,2.12-0.33c0.8,0,1.44,0.09,1.94,0.28s0.86,0.42,1.1,0.71
		c0.23,0.29,0.4,0.64,0.49,1.08c0.05,0.27,0.08,0.76,0.08,1.46v2.11c0,1.47,0.03,2.4,0.1,2.79c0.07,0.39,0.2,0.76,0.4,1.12h-1.65
		C102.04,77.12,101.94,76.74,101.89,76.3z M101.76,72.76c-0.57,0.23-1.44,0.43-2.58,0.6c-0.65,0.09-1.11,0.2-1.38,0.32
		s-0.48,0.29-0.62,0.51s-0.22,0.48-0.22,0.75c0,0.42,0.16,0.77,0.48,1.05s0.79,0.42,1.4,0.42c0.61,0,1.15-0.13,1.63-0.4
		s0.82-0.63,1.05-1.09c0.17-0.36,0.25-0.88,0.25-1.58V72.76z"/>
	<path fill="#5A5A5A" d="M105.81,77.45v-9.33h1.42v1.33c0.69-1.03,1.68-1.54,2.97-1.54c0.56,0,1.08,0.1,1.55,0.3
		c0.47,0.2,0.82,0.47,1.06,0.8s0.4,0.72,0.49,1.17c0.06,0.29,0.09,0.81,0.09,1.54v5.74h-1.58v-5.68c0-0.64-0.06-1.13-0.18-1.45
		s-0.34-0.57-0.65-0.77c-0.31-0.19-0.68-0.29-1.1-0.29c-0.67,0-1.26,0.21-1.74,0.64s-0.73,1.24-0.73,2.43v5.1H105.81z"/>
	<path fill="#5A5A5A" d="M115.19,74.66l1.56-0.25c0.09,0.63,0.33,1.11,0.73,1.44s0.96,0.5,1.68,0.5c0.73,0,1.27-0.15,1.62-0.44
		s0.53-0.64,0.53-1.04c0-0.36-0.16-0.64-0.47-0.84c-0.22-0.14-0.76-0.32-1.62-0.54c-1.16-0.29-1.96-0.55-2.41-0.76
		s-0.79-0.51-1.02-0.89c-0.23-0.38-0.35-0.79-0.35-1.25c0-0.42,0.1-0.8,0.29-1.16c0.19-0.35,0.45-0.65,0.78-0.88
		c0.25-0.18,0.58-0.33,1.01-0.46s0.88-0.19,1.37-0.19c0.73,0,1.38,0.11,1.93,0.32s0.96,0.5,1.23,0.86c0.26,0.36,0.45,0.84,0.54,1.45
		l-1.55,0.21c-0.07-0.48-0.27-0.86-0.61-1.12s-0.81-0.4-1.43-0.4c-0.73,0-1.25,0.12-1.56,0.36s-0.47,0.52-0.47,0.84
		c0,0.21,0.06,0.39,0.19,0.55c0.13,0.17,0.33,0.31,0.61,0.42c0.16,0.06,0.62,0.19,1.4,0.4c1.12,0.3,1.9,0.54,2.34,0.73
		s0.79,0.47,1.04,0.83s0.38,0.81,0.38,1.35c0,0.53-0.15,1.02-0.46,1.49c-0.31,0.46-0.75,0.83-1.33,1.08
		c-0.58,0.26-1.24,0.38-1.97,0.38c-1.21,0-2.14-0.25-2.77-0.76S115.36,75.65,115.19,74.66z"/>
	<path fill="#5A5A5A" d="M124.83,66.38v-1.82h1.58v1.82H124.83z M124.83,77.45v-9.33h1.58v9.33H124.83z"/>
	<path fill="#5A5A5A" d="M132.27,76.03l0.23,1.4c-0.45,0.09-0.84,0.14-1.2,0.14c-0.57,0-1.02-0.09-1.34-0.27s-0.54-0.42-0.67-0.72
		s-0.19-0.92-0.19-1.87v-5.37h-1.16v-1.23h1.16V65.8l1.57-0.95v3.26h1.59v1.23h-1.59v5.46c0,0.45,0.03,0.74,0.08,0.87
		s0.15,0.23,0.27,0.31s0.31,0.11,0.54,0.11C131.76,76.09,131.99,76.07,132.27,76.03z"/>
	<path fill="#5A5A5A" d="M148.22,72.93l1.71,0.43c-0.36,1.4-1,2.47-1.93,3.2s-2.06,1.1-3.41,1.1c-1.39,0-2.52-0.28-3.39-0.85
		c-0.87-0.56-1.53-1.38-1.99-2.46s-0.68-2.22-0.68-3.45c0-1.34,0.26-2.51,0.77-3.51c0.51-1,1.24-1.76,2.19-2.28
		c0.95-0.52,1.99-0.78,3.12-0.78c1.29,0,2.37,0.33,3.25,0.98s1.49,1.58,1.84,2.77l-1.68,0.4c-0.3-0.94-0.73-1.62-1.3-2.05
		s-1.28-0.64-2.14-0.64c-0.99,0-1.82,0.24-2.48,0.71s-1.13,1.11-1.4,1.91c-0.27,0.8-0.4,1.62-0.4,2.47c0,1.1,0.16,2.05,0.48,2.87
		c0.32,0.82,0.82,1.43,1.49,1.83s1.4,0.61,2.19,0.61c0.96,0,1.76-0.28,2.43-0.83S147.98,74.01,148.22,72.93z"/>
	<path fill="#5A5A5A" d="M151.23,72.78c0-1.73,0.48-3.01,1.44-3.84c0.8-0.69,1.78-1.04,2.94-1.04c1.28,0,2.33,0.42,3.15,1.26
		s1.22,2,1.22,3.48c0,1.2-0.18,2.15-0.54,2.83c-0.36,0.69-0.88,1.22-1.57,1.6s-1.44,0.57-2.25,0.57c-1.31,0-2.36-0.42-3.17-1.26
		S151.23,74.36,151.23,72.78z M152.86,72.78c0,1.2,0.26,2.09,0.78,2.68c0.52,0.6,1.18,0.89,1.97,0.89c0.79,0,1.44-0.3,1.96-0.9
		s0.78-1.51,0.78-2.73c0-1.15-0.26-2.03-0.79-2.62c-0.52-0.59-1.18-0.89-1.96-0.89c-0.79,0-1.45,0.3-1.97,0.89
		S152.86,71.58,152.86,72.78z"/>
	<path fill="#5A5A5A" d="M161.83,77.45v-9.33h1.42v1.31c0.29-0.46,0.68-0.82,1.17-1.1s1.04-0.42,1.66-0.42
		c0.69,0,1.26,0.14,1.7,0.43s0.75,0.69,0.94,1.2c0.74-1.09,1.7-1.63,2.88-1.63c0.93,0,1.64,0.26,2.14,0.77s0.75,1.3,0.75,2.37v6.41
		h-1.57v-5.88c0-0.63-0.05-1.09-0.15-1.37s-0.29-0.5-0.56-0.67s-0.59-0.25-0.95-0.25c-0.66,0-1.2,0.22-1.63,0.65
		c-0.43,0.44-0.65,1.14-0.65,2.1v5.42h-1.58v-6.06c0-0.7-0.13-1.23-0.39-1.58s-0.68-0.53-1.27-0.53c-0.45,0-0.86,0.12-1.23,0.35
		s-0.65,0.58-0.82,1.03s-0.25,1.1-0.25,1.95v4.84H161.83z"/>
	<path fill="#5A5A5A" d="M176.83,77.45v-9.33h1.42v1.31c0.29-0.46,0.68-0.82,1.17-1.1s1.04-0.42,1.66-0.42
		c0.69,0,1.26,0.14,1.7,0.43s0.75,0.69,0.94,1.2c0.74-1.09,1.7-1.63,2.88-1.63c0.93,0,1.64,0.26,2.14,0.77s0.75,1.3,0.75,2.37v6.41
		h-1.57v-5.88c0-0.63-0.05-1.09-0.15-1.37s-0.29-0.5-0.56-0.67s-0.59-0.25-0.95-0.25c-0.66,0-1.2,0.22-1.63,0.65
		c-0.43,0.44-0.65,1.14-0.65,2.1v5.42h-1.58v-6.06c0-0.7-0.13-1.23-0.39-1.58s-0.68-0.53-1.27-0.53c-0.45,0-0.86,0.12-1.23,0.35
		s-0.65,0.58-0.82,1.03s-0.25,1.1-0.25,1.95v4.84H176.83z"/>
	<path fill="#5A5A5A" d="M191.83,66.38v-1.82h1.58v1.82H191.83z M191.83,77.45v-9.33h1.58v9.33H191.83z"/>
	<path fill="#5A5A5A" d="M195.19,74.66l1.56-0.25c0.09,0.63,0.33,1.11,0.73,1.44s0.96,0.5,1.68,0.5c0.73,0,1.27-0.15,1.62-0.44
		s0.53-0.64,0.53-1.04c0-0.36-0.16-0.64-0.47-0.84c-0.22-0.14-0.76-0.32-1.62-0.54c-1.16-0.29-1.96-0.55-2.41-0.76
		s-0.79-0.51-1.02-0.89c-0.23-0.38-0.35-0.79-0.35-1.25c0-0.42,0.1-0.8,0.29-1.16c0.19-0.35,0.45-0.65,0.78-0.88
		c0.25-0.18,0.58-0.33,1.01-0.46s0.88-0.19,1.37-0.19c0.73,0,1.38,0.11,1.93,0.32s0.96,0.5,1.23,0.86c0.26,0.36,0.45,0.84,0.54,1.45
		l-1.55,0.21c-0.07-0.48-0.27-0.86-0.61-1.12s-0.81-0.4-1.43-0.4c-0.73,0-1.25,0.12-1.56,0.36s-0.47,0.52-0.47,0.84
		c0,0.21,0.06,0.39,0.19,0.55c0.13,0.17,0.33,0.31,0.61,0.42c0.16,0.06,0.62,0.19,1.4,0.4c1.12,0.3,1.9,0.54,2.34,0.73
		s0.79,0.47,1.04,0.83s0.38,0.81,0.38,1.35c0,0.53-0.15,1.02-0.46,1.49c-0.31,0.46-0.75,0.83-1.33,1.08
		c-0.58,0.26-1.24,0.38-1.97,0.38c-1.21,0-2.14-0.25-2.77-0.76S195.36,75.65,195.19,74.66z"/>
	<path fill="#5A5A5A" d="M204.19,74.66l1.56-0.25c0.09,0.63,0.33,1.11,0.73,1.44s0.96,0.5,1.68,0.5c0.73,0,1.27-0.15,1.62-0.44
		s0.53-0.64,0.53-1.04c0-0.36-0.16-0.64-0.47-0.84c-0.22-0.14-0.76-0.32-1.62-0.54c-1.16-0.29-1.96-0.55-2.41-0.76
		s-0.79-0.51-1.02-0.89c-0.23-0.38-0.35-0.79-0.35-1.25c0-0.42,0.1-0.8,0.29-1.16c0.19-0.35,0.45-0.65,0.78-0.88
		c0.25-0.18,0.58-0.33,1.01-0.46s0.88-0.19,1.37-0.19c0.73,0,1.38,0.11,1.93,0.32s0.96,0.5,1.23,0.86c0.26,0.36,0.45,0.84,0.54,1.45
		l-1.55,0.21c-0.07-0.48-0.27-0.86-0.61-1.12s-0.81-0.4-1.43-0.4c-0.73,0-1.25,0.12-1.56,0.36s-0.47,0.52-0.47,0.84
		c0,0.21,0.06,0.39,0.19,0.55c0.13,0.17,0.33,0.31,0.61,0.42c0.16,0.06,0.62,0.19,1.4,0.4c1.12,0.3,1.9,0.54,2.34,0.73
		s0.79,0.47,1.04,0.83s0.38,0.81,0.38,1.35c0,0.53-0.15,1.02-0.46,1.49c-0.31,0.46-0.75,0.83-1.33,1.08
		c-0.58,0.26-1.24,0.38-1.97,0.38c-1.21,0-2.14-0.25-2.77-0.76S204.36,75.65,204.19,74.66z"/>
	<path fill="#5A5A5A" d="M213.83,66.38v-1.82h1.58v1.82H213.83z M213.83,77.45v-9.33h1.58v9.33H213.83z"/>
	<path fill="#5A5A5A" d="M217.23,72.78c0-1.73,0.48-3.01,1.44-3.84c0.8-0.69,1.78-1.04,2.94-1.04c1.28,0,2.33,0.42,3.15,1.26
		s1.22,2,1.22,3.48c0,1.2-0.18,2.15-0.54,2.83c-0.36,0.69-0.88,1.22-1.57,1.6s-1.44,0.57-2.25,0.57c-1.31,0-2.36-0.42-3.17-1.26
		S217.23,74.36,217.23,72.78z M218.86,72.78c0,1.2,0.26,2.09,0.78,2.68c0.52,0.6,1.18,0.89,1.97,0.89c0.79,0,1.44-0.3,1.96-0.9
		s0.78-1.51,0.78-2.73c0-1.15-0.26-2.03-0.79-2.62c-0.52-0.59-1.18-0.89-1.96-0.89c-0.79,0-1.45,0.3-1.97,0.89
		S218.86,71.58,218.86,72.78z"/>
	<path fill="#5A5A5A" d="M227.83,77.45v-9.33h1.42v1.33c0.69-1.03,1.68-1.54,2.97-1.54c0.56,0,1.08,0.1,1.55,0.3
		c0.47,0.2,0.82,0.47,1.06,0.8s0.4,0.72,0.49,1.17c0.06,0.29,0.09,0.81,0.09,1.54v5.74h-1.58v-5.68c0-0.64-0.06-1.13-0.18-1.45
		s-0.34-0.57-0.65-0.77c-0.31-0.19-0.68-0.29-1.1-0.29c-0.67,0-1.26,0.21-1.74,0.64s-0.73,1.24-0.73,2.43v5.1H227.83z"/>
	<path fill="#5A5A5A" d="M245.86,81.24c-0.87-1.1-1.61-2.39-2.21-3.87s-0.91-3.01-0.91-4.59c0-1.39,0.23-2.73,0.68-4.01
		c0.53-1.48,1.34-2.96,2.44-4.43H247c-0.71,1.22-1.18,2.09-1.41,2.61c-0.36,0.81-0.64,1.65-0.84,2.53c-0.25,1.1-0.38,2.2-0.38,3.3
		c0,2.82,0.88,5.63,2.63,8.45H245.86z"/>
	<path fill="#5A5A5A" d="M252.32,77.45V66.08h-4.25v-1.52h10.21v1.52h-4.26v11.36H252.32z"/>
	<path fill="#5A5A5A" d="M263.31,77.45V66.08h-4.25v-1.52h10.21v1.52h-4.26v11.36H263.31z"/>
	<path fill="#5A5A5A" d="M280.22,72.93l1.71,0.43c-0.36,1.4-1,2.47-1.93,3.2s-2.06,1.1-3.41,1.1c-1.39,0-2.52-0.28-3.39-0.85
		c-0.87-0.56-1.53-1.38-1.99-2.46s-0.68-2.22-0.68-3.45c0-1.34,0.26-2.51,0.77-3.51c0.51-1,1.24-1.76,2.19-2.28
		c0.95-0.52,1.99-0.78,3.12-0.78c1.29,0,2.37,0.33,3.25,0.98s1.49,1.58,1.84,2.77l-1.68,0.4c-0.3-0.94-0.73-1.62-1.3-2.05
		s-1.28-0.64-2.14-0.64c-0.99,0-1.82,0.24-2.48,0.71s-1.13,1.11-1.4,1.91c-0.27,0.8-0.4,1.62-0.4,2.47c0,1.1,0.16,2.05,0.48,2.87
		c0.32,0.82,0.82,1.43,1.49,1.83s1.4,0.61,2.19,0.61c0.96,0,1.76-0.28,2.43-0.83S279.99,74.01,280.22,72.93z"/>
	<path fill="#5A5A5A" d="M284.86,81.24h-1.13c1.75-2.81,2.63-5.63,2.63-8.45c0-1.1-0.13-2.19-0.38-3.28
		c-0.2-0.88-0.48-1.72-0.83-2.53c-0.23-0.53-0.7-1.41-1.42-2.64h1.13c1.1,1.47,1.92,2.95,2.44,4.43c0.45,1.28,0.68,2.61,0.68,4.01
		c0,1.58-0.3,3.11-0.91,4.59S285.73,80.13,284.86,81.24z"/>
	<path fill="#5A5A5A" d="M294.59,71.14c0-0.62,0.22-1.14,0.65-1.57s0.96-0.65,1.57-0.65c0.62,0,1.14,0.22,1.58,0.65
		s0.65,0.96,0.65,1.57s-0.22,1.14-0.65,1.58s-0.96,0.65-1.58,0.65c-0.61,0-1.13-0.22-1.57-0.65S294.59,71.75,294.59,71.14z"/>
	<path fill="#5A5A5A" d="M309.28,77.45V66.08h-4.25v-1.52h10.21v1.52h-4.26v11.36H309.28z"/>
	<path fill="#5A5A5A" d="M314.21,72.78c0-1.73,0.48-3.01,1.44-3.84c0.8-0.69,1.78-1.04,2.94-1.04c1.28,0,2.33,0.42,3.15,1.26
		s1.22,2,1.22,3.48c0,1.2-0.18,2.15-0.54,2.83c-0.36,0.69-0.88,1.22-1.57,1.6s-1.44,0.57-2.25,0.57c-1.31,0-2.36-0.42-3.17-1.26
		S314.21,74.36,314.21,72.78z M315.83,72.78c0,1.2,0.26,2.09,0.78,2.68c0.52,0.6,1.18,0.89,1.97,0.89c0.79,0,1.44-0.3,1.96-0.9
		s0.78-1.51,0.78-2.73c0-1.15-0.26-2.03-0.79-2.62c-0.52-0.59-1.18-0.89-1.96-0.89c-0.79,0-1.45,0.3-1.97,0.89
		S315.83,71.58,315.83,72.78z"/>
	<path fill="#5A5A5A" d="M324.79,77.45v-9.33h1.42v1.42c0.36-0.66,0.7-1.1,1.01-1.31s0.65-0.32,1.02-0.32
		c0.53,0,1.08,0.17,1.63,0.51l-0.54,1.47c-0.39-0.23-0.77-0.34-1.16-0.34c-0.35,0-0.66,0.1-0.93,0.31s-0.47,0.5-0.59,0.87
		c-0.18,0.56-0.26,1.18-0.26,1.85v4.89H324.79z"/>
	<path fill="#5A5A5A" d="M330.21,72.78c0-1.73,0.48-3.01,1.44-3.84c0.8-0.69,1.78-1.04,2.94-1.04c1.28,0,2.33,0.42,3.15,1.26
		s1.22,2,1.22,3.48c0,1.2-0.18,2.15-0.54,2.83c-0.36,0.69-0.88,1.22-1.57,1.6s-1.44,0.57-2.25,0.57c-1.31,0-2.36-0.42-3.17-1.26
		S330.21,74.36,330.21,72.78z M331.84,72.78c0,1.2,0.26,2.09,0.78,2.68c0.52,0.6,1.18,0.89,1.97,0.89c0.79,0,1.44-0.3,1.96-0.9
		s0.78-1.51,0.78-2.73c0-1.15-0.26-2.03-0.79-2.62c-0.52-0.59-1.18-0.89-1.96-0.89c-0.79,0-1.45,0.3-1.97,0.89
		S331.84,71.58,331.84,72.78z"/>
	<path fill="#5A5A5A" d="M340.81,77.45v-9.33h1.42v1.33c0.69-1.03,1.68-1.54,2.97-1.54c0.56,0,1.08,0.1,1.55,0.3
		c0.47,0.2,0.82,0.47,1.06,0.8s0.4,0.72,0.49,1.17c0.06,0.29,0.09,0.81,0.09,1.54v5.74h-1.58v-5.68c0-0.64-0.06-1.13-0.18-1.45
		s-0.34-0.57-0.65-0.77c-0.31-0.19-0.68-0.29-1.1-0.29c-0.67,0-1.26,0.21-1.74,0.64s-0.73,1.24-0.73,2.43v5.1H340.81z"/>
	<path fill="#5A5A5A" d="M354.28,76.03l0.23,1.4c-0.45,0.09-0.84,0.14-1.2,0.14c-0.57,0-1.02-0.09-1.34-0.27s-0.54-0.42-0.67-0.72
		s-0.19-0.92-0.19-1.87v-5.37h-1.16v-1.23h1.16V65.8l1.57-0.95v3.26h1.59v1.23h-1.59v5.46c0,0.45,0.03,0.74,0.08,0.87
		s0.15,0.23,0.27,0.31s0.31,0.11,0.54,0.11C353.76,76.09,353.99,76.07,354.28,76.03z"/>
	<path fill="#5A5A5A" d="M355.24,72.78c0-1.73,0.48-3.01,1.44-3.84c0.8-0.69,1.78-1.04,2.94-1.04c1.28,0,2.33,0.42,3.15,1.26
		s1.22,2,1.22,3.48c0,1.2-0.18,2.15-0.54,2.83c-0.36,0.69-0.88,1.22-1.57,1.6s-1.44,0.57-2.25,0.57c-1.31,0-2.36-0.42-3.17-1.26
		S355.24,74.36,355.24,72.78z M356.86,72.78c0,1.2,0.26,2.09,0.78,2.68c0.52,0.6,1.18,0.89,1.97,0.89c0.79,0,1.44-0.3,1.96-0.9
		s0.78-1.51,0.78-2.73c0-1.15-0.26-2.03-0.79-2.62c-0.52-0.59-1.18-0.89-1.96-0.89c-0.79,0-1.45,0.3-1.97,0.89
		S356.86,71.58,356.86,72.78z"/>
	<path fill="#5A5A5A" d="M370.61,71.14c0-0.62,0.22-1.14,0.65-1.57s0.96-0.65,1.57-0.65c0.62,0,1.14,0.22,1.58,0.65
		s0.65,0.96,0.65,1.57s-0.22,1.14-0.65,1.58s-0.96,0.65-1.58,0.65c-0.61,0-1.13-0.22-1.57-0.65S370.61,71.75,370.61,71.14z"/>
	<path fill="#5A5A5A" d="M390.01,75.93v1.52h-8.52c-0.01-0.38,0.05-0.75,0.18-1.1c0.22-0.58,0.56-1.15,1.04-1.71
		s1.17-1.21,2.07-1.95c1.4-1.15,2.35-2.06,2.84-2.73s0.74-1.31,0.74-1.9c0-0.63-0.22-1.16-0.67-1.59c-0.45-0.43-1.03-0.65-1.75-0.65
		c-0.76,0-1.37,0.23-1.83,0.69s-0.69,1.09-0.69,1.9l-1.63-0.17c0.11-1.21,0.53-2.14,1.26-2.77c0.73-0.63,1.7-0.95,2.93-0.95
		c1.24,0,2.21,0.34,2.94,1.03s1.08,1.54,1.08,2.55c0,0.52-0.11,1.02-0.32,1.52s-0.56,1.02-1.05,1.57s-1.3,1.31-2.44,2.27
		c-0.95,0.8-1.56,1.34-1.83,1.62s-0.49,0.57-0.67,0.86H390.01z"/>
	<path fill="#5A5A5A" d="M391.71,71.09c0-1.52,0.16-2.75,0.47-3.68c0.31-0.93,0.78-1.64,1.4-2.15s1.4-0.76,2.33-0.76
		c0.69,0,1.3,0.14,1.82,0.42s0.95,0.68,1.29,1.2c0.34,0.53,0.61,1.16,0.8,1.92c0.19,0.75,0.29,1.77,0.29,3.05
		c0,1.51-0.16,2.73-0.47,3.66s-0.77,1.65-1.39,2.15c-0.62,0.51-1.4,0.76-2.34,0.76c-1.24,0-2.22-0.45-2.93-1.34
		C392.13,75.26,391.71,73.51,391.71,71.09z M393.34,71.09c0,2.12,0.25,3.52,0.74,4.22s1.11,1.05,1.83,1.05s1.34-0.35,1.83-1.05
		s0.74-2.11,0.74-4.22c0-2.12-0.25-3.53-0.74-4.23s-1.11-1.05-1.85-1.05c-0.73,0-1.31,0.31-1.74,0.92
		C393.61,67.53,393.34,68.98,393.34,71.09z"/>
	<path fill="#5A5A5A" d="M410.04,75.93v1.52h-8.52c-0.01-0.38,0.05-0.75,0.18-1.1c0.22-0.58,0.56-1.15,1.04-1.71
		s1.17-1.21,2.07-1.95c1.4-1.15,2.35-2.06,2.84-2.73s0.74-1.31,0.74-1.9c0-0.63-0.22-1.16-0.67-1.59c-0.45-0.43-1.03-0.65-1.75-0.65
		c-0.76,0-1.37,0.23-1.83,0.69s-0.69,1.09-0.69,1.9l-1.63-0.17c0.11-1.21,0.53-2.14,1.26-2.77c0.73-0.63,1.7-0.95,2.93-0.95
		c1.24,0,2.21,0.34,2.94,1.03s1.08,1.54,1.08,2.55c0,0.52-0.11,1.02-0.32,1.52s-0.56,1.02-1.05,1.57s-1.3,1.31-2.44,2.27
		c-0.95,0.8-1.56,1.34-1.83,1.62s-0.49,0.57-0.67,0.86H410.04z"/>
	<path fill="#5A5A5A" d="M411.73,74.07l1.66-0.14c0.12,0.81,0.41,1.42,0.86,1.82s0.99,0.61,1.62,0.61c0.76,0,1.41-0.29,1.93-0.86
		s0.79-1.34,0.79-2.29c0-0.9-0.25-1.61-0.76-2.14s-1.17-0.78-1.99-0.78c-0.51,0-0.97,0.12-1.38,0.35c-0.41,0.23-0.73,0.53-0.97,0.9
		l-1.49-0.19l1.25-6.62h6.41v1.51h-5.14l-0.69,3.46c0.77-0.54,1.58-0.81,2.43-0.81c1.12,0,2.07,0.39,2.85,1.17s1.16,1.78,1.16,3.01
		c0,1.17-0.34,2.17-1.02,3.02c-0.83,1.04-1.95,1.56-3.38,1.56c-1.17,0-2.13-0.33-2.87-0.98S411.84,75.16,411.73,74.07z"/>
</g>
</svg>
