<?xml version="1.0" encoding="iso-8859-1"?>
<!-- Generator: Adobe Illustrator 29.8.4, SVG Export Plug-In . SVG Version: 9.03 Build 0)  -->
<svg version="1.1" id="Layer_1" xmlns="http://www.w3.org/2000/svg" xmlns:xlink="http://www.w3.org/1999/xlink" x="0px" y="0px"
	 viewBox="0 0 1500 263" enable-background="new 0 0 1500 263" xml:space="preserve">
<rect id="bg-white" fill="#FFFFFF" width="1500" height="263"/>
<line fill="none" stroke="#D30F1D" stroke-width="8" stroke-linecap="round" stroke-miterlimit="10" x1="95" y1="228" x2="1405" y2="228"/>
<circle fill="#FFFFFF" stroke="#000000" stroke-width="3" stroke-miterlimit="10" cx="95" cy="228" r="10"/>
<g>
	<path d="M100.95,210.2l-0.57,2.14l-9.1-2.44l-0.66,2.45l-1.85-0.5l1.89-7.05l1.85,0.5l-0.66,2.46L100.95,210.2z"/>
	<path d="M95.16,203.34l4.03,1.08c1.08,0.29,1.76-0.04,2.02-1.02c0.26-0.97-0.16-1.6-1.24-1.89l-4.03-1.08l0.53-1.99l4.35,1.17
		c1.92,0.52,2.66,2.02,2.07,4.23s-1.99,3.16-3.91,2.65l-4.35-1.17L95.16,203.34z"/>
	<path d="M96.98,196.55l0.53-1.99l0.89,0.24c-0.65-0.83-0.78-1.57-0.52-2.53c0.23-0.87,0.7-1.49,1.41-1.84
		c0.52-0.26,1.23-0.27,2.12-0.03l4.51,1.21l-0.53,1.99l-3.94-1.06c-0.54-0.15-0.95-0.18-1.2-0.11c-0.43,0.11-0.72,0.44-0.87,1.01
		c-0.27,1,0.25,1.68,1.57,2.04l3.68,0.99l-0.53,1.99L96.98,196.55z"/>
	<path d="M99.32,187.8l0.53-1.99l0.89,0.24c-0.65-0.83-0.78-1.57-0.52-2.53c0.23-0.87,0.7-1.49,1.41-1.84
		c0.53-0.26,1.23-0.27,2.12-0.03l4.51,1.21l-0.53,1.99l-3.95-1.06c-0.54-0.15-0.95-0.18-1.2-0.11c-0.43,0.11-0.72,0.44-0.87,1.01
		c-0.27,1,0.25,1.68,1.57,2.04l3.68,0.99l-0.53,1.99L99.32,187.8z"/>
	<path d="M107.42,173.1l-1.43,5.33c1.29,0.29,2.08-0.12,2.37-1.23c0.18-0.69,0.01-1.34-0.5-1.95l0.79-1.76
		c1.31,1.01,1.74,2.37,1.29,4.07c-0.31,1.16-0.9,1.99-1.78,2.51c-0.88,0.51-1.88,0.61-3.03,0.3c-1.15-0.31-1.97-0.89-2.48-1.75
		c-0.51-0.87-0.61-1.86-0.31-2.99c0.3-1.13,0.89-1.93,1.74-2.39s1.88-0.54,3.07-0.22L107.42,173.1z M104.75,178.03l0.9-3.37
		c-1-0.04-1.62,0.41-1.86,1.31C103.55,176.85,103.89,177.62,104.75,178.03z"/>
	<path d="M110.53,170.12l-6.93,1.75l0.62-2.32l4.61-1.05l-3.5-3.1l0.61-2.29l9.36,8.67l-0.6,2.25L110.53,170.12z"/>
	<path d="M102.59,159.38l0.71-1.77l3.75,3.49l-0.51,1.22L102.59,159.38z"/>
	<path d="M110.19,153.89c-0.42,0.33-0.68,0.64-0.76,0.94c-0.08,0.3-0.08,0.53-0.01,0.71c0.08,0.18,0.21,0.3,0.37,0.34
		s0.32,0.01,0.47-0.12c0.14-0.12,0.38-0.44,0.72-0.94s0.65-0.87,0.92-1.08c0.5-0.42,1.11-0.54,1.82-0.35
		c0.71,0.19,1.24,0.63,1.57,1.31c0.33,0.69,0.38,1.48,0.14,2.35c-0.29,1.07-0.92,1.87-1.91,2.38l-0.93-1.37
		c0.7-0.41,1.13-0.89,1.28-1.46c0.14-0.51-0.11-1-0.54-1.12c-0.22-0.06-0.39-0.04-0.54,0.07c-0.14,0.11-0.4,0.42-0.76,0.94
		c-0.36,0.52-0.65,0.87-0.88,1.04c-0.46,0.38-1.01,0.49-1.67,0.31c-0.67-0.18-1.14-0.56-1.43-1.16c-0.3-0.59-0.33-1.28-0.12-2.09
		s0.67-1.47,1.36-2.02L110.19,153.89z"/>
	<path d="M114.08,144.96l4.06,1.09l-0.57,2.13l-10.95-2.93l0.86-3.2c0.19-0.71,0.41-1.27,0.64-1.67c0.24-0.4,0.57-0.73,0.97-1
		c0.87-0.57,1.83-0.7,2.86-0.43c1.04,0.28,1.79,0.81,2.28,1.58c0.49,0.78,0.56,1.79,0.22,3.05L114.08,144.96z M112.23,144.46
		l0.23-0.87c0.36-1.34,0.01-2.15-1.04-2.43c-1.11-0.3-1.77,0.2-2.18,1.7l-0.2,0.74L112.23,144.46z"/>
	<path d="M114.1,132.66l0.53-1.99l7.11,1.91l-0.53,1.99l-0.92-0.25c0.6,0.82,0.77,1.71,0.51,2.68c-0.26,0.97-0.84,1.69-1.74,2.16
		c-0.9,0.47-1.89,0.57-2.95,0.28c-1.07-0.29-1.88-0.87-2.43-1.73c-0.55-0.86-0.7-1.77-0.44-2.71c0.25-0.95,0.85-1.64,1.79-2.1
		L114.1,132.66z M115.19,134.85c-0.15,0.56-0.08,1.09,0.2,1.57c0.28,0.5,0.7,0.82,1.25,0.96c0.55,0.15,1.08,0.08,1.57-0.21
		c0.5-0.29,0.82-0.7,0.96-1.25c0.15-0.54,0.08-1.07-0.21-1.57c-0.28-0.5-0.69-0.81-1.25-0.96c-0.55-0.15-1.07-0.08-1.56,0.19
		C115.66,133.88,115.34,134.3,115.19,134.85z"/>
	<path d="M117.83,125.36c-0.42,0.33-0.68,0.64-0.76,0.94c-0.08,0.3-0.08,0.53-0.01,0.71c0.08,0.18,0.21,0.3,0.37,0.34
		s0.32,0.01,0.47-0.12c0.14-0.12,0.38-0.44,0.72-0.94c0.34-0.5,0.64-0.87,0.92-1.08c0.5-0.42,1.11-0.55,1.82-0.35
		c0.71,0.19,1.24,0.63,1.56,1.31c0.33,0.69,0.38,1.48,0.14,2.35c-0.29,1.07-0.92,1.87-1.91,2.38l-0.93-1.37
		c0.7-0.4,1.13-0.89,1.29-1.46c0.13-0.5-0.11-1-0.54-1.12c-0.22-0.06-0.39-0.04-0.54,0.07c-0.14,0.11-0.4,0.42-0.76,0.94
		c-0.36,0.52-0.66,0.87-0.88,1.04c-0.46,0.38-1.01,0.49-1.67,0.31c-0.67-0.18-1.14-0.56-1.43-1.16c-0.3-0.59-0.33-1.29-0.12-2.09
		s0.67-1.47,1.36-2.02L117.83,125.36z"/>
	<path d="M119.22,120.46l5.39,1.44l-0.53,1.99l-5.39-1.44l-0.21,0.79l-1.72-0.46l0.21-0.79l-2.43-0.65l0.53-1.99l2.43,0.65
		l0.38-1.41l1.72,0.46L119.22,120.46z"/>
	<path d="M118.69,115.52l4.03,1.08c1.08,0.29,1.76-0.04,2.02-1.02s-0.16-1.6-1.24-1.89l-4.03-1.08l0.53-1.99l4.35,1.17
		c1.92,0.52,2.66,2.02,2.07,4.23s-1.99,3.16-3.91,2.65l-4.35-1.17L118.69,115.52z"/>
	<path d="M128.16,108.65l-0.53,1.99l-7.11-1.91l0.53-1.99l1.08,0.29c-0.74-0.72-1-1.53-0.75-2.42c0.08-0.28,0.21-0.55,0.41-0.82
		l1.78,0.78c-0.25,0.25-0.41,0.54-0.49,0.88c-0.3,1.14,0.26,1.9,1.68,2.28L128.16,108.65z"/>
	<path d="M127.84,96.92l-1.43,5.33c1.29,0.29,2.08-0.12,2.37-1.23c0.18-0.69,0.01-1.34-0.5-1.95l0.79-1.76
		c1.31,1.01,1.74,2.37,1.29,4.07c-0.31,1.16-0.9,1.99-1.78,2.51c-0.88,0.51-1.88,0.61-3.03,0.31s-1.97-0.89-2.48-1.75
		c-0.51-0.87-0.61-1.86-0.31-2.99c0.3-1.13,0.89-1.93,1.74-2.4c0.86-0.47,1.88-0.54,3.07-0.22L127.84,96.92z M125.16,101.84
		l0.9-3.37c-1-0.04-1.62,0.41-1.86,1.31C123.96,100.67,124.31,101.44,125.16,101.84z"/>
</g>
<circle fill="#FFFFFF" stroke="#000000" stroke-width="3" stroke-miterlimit="10" cx="172.06" cy="228" r="10"/>
<g>
	<path d="M177.08,213.63l-10.95-2.93l0.73-2.71c0.33-1.24,0.79-2.07,1.37-2.5c0.69-0.52,1.52-0.65,2.49-0.39
		c0.6,0.16,1.09,0.44,1.45,0.83c0.17,0.21,0.31,0.53,0.45,0.96c0.32-0.62,0.68-1.03,1.07-1.24c0.66-0.38,1.44-0.46,2.33-0.22
		s1.53,0.75,1.93,1.54c0.4,0.79,0.44,1.78,0.12,2.97L177.08,213.63z M171.27,209.79l0.16-0.61c0.3-1.11-0.03-1.79-0.97-2.04
		c-0.95-0.25-1.57,0.17-1.86,1.25l-0.17,0.64L171.27,209.79z M175.93,211.04l0.25-0.92c0.38-1.42,0.07-2.27-0.94-2.54
		c-0.55-0.15-1.02-0.04-1.39,0.31c-0.29,0.26-0.54,0.77-0.74,1.53l-0.21,0.8L175.93,211.04z"/>
	<path d="M173.86,197.23l0.53-1.99l7.11,1.91l-0.53,1.99l-0.92-0.25c0.6,0.82,0.77,1.71,0.51,2.68c-0.26,0.97-0.84,1.69-1.74,2.16
		c-0.9,0.47-1.89,0.57-2.95,0.28s-1.88-0.87-2.43-1.73c-0.55-0.86-0.7-1.77-0.44-2.71c0.25-0.95,0.85-1.64,1.79-2.1L173.86,197.23z
		 M174.95,199.42c-0.15,0.56-0.08,1.09,0.2,1.57c0.28,0.5,0.7,0.82,1.25,0.96c0.55,0.15,1.08,0.08,1.57-0.21
		c0.5-0.29,0.82-0.7,0.96-1.25c0.15-0.54,0.08-1.07-0.21-1.57c-0.28-0.5-0.69-0.81-1.25-0.96c-0.55-0.15-1.07-0.08-1.56,0.19
		C175.41,198.45,175.09,198.87,174.95,199.42z"/>
	<path d="M181.58,192.51l-6.93,1.75l0.62-2.32l4.61-1.05l-3.5-3.1l0.61-2.29l9.36,8.67l-0.6,2.25L181.58,192.51z"/>
	<path d="M177.6,183.25l4.53-0.79l-3.53-2.93l0.6-2.24l6.27,5.61l-0.24,0.9l-8.23,1.69L177.6,183.25z"/>
	<path d="M175.55,174.12c0.09-0.33,0.28-0.58,0.57-0.75c0.29-0.17,0.61-0.21,0.93-0.12c0.33,0.09,0.59,0.29,0.76,0.58
		c0.18,0.3,0.22,0.62,0.13,0.95c-0.09,0.33-0.28,0.58-0.58,0.75c-0.29,0.17-0.62,0.21-0.94,0.12s-0.58-0.29-0.75-0.59
		C175.49,174.77,175.46,174.45,175.55,174.12z M180.01,174.28l7.11,1.91l-0.53,1.98l-7.11-1.91L180.01,174.28z"/>
	<path d="M186.26,166.45l-1.43,5.33c1.29,0.29,2.08-0.12,2.37-1.23c0.19-0.69,0.02-1.34-0.5-1.95l0.79-1.76
		c1.31,1.01,1.74,2.37,1.29,4.07c-0.31,1.16-0.9,1.99-1.78,2.5c-0.88,0.51-1.88,0.61-3.03,0.31c-1.15-0.31-1.97-0.89-2.48-1.75
		c-0.51-0.87-0.61-1.86-0.31-2.99s0.89-1.93,1.74-2.4c0.86-0.47,1.88-0.54,3.07-0.22L186.26,166.45z M183.59,171.38l0.9-3.37
		c-1-0.04-1.62,0.41-1.86,1.31C182.39,170.2,182.73,170.97,183.59,171.38z"/>
	<path d="M183.05,162.93l4.61-0.77l-3.78-3.09l0.23-0.85l4.88-0.77l-3.66-3.02l0.59-2.22l6.27,5.62l-0.24,0.9l-4.83,0.77l3.81,3.05
		l-0.25,0.91l-8.23,1.7L183.05,162.93z"/>
</g>
<circle fill="#FFFFFF" stroke="#000000" stroke-width="3" stroke-miterlimit="10" cx="249.12" cy="228" r="10"/>
<g>
	<path d="M250.66,210.41l4.06,1.09l-0.57,2.13l-10.95-2.93l0.86-3.2c0.19-0.71,0.41-1.27,0.64-1.67c0.25-0.4,0.57-0.73,0.97-1
		c0.87-0.56,1.83-0.7,2.87-0.43c1.03,0.28,1.79,0.81,2.28,1.58s0.56,1.79,0.22,3.05L250.66,210.41z M248.81,209.92l0.23-0.87
		c0.36-1.34,0.01-2.15-1.04-2.43c-1.11-0.3-1.77,0.2-2.18,1.7l-0.2,0.74L248.81,209.92z"/>
	<path d="M245.36,201.16c0.09-0.33,0.28-0.58,0.57-0.75c0.29-0.17,0.61-0.21,0.93-0.12c0.33,0.09,0.59,0.29,0.76,0.58
		c0.18,0.3,0.22,0.62,0.13,0.95s-0.28,0.58-0.58,0.75s-0.62,0.21-0.94,0.12c-0.33-0.09-0.59-0.29-0.75-0.59
		C245.31,201.8,245.27,201.49,245.36,201.16z M249.82,201.31l7.11,1.91l-0.53,1.98l-7.11-1.91L249.82,201.31z"/>
	<path d="M255.54,193.83l3.65,0.98l-0.53,1.99l-3.78-1.01c-0.55-0.15-0.96-0.21-1.2-0.18s-0.46,0.13-0.64,0.29s-0.3,0.37-0.36,0.59
		c-0.12,0.45,0.02,0.98,0.4,1.36c0.19,0.19,0.61,0.37,1.24,0.53l3.65,0.98l-0.53,1.99l-7.11-1.91l0.53-1.99l0.83,0.22
		c-0.53-0.8-0.68-1.65-0.44-2.55c0.24-0.9,0.86-1.49,1.86-1.76c-0.72-0.79-0.95-1.66-0.69-2.62s0.78-1.54,1.58-1.78
		c0.48-0.14,1.08-0.11,1.83,0.08l4.59,1.23l-0.53,1.99l-3.89-1.04c-0.51-0.14-0.91-0.18-1.18-0.15c-0.47,0.07-0.76,0.35-0.89,0.83
		C253.66,192.84,254.2,193.47,255.54,193.83z"/>
	<path d="M249.86,184.37c0.09-0.33,0.28-0.58,0.57-0.75c0.29-0.17,0.61-0.21,0.93-0.12c0.33,0.09,0.58,0.29,0.76,0.58
		c0.18,0.3,0.22,0.62,0.13,0.95c-0.09,0.33-0.28,0.58-0.58,0.75c-0.29,0.17-0.62,0.21-0.95,0.12s-0.58-0.29-0.75-0.59
		C249.81,185.02,249.77,184.7,249.86,184.37z M254.32,184.52l7.11,1.91l-0.53,1.98l-7.11-1.91L254.32,184.52z"/>
	<path d="M257.53,179.2c-0.42,0.33-0.68,0.64-0.76,0.94c-0.08,0.3-0.08,0.53-0.01,0.71c0.08,0.18,0.21,0.29,0.37,0.34
		s0.32,0.01,0.47-0.11c0.15-0.12,0.38-0.44,0.72-0.94s0.65-0.87,0.92-1.08c0.5-0.42,1.11-0.54,1.82-0.35
		c0.71,0.19,1.24,0.63,1.56,1.31c0.33,0.69,0.38,1.48,0.14,2.35c-0.29,1.07-0.92,1.87-1.91,2.38l-0.93-1.37
		c0.7-0.4,1.13-0.89,1.29-1.46c0.13-0.5-0.11-1-0.54-1.11c-0.22-0.06-0.39-0.04-0.54,0.07c-0.14,0.11-0.39,0.42-0.76,0.94
		c-0.36,0.52-0.66,0.87-0.88,1.04c-0.46,0.38-1.01,0.49-1.67,0.31c-0.66-0.18-1.14-0.56-1.43-1.16c-0.3-0.59-0.33-1.28-0.12-2.09
		s0.67-1.47,1.36-2.02L257.53,179.2z"/>
	<path d="M252.67,173.9c0.09-0.33,0.28-0.58,0.57-0.75c0.29-0.17,0.61-0.21,0.93-0.12c0.33,0.09,0.58,0.29,0.76,0.58
		c0.18,0.3,0.22,0.62,0.13,0.95c-0.09,0.33-0.28,0.58-0.58,0.75c-0.29,0.17-0.62,0.21-0.95,0.12c-0.33-0.09-0.58-0.29-0.75-0.59
		C252.61,174.54,252.58,174.22,252.67,173.9z M257.13,174.05l7.11,1.91l-0.53,1.98l-7.11-1.91L257.13,174.05z"/>
</g>
<circle fill="#FFFFFF" stroke="#000000" stroke-width="3" stroke-miterlimit="10" cx="326.18" cy="228" r="10"/>
<g>
	<path d="M320.82,208.57l9.1,2.44l0.9-3.37l1.85,0.5l-1.47,5.5l-10.95-2.93L320.82,208.57z"/>
	<path d="M332.35,205.02l-6.93,1.75l0.62-2.32l4.61-1.05l-3.5-3.1l0.61-2.29l9.36,8.67l-0.6,2.25L332.35,205.02z"/>
	<path d="M328.69,193.68c0.32-1.2,0.93-2.07,1.83-2.63c0.9-0.56,1.91-0.69,3.04-0.39c1.12,0.3,1.94,0.92,2.43,1.86
		c0.49,0.95,0.58,2.02,0.26,3.23s-0.95,2.08-1.86,2.64c-0.91,0.55-1.92,0.68-3.03,0.38c-1.11-0.3-1.92-0.93-2.41-1.88
		C328.45,195.95,328.37,194.87,328.69,193.68z M330.47,194.18c-0.15,0.55-0.08,1.08,0.2,1.57c0.28,0.5,0.7,0.82,1.25,0.97
		c0.55,0.15,1.08,0.08,1.57-0.21c0.5-0.29,0.82-0.71,0.96-1.26c0.15-0.55,0.08-1.09-0.2-1.58c-0.28-0.5-0.69-0.81-1.25-0.96
		c-0.55-0.15-1.07-0.08-1.57,0.21C330.94,193.2,330.62,193.62,330.47,194.18z"/>
	<path d="M330.4,188.17l0.53-1.99l0.89,0.24c-0.65-0.83-0.78-1.57-0.52-2.53c0.23-0.87,0.7-1.49,1.41-1.84
		c0.53-0.26,1.23-0.27,2.12-0.03l4.51,1.21l-0.53,1.99l-3.95-1.06c-0.54-0.15-0.95-0.19-1.2-0.11c-0.43,0.11-0.72,0.44-0.87,1.01
		c-0.27,1,0.25,1.68,1.57,2.04l3.68,0.99l-0.53,1.99L330.4,188.17z"/>
</g>
<circle fill="#FFFFFF" stroke="#000000" stroke-width="3" stroke-miterlimit="10" cx="403.24" cy="228" r="10"/>
<g>
	<path d="M404.78,210.41l4.06,1.09l-0.57,2.13l-10.95-2.93l0.86-3.2c0.19-0.71,0.41-1.27,0.64-1.67c0.25-0.4,0.57-0.73,0.97-1
		c0.87-0.56,1.83-0.7,2.87-0.43c1.03,0.28,1.79,0.81,2.28,1.58s0.56,1.79,0.22,3.05L404.78,210.41z M402.92,209.92l0.23-0.87
		c0.36-1.34,0.01-2.15-1.04-2.43c-1.11-0.3-1.77,0.2-2.18,1.7l-0.2,0.74L402.92,209.92z"/>
	<path d="M404.79,198.12l0.53-1.99l7.11,1.91l-0.53,1.99l-0.92-0.25c0.6,0.82,0.77,1.71,0.51,2.68c-0.26,0.97-0.84,1.69-1.74,2.16
		c-0.9,0.47-1.89,0.57-2.95,0.28c-1.07-0.29-1.88-0.87-2.43-1.73c-0.55-0.86-0.69-1.77-0.44-2.71c0.25-0.95,0.85-1.65,1.79-2.1
		L404.79,198.12z M405.88,200.31c-0.15,0.56-0.08,1.09,0.2,1.57c0.28,0.5,0.7,0.82,1.25,0.96s1.08,0.08,1.57-0.21
		c0.5-0.29,0.81-0.7,0.96-1.25c0.15-0.55,0.08-1.07-0.21-1.57c-0.28-0.5-0.69-0.81-1.25-0.96c-0.55-0.15-1.07-0.08-1.56,0.19
		C406.35,199.34,406.03,199.76,405.88,200.31z"/>
	<path d="M413.48,194.15l-0.53,1.99l-7.11-1.91l0.53-1.99l1.08,0.29c-0.74-0.72-1-1.53-0.75-2.42c0.08-0.28,0.21-0.55,0.41-0.82
		l1.78,0.78c-0.25,0.25-0.41,0.54-0.49,0.88c-0.31,1.14,0.26,1.9,1.67,2.28L413.48,194.15z"/>
	<path d="M402.78,184.88l12.3,3.3l-0.53,1.99l-12.3-3.3L402.78,184.88z"/>
	<path d="M404.54,182.27c0.09-0.33,0.28-0.58,0.57-0.75c0.29-0.17,0.61-0.21,0.93-0.12c0.33,0.09,0.59,0.29,0.76,0.58
		c0.18,0.3,0.22,0.62,0.13,0.95c-0.09,0.33-0.28,0.58-0.58,0.75c-0.29,0.17-0.62,0.21-0.94,0.12c-0.33-0.09-0.59-0.29-0.75-0.59
		C404.49,182.91,404.45,182.6,404.54,182.27z M409,182.42l7.11,1.91l-0.53,1.98l-7.11-1.91L409,182.42z"/>
	<path d="M410.96,175.09l0.53-1.99l7.11,1.91l-0.53,1.99l-0.92-0.25c0.6,0.82,0.77,1.71,0.51,2.68c-0.26,0.97-0.84,1.69-1.74,2.16
		c-0.9,0.47-1.89,0.57-2.95,0.28c-1.07-0.29-1.88-0.87-2.43-1.73c-0.55-0.86-0.7-1.77-0.44-2.71c0.25-0.95,0.85-1.65,1.79-2.1
		L410.96,175.09z M412.05,177.29c-0.15,0.56-0.08,1.09,0.2,1.57c0.28,0.5,0.7,0.82,1.25,0.96s1.08,0.08,1.57-0.21
		c0.5-0.29,0.82-0.7,0.96-1.25c0.15-0.54,0.08-1.07-0.21-1.57c-0.28-0.5-0.69-0.81-1.25-0.96c-0.55-0.15-1.07-0.08-1.56,0.19
		C412.52,176.31,412.2,176.73,412.05,177.29z"/>
	<path d="M417.22,165.6l3.65,0.98l-0.53,1.99l-3.78-1.01c-0.55-0.15-0.96-0.21-1.2-0.18c-0.24,0.03-0.46,0.13-0.64,0.29
		s-0.3,0.37-0.36,0.59c-0.12,0.45,0.02,0.99,0.4,1.36c0.19,0.19,0.61,0.37,1.24,0.53l3.65,0.98l-0.53,1.99l-7.11-1.91l0.53-1.99
		l0.83,0.22c-0.53-0.8-0.68-1.65-0.44-2.55c0.24-0.9,0.86-1.49,1.86-1.76c-0.72-0.79-0.95-1.66-0.69-2.62s0.78-1.54,1.58-1.78
		c0.48-0.14,1.08-0.12,1.83,0.08l4.59,1.23l-0.53,1.99l-3.89-1.04c-0.51-0.14-0.91-0.18-1.18-0.14c-0.47,0.07-0.76,0.35-0.89,0.83
		C415.34,164.6,415.88,165.24,417.22,165.6z"/>
	<path d="M421.24,152.29l-1.43,5.33c1.29,0.29,2.08-0.12,2.37-1.23c0.19-0.69,0.02-1.34-0.5-1.95l0.79-1.76
		c1.31,1.01,1.74,2.37,1.29,4.07c-0.31,1.16-0.9,1.99-1.78,2.51c-0.88,0.51-1.88,0.61-3.03,0.3c-1.15-0.31-1.97-0.89-2.48-1.75
		c-0.51-0.87-0.61-1.86-0.31-2.99c0.3-1.13,0.89-1.93,1.74-2.39c0.86-0.47,1.88-0.54,3.08-0.22L421.24,152.29z M418.56,157.22
		l0.9-3.37c-1-0.04-1.62,0.41-1.86,1.31C417.36,156.04,417.71,156.81,418.56,157.22z"/>
	<path d="M417.76,149.74l0.53-1.99l0.89,0.24c-0.65-0.83-0.78-1.57-0.52-2.53c0.23-0.87,0.7-1.49,1.41-1.84
		c0.53-0.26,1.23-0.27,2.12-0.03l4.52,1.21l-0.53,1.99l-3.95-1.06c-0.54-0.15-0.95-0.18-1.2-0.11c-0.43,0.11-0.72,0.44-0.87,1.01
		c-0.27,1,0.25,1.68,1.57,2.04l3.68,0.99l-0.53,1.99L417.76,149.74z"/>
	<path d="M422.36,139.45l5.39,1.44l-0.53,1.99l-5.39-1.44l-0.21,0.79l-1.72-0.46l0.21-0.79l-2.43-0.65l0.53-1.99l2.43,0.65
		l0.38-1.41l1.72,0.46L422.36,139.45z"/>
</g>
<circle fill="#FFFFFF" stroke="#000000" stroke-width="3" stroke-miterlimit="10" cx="480.29" cy="228" r="10"/>
<g>
	<path d="M481.49,210.32l4.4,1.18l-0.57,2.13l-10.95-2.93l0.85-3.17c0.33-1.24,0.84-2.1,1.52-2.58c0.79-0.56,1.72-0.7,2.75-0.42
		c1.04,0.28,1.76,0.82,2.15,1.63c0.25,0.5,0.35,1.06,0.29,1.69l5.53-2.21l-0.7,2.63l-5.19,1.77L481.49,210.32z M479.98,209.92
		l0.17-0.63c0.36-1.35-0.05-2.25-1.12-2.53c-1.1-0.29-1.83,0.24-2.19,1.61l-0.18,0.66L479.98,209.92z"/>
	<path d="M476.71,200.5c0.09-0.33,0.28-0.58,0.57-0.75s0.61-0.21,0.93-0.12c0.33,0.09,0.59,0.29,0.76,0.58
		c0.18,0.3,0.22,0.62,0.13,0.95c-0.09,0.33-0.28,0.58-0.58,0.75c-0.29,0.17-0.62,0.21-0.94,0.12s-0.58-0.29-0.75-0.59
		C476.66,201.15,476.63,200.83,476.71,200.5z M481.17,200.66l7.11,1.91l-0.53,1.98l-7.11-1.91L481.17,200.66z"/>
	<path d="M477.95,191.94l0.53-1.99l12.3,3.3l-0.53,1.99l-0.92-0.25c0.6,0.82,0.77,1.71,0.51,2.68c-0.26,0.97-0.84,1.69-1.74,2.16
		c-0.9,0.47-1.89,0.57-2.95,0.28c-1.07-0.29-1.88-0.87-2.43-1.73c-0.55-0.86-0.7-1.77-0.44-2.71c0.25-0.95,0.85-1.64,1.79-2.1
		L477.95,191.94z M484.23,195.52c-0.15,0.56-0.08,1.09,0.2,1.57c0.28,0.5,0.7,0.81,1.25,0.96s1.08,0.08,1.57-0.21
		c0.5-0.29,0.81-0.7,0.96-1.25c0.15-0.55,0.08-1.07-0.21-1.57c-0.28-0.5-0.69-0.81-1.25-0.96c-0.55-0.15-1.07-0.08-1.56,0.19
		C484.7,194.54,484.38,194.96,484.23,195.52z"/>
	<path d="M489.93,183.49l-1.43,5.33c1.29,0.29,2.08-0.12,2.37-1.23c0.19-0.69,0.02-1.34-0.5-1.95l0.79-1.76
		c1.31,1.01,1.74,2.36,1.29,4.07c-0.31,1.16-0.9,1.99-1.78,2.5c-0.88,0.51-1.88,0.61-3.03,0.31c-1.15-0.31-1.97-0.89-2.48-1.75
		c-0.51-0.87-0.61-1.86-0.31-2.99c0.3-1.13,0.89-1.93,1.74-2.4c0.86-0.47,1.88-0.54,3.08-0.22L489.93,183.49z M487.26,188.42
		l0.9-3.37c-1-0.04-1.62,0.41-1.86,1.31C486.06,187.23,486.4,188.01,487.26,188.42z"/>
	<path d="M487.92,175.49l0.53-1.99l7.11,1.91l-0.53,1.99l-0.92-0.25c0.6,0.82,0.77,1.71,0.51,2.68c-0.26,0.97-0.84,1.69-1.74,2.16
		c-0.9,0.47-1.89,0.57-2.95,0.28c-1.07-0.29-1.88-0.87-2.43-1.73c-0.55-0.86-0.7-1.77-0.44-2.71c0.25-0.95,0.85-1.64,1.79-2.1
		L487.92,175.49z M489.01,177.68c-0.15,0.56-0.08,1.09,0.2,1.57c0.28,0.5,0.7,0.81,1.25,0.96s1.08,0.08,1.57-0.21
		c0.5-0.29,0.82-0.7,0.96-1.25c0.15-0.55,0.08-1.07-0.21-1.57c-0.28-0.5-0.69-0.81-1.25-0.96c-0.55-0.15-1.07-0.08-1.56,0.19
		C489.48,176.7,489.16,177.12,489.01,177.68z"/>
	<path d="M489.49,169.61l4.03,1.08c1.08,0.29,1.76-0.05,2.02-1.02c0.26-0.97-0.16-1.6-1.24-1.89l-4.03-1.08l0.53-1.99l4.35,1.17
		c1.92,0.52,2.66,2.02,2.07,4.23s-1.99,3.16-3.91,2.65l-4.35-1.17L489.49,169.61z"/>
</g>
<circle fill="#FFFFFF" stroke="#000000" stroke-width="3" stroke-miterlimit="10" cx="557.35" cy="228" r="10"/>
<g>
	<path d="M555.72,210.05l4.03,1.08c1.08,0.29,1.76-0.04,2.02-1.02c0.26-0.97-0.16-1.6-1.24-1.89l-4.03-1.08l0.53-1.99l4.35,1.17
		c1.92,0.52,2.66,2.02,2.07,4.23c-0.59,2.21-1.99,3.16-3.91,2.65l-4.35-1.17L555.72,210.05z"/>
	<path d="M554.96,196.53c0.44-1.63,1.36-2.85,2.77-3.69c1.41-0.83,2.92-1.03,4.53-0.6c1.61,0.43,2.81,1.36,3.61,2.8
		s0.96,2.97,0.52,4.63c-0.44,1.65-1.37,2.88-2.78,3.7c-1.41,0.82-2.92,1.01-4.52,0.58s-2.8-1.37-3.6-2.81
		C554.7,199.69,554.52,198.16,554.96,196.53z M556.91,197.08c-0.27,1-0.13,1.97,0.41,2.88c0.54,0.92,1.33,1.52,2.37,1.79
		c1.04,0.28,2.03,0.16,2.96-0.36c0.93-0.52,1.53-1.28,1.8-2.29c0.27-1.01,0.13-1.98-0.41-2.89c-0.55-0.91-1.34-1.5-2.38-1.78
		s-2.03-0.17-2.95,0.35C557.78,195.31,557.18,196.07,556.91,197.08z"/>
	<path d="M563.31,188.6l5.39,1.44l-0.53,1.99l-5.39-1.44l-0.21,0.79l-1.72-0.46l0.21-0.79l-2.43-0.65l0.53-1.99l2.43,0.65l0.38-1.41
		l1.72,0.46L563.31,188.6z"/>
	<path d="M564.62,183.73l5.39,1.44l-0.53,1.99l-5.39-1.44l-0.21,0.79l-1.72-0.46l0.21-0.79l-2.43-0.65l0.53-1.99l2.43,0.65
		l0.38-1.41l1.72,0.46L564.62,183.73z"/>
	<path d="M565.01,175.37l0.53-1.99l7.11,1.91l-0.53,1.99l-0.92-0.25c0.6,0.82,0.77,1.71,0.51,2.68c-0.26,0.97-0.84,1.69-1.74,2.16
		c-0.9,0.47-1.89,0.57-2.95,0.28c-1.07-0.29-1.88-0.87-2.43-1.73c-0.55-0.86-0.7-1.77-0.44-2.71c0.25-0.95,0.85-1.65,1.79-2.1
		L565.01,175.37z M566.1,177.56c-0.15,0.56-0.08,1.09,0.2,1.57c0.28,0.5,0.7,0.82,1.25,0.96s1.08,0.08,1.57-0.21
		c0.5-0.29,0.81-0.7,0.96-1.25c0.15-0.55,0.08-1.07-0.21-1.57c-0.28-0.5-0.69-0.81-1.25-0.96c-0.55-0.15-1.07-0.08-1.56,0.19
		C566.57,176.58,566.25,177,566.1,177.56z"/>
	<path d="M566.4,170.16l4.61-0.77l-3.78-3.09l0.23-0.85l4.88-0.77l-3.66-3.02l0.6-2.22l6.27,5.62l-0.24,0.9l-4.83,0.77l3.81,3.05
		l-0.24,0.91l-8.23,1.7L566.4,170.16z"/>
	<path d="M570.9,153.38l0.53-1.99l7.11,1.91l-0.53,1.99l-0.92-0.25c0.6,0.82,0.77,1.71,0.51,2.68c-0.26,0.97-0.84,1.69-1.74,2.16
		c-0.9,0.47-1.89,0.57-2.95,0.28c-1.07-0.29-1.88-0.87-2.43-1.73c-0.55-0.86-0.7-1.77-0.44-2.71c0.25-0.95,0.85-1.64,1.79-2.1
		L570.9,153.38z M571.99,155.57c-0.15,0.56-0.08,1.09,0.2,1.57c0.28,0.5,0.7,0.81,1.25,0.96s1.08,0.08,1.57-0.21
		c0.5-0.29,0.81-0.7,0.96-1.25c0.15-0.55,0.08-1.07-0.21-1.57c-0.28-0.5-0.69-0.81-1.25-0.96c-0.55-0.15-1.07-0.08-1.56,0.19
		C572.46,154.6,572.14,155.02,571.99,155.57z"/>
</g>
<circle fill="#FFFFFF" stroke="#000000" stroke-width="3" stroke-miterlimit="10" cx="634.41" cy="228" r="10"/>
<g>
	<path d="M629.06,208.57l9.1,2.44l0.9-3.37l1.85,0.5l-1.47,5.5l-10.95-2.93L629.06,208.57z"/>
	<path d="M639.89,199.02l-1.43,5.33c1.29,0.29,2.08-0.12,2.37-1.23c0.18-0.69,0.01-1.34-0.5-1.95l0.79-1.76
		c1.31,1.01,1.74,2.37,1.29,4.07c-0.31,1.16-0.9,1.99-1.78,2.51s-1.88,0.61-3.03,0.3c-1.15-0.31-1.97-0.89-2.48-1.75
		s-0.61-1.86-0.31-2.99c0.3-1.13,0.89-1.93,1.74-2.39s1.88-0.54,3.07-0.22L639.89,199.02z M637.21,203.95l0.9-3.37
		c-1-0.04-1.62,0.41-1.86,1.31C636.02,202.77,636.36,203.54,637.21,203.95z"/>
	<path d="M642.17,190.52l-1.43,5.33c1.29,0.29,2.08-0.12,2.37-1.23c0.18-0.69,0.01-1.34-0.5-1.95l0.79-1.76
		c1.31,1.01,1.74,2.37,1.29,4.08c-0.31,1.16-0.9,1.99-1.78,2.5s-1.88,0.61-3.03,0.31c-1.15-0.31-1.97-0.89-2.48-1.76
		c-0.51-0.87-0.61-1.86-0.31-2.99c0.3-1.13,0.89-1.93,1.74-2.39s1.88-0.54,3.07-0.22L642.17,190.52z M639.49,195.45l0.9-3.37
		c-1-0.04-1.62,0.41-1.86,1.31C638.29,194.27,638.64,195.04,639.49,195.45z"/>
	<path d="M641.36,184.64c-0.42,0.33-0.68,0.64-0.76,0.94s-0.08,0.53-0.01,0.71c0.08,0.18,0.21,0.3,0.37,0.34s0.32,0.01,0.47-0.12
		c0.14-0.12,0.38-0.44,0.72-0.94s0.65-0.87,0.92-1.08c0.5-0.42,1.11-0.55,1.82-0.35c0.71,0.19,1.24,0.63,1.56,1.31
		c0.33,0.69,0.38,1.48,0.14,2.35c-0.29,1.08-0.92,1.87-1.91,2.38l-0.93-1.37c0.7-0.41,1.13-0.89,1.28-1.46
		c0.14-0.51-0.11-1-0.54-1.12c-0.22-0.06-0.39-0.04-0.54,0.07c-0.14,0.11-0.4,0.42-0.76,0.94c-0.36,0.52-0.65,0.87-0.88,1.04
		c-0.46,0.38-1.01,0.49-1.67,0.31c-0.67-0.18-1.14-0.56-1.43-1.16c-0.3-0.59-0.33-1.28-0.12-2.09s0.67-1.47,1.36-2.02L641.36,184.64
		z"/>
</g>
<circle fill="#FFFFFF" stroke="#000000" stroke-width="3" stroke-miterlimit="10" cx="711.47" cy="228" r="10"/>
<g>
	<path d="M710.35,209.7l1.24-4.63l-4.23-1.13l0.57-2.14l10.95,2.93l-0.57,2.14l-4.86-1.3l-1.24,4.63l4.86,1.3l-0.57,2.13
		l-10.95-2.93l0.57-2.13L710.35,209.7z"/>
	<path d="M712.89,198.64l4.03,1.08c1.08,0.29,1.76-0.04,2.02-1.01c0.26-0.97-0.16-1.6-1.24-1.89l-4.03-1.08l0.53-1.99l4.35,1.17
		c1.92,0.52,2.66,2.02,2.07,4.23c-0.59,2.21-1.99,3.16-3.91,2.65l-4.35-1.17L712.89,198.64z"/>
	<path d="M722.36,191.77l-0.53,1.99l-7.11-1.91l0.53-1.99l1.08,0.29c-0.74-0.72-1-1.53-0.75-2.42c0.08-0.28,0.21-0.55,0.41-0.82
		l1.78,0.78c-0.25,0.25-0.41,0.54-0.49,0.88c-0.3,1.14,0.26,1.9,1.68,2.28L722.36,191.77z"/>
	<path d="M712.55,179.16l0.53-1.99l12.3,3.3l-0.53,1.99l-0.92-0.25c0.6,0.82,0.77,1.71,0.51,2.68c-0.26,0.97-0.84,1.69-1.74,2.16
		c-0.9,0.47-1.89,0.57-2.95,0.28c-1.07-0.29-1.88-0.87-2.43-1.73c-0.55-0.86-0.69-1.77-0.44-2.71c0.25-0.95,0.85-1.65,1.79-2.1
		L712.55,179.16z M718.83,182.75c-0.15,0.56-0.08,1.09,0.2,1.57c0.28,0.5,0.7,0.82,1.25,0.96s1.08,0.08,1.57-0.21
		c0.5-0.29,0.82-0.7,0.96-1.25c0.15-0.55,0.08-1.07-0.21-1.57c-0.28-0.5-0.69-0.81-1.25-0.96c-0.55-0.15-1.07-0.08-1.56,0.19
		C719.29,181.77,718.97,182.19,718.83,182.75z"/>
	<path d="M723.99,171.06l3.65,0.98l-0.53,1.99l-3.78-1.01c-0.55-0.15-0.96-0.21-1.2-0.18c-0.24,0.03-0.46,0.13-0.64,0.29
		s-0.3,0.37-0.36,0.59c-0.12,0.45,0.02,0.98,0.4,1.36c0.19,0.19,0.61,0.37,1.24,0.53l3.65,0.98l-0.53,1.99l-7.11-1.91l0.53-1.99
		l0.83,0.22c-0.53-0.8-0.68-1.65-0.44-2.55c0.24-0.9,0.86-1.49,1.86-1.76c-0.72-0.79-0.95-1.66-0.69-2.62s0.78-1.54,1.58-1.78
		c0.48-0.14,1.08-0.12,1.83,0.08l4.59,1.23l-0.53,1.99l-3.89-1.04c-0.51-0.14-0.91-0.18-1.18-0.15c-0.47,0.07-0.76,0.35-0.89,0.83
		C722.11,170.06,722.66,170.7,723.99,171.06z"/>
	<path d="M723.71,158.25l0.53-1.99l7.11,1.91l-0.53,1.99l-0.92-0.25c0.6,0.82,0.77,1.71,0.51,2.68c-0.26,0.97-0.84,1.69-1.74,2.16
		c-0.9,0.47-1.89,0.57-2.95,0.28c-1.07-0.29-1.88-0.87-2.43-1.73c-0.55-0.86-0.7-1.77-0.44-2.71c0.25-0.95,0.85-1.65,1.79-2.1
		L723.71,158.25z M724.8,160.44c-0.15,0.56-0.08,1.09,0.2,1.57c0.28,0.5,0.7,0.82,1.25,0.96s1.08,0.08,1.57-0.21
		c0.5-0.29,0.82-0.7,0.96-1.25c0.15-0.54,0.08-1.07-0.21-1.57c-0.28-0.5-0.69-0.81-1.25-0.96c-0.55-0.15-1.07-0.08-1.56,0.19
		C725.27,159.46,724.95,159.89,724.8,160.44z"/>
	<path d="M724.76,154.36l0.53-1.99l0.89,0.24c-0.65-0.83-0.78-1.57-0.52-2.53c0.23-0.87,0.7-1.49,1.41-1.84
		c0.53-0.26,1.23-0.27,2.12-0.03l4.51,1.21l-0.53,1.99l-3.95-1.06c-0.54-0.15-0.95-0.19-1.2-0.11c-0.43,0.11-0.72,0.44-0.87,1.01
		c-0.27,1,0.25,1.68,1.57,2.04l3.68,0.99l-0.53,1.99L724.76,154.36z"/>
</g>
<circle fill="#FFFFFF" stroke="#000000" stroke-width="3" stroke-miterlimit="10" cx="788.53" cy="228" r="10"/>
<g>
	<path d="M794.47,210.2l-0.57,2.14l-9.1-2.44l-0.66,2.45l-1.85-0.5l1.89-7.05l1.85,0.5l-0.66,2.46L794.47,210.2z"/>
	<path d="M795.82,205.17l-0.53,1.99l-7.11-1.91l0.53-1.99l1.08,0.29c-0.74-0.72-1-1.53-0.75-2.42c0.08-0.28,0.21-0.55,0.41-0.82
		l1.78,0.78c-0.25,0.25-0.41,0.54-0.49,0.88c-0.31,1.14,0.26,1.9,1.67,2.28L795.82,205.17z"/>
	<path d="M795.5,193.44l-1.43,5.33c1.29,0.29,2.08-0.12,2.37-1.23c0.18-0.69,0.01-1.34-0.5-1.95l0.79-1.76
		c1.31,1.01,1.74,2.37,1.29,4.07c-0.31,1.16-0.9,1.99-1.78,2.51c-0.88,0.51-1.88,0.61-3.03,0.3c-1.15-0.31-1.97-0.89-2.48-1.75
		s-0.61-1.86-0.31-2.99s0.89-1.93,1.74-2.39c0.86-0.47,1.88-0.54,3.08-0.22L795.5,193.44z M792.82,198.37l0.9-3.37
		c-1-0.04-1.62,0.41-1.86,1.31C791.63,197.19,791.97,197.96,792.82,198.37z"/>
	<path d="M797.24,185.29l3.65,0.98l-0.53,1.99l-3.78-1.01c-0.55-0.15-0.96-0.21-1.2-0.18s-0.46,0.13-0.64,0.29s-0.3,0.37-0.36,0.59
		c-0.12,0.45,0.02,0.98,0.4,1.36c0.19,0.19,0.61,0.37,1.24,0.53l3.65,0.98l-0.53,1.99l-7.11-1.91l0.53-1.99l0.83,0.22
		c-0.53-0.8-0.68-1.65-0.44-2.55c0.24-0.9,0.86-1.49,1.86-1.76c-0.72-0.79-0.95-1.66-0.69-2.62s0.78-1.54,1.58-1.78
		c0.48-0.14,1.08-0.11,1.83,0.08l4.59,1.23l-0.53,1.99l-3.89-1.04c-0.51-0.14-0.91-0.18-1.18-0.14c-0.47,0.07-0.76,0.35-0.89,0.83
		C795.36,184.3,795.9,184.93,797.24,185.29z"/>
	<path d="M790.84,174.55l6.11,1.64c-0.58-0.87-0.75-1.78-0.5-2.73c0.25-0.95,0.83-1.65,1.73-2.12c0.9-0.47,1.89-0.56,2.97-0.27
		c1.08,0.29,1.89,0.86,2.44,1.72c0.54,0.86,0.68,1.77,0.42,2.74s-0.86,1.66-1.79,2.07l0.92,0.25l-0.53,1.99l-12.3-3.3L790.84,174.55
		z M798.07,174.58c-0.15,0.55-0.08,1.07,0.2,1.57c0.28,0.5,0.7,0.82,1.25,0.96c0.55,0.15,1.08,0.08,1.57-0.21
		c0.5-0.29,0.81-0.7,0.96-1.25c0.15-0.54,0.08-1.07-0.21-1.57c-0.28-0.5-0.69-0.82-1.24-0.97c-0.55-0.15-1.07-0.08-1.57,0.21
		C798.54,173.62,798.22,174.03,798.07,174.58z"/>
	<path d="M793.35,165.21l12.3,3.3l-0.53,1.99l-12.3-3.3L793.35,165.21z"/>
	<path d="M800.5,159.25l0.53-1.99l7.11,1.91l-0.53,1.99l-0.92-0.25c0.6,0.82,0.77,1.71,0.51,2.68c-0.26,0.97-0.84,1.69-1.74,2.16
		c-0.9,0.47-1.89,0.57-2.95,0.28c-1.07-0.29-1.88-0.87-2.43-1.73c-0.55-0.86-0.7-1.77-0.44-2.71c0.25-0.95,0.85-1.64,1.79-2.1
		L800.5,159.25z M801.59,161.44c-0.15,0.56-0.08,1.09,0.2,1.57c0.28,0.5,0.7,0.81,1.25,0.96s1.08,0.08,1.57-0.21
		c0.5-0.29,0.81-0.7,0.96-1.25c0.15-0.55,0.08-1.07-0.21-1.57c-0.28-0.5-0.69-0.81-1.25-0.96c-0.55-0.15-1.07-0.08-1.56,0.19
		C802.06,160.47,801.74,160.89,801.59,161.44z"/>
	<path d="M808.23,154.53l-6.93,1.75l0.62-2.32l4.61-1.05l-3.5-3.1l0.61-2.29l9.36,8.67l-0.6,2.25L808.23,154.53z"/>
</g>
<circle fill="#FFFFFF" stroke="#000000" stroke-width="3" stroke-miterlimit="10" cx="865.59" cy="228" r="10"/>
<g>
	<path d="M863,209.41c0.31,0.08,0.6,0.04,0.85-0.14c0.25-0.18,0.66-0.65,1.21-1.42c0.55-0.77,1.04-1.3,1.49-1.6
		c0.72-0.5,1.59-0.61,2.62-0.34c1.03,0.28,1.79,0.86,2.27,1.73s0.57,1.89,0.26,3.03c-0.42,1.55-1.45,2.61-3.09,3.2l-0.96-1.74
		c1.11-0.25,1.8-0.88,2.07-1.9c0.13-0.49,0.1-0.94-0.1-1.33c-0.21-0.39-0.53-0.65-0.99-0.77c-0.46-0.12-0.87-0.03-1.25,0.29
		c-0.19,0.15-0.57,0.64-1.14,1.46s-1.14,1.37-1.69,1.66c-0.55,0.29-1.19,0.33-1.91,0.14c-0.92-0.25-1.6-0.77-2.03-1.58
		c-0.43-0.81-0.51-1.7-0.25-2.69c0.33-1.22,1.02-2.18,2.08-2.9l1.16,1.51c-0.73,0.36-1.19,0.88-1.36,1.54
		c-0.12,0.44-0.1,0.83,0.06,1.19C862.44,209.11,862.69,209.33,863,209.41z"/>
	<path d="M868.08,201.55l5.39,1.44l-0.53,1.99l-5.39-1.44l-0.21,0.79l-1.72-0.46l0.21-0.79l-2.43-0.65l0.53-1.99l2.43,0.65
		l0.38-1.41l1.72,0.46L868.08,201.55z"/>
	<path d="M869.41,199.77l0.99-3.7l1.65,0.44l-0.99,3.7L869.41,199.77z"/>
	<path d="M864.95,190.97l9.1,2.44l0.9-3.37l1.85,0.5l-1.47,5.5l-10.95-2.93L864.95,190.97z"/>
	<path d="M871.49,181.92l0.53-1.99l7.11,1.91l-0.53,1.99l-0.92-0.25c0.6,0.82,0.77,1.71,0.51,2.68c-0.26,0.97-0.84,1.69-1.74,2.16
		c-0.9,0.47-1.89,0.57-2.95,0.28c-1.07-0.29-1.88-0.87-2.43-1.73c-0.55-0.86-0.69-1.77-0.44-2.71c0.25-0.95,0.85-1.65,1.79-2.1
		L871.49,181.92z M872.58,184.12c-0.15,0.56-0.08,1.09,0.2,1.57c0.28,0.5,0.7,0.82,1.25,0.96s1.08,0.08,1.57-0.21
		c0.5-0.29,0.81-0.7,0.96-1.25c0.15-0.55,0.08-1.07-0.21-1.57c-0.28-0.5-0.69-0.81-1.25-0.96c-0.55-0.15-1.07-0.08-1.56,0.19
		C873.04,183.14,872.73,183.56,872.58,184.12z"/>
	<path d="M873.06,176.05l4.03,1.08c1.08,0.29,1.76-0.04,2.02-1.02s-0.16-1.6-1.24-1.89l-4.03-1.08l0.53-1.99l4.35,1.17
		c1.92,0.52,2.66,2.02,2.07,4.23c-0.59,2.21-1.99,3.16-3.91,2.65l-4.35-1.17L873.06,176.05z"/>
	<path d="M882.53,169.17l-0.53,1.99l-7.11-1.91l0.53-1.99l1.08,0.29c-0.74-0.72-1-1.53-0.75-2.42c0.08-0.28,0.21-0.55,0.41-0.82
		l1.78,0.78c-0.25,0.25-0.41,0.54-0.49,0.88c-0.31,1.14,0.26,1.9,1.67,2.28L882.53,169.17z"/>
	<path d="M882.21,157.44l-1.43,5.33c1.29,0.29,2.08-0.12,2.37-1.23c0.18-0.69,0.01-1.34-0.5-1.95l0.79-1.76
		c1.31,1.01,1.74,2.37,1.29,4.08c-0.31,1.16-0.9,1.99-1.78,2.5c-0.88,0.51-1.88,0.61-3.03,0.31c-1.15-0.31-1.97-0.89-2.48-1.75
		s-0.61-1.86-0.31-2.99c0.3-1.13,0.89-1.93,1.74-2.4c0.86-0.47,1.88-0.54,3.08-0.22L882.21,157.44z M879.53,162.37l0.9-3.37
		c-1-0.04-1.62,0.41-1.87,1.31C878.33,161.19,878.68,161.96,879.53,162.37z"/>
	<path d="M878.73,154.9l0.53-1.99l0.89,0.24c-0.65-0.83-0.78-1.57-0.52-2.53c0.23-0.87,0.7-1.49,1.41-1.84
		c0.53-0.26,1.23-0.27,2.12-0.03l4.51,1.21l-0.53,1.99l-3.94-1.06c-0.54-0.15-0.95-0.19-1.2-0.11c-0.43,0.11-0.72,0.44-0.87,1.01
		c-0.27,1,0.25,1.68,1.57,2.04l3.68,0.99l-0.53,1.99L878.73,154.9z"/>
	<path d="M883.34,144.61l5.39,1.44l-0.53,1.99l-5.39-1.44l-0.21,0.79l-1.72-0.46l0.21-0.79l-2.43-0.65l0.53-1.99l2.43,0.65
		l0.38-1.41l1.72,0.46L883.34,144.61z"/>
</g>
<circle fill="#FFFFFF" stroke="#000000" stroke-width="3" stroke-miterlimit="10" cx="942.65" cy="228" r="10"/>
<g>
	<path d="M941.78,203.59c-1.05,0.61-1.7,1.41-1.96,2.39c-0.26,0.98-0.12,1.91,0.43,2.8c0.54,0.89,1.36,1.48,2.42,1.77
		c1.07,0.29,2.05,0.18,2.95-0.33c0.9-0.5,1.48-1.27,1.76-2.3c0.14-0.51,0.17-0.99,0.09-1.44c-0.08-0.45-0.27-0.95-0.58-1.51
		l2.51,0.67c0.18,1.04,0.16,1.98-0.08,2.85c-0.43,1.62-1.35,2.84-2.74,3.66c-1.4,0.82-2.89,1.02-4.48,0.6
		c-1.6-0.43-2.8-1.35-3.63-2.79s-1.02-2.95-0.6-4.54c0.24-0.89,0.7-1.72,1.39-2.5L941.78,203.59z"/>
	<path d="M949.73,201.63l-6.93,1.75l0.62-2.32l4.61-1.05l-3.5-3.1l0.61-2.29l9.37,8.67l-0.6,2.25L949.73,201.63z"/>
	<path d="M953.05,193.58l-0.53,1.99l-7.11-1.91l0.53-1.99l1.08,0.29c-0.74-0.72-1-1.53-0.75-2.42c0.07-0.28,0.21-0.55,0.41-0.82
		l1.78,0.78c-0.25,0.25-0.41,0.54-0.49,0.88c-0.3,1.14,0.26,1.9,1.68,2.28L953.05,193.58z"/>
	<path d="M947.47,185.95l4.53-0.79l-3.53-2.93l0.6-2.24l6.28,5.61l-0.24,0.9l-8.23,1.69L947.47,185.95z"/>
	<path d="M945.41,176.82c0.09-0.33,0.28-0.58,0.57-0.75c0.29-0.17,0.61-0.21,0.93-0.12c0.33,0.09,0.58,0.29,0.76,0.58
		c0.18,0.3,0.22,0.62,0.13,0.95c-0.09,0.33-0.29,0.58-0.58,0.75c-0.29,0.17-0.62,0.21-0.95,0.12c-0.33-0.09-0.59-0.29-0.75-0.59
		C945.36,177.47,945.32,177.15,945.41,176.82z M949.87,176.98l7.11,1.91l-0.53,1.98l-7.11-1.91L949.87,176.98z"/>
	<path d="M945.72,171.72l12.3,3.3l-0.53,1.99l-12.3-3.3L945.72,171.72z"/>
	<path d="M946.76,167.83l12.3,3.3l-0.53,1.99l-12.3-3.3L946.76,167.83z"/>
	<path d="M958.21,161.37l-1.43,5.33c1.29,0.29,2.08-0.12,2.37-1.23c0.19-0.69,0.02-1.34-0.5-1.95l0.79-1.76
		c1.31,1.01,1.74,2.37,1.29,4.08c-0.31,1.16-0.9,1.99-1.78,2.5s-1.88,0.61-3.03,0.31c-1.15-0.31-1.97-0.89-2.48-1.75
		c-0.51-0.87-0.61-1.86-0.31-2.99c0.3-1.13,0.89-1.93,1.74-2.4c0.86-0.47,1.88-0.54,3.08-0.22L958.21,161.37z M955.54,166.3
		l0.9-3.37c-1-0.04-1.62,0.41-1.87,1.31C954.34,165.12,954.68,165.89,955.54,166.3z"/>
</g>
<circle fill="#FFFFFF" stroke="#000000" stroke-width="3" stroke-miterlimit="10" cx="1019.71" cy="228" r="10"/>
<g>
	<path d="M1024.73,213.63l-10.95-2.93l0.73-2.71c0.33-1.24,0.79-2.07,1.37-2.5c0.69-0.52,1.52-0.65,2.49-0.39
		c0.6,0.16,1.09,0.44,1.45,0.83c0.17,0.21,0.31,0.53,0.45,0.96c0.32-0.62,0.68-1.03,1.07-1.24c0.66-0.38,1.44-0.46,2.33-0.22
		s1.53,0.75,1.93,1.54c0.4,0.79,0.44,1.78,0.12,2.97L1024.73,213.63z M1018.91,209.79l0.16-0.61c0.3-1.11-0.03-1.79-0.97-2.04
		c-0.95-0.25-1.57,0.17-1.86,1.25l-0.17,0.64L1018.91,209.79z M1023.58,211.04l0.25-0.92c0.38-1.42,0.07-2.27-0.94-2.54
		c-0.55-0.15-1.02-0.04-1.39,0.31c-0.29,0.26-0.54,0.77-0.74,1.53l-0.21,0.8L1023.58,211.04z"/>
	<path d="M1015.39,199.3l12.3,3.3l-0.53,1.99l-12.3-3.3L1015.39,199.3z"/>
	<path d="M1022.55,193.34l0.53-1.99l7.11,1.91l-0.53,1.99l-0.92-0.25c0.6,0.82,0.77,1.71,0.51,2.68c-0.26,0.97-0.84,1.69-1.74,2.16
		c-0.9,0.47-1.89,0.57-2.95,0.28s-1.88-0.87-2.43-1.73c-0.55-0.86-0.69-1.77-0.44-2.71c0.25-0.95,0.85-1.64,1.79-2.1L1022.55,193.34
		z M1023.64,195.53c-0.15,0.56-0.08,1.09,0.2,1.57c0.28,0.5,0.7,0.82,1.25,0.96c0.55,0.15,1.08,0.08,1.57-0.21
		c0.5-0.29,0.82-0.7,0.96-1.25c0.15-0.54,0.08-1.07-0.21-1.57c-0.28-0.5-0.69-0.81-1.25-0.96c-0.55-0.15-1.07-0.08-1.56,0.19
		C1024.1,194.56,1023.78,194.98,1023.64,195.53z"/>
	<path d="M1019.65,187.35c0.09-0.33,0.28-0.58,0.57-0.75s0.61-0.21,0.93-0.12c0.33,0.09,0.59,0.29,0.76,0.58
		c0.18,0.3,0.22,0.62,0.13,0.95c-0.09,0.33-0.28,0.58-0.58,0.75c-0.29,0.17-0.62,0.21-0.94,0.12s-0.58-0.29-0.75-0.59
		C1019.6,188,1019.56,187.68,1019.65,187.35z M1024.11,187.51l7.11,1.91l-0.53,1.98l-7.11-1.91L1024.11,187.51z"/>
	<path d="M1032.26,185.55l-0.53,1.99l-7.11-1.91l0.53-1.99l1.08,0.29c-0.74-0.72-1-1.53-0.75-2.42c0.08-0.28,0.21-0.55,0.41-0.82
		l1.78,0.78c-0.25,0.25-0.41,0.54-0.49,0.88c-0.3,1.14,0.26,1.9,1.68,2.28L1032.26,185.55z"/>
</g>
<circle fill="#FFFFFF" stroke="#000000" stroke-width="3" stroke-miterlimit="10" cx="1096.76" cy="228" r="10"/>
<g>
	<path d="M1101.63,214.23l-10.61-5.03l0.39-1.46l7.96-1.07l-6.33-5.02l0.4-1.47l11.64,1.16l-0.58,2.16l-7.02-0.82l6.09,4.85
		l-0.16,0.59l-7.68,1.06l6.46,2.91L1101.63,214.23z"/>
	<path d="M1099.18,194.02c0.32-1.2,0.93-2.07,1.83-2.63c0.9-0.56,1.91-0.69,3.04-0.39s1.94,0.92,2.43,1.86
		c0.49,0.95,0.58,2.02,0.26,3.23c-0.32,1.21-0.94,2.08-1.86,2.64c-0.91,0.55-1.92,0.68-3.03,0.38c-1.12-0.3-1.92-0.93-2.41-1.88
		C1098.94,196.29,1098.86,195.21,1099.18,194.02z M1100.96,194.52c-0.15,0.55-0.08,1.08,0.2,1.57c0.28,0.5,0.7,0.82,1.25,0.97
		c0.55,0.15,1.08,0.08,1.57-0.21c0.5-0.29,0.82-0.71,0.97-1.26c0.15-0.55,0.08-1.08-0.2-1.58c-0.28-0.5-0.69-0.81-1.25-0.96
		c-0.55-0.15-1.07-0.08-1.57,0.21C1101.43,193.55,1101.11,193.97,1100.96,194.52z"/>
	<path d="M1100.9,188.52l0.53-1.99l0.89,0.24c-0.65-0.83-0.78-1.57-0.52-2.53c0.23-0.87,0.7-1.49,1.41-1.84
		c0.53-0.26,1.23-0.27,2.12-0.03l4.51,1.21l-0.53,1.99l-3.95-1.06c-0.54-0.15-0.95-0.19-1.2-0.11c-0.43,0.11-0.72,0.44-0.87,1.01
		c-0.27,1,0.25,1.68,1.57,2.04l3.68,0.99l-0.53,1.99L1100.9,188.52z"/>
	<path d="M1105.5,178.23l5.39,1.44l-0.53,1.99l-5.39-1.44l-0.21,0.79l-1.72-0.46l0.21-0.79l-2.43-0.65l0.53-1.99l2.43,0.65
		l0.38-1.41l1.72,0.46L1105.5,178.23z"/>
	<path d="M1112.11,175.13l-0.53,1.99l-7.11-1.91l0.53-1.99l1.08,0.29c-0.74-0.72-1-1.53-0.75-2.42c0.08-0.28,0.21-0.55,0.41-0.82
		l1.78,0.78c-0.25,0.25-0.41,0.54-0.49,0.88c-0.3,1.14,0.26,1.9,1.68,2.28L1112.11,175.13z"/>
	<path d="M1104.07,162.81l1.56,3.06l-0.91,0.78l-1.96-2.62L1104.07,162.81z M1111.79,163.4l-1.43,5.33
		c1.29,0.29,2.08-0.12,2.37-1.23c0.19-0.69,0.02-1.34-0.5-1.95l0.79-1.76c1.31,1.01,1.74,2.37,1.29,4.07
		c-0.31,1.16-0.9,1.99-1.78,2.5c-0.88,0.51-1.88,0.61-3.03,0.31c-1.15-0.31-1.97-0.89-2.48-1.75c-0.51-0.87-0.61-1.86-0.31-2.99
		s0.89-1.93,1.74-2.4c0.86-0.47,1.88-0.54,3.07-0.22L1111.79,163.4z M1109.11,168.33l0.9-3.37c-1-0.04-1.62,0.41-1.86,1.31
		C1107.91,167.15,1108.26,167.92,1109.11,168.33z"/>
	<path d="M1109.77,155.4l0.53-1.99l7.11,1.91l-0.53,1.99l-0.92-0.25c0.6,0.82,0.77,1.71,0.51,2.68s-0.84,1.69-1.74,2.16
		c-0.9,0.47-1.89,0.57-2.95,0.28c-1.07-0.29-1.88-0.87-2.43-1.73c-0.55-0.86-0.7-1.77-0.44-2.71c0.25-0.95,0.85-1.64,1.79-2.1
		L1109.77,155.4z M1110.86,157.59c-0.15,0.56-0.08,1.09,0.2,1.57c0.28,0.5,0.7,0.81,1.25,0.96s1.08,0.08,1.57-0.21
		c0.5-0.29,0.81-0.7,0.96-1.25c0.15-0.55,0.08-1.07-0.21-1.57c-0.28-0.5-0.69-0.81-1.25-0.96c-0.55-0.15-1.07-0.08-1.56,0.19
		C1111.33,156.62,1111.01,157.04,1110.86,157.59z"/>
	<path d="M1106.16,148.13l12.3,3.3l-0.53,1.99l-12.3-3.3L1106.16,148.13z"/>
</g>
<circle fill="#FFFFFF" stroke="#000000" stroke-width="3" stroke-miterlimit="10" cx="1173.82" cy="228" r="10"/>
<g>
	<path d="M1169.05,206.38l7.39,1.98c1.44,0.38,2.37,0.98,2.81,1.79c0.36,0.69,0.41,1.49,0.17,2.38c-0.24,0.89-0.8,1.62-1.69,2.16
		l-1.22-1.69c0.49-0.17,0.8-0.48,0.92-0.94c0.12-0.46-0.01-0.82-0.41-1.09c-0.24-0.17-0.74-0.35-1.5-0.57l-7.05-1.89L1169.05,206.38
		z"/>
	<path d="M1179.24,199.25l-1.43,5.33c1.29,0.29,2.08-0.12,2.37-1.23c0.19-0.69,0.02-1.34-0.5-1.95l0.79-1.76
		c1.31,1.01,1.74,2.37,1.29,4.07c-0.31,1.16-0.9,1.99-1.78,2.51c-0.88,0.51-1.88,0.61-3.03,0.3c-1.15-0.31-1.97-0.89-2.48-1.75
		c-0.51-0.87-0.61-1.86-0.31-2.99s0.89-1.93,1.74-2.4c0.86-0.47,1.88-0.54,3.08-0.21L1179.24,199.25z M1176.56,204.18l0.9-3.37
		c-1-0.03-1.62,0.41-1.86,1.31C1175.37,203,1175.71,203.77,1176.56,204.18z"/>
	<path d="M1177.22,191.25l0.53-1.99l7.11,1.91l-0.53,1.99l-0.92-0.25c0.6,0.82,0.77,1.71,0.51,2.68c-0.26,0.97-0.84,1.69-1.74,2.16
		c-0.9,0.47-1.89,0.57-2.95,0.28c-1.07-0.29-1.88-0.87-2.43-1.73c-0.55-0.86-0.7-1.77-0.44-2.71c0.25-0.95,0.85-1.64,1.79-2.1
		L1177.22,191.25z M1178.31,193.44c-0.15,0.56-0.08,1.09,0.2,1.57c0.28,0.5,0.7,0.82,1.25,0.96c0.55,0.15,1.08,0.08,1.57-0.21
		c0.5-0.29,0.82-0.7,0.96-1.25c0.15-0.54,0.08-1.07-0.21-1.57c-0.28-0.5-0.69-0.81-1.25-0.96c-0.55-0.15-1.07-0.08-1.56,0.19
		C1178.78,192.47,1178.46,192.89,1178.31,193.44z"/>
	<path d="M1178.27,187.36l0.53-1.99l0.89,0.24c-0.65-0.83-0.78-1.57-0.52-2.53c0.23-0.87,0.7-1.49,1.41-1.84
		c0.53-0.26,1.23-0.27,2.12-0.03l4.51,1.21l-0.53,1.99l-3.95-1.06c-0.54-0.15-0.95-0.18-1.2-0.11c-0.43,0.11-0.72,0.44-0.87,1.01
		c-0.27,1,0.25,1.68,1.57,2.04l3.68,0.99l-0.53,1.99L1178.27,187.36z"/>
	<path d="M1180.61,178.61l0.53-1.99l0.89,0.24c-0.65-0.83-0.78-1.57-0.52-2.53c0.23-0.87,0.7-1.49,1.41-1.84
		c0.53-0.26,1.23-0.27,2.12-0.03l4.51,1.21l-0.53,1.99l-3.95-1.06c-0.54-0.15-0.95-0.19-1.2-0.11c-0.43,0.11-0.72,0.44-0.87,1.01
		c-0.27,1,0.25,1.68,1.57,2.04l3.68,0.99l-0.53,1.99L1180.61,178.61z"/>
	<path d="M1188.71,163.91l-1.43,5.33c1.29,0.29,2.08-0.12,2.37-1.23c0.18-0.69,0.01-1.34-0.5-1.95l0.79-1.76
		c1.31,1.01,1.74,2.36,1.29,4.07c-0.31,1.16-0.9,1.99-1.78,2.5c-0.88,0.51-1.88,0.61-3.03,0.31c-1.15-0.31-1.97-0.89-2.48-1.75
		c-0.51-0.87-0.61-1.86-0.31-2.99c0.3-1.13,0.89-1.93,1.74-2.4c0.86-0.47,1.88-0.54,3.08-0.22L1188.71,163.91z M1186.03,168.84
		l0.9-3.37c-1-0.04-1.62,0.41-1.86,1.31C1184.83,167.66,1185.18,168.43,1186.03,168.84z"/>
	<path d="M1182.61,150.42l0.53-1.99l12.3,3.3l-0.53,1.99l-0.92-0.25c0.6,0.82,0.77,1.71,0.51,2.68s-0.84,1.69-1.74,2.16
		c-0.9,0.47-1.89,0.57-2.95,0.28c-1.07-0.29-1.88-0.87-2.43-1.73c-0.55-0.86-0.69-1.77-0.44-2.71c0.25-0.95,0.85-1.64,1.79-2.1
		L1182.61,150.42z M1188.88,154c-0.15,0.56-0.08,1.09,0.2,1.57c0.28,0.5,0.7,0.82,1.25,0.96c0.55,0.15,1.08,0.08,1.57-0.21
		c0.5-0.29,0.81-0.7,0.96-1.25s0.08-1.07-0.21-1.57c-0.28-0.5-0.69-0.81-1.25-0.96c-0.55-0.15-1.07-0.08-1.56,0.19
		C1189.35,153.03,1189.03,153.45,1188.88,154z"/>
	<path d="M1185.09,145.66l0.71-1.77l3.75,3.49l-0.51,1.22L1185.09,145.66z"/>
	<path d="M1196.46,138.65l-1.2,4.48l2.05,1.61l-0.61,2.27l-9.91-7.74l0.43-1.61l12.42-1.6l-0.61,2.29L1196.46,138.65z
		 M1194.55,138.87l-4.35,0.48l3.51,2.64L1194.55,138.87z"/>
	<path d="M1200.43,133.08l-0.53,1.99l-7.11-1.91l0.53-1.99l1.08,0.29c-0.74-0.72-1-1.53-0.75-2.42c0.08-0.28,0.21-0.55,0.41-0.82
		l1.78,0.78c-0.25,0.25-0.41,0.54-0.49,0.88c-0.31,1.14,0.26,1.9,1.67,2.28L1200.43,133.08z"/>
	<path d="M1197.94,122.62c-0.55,0.41-0.9,0.9-1.05,1.47c-0.15,0.57-0.09,1.09,0.18,1.59c0.27,0.49,0.69,0.81,1.27,0.97
		s1.1,0.09,1.58-0.2c0.48-0.29,0.8-0.72,0.96-1.3c0.15-0.58,0.11-1.17-0.15-1.78l1.93,0.52c0.14,0.66,0.12,1.3-0.04,1.94
		c-0.3,1.11-0.9,1.93-1.83,2.48c-0.91,0.55-1.91,0.68-2.98,0.4c-1.07-0.29-1.87-0.91-2.41-1.85c-0.53-0.94-0.65-1.97-0.35-3.08
		c0.17-0.65,0.48-1.21,0.91-1.69L1197.94,122.62z"/>
</g>
<circle fill="#FFFFFF" stroke="#000000" stroke-width="3" stroke-miterlimit="10" cx="1250.88" cy="228" r="10"/>
<g>
	<path d="M1250.01,203.59c-1.05,0.61-1.7,1.41-1.96,2.39c-0.26,0.98-0.12,1.91,0.43,2.8c0.54,0.89,1.36,1.48,2.42,1.77
		c1.07,0.29,2.05,0.18,2.95-0.33c0.9-0.5,1.48-1.27,1.76-2.3c0.14-0.51,0.17-0.99,0.09-1.44c-0.08-0.45-0.27-0.95-0.58-1.51
		l2.51,0.67c0.18,1.04,0.16,1.98-0.08,2.85c-0.43,1.62-1.35,2.84-2.74,3.66c-1.4,0.82-2.89,1.02-4.48,0.6
		c-1.6-0.43-2.8-1.35-3.63-2.79c-0.83-1.43-1.02-2.95-0.6-4.54c0.24-0.89,0.7-1.72,1.39-2.5L1250.01,203.59z"/>
	<path d="M1252.12,198.42c0.32-1.19,0.93-2.07,1.83-2.63s1.91-0.69,3.03-0.39c1.12,0.3,1.94,0.92,2.43,1.86
		c0.49,0.95,0.58,2.02,0.26,3.23c-0.33,1.21-0.95,2.08-1.86,2.64c-0.91,0.55-1.92,0.68-3.03,0.38c-1.11-0.3-1.92-0.93-2.41-1.87
		C1251.88,200.7,1251.8,199.62,1252.12,198.42z M1253.9,198.93c-0.15,0.55-0.08,1.08,0.2,1.57c0.28,0.5,0.7,0.82,1.25,0.97
		s1.08,0.08,1.57-0.21c0.5-0.29,0.82-0.71,0.97-1.26c0.15-0.55,0.08-1.09-0.2-1.58c-0.28-0.5-0.69-0.81-1.25-0.96
		c-0.55-0.15-1.07-0.08-1.57,0.21C1254.37,197.95,1254.05,198.37,1253.9,198.93z"/>
	<path d="M1253.84,192.92l0.53-1.99l0.89,0.24c-0.65-0.83-0.78-1.57-0.52-2.53c0.23-0.87,0.7-1.49,1.41-1.84
		c0.53-0.26,1.23-0.27,2.12-0.03l4.51,1.21l-0.53,1.99l-3.94-1.06c-0.54-0.15-0.95-0.19-1.2-0.11c-0.43,0.11-0.72,0.44-0.87,1.01
		c-0.27,1,0.25,1.68,1.57,2.04l3.68,0.99l-0.53,1.99L1253.84,192.92z"/>
	<path d="M1256.45,183.15l4.53-0.79l-3.53-2.93l0.6-2.24l6.28,5.61l-0.24,0.9l-8.23,1.69L1256.45,183.15z"/>
	<path d="M1263.97,170.62l-1.43,5.33c1.29,0.29,2.08-0.12,2.37-1.23c0.19-0.69,0.02-1.34-0.5-1.95l0.79-1.76
		c1.31,1.01,1.74,2.36,1.29,4.08c-0.31,1.16-0.9,1.99-1.78,2.5c-0.88,0.51-1.88,0.61-3.03,0.31c-1.15-0.31-1.97-0.89-2.48-1.76
		c-0.51-0.87-0.61-1.86-0.31-2.99c0.3-1.13,0.89-1.93,1.74-2.39s1.88-0.54,3.07-0.22L1263.97,170.62z M1261.29,175.55l0.9-3.37
		c-1-0.04-1.62,0.41-1.86,1.31C1260.1,174.37,1260.44,175.14,1261.29,175.55z"/>
	<path d="M1260.49,168.07l0.53-1.99l0.89,0.24c-0.65-0.83-0.78-1.57-0.52-2.53c0.23-0.87,0.7-1.49,1.41-1.84
		c0.53-0.26,1.23-0.27,2.12-0.03l4.51,1.21l-0.53,1.99l-3.95-1.06c-0.54-0.15-0.95-0.19-1.2-0.11c-0.43,0.11-0.72,0.44-0.87,1.01
		c-0.27,1,0.25,1.68,1.57,2.04l3.68,0.99l-0.53,1.99L1260.49,168.07z"/>
	<path d="M1265.1,157.78l5.39,1.44l-0.53,1.99l-5.39-1.44l-0.21,0.79l-1.72-0.46l0.21-0.79l-2.43-0.65l0.53-1.99l2.43,0.65
		l0.38-1.41l1.72,0.46L1265.1,157.78z"/>
	<path d="M1267.94,145.3l1.34-5c1.44,0.39,2.47,0.88,3.09,1.44c1.6,1.39,2.17,3.36,1.59,5.53c-0.45,1.66-1.35,2.89-2.71,3.69
		c-1.36,0.8-2.87,0.98-4.53,0.53c-1.66-0.44-2.88-1.36-3.68-2.75s-0.97-2.92-0.52-4.61c0.56-2.08,1.83-3.42,3.84-4.01l0.5,2.14
		c-1.26,0.37-2.06,1.17-2.39,2.4c-0.28,1.03-0.15,1.99,0.39,2.86s1.35,1.46,2.44,1.75s2.08,0.2,2.97-0.3
		c0.89-0.49,1.47-1.25,1.75-2.28c0.21-0.78,0.17-1.48-0.11-2.13c-0.28-0.64-0.76-1.1-1.44-1.36l-0.69,2.57L1267.94,145.3z"/>
	<path d="M1263.82,134.9l12.3,3.3l-0.53,1.99l-12.3-3.3L1263.82,134.9z"/>
	<path d="M1275.27,128.44l-1.43,5.33c1.29,0.29,2.08-0.12,2.37-1.23c0.18-0.69,0.01-1.34-0.5-1.95l0.79-1.76
		c1.31,1.01,1.74,2.37,1.29,4.08c-0.31,1.16-0.9,1.99-1.78,2.5s-1.88,0.61-3.03,0.31c-1.15-0.31-1.97-0.89-2.48-1.75
		c-0.51-0.87-0.61-1.86-0.31-2.99c0.3-1.13,0.89-1.93,1.74-2.4s1.88-0.54,3.07-0.22L1275.27,128.44z M1272.59,133.37l0.9-3.37
		c-1-0.04-1.62,0.41-1.86,1.31C1271.4,132.19,1271.74,132.96,1272.59,133.37z"/>
	<path d="M1271.79,125.9l0.53-1.99l0.89,0.24c-0.65-0.83-0.78-1.57-0.52-2.53c0.23-0.87,0.7-1.49,1.41-1.84
		c0.53-0.26,1.23-0.27,2.12-0.03l4.51,1.21l-0.53,1.99l-3.95-1.06c-0.54-0.15-0.95-0.19-1.2-0.11c-0.43,0.11-0.72,0.44-0.87,1.01
		c-0.27,1,0.25,1.68,1.57,2.04l3.68,0.99l-0.53,1.99L1271.79,125.9z"/>
</g>
<circle fill="#FFFFFF" stroke="#000000" stroke-width="3" stroke-miterlimit="10" cx="1327.94" cy="228" r="10"/>
<g>
	<path d="M1329.48,210.41l4.06,1.09l-0.57,2.13l-10.95-2.93l0.86-3.2c0.19-0.71,0.41-1.27,0.64-1.67c0.25-0.4,0.57-0.73,0.97-1
		c0.87-0.56,1.83-0.7,2.87-0.43c1.03,0.28,1.79,0.81,2.28,1.58s0.56,1.79,0.22,3.05L1329.48,210.41z M1327.63,209.92l0.23-0.87
		c0.36-1.34,0.01-2.15-1.04-2.43c-1.11-0.3-1.77,0.2-2.18,1.7l-0.2,0.74L1327.63,209.92z"/>
	<path d="M1323.47,199.88l12.3,3.29l-0.53,1.99l-12.3-3.29L1323.47,199.88z"/>
	<path d="M1330.63,193.92l0.53-1.99l7.11,1.91l-0.53,1.99l-0.92-0.25c0.6,0.82,0.77,1.71,0.51,2.68c-0.26,0.97-0.84,1.69-1.74,2.16
		c-0.9,0.47-1.89,0.57-2.96,0.28c-1.07-0.29-1.88-0.87-2.43-1.73c-0.55-0.86-0.7-1.77-0.44-2.71c0.25-0.95,0.85-1.65,1.79-2.1
		L1330.63,193.92z M1331.72,196.11c-0.15,0.56-0.08,1.09,0.2,1.57c0.28,0.5,0.7,0.82,1.25,0.96c0.55,0.15,1.08,0.08,1.57-0.21
		c0.5-0.29,0.81-0.7,0.96-1.25c0.15-0.54,0.08-1.07-0.21-1.57c-0.28-0.5-0.69-0.81-1.25-0.96c-0.55-0.15-1.07-0.08-1.56,0.19
		C1332.18,195.14,1331.86,195.56,1331.72,196.11z"/>
	<path d="M1335.27,185.28c-0.55,0.41-0.89,0.9-1.05,1.47c-0.15,0.57-0.09,1.09,0.18,1.59c0.27,0.49,0.69,0.81,1.27,0.97
		c0.58,0.16,1.1,0.09,1.58-0.2c0.48-0.29,0.8-0.72,0.96-1.3s0.11-1.17-0.15-1.78l1.93,0.52c0.14,0.67,0.12,1.3-0.04,1.94
		c-0.3,1.11-0.9,1.93-1.83,2.48c-0.91,0.55-1.91,0.68-2.98,0.4c-1.07-0.29-1.87-0.91-2.41-1.85c-0.53-0.94-0.65-1.97-0.35-3.08
		c0.17-0.65,0.48-1.21,0.91-1.69L1335.27,185.28z"/>
	<path d="M1339.26,177.23l-1.43,5.33c1.29,0.29,2.08-0.12,2.37-1.23c0.19-0.69,0.02-1.34-0.5-1.95l0.79-1.76
		c1.31,1.01,1.74,2.37,1.29,4.08c-0.31,1.16-0.9,1.99-1.78,2.5c-0.88,0.51-1.88,0.61-3.03,0.31c-1.15-0.31-1.97-0.89-2.48-1.75
		c-0.51-0.87-0.61-1.86-0.31-2.99c0.3-1.13,0.89-1.93,1.74-2.4c0.86-0.47,1.88-0.54,3.08-0.22L1339.26,177.23z M1336.58,182.16
		l0.9-3.37c-1-0.04-1.62,0.41-1.86,1.31C1335.38,180.98,1335.73,181.75,1336.58,182.16z"/>
	<path d="M1333.15,163.74l0.53-1.99l12.3,3.3l-0.53,1.99l-0.92-0.25c0.6,0.82,0.77,1.71,0.51,2.68s-0.84,1.69-1.74,2.16
		c-0.9,0.47-1.89,0.57-2.95,0.28c-1.07-0.29-1.88-0.86-2.43-1.73c-0.55-0.86-0.7-1.77-0.44-2.71s0.85-1.64,1.79-2.1L1333.15,163.74z
		 M1339.43,167.32c-0.15,0.56-0.08,1.09,0.2,1.57c0.28,0.5,0.7,0.82,1.25,0.96c0.55,0.15,1.08,0.08,1.57-0.21
		c0.5-0.29,0.81-0.7,0.96-1.25c0.15-0.54,0.08-1.07-0.21-1.57c-0.28-0.5-0.69-0.81-1.25-0.96c-0.55-0.15-1.07-0.08-1.56,0.19
		C1339.9,166.34,1339.58,166.77,1339.43,167.32z"/>
	<path d="M1335.64,158.97l0.71-1.77l3.75,3.49l-0.51,1.22L1335.64,158.97z"/>
	<path d="M1338.08,149.74c0.44-1.63,1.36-2.85,2.77-3.68c1.41-0.83,2.92-1.03,4.54-0.6c1.61,0.43,2.81,1.36,3.61,2.8
		c0.79,1.43,0.96,2.97,0.52,4.63c-0.44,1.65-1.37,2.88-2.78,3.7c-1.41,0.82-2.92,1.01-4.52,0.58s-2.8-1.37-3.6-2.81
		C1337.83,152.9,1337.65,151.36,1338.08,149.74z M1340.03,150.29c-0.27,1-0.13,1.97,0.41,2.88c0.54,0.92,1.33,1.52,2.37,1.8
		c1.04,0.28,2.03,0.16,2.96-0.36c0.93-0.52,1.53-1.27,1.8-2.29c0.27-1.01,0.13-1.97-0.41-2.89c-0.55-0.91-1.34-1.5-2.38-1.78
		s-2.03-0.17-2.95,0.35C1340.9,148.51,1340.3,149.28,1340.03,150.29z"/>
	<path d="M1351.82,143.27l-0.53,1.99l-7.11-1.91l0.53-1.99l1.08,0.29c-0.74-0.72-1-1.53-0.75-2.42c0.08-0.28,0.21-0.55,0.41-0.82
		l1.78,0.78c-0.25,0.25-0.41,0.54-0.49,0.88c-0.31,1.14,0.26,1.9,1.67,2.28L1351.82,143.27z"/>
	<path d="M1341.12,134l12.3,3.3l-0.53,1.99l-12.3-3.3L1341.12,134z"/>
	<path d="M1344.86,126.95l1.56,3.06l-0.91,0.78l-1.96-2.62L1344.86,126.95z M1352.57,127.54l-1.43,5.33
		c1.29,0.29,2.08-0.12,2.37-1.23c0.18-0.69,0.01-1.34-0.5-1.95l0.79-1.76c1.31,1.01,1.74,2.36,1.29,4.07
		c-0.31,1.16-0.9,1.99-1.78,2.5c-0.88,0.51-1.88,0.61-3.03,0.31c-1.15-0.31-1.97-0.89-2.48-1.75c-0.51-0.87-0.61-1.86-0.31-2.99
		c0.3-1.13,0.89-1.93,1.74-2.4c0.86-0.47,1.88-0.54,3.08-0.22L1352.57,127.54z M1349.9,132.47l0.9-3.37c-1-0.04-1.62,0.41-1.87,1.31
		C1348.7,131.29,1349.04,132.06,1349.9,132.47z"/>
	<path d="M1350.56,119.54l0.53-1.99l7.11,1.91l-0.53,1.99l-0.92-0.25c0.6,0.82,0.77,1.71,0.51,2.68s-0.84,1.69-1.74,2.16
		c-0.9,0.47-1.89,0.57-2.95,0.28c-1.07-0.29-1.88-0.87-2.43-1.73c-0.55-0.86-0.7-1.77-0.44-2.71s0.85-1.64,1.79-2.1L1350.56,119.54z
		 M1351.65,121.73c-0.15,0.56-0.08,1.09,0.2,1.57c0.28,0.5,0.7,0.81,1.25,0.96s1.08,0.08,1.57-0.21c0.5-0.29,0.81-0.7,0.96-1.25
		c0.15-0.55,0.08-1.07-0.21-1.57c-0.28-0.5-0.69-0.81-1.25-0.96c-0.55-0.15-1.07-0.08-1.56,0.19
		C1352.11,120.75,1351.79,121.18,1351.65,121.73z"/>
	<path d="M1351.6,115.65l0.53-1.99l0.89,0.24c-0.65-0.83-0.78-1.57-0.52-2.53c0.23-0.87,0.7-1.49,1.41-1.84
		c0.53-0.26,1.23-0.27,2.12-0.03l4.51,1.21l-0.53,1.99l-3.94-1.06c-0.54-0.15-0.95-0.19-1.2-0.11c-0.43,0.11-0.72,0.44-0.87,1.01
		c-0.27,1,0.25,1.68,1.57,2.04l3.68,0.99l-0.53,1.99L1351.6,115.65z"/>
	<path d="M1356.65,103.46c-0.42,0.33-0.68,0.64-0.76,0.94c-0.08,0.3-0.08,0.53-0.01,0.71c0.08,0.18,0.21,0.3,0.37,0.34
		s0.32,0.01,0.47-0.12c0.15-0.12,0.38-0.44,0.72-0.94c0.34-0.5,0.64-0.87,0.92-1.08c0.5-0.42,1.11-0.55,1.82-0.35
		s1.24,0.63,1.56,1.31c0.33,0.69,0.38,1.48,0.14,2.35c-0.29,1.07-0.92,1.87-1.91,2.38l-0.93-1.37c0.7-0.41,1.13-0.89,1.29-1.46
		c0.14-0.51-0.11-1-0.54-1.12c-0.22-0.06-0.39-0.04-0.54,0.07c-0.14,0.11-0.4,0.42-0.76,0.94c-0.36,0.52-0.65,0.87-0.88,1.04
		c-0.46,0.38-1.01,0.49-1.67,0.31c-0.67-0.18-1.14-0.56-1.43-1.16c-0.3-0.59-0.33-1.28-0.12-2.09s0.67-1.47,1.36-2.02
		L1356.65,103.46z"/>
</g>
<circle fill="#FFFFFF" stroke="#000000" stroke-width="3" stroke-miterlimit="10" cx="1405" cy="228" r="10"/>
<g>
	<path d="M1410.95,210.2l-0.57,2.14l-9.1-2.44l-0.66,2.45l-1.85-0.5l1.89-7.05l1.85,0.5l-0.66,2.46L1410.95,210.2z"/>
	<path d="M1412.29,205.17l-0.53,1.99l-7.11-1.91l0.53-1.99l1.08,0.29c-0.74-0.72-1-1.53-0.75-2.42c0.08-0.28,0.21-0.55,0.41-0.82
		l1.78,0.78c-0.25,0.25-0.41,0.54-0.49,0.88c-0.31,1.14,0.26,1.9,1.67,2.28L1412.29,205.17z"/>
	<path d="M1402.31,197.16c0.09-0.33,0.28-0.58,0.57-0.75c0.29-0.17,0.61-0.21,0.93-0.12s0.58,0.29,0.76,0.58
		c0.18,0.3,0.22,0.62,0.13,0.95c-0.09,0.33-0.28,0.58-0.58,0.75c-0.29,0.17-0.62,0.21-0.95,0.12c-0.33-0.09-0.58-0.29-0.75-0.59
		C1402.26,197.81,1402.23,197.49,1402.31,197.16z M1406.77,197.32l7.11,1.91l-0.53,1.98l-7.11-1.91L1406.77,197.32z"/>
	<path d="M1412.49,189.84l3.65,0.98l-0.53,1.99l-3.78-1.01c-0.55-0.15-0.96-0.21-1.2-0.18c-0.24,0.03-0.46,0.13-0.64,0.29
		c-0.18,0.17-0.3,0.37-0.36,0.59c-0.12,0.45,0.02,0.99,0.4,1.36c0.19,0.19,0.61,0.37,1.24,0.53l3.65,0.98l-0.53,1.99l-7.11-1.91
		l0.53-1.99l0.83,0.22c-0.53-0.8-0.68-1.65-0.44-2.55c0.24-0.9,0.86-1.49,1.86-1.76c-0.71-0.79-0.95-1.66-0.69-2.62
		s0.78-1.54,1.58-1.78c0.48-0.14,1.08-0.11,1.83,0.09l4.59,1.23l-0.53,1.99l-3.89-1.04c-0.51-0.14-0.91-0.18-1.18-0.14
		c-0.47,0.07-0.76,0.35-0.89,0.83C1410.61,188.84,1411.15,189.48,1412.49,189.84z"/>
</g>
<g>
	<path fill="#9B9B9B" d="M668.61,260.01v-10.02h4.44c0.89,0,1.57,0.09,2.04,0.27c0.46,0.18,0.84,0.5,1.11,0.95s0.42,0.96,0.42,1.51
		c0,0.71-0.23,1.31-0.69,1.8s-1.17,0.8-2.13,0.93c0.35,0.17,0.62,0.33,0.8,0.5c0.39,0.36,0.75,0.8,1.1,1.33l1.74,2.73h-1.67
		l-1.33-2.08c-0.39-0.6-0.71-1.06-0.96-1.38s-0.48-0.54-0.67-0.67s-0.4-0.22-0.6-0.27c-0.15-0.03-0.4-0.05-0.74-0.05h-1.54v4.45
		H668.61z M669.93,254.42h2.85c0.61,0,1.08-0.06,1.42-0.19c0.34-0.12,0.6-0.33,0.78-0.6c0.18-0.28,0.27-0.58,0.27-0.9
		c0-0.47-0.17-0.86-0.52-1.17s-0.89-0.46-1.63-0.46h-3.17V254.42z"/>
	<path fill="#9B9B9B" d="M683.28,259.12c-0.46,0.39-0.89,0.66-1.32,0.82s-0.87,0.24-1.36,0.24c-0.8,0-1.41-0.2-1.84-0.58
		c-0.43-0.39-0.64-0.89-0.64-1.49c0-0.36,0.08-0.68,0.24-0.97c0.16-0.29,0.37-0.53,0.64-0.71s0.56-0.31,0.89-0.4
		c0.24-0.06,0.61-0.12,1.09-0.18c0.99-0.12,1.73-0.26,2.19-0.42c0-0.17,0.01-0.28,0.01-0.32c0-0.5-0.12-0.85-0.35-1.06
		c-0.31-0.28-0.78-0.42-1.4-0.42c-0.58,0-1.01,0.1-1.28,0.3c-0.28,0.2-0.48,0.56-0.61,1.08l-1.2-0.16c0.11-0.51,0.29-0.93,0.54-1.25
		c0.25-0.32,0.61-0.56,1.09-0.73c0.47-0.17,1.02-0.26,1.65-0.26c0.62,0,1.12,0.07,1.51,0.22s0.67,0.33,0.85,0.55
		c0.18,0.22,0.31,0.5,0.38,0.84c0.04,0.21,0.06,0.59,0.06,1.13v1.64c0,1.14,0.03,1.87,0.08,2.17c0.05,0.3,0.16,0.59,0.31,0.87h-1.29
		C683.4,259.76,683.31,259.46,683.28,259.12z M683.18,256.37c-0.45,0.18-1.12,0.34-2.01,0.46c-0.51,0.07-0.86,0.16-1.07,0.25
		s-0.37,0.22-0.49,0.4c-0.11,0.18-0.17,0.37-0.17,0.58c0,0.33,0.12,0.6,0.37,0.82s0.61,0.33,1.09,0.33c0.47,0,0.9-0.1,1.26-0.31
		c0.37-0.21,0.64-0.49,0.81-0.85c0.13-0.28,0.2-0.69,0.2-1.23V256.37z"/>
	<path fill="#9B9B9B" d="M686.33,251.41v-1.42h1.23v1.42H686.33z M686.33,260.01v-7.26h1.23v7.26H686.33z"/>
	<path fill="#9B9B9B" d="M689.41,260.01v-10.02h1.23v10.02H689.41z"/>
	<path fill="#9B9B9B" d="M696.66,260.01v-10.02h6.76v1.18h-5.43v3.1h4.7v1.18h-4.7v4.55H696.66z"/>
	<path fill="#9B9B9B" d="M709.73,259.12c-0.46,0.39-0.89,0.66-1.32,0.82s-0.87,0.24-1.36,0.24c-0.8,0-1.41-0.2-1.84-0.58
		c-0.43-0.39-0.64-0.89-0.64-1.49c0-0.36,0.08-0.68,0.24-0.97c0.16-0.29,0.37-0.53,0.64-0.71s0.56-0.31,0.89-0.4
		c0.24-0.06,0.61-0.12,1.09-0.18c0.99-0.12,1.73-0.26,2.19-0.42c0-0.17,0.01-0.28,0.01-0.32c0-0.5-0.12-0.85-0.35-1.06
		c-0.31-0.28-0.78-0.42-1.4-0.42c-0.58,0-1.01,0.1-1.28,0.3c-0.28,0.2-0.48,0.56-0.61,1.08l-1.2-0.16c0.11-0.51,0.29-0.93,0.54-1.25
		c0.25-0.32,0.61-0.56,1.09-0.73c0.47-0.17,1.02-0.26,1.65-0.26c0.62,0,1.12,0.07,1.51,0.22s0.67,0.33,0.85,0.55
		c0.18,0.22,0.31,0.5,0.38,0.84c0.04,0.21,0.06,0.59,0.06,1.13v1.64c0,1.14,0.03,1.87,0.08,2.17c0.05,0.3,0.16,0.59,0.31,0.87h-1.29
		C709.84,259.76,709.76,259.46,709.73,259.12z M709.62,256.37c-0.45,0.18-1.12,0.34-2.01,0.46c-0.51,0.07-0.86,0.16-1.07,0.25
		s-0.37,0.22-0.49,0.4c-0.11,0.18-0.17,0.37-0.17,0.58c0,0.33,0.12,0.6,0.37,0.82s0.61,0.33,1.09,0.33c0.47,0,0.9-0.1,1.26-0.31
		c0.37-0.21,0.64-0.49,0.81-0.85c0.13-0.28,0.2-0.69,0.2-1.23V256.37z"/>
	<path fill="#9B9B9B" d="M712.77,260.01v-7.26h1.11v1.03c0.53-0.8,1.3-1.2,2.31-1.2c0.44,0,0.84,0.08,1.21,0.24
		c0.37,0.16,0.64,0.36,0.82,0.62s0.31,0.56,0.38,0.91c0.05,0.23,0.07,0.63,0.07,1.2v4.46h-1.23v-4.42c0-0.5-0.05-0.88-0.14-1.12
		c-0.1-0.25-0.27-0.45-0.51-0.59c-0.24-0.15-0.53-0.22-0.86-0.22c-0.52,0-0.98,0.17-1.36,0.5s-0.57,0.96-0.57,1.89v3.96H712.77z"/>
	<path fill="#9B9B9B" d="M720.07,257.85l1.22-0.19c0.07,0.49,0.26,0.86,0.57,1.12s0.75,0.39,1.31,0.39c0.56,0,0.98-0.12,1.26-0.35
		c0.27-0.23,0.41-0.5,0.41-0.81c0-0.28-0.12-0.5-0.36-0.66c-0.17-0.11-0.59-0.25-1.26-0.42c-0.9-0.23-1.53-0.42-1.88-0.59
		c-0.35-0.17-0.61-0.4-0.79-0.69c-0.18-0.29-0.27-0.62-0.27-0.97c0-0.32,0.07-0.62,0.22-0.9c0.15-0.28,0.35-0.5,0.6-0.69
		c0.19-0.14,0.45-0.26,0.78-0.36c0.33-0.1,0.68-0.15,1.06-0.15c0.57,0,1.07,0.08,1.5,0.25s0.75,0.39,0.95,0.67
		c0.21,0.28,0.35,0.66,0.42,1.12l-1.2,0.16c-0.05-0.37-0.21-0.67-0.48-0.88s-0.63-0.31-1.11-0.31c-0.56,0-0.97,0.09-1.21,0.28
		s-0.36,0.41-0.36,0.66c0,0.16,0.05,0.3,0.15,0.43c0.1,0.13,0.26,0.24,0.47,0.33c0.12,0.05,0.49,0.15,1.09,0.31
		c0.87,0.23,1.48,0.42,1.82,0.57c0.34,0.15,0.61,0.36,0.81,0.65s0.29,0.63,0.29,1.05c0,0.41-0.12,0.8-0.36,1.16
		c-0.24,0.36-0.58,0.64-1.04,0.84c-0.45,0.2-0.96,0.3-1.53,0.3c-0.94,0-1.66-0.2-2.16-0.59S720.21,258.62,720.07,257.85z"/>
	<path fill="#9B9B9B" d="M738.76,256.5l1.33,0.33c-0.28,1.09-0.78,1.92-1.5,2.49c-0.72,0.57-1.61,0.86-2.65,0.86
		c-1.08,0-1.96-0.22-2.64-0.66c-0.68-0.44-1.19-1.08-1.54-1.91s-0.53-1.73-0.53-2.69c0-1.04,0.2-1.95,0.6-2.73
		c0.4-0.78,0.97-1.37,1.7-1.77c0.74-0.4,1.55-0.6,2.43-0.6c1,0,1.85,0.25,2.53,0.77s1.16,1.23,1.43,2.15l-1.31,0.31
		c-0.23-0.73-0.57-1.26-1.01-1.59s-1-0.5-1.67-0.5c-0.77,0-1.41,0.18-1.93,0.55s-0.88,0.87-1.09,1.49
		c-0.21,0.62-0.31,1.26-0.31,1.92c0,0.85,0.12,1.6,0.37,2.23c0.25,0.64,0.63,1.11,1.16,1.43s1.09,0.47,1.7,0.47
		c0.74,0,1.37-0.21,1.89-0.64S738.58,257.34,738.76,256.5z"/>
	<path fill="#9B9B9B" d="M746.3,259.12c-0.46,0.39-0.89,0.66-1.32,0.82s-0.87,0.24-1.36,0.24c-0.8,0-1.41-0.2-1.84-0.58
		c-0.43-0.39-0.64-0.89-0.64-1.49c0-0.36,0.08-0.68,0.24-0.97c0.16-0.29,0.37-0.53,0.64-0.71s0.56-0.31,0.89-0.4
		c0.24-0.06,0.61-0.12,1.09-0.18c0.99-0.12,1.73-0.26,2.19-0.42c0-0.17,0.01-0.28,0.01-0.32c0-0.5-0.12-0.85-0.35-1.06
		c-0.31-0.28-0.78-0.42-1.4-0.42c-0.58,0-1.01,0.1-1.28,0.3c-0.28,0.2-0.48,0.56-0.61,1.08l-1.2-0.16c0.11-0.51,0.29-0.93,0.54-1.25
		c0.25-0.32,0.61-0.56,1.09-0.73c0.47-0.17,1.02-0.26,1.65-0.26c0.62,0,1.12,0.07,1.51,0.22s0.67,0.33,0.85,0.55
		c0.18,0.22,0.31,0.5,0.38,0.84c0.04,0.21,0.06,0.59,0.06,1.13v1.64c0,1.14,0.03,1.87,0.08,2.17c0.05,0.3,0.16,0.59,0.31,0.87h-1.29
		C746.42,259.76,746.33,259.46,746.3,259.12z M746.2,256.37c-0.45,0.18-1.12,0.34-2.01,0.46c-0.51,0.07-0.86,0.16-1.07,0.25
		s-0.37,0.22-0.49,0.4c-0.11,0.18-0.17,0.37-0.17,0.58c0,0.33,0.12,0.6,0.37,0.82s0.61,0.33,1.09,0.33c0.47,0,0.9-0.1,1.26-0.31
		c0.37-0.21,0.64-0.49,0.81-0.85c0.13-0.28,0.2-0.69,0.2-1.23V256.37z"/>
	<path fill="#9B9B9B" d="M749.35,260.01v-7.26h1.11v1.03c0.53-0.8,1.3-1.2,2.31-1.2c0.44,0,0.84,0.08,1.21,0.24
		c0.37,0.16,0.64,0.36,0.82,0.62c0.18,0.25,0.31,0.56,0.38,0.91c0.05,0.23,0.07,0.63,0.07,1.2v4.46h-1.23v-4.42
		c0-0.5-0.05-0.88-0.14-1.12c-0.1-0.25-0.27-0.45-0.51-0.59c-0.24-0.15-0.53-0.22-0.86-0.22c-0.52,0-0.98,0.17-1.36,0.5
		c-0.38,0.33-0.57,0.96-0.57,1.89v3.96H749.35z"/>
	<path fill="#9B9B9B" d="M761.87,259.12c-0.46,0.39-0.89,0.66-1.32,0.82s-0.87,0.24-1.36,0.24c-0.8,0-1.41-0.2-1.84-0.58
		c-0.43-0.39-0.64-0.89-0.64-1.49c0-0.36,0.08-0.68,0.24-0.97c0.16-0.29,0.37-0.53,0.64-0.71s0.56-0.31,0.89-0.4
		c0.24-0.06,0.61-0.12,1.09-0.18c0.99-0.12,1.72-0.26,2.19-0.42c0-0.17,0.01-0.28,0.01-0.32c0-0.5-0.12-0.85-0.35-1.06
		c-0.31-0.28-0.78-0.42-1.4-0.42c-0.58,0-1.01,0.1-1.28,0.3c-0.28,0.2-0.48,0.56-0.61,1.08l-1.2-0.16c0.11-0.51,0.29-0.93,0.54-1.25
		c0.25-0.32,0.61-0.56,1.09-0.73c0.47-0.17,1.02-0.26,1.65-0.26c0.62,0,1.12,0.07,1.51,0.22c0.39,0.15,0.67,0.33,0.86,0.55
		c0.18,0.22,0.31,0.5,0.38,0.84c0.04,0.21,0.06,0.59,0.06,1.13v1.64c0,1.14,0.03,1.87,0.08,2.17c0.05,0.3,0.16,0.59,0.31,0.87h-1.29
		C761.99,259.76,761.91,259.46,761.87,259.12z M761.77,256.37c-0.45,0.18-1.12,0.34-2.01,0.46c-0.51,0.07-0.86,0.16-1.07,0.25
		c-0.21,0.09-0.37,0.22-0.49,0.4c-0.11,0.18-0.17,0.37-0.17,0.58c0,0.33,0.12,0.6,0.37,0.82s0.61,0.33,1.09,0.33
		c0.47,0,0.89-0.1,1.26-0.31c0.37-0.21,0.64-0.49,0.81-0.85c0.13-0.28,0.2-0.69,0.2-1.23V256.37z"/>
	<path fill="#9B9B9B" d="M769.63,260.01v-0.92c-0.46,0.72-1.14,1.08-2.03,1.08c-0.58,0-1.11-0.16-1.6-0.48s-0.86-0.76-1.13-1.34
		c-0.27-0.57-0.4-1.23-0.4-1.97c0-0.72,0.12-1.38,0.36-1.97c0.24-0.59,0.6-1.04,1.09-1.36c0.48-0.31,1.02-0.47,1.62-0.47
		c0.44,0,0.83,0.09,1.17,0.28c0.34,0.18,0.62,0.42,0.83,0.72v-3.6h1.22v10.02H769.63z M765.74,256.39c0,0.93,0.2,1.62,0.59,2.08
		c0.39,0.46,0.85,0.69,1.39,0.69c0.54,0,1-0.22,1.37-0.66c0.38-0.44,0.56-1.11,0.56-2.01c0-0.99-0.19-1.72-0.57-2.19
		s-0.86-0.7-1.42-0.7c-0.55,0-1,0.22-1.37,0.67S765.74,255.43,765.74,256.39z"/>
	<path fill="#9B9B9B" d="M777.44,259.12c-0.46,0.39-0.89,0.66-1.32,0.82s-0.87,0.24-1.36,0.24c-0.8,0-1.41-0.2-1.84-0.58
		c-0.43-0.39-0.64-0.89-0.64-1.49c0-0.36,0.08-0.68,0.24-0.97c0.16-0.29,0.37-0.53,0.64-0.71s0.56-0.31,0.89-0.4
		c0.24-0.06,0.61-0.12,1.09-0.18c0.99-0.12,1.72-0.26,2.19-0.42c0-0.17,0.01-0.28,0.01-0.32c0-0.5-0.12-0.85-0.35-1.06
		c-0.31-0.28-0.78-0.42-1.4-0.42c-0.58,0-1.01,0.1-1.28,0.3c-0.28,0.2-0.48,0.56-0.61,1.08l-1.2-0.16c0.11-0.51,0.29-0.93,0.54-1.25
		c0.25-0.32,0.61-0.56,1.09-0.73c0.47-0.17,1.02-0.26,1.65-0.26c0.62,0,1.12,0.07,1.51,0.22c0.39,0.15,0.67,0.33,0.86,0.55
		c0.18,0.22,0.31,0.5,0.38,0.84c0.04,0.21,0.06,0.59,0.06,1.13v1.64c0,1.14,0.03,1.87,0.08,2.17c0.05,0.3,0.16,0.59,0.31,0.87h-1.29
		C777.56,259.76,777.48,259.46,777.44,259.12z M777.34,256.37c-0.45,0.18-1.12,0.34-2.01,0.46c-0.51,0.07-0.86,0.16-1.07,0.25
		c-0.21,0.09-0.37,0.22-0.49,0.4c-0.11,0.18-0.17,0.37-0.17,0.58c0,0.33,0.12,0.6,0.37,0.82s0.61,0.33,1.09,0.33
		c0.47,0,0.89-0.1,1.26-0.31c0.37-0.21,0.64-0.49,0.81-0.85c0.13-0.28,0.2-0.69,0.2-1.23V256.37z"/>
	<path fill="#9B9B9B" d="M783.46,256.88v-0.99h14v0.99H783.46z"/>
	<path fill="#9B9B9B" d="M808.4,258.83v1.18h-6.62c-0.01-0.3,0.04-0.58,0.14-0.85c0.17-0.45,0.44-0.9,0.81-1.33s0.91-0.94,1.61-1.52
		c1.09-0.89,1.82-1.6,2.21-2.12c0.38-0.52,0.57-1.01,0.57-1.48c0-0.49-0.17-0.9-0.52-1.23c-0.35-0.34-0.8-0.5-1.36-0.5
		c-0.59,0-1.07,0.18-1.42,0.53s-0.54,0.85-0.54,1.48l-1.27-0.13c0.09-0.94,0.41-1.66,0.98-2.16c0.56-0.5,1.32-0.74,2.28-0.74
		c0.96,0,1.72,0.27,2.28,0.8s0.84,1.19,0.84,1.98c0,0.4-0.08,0.79-0.25,1.18s-0.44,0.79-0.82,1.22s-1.01,1.02-1.9,1.76
		c-0.74,0.62-1.21,1.04-1.42,1.26c-0.21,0.22-0.38,0.44-0.52,0.67H808.4z"/>
	<path fill="#9B9B9B" d="M809.71,255.07c0-1.18,0.12-2.14,0.37-2.86c0.24-0.72,0.61-1.28,1.09-1.67s1.09-0.59,1.81-0.59
		c0.54,0,1.01,0.11,1.42,0.32c0.41,0.22,0.74,0.53,1,0.94c0.26,0.41,0.47,0.9,0.62,1.49c0.15,0.58,0.22,1.38,0.22,2.37
		c0,1.18-0.12,2.12-0.36,2.85c-0.24,0.72-0.6,1.28-1.08,1.68c-0.48,0.39-1.09,0.59-1.82,0.59c-0.97,0-1.72-0.35-2.28-1.04
		C810.05,258.31,809.71,256.95,809.71,255.07z M810.98,255.07c0,1.65,0.19,2.74,0.58,3.28c0.39,0.54,0.86,0.82,1.42,0.82
		c0.57,0,1.04-0.27,1.43-0.82s0.58-1.64,0.58-3.28c0-1.65-0.19-2.75-0.58-3.29s-0.87-0.81-1.44-0.81c-0.56,0-1.02,0.24-1.35,0.72
		C811.19,252.3,810.98,253.43,810.98,255.07z"/>
	<path fill="#9B9B9B" d="M823.97,258.83v1.18h-6.62c-0.01-0.3,0.04-0.58,0.14-0.85c0.17-0.45,0.44-0.9,0.81-1.33
		s0.91-0.94,1.61-1.52c1.09-0.89,1.82-1.6,2.21-2.12c0.38-0.52,0.57-1.01,0.57-1.48c0-0.49-0.17-0.9-0.52-1.23
		c-0.35-0.34-0.8-0.5-1.36-0.5c-0.59,0-1.07,0.18-1.42,0.53s-0.54,0.85-0.54,1.48l-1.27-0.13c0.09-0.94,0.41-1.66,0.98-2.16
		c0.56-0.5,1.32-0.74,2.28-0.74c0.96,0,1.72,0.27,2.28,0.8s0.84,1.19,0.84,1.98c0,0.4-0.08,0.79-0.25,1.18s-0.44,0.79-0.82,1.22
		s-1.01,1.02-1.9,1.76c-0.74,0.62-1.21,1.04-1.42,1.26c-0.21,0.22-0.38,0.44-0.52,0.67H823.97z"/>
	<path fill="#9B9B9B" d="M831.67,252.45l-1.22,0.1c-0.11-0.48-0.26-0.83-0.46-1.05c-0.33-0.35-0.74-0.53-1.23-0.53
		c-0.39,0-0.74,0.11-1.03,0.33c-0.39,0.28-0.69,0.7-0.92,1.24c-0.22,0.54-0.34,1.31-0.35,2.32c0.3-0.45,0.66-0.79,1.09-1
		c0.43-0.22,0.88-0.33,1.35-0.33c0.82,0,1.52,0.3,2.09,0.91c0.58,0.6,0.86,1.38,0.86,2.34c0,0.63-0.13,1.21-0.41,1.75
		c-0.27,0.54-0.64,0.95-1.12,1.24c-0.47,0.29-1.01,0.43-1.61,0.43c-1.03,0-1.86-0.38-2.51-1.13c-0.65-0.75-0.97-2-0.97-3.73
		c0-1.94,0.36-3.34,1.07-4.22c0.62-0.77,1.46-1.15,2.52-1.15c0.79,0,1.44,0.22,1.94,0.66S831.57,251.67,831.67,252.45z
		 M826.65,256.77c0,0.42,0.09,0.83,0.27,1.22s0.43,0.68,0.76,0.89c0.32,0.2,0.66,0.3,1.02,0.3c0.52,0,0.97-0.21,1.34-0.63
		c0.37-0.42,0.56-0.99,0.56-1.71c0-0.69-0.18-1.24-0.55-1.64c-0.37-0.4-0.83-0.6-1.39-0.6c-0.56,0-1.03,0.2-1.42,0.6
		C826.84,255.6,826.65,256.12,826.65,256.77z"/>
</g>
<g>
	<path d="M19.71,21.33v24.38h9.02v4.96H14V21.33H19.71z"/>
	<path d="M34.65,20.36c0.88,0,1.63,0.3,2.26,0.92s0.92,1.38,0.92,2.26s-0.32,1.65-0.95,2.28c-0.62,0.64-1.4,0.97-2.28,0.97
		s-1.63-0.32-2.26-0.95s-0.95-1.4-0.95-2.28s0.32-1.65,0.97-2.28C32.99,20.66,33.77,20.36,34.65,20.36z M37.25,31.62v19.06h-5.31
		V31.62H37.25z"/>
	<path d="M42.27,31.62h5.33V34c1.63-2.17,3.39-2.99,5.97-2.99c2.34,0,4.19,0.75,5.54,2.28c1.01,1.14,1.5,2.9,1.5,5.29v12.1h-5.33
		V40.1c0-1.46-0.17-2.49-0.54-3.07c-0.56-1.01-1.59-1.5-3.12-1.5c-2.69,0-4.04,1.76-4.04,5.29v9.86h-5.33V31.62z"/>
	<path d="M84.45,42.02H70.16c0.15,3.42,1.7,5.11,4.66,5.09c1.85,0,3.35-0.86,4.53-2.56l4.92,0.79c-1.65,3.95-4.75,5.93-9.32,5.95
		c-3.12,0-5.59-0.92-7.46-2.77s-2.79-4.3-2.79-7.37s0.9-5.52,2.73-7.37s4.23-2.77,7.26-2.77s5.41,0.92,7.15,2.75s2.6,4.34,2.6,7.54
		V42.02z M70.33,38.62h9.02c-0.58-2.51-2.11-3.78-4.53-3.78C72.48,34.84,70.78,36.21,70.33,38.62z"/>
	<path d="M106.92,26.29h-4.23v-4.96h9.95v29.35h-5.71V26.29z"/>
	<path d="M132.87,38.36h9.9v4.43h-9.9V38.36z"/>
	<path d="M162.61,28.8c0,0.84,0.3,1.53,0.92,2.02c0.62,0.52,2.06,1.2,4.36,2.06s3.95,1.74,5.01,2.64c1.74,1.46,2.6,3.57,2.6,6.34
		s-0.95,5.05-2.81,6.83s-4.34,2.69-7.39,2.69c-4.15,0-7.5-1.87-10.08-5.59l3.7-3.57c1.38,2.6,3.42,3.91,6.14,3.91
		c1.31,0,2.41-0.39,3.27-1.16c0.84-0.77,1.27-1.76,1.27-2.99s-0.52-2.19-1.57-2.94c-0.49-0.37-1.98-0.99-4.4-1.87
		s-4.19-1.93-5.29-3.12s-1.63-2.75-1.63-4.68c0-2.47,0.86-4.51,2.6-6.12s3.91-2.43,6.55-2.43c3.27,0,6.14,1.1,8.64,3.27l-3.01,3.91
		c-1.4-1.59-2.99-2.38-4.75-2.36c-1.18,0-2.15,0.32-2.94,0.95S162.61,27.96,162.61,28.8z"/>
	<path d="M185.66,36.24v14.44h-5.33V36.24h-2.11v-4.62h2.11v-6.51h5.33v6.51h3.78v4.62H185.66z"/>
	<path d="M206.84,31.62h5.33v19.06h-5.33V48.2c-1.65,2.04-3.76,3.07-6.36,3.07s-4.79-0.97-6.57-2.9s-2.69-4.34-2.69-7.2
		s0.9-5.29,2.69-7.24s3.95-2.92,6.49-2.92s4.68,1.03,6.45,3.07V31.62z M202.1,35.81c-1.5,0-2.77,0.52-3.8,1.55
		c-1.05,1.03-1.57,2.3-1.57,3.78s0.52,2.75,1.57,3.78c1.05,1.05,2.3,1.57,3.76,1.57s2.73-0.52,3.78-1.57
		c1.05-1.03,1.57-2.28,1.57-3.76s-0.52-2.73-1.53-3.78C204.85,36.32,203.58,35.81,202.1,35.81z"/>
	<path d="M237.27,31.62v18.35c0,1.96-0.15,3.48-0.45,4.55c-0.32,1.07-0.88,2.08-1.7,3.01c-1.87,2.23-4.64,3.35-8.31,3.35
		s-6.49-1.4-8.44-4.17c-0.82-1.18-1.31-2.45-1.46-3.8h5.82c0.54,2.3,2.02,3.44,4.47,3.44c1.44,0,2.62-0.47,3.57-1.4
		c0.79-0.84,1.18-2.17,1.2-3.97v-2.86c-1.01,1.14-2,1.96-2.96,2.45c-0.99,0.49-2.15,0.73-3.5,0.73c-2.6,0-4.77-0.92-6.49-2.79
		s-2.58-4.25-2.58-7.2s0.88-5.39,2.64-7.35s3.93-2.94,6.51-2.94s4.71,1.03,6.38,3.07v-2.47H237.27z M227.28,35.81
		c-1.48,0-2.73,0.52-3.78,1.55s-1.57,2.3-1.57,3.78s0.52,2.75,1.57,3.78c1.05,1.05,2.3,1.57,3.76,1.57s2.73-0.52,3.78-1.57
		c1.05-1.03,1.57-2.28,1.57-3.76s-0.52-2.73-1.55-3.78C230,36.32,228.76,35.81,227.28,35.81z"/>
	<path d="M261.29,42.02H247c0.15,3.42,1.7,5.11,4.66,5.09c1.85,0,3.35-0.86,4.53-2.56l4.92,0.79c-1.65,3.95-4.75,5.93-9.32,5.95
		c-3.12,0-5.59-0.92-7.46-2.77s-2.79-4.3-2.79-7.37s0.9-5.52,2.73-7.37s4.23-2.77,7.26-2.77s5.41,0.92,7.15,2.75s2.6,4.34,2.6,7.54
		V42.02z M247.17,38.62h9.02c-0.58-2.51-2.11-3.78-4.53-3.78C249.32,34.84,247.62,36.21,247.17,38.62z"/>
	<path d="M295.85,45.71v4.96h-21.33l8.66-9.82c2.66-3.05,4.45-5.31,5.37-6.75s1.38-2.79,1.38-4.04s-0.43-2.3-1.29-3.16
		c-0.88-0.84-1.96-1.27-3.22-1.27s-2.3,0.43-3.05,1.27c-0.77,0.84-1.18,2.04-1.25,3.57h-6.12c0.19-3.05,1.22-5.46,3.09-7.24
		c1.85-1.78,4.25-2.66,7.22-2.66c2.94,0,5.41,0.9,7.39,2.69c1.96,1.8,2.94,4.15,2.94,7.05s-1.78,6.23-5.33,9.99l-5.11,5.41H295.85z"
		/>
	<path d="M329.33,26.29h-10.51v6.53h10.12v4.96h-10.12v7.93h10.51v4.96h-16.22V21.33h16.22V26.29z"/>
	<path d="M348.68,31.62h5.33v19.06h-5.33V48.2c-1.65,2.04-3.76,3.07-6.36,3.07s-4.79-0.97-6.57-2.9s-2.69-4.34-2.69-7.2
		s0.9-5.29,2.69-7.24s3.95-2.92,6.49-2.92s4.68,1.03,6.45,3.07V31.62z M343.94,35.81c-1.5,0-2.77,0.52-3.8,1.55
		c-1.05,1.03-1.57,2.3-1.57,3.78s0.52,2.75,1.57,3.78c1.05,1.05,2.3,1.57,3.76,1.57s2.73-0.52,3.78-1.57
		c1.05-1.03,1.57-2.28,1.57-3.76s-0.52-2.73-1.53-3.78C346.69,36.32,345.42,35.81,343.94,35.81z"/>
	<path d="M369.44,36.06c-1.12-0.84-2.06-1.27-2.86-1.27s-1.38,0.15-1.78,0.45c-0.41,0.32-0.6,0.71-0.6,1.16s0.19,0.82,0.6,1.1
		s1.35,0.67,2.84,1.18s2.6,1.03,3.31,1.57c1.4,0.97,2.11,2.41,2.11,4.32s-0.75,3.52-2.23,4.79c-1.5,1.29-3.44,1.93-5.78,1.93
		c-2.88,0-5.29-1.05-7.22-3.18l2.79-3.24c1.48,1.48,2.99,2.23,4.51,2.23c1.35,0,2.43-0.95,2.43-2.08c0-0.58-0.17-1.01-0.54-1.31
		c-0.37-0.28-1.31-0.71-2.86-1.27s-2.62-1.05-3.2-1.5c-1.27-0.88-1.89-2.19-1.89-3.97s0.64-3.22,1.93-4.36
		c1.27-1.14,2.99-1.7,5.13-1.7s4.12,0.69,5.95,2.04L369.44,36.06z"/>
	<path d="M382.63,36.24v14.44h-5.33V36.24h-2.11v-4.62h2.11v-6.51h5.33v6.51h3.78v4.62H382.63z"/>
</g>
<g>
	<path fill="#5A5A5A" d="M14,71.17c0-2.14,0.57-3.81,1.72-5.02c1.15-1.21,2.63-1.81,4.45-1.81c1.19,0,2.26,0.28,3.22,0.85
		s1.68,1.36,2.18,2.38s0.75,2.17,0.75,3.46c0,1.31-0.26,2.48-0.79,3.51s-1.27,1.81-2.24,2.34c-0.97,0.53-2.01,0.8-3.13,0.8
		c-1.21,0-2.3-0.29-3.25-0.88s-1.68-1.39-2.17-2.4S14,72.3,14,71.17z M15.76,71.2c0,1.55,0.42,2.78,1.25,3.67
		c0.83,0.89,1.88,1.34,3.14,1.34c1.28,0,2.34-0.45,3.17-1.35s1.24-2.18,1.24-3.84c0-1.05-0.18-1.96-0.53-2.75
		c-0.35-0.78-0.87-1.39-1.56-1.82c-0.68-0.43-1.45-0.65-2.3-0.65c-1.21,0-2.25,0.42-3.12,1.24C16.19,67.88,15.76,69.26,15.76,71.2z"
		/>
	<path fill="#5A5A5A" d="M37.71,72.93l1.71,0.43c-0.36,1.4-1,2.47-1.93,3.2s-2.06,1.1-3.41,1.1c-1.39,0-2.52-0.28-3.39-0.85
		c-0.87-0.56-1.53-1.38-1.99-2.46s-0.68-2.22-0.68-3.45c0-1.34,0.26-2.51,0.77-3.51c0.51-1,1.24-1.76,2.19-2.28
		c0.95-0.52,1.99-0.78,3.12-0.78c1.29,0,2.37,0.33,3.25,0.98s1.49,1.58,1.84,2.77l-1.68,0.4c-0.3-0.94-0.73-1.62-1.3-2.05
		s-1.28-0.64-2.14-0.64c-0.99,0-1.82,0.24-2.48,0.71s-1.13,1.11-1.4,1.91c-0.27,0.8-0.4,1.62-0.4,2.47c0,1.1,0.16,2.05,0.48,2.87
		c0.32,0.82,0.82,1.43,1.49,1.83s1.4,0.61,2.19,0.61c0.96,0,1.76-0.28,2.43-0.83S37.48,74.01,37.71,72.93z"/>
	<path fill="#5A5A5A" d="M49.47,77.45V66.08h-4.25v-1.52h10.21v1.52h-4.26v11.36H49.47z"/>
	<path fill="#5A5A5A" d="M56.3,77.45v-9.33h1.42v1.42c0.36-0.66,0.7-1.1,1.01-1.31s0.65-0.32,1.02-0.32c0.53,0,1.08,0.17,1.63,0.51
		l-0.54,1.47c-0.39-0.23-0.77-0.34-1.16-0.34c-0.35,0-0.66,0.1-0.93,0.31s-0.47,0.5-0.59,0.87c-0.18,0.56-0.26,1.18-0.26,1.85v4.89
		H56.3z"/>
	<path fill="#5A5A5A" d="M68.4,76.3c-0.59,0.5-1.15,0.85-1.69,1.05s-1.12,0.31-1.74,0.31c-1.03,0-1.81-0.25-2.36-0.75
		c-0.55-0.5-0.83-1.14-0.83-1.92c0-0.46,0.1-0.88,0.31-1.25c0.21-0.38,0.48-0.68,0.82-0.91s0.72-0.4,1.14-0.52
		c0.31-0.08,0.78-0.16,1.41-0.24c1.28-0.15,2.22-0.33,2.82-0.54c0.01-0.22,0.01-0.35,0.01-0.41c0-0.64-0.15-1.1-0.45-1.36
		c-0.4-0.36-1-0.54-1.8-0.54c-0.74,0-1.29,0.13-1.65,0.39s-0.62,0.72-0.79,1.38l-1.55-0.21c0.14-0.66,0.37-1.2,0.69-1.6
		c0.32-0.41,0.79-0.72,1.4-0.94c0.61-0.22,1.32-0.33,2.12-0.33c0.8,0,1.44,0.09,1.94,0.28s0.86,0.42,1.1,0.71
		c0.23,0.29,0.4,0.64,0.49,1.08c0.05,0.27,0.08,0.76,0.08,1.46v2.11c0,1.47,0.03,2.4,0.1,2.79c0.07,0.39,0.2,0.76,0.4,1.12h-1.65
		C68.56,77.12,68.45,76.74,68.4,76.3z M68.27,72.76c-0.57,0.23-1.44,0.43-2.58,0.6c-0.65,0.09-1.11,0.2-1.38,0.32
		s-0.48,0.29-0.62,0.51s-0.22,0.48-0.22,0.75c0,0.42,0.16,0.77,0.48,1.05s0.79,0.42,1.4,0.42c0.61,0,1.15-0.13,1.63-0.4
		s0.82-0.63,1.05-1.09c0.17-0.36,0.25-0.88,0.25-1.58V72.76z"/>
	<path fill="#5A5A5A" d="M72.32,77.45v-9.33h1.42v1.33c0.69-1.03,1.68-1.54,2.97-1.54c0.56,0,1.08,0.1,1.55,0.3
		c0.47,0.2,0.82,0.47,1.06,0.8s0.4,0.72,0.49,1.17c0.06,0.29,0.09,0.81,0.09,1.54v5.74h-1.58v-5.68c0-0.64-0.06-1.13-0.18-1.45
		s-0.34-0.57-0.65-0.77c-0.31-0.19-0.68-0.29-1.1-0.29c-0.67,0-1.26,0.21-1.74,0.64s-0.73,1.24-0.73,2.43v5.1H72.32z"/>
	<path fill="#5A5A5A" d="M81.7,74.66l1.56-0.25c0.09,0.63,0.33,1.11,0.73,1.44s0.96,0.5,1.68,0.5c0.73,0,1.27-0.15,1.62-0.44
		s0.53-0.64,0.53-1.04c0-0.36-0.16-0.64-0.47-0.84c-0.22-0.14-0.76-0.32-1.62-0.54c-1.16-0.29-1.96-0.55-2.41-0.76
		s-0.79-0.51-1.02-0.89c-0.23-0.38-0.35-0.79-0.35-1.25c0-0.42,0.1-0.8,0.29-1.16c0.19-0.35,0.45-0.65,0.78-0.88
		c0.25-0.18,0.58-0.33,1.01-0.46s0.88-0.19,1.37-0.19c0.73,0,1.38,0.11,1.93,0.32s0.96,0.5,1.23,0.86c0.26,0.36,0.45,0.84,0.54,1.45
		l-1.55,0.21c-0.07-0.48-0.27-0.86-0.61-1.12s-0.81-0.4-1.43-0.4c-0.73,0-1.25,0.12-1.56,0.36s-0.47,0.52-0.47,0.84
		c0,0.21,0.06,0.39,0.19,0.55c0.13,0.17,0.33,0.31,0.61,0.42c0.16,0.06,0.62,0.19,1.4,0.4c1.12,0.3,1.9,0.54,2.34,0.73
		s0.79,0.47,1.04,0.83s0.38,0.81,0.38,1.35c0,0.53-0.15,1.02-0.46,1.49c-0.31,0.46-0.75,0.83-1.33,1.08
		c-0.58,0.26-1.24,0.38-1.97,0.38c-1.21,0-2.14-0.25-2.77-0.76S81.88,75.65,81.7,74.66z"/>
	<path fill="#5A5A5A" d="M91.33,81.02V68.11h1.44v1.21c0.34-0.47,0.72-0.83,1.15-1.07c0.43-0.24,0.95-0.36,1.56-0.36
		c0.8,0,1.5,0.21,2.11,0.62s1.07,0.99,1.38,1.74c0.31,0.75,0.47,1.57,0.47,2.46c0,0.96-0.17,1.82-0.51,2.58
		c-0.34,0.77-0.84,1.35-1.49,1.76c-0.65,0.41-1.34,0.61-2.06,0.61c-0.53,0-1-0.11-1.42-0.33s-0.76-0.5-1.03-0.84v4.54H91.33z
		 M92.77,72.83c0,1.2,0.24,2.09,0.73,2.66s1.08,0.86,1.77,0.86c0.7,0,1.31-0.3,1.81-0.89c0.5-0.59,0.75-1.52,0.75-2.76
		c0-1.19-0.24-2.08-0.73-2.67s-1.07-0.89-1.75-0.89c-0.67,0-1.27,0.32-1.79,0.94C93.03,70.72,92.77,71.63,92.77,72.83z"/>
	<path fill="#5A5A5A" d="M100.76,72.78c0-1.73,0.48-3.01,1.44-3.84c0.8-0.69,1.78-1.04,2.94-1.04c1.28,0,2.33,0.42,3.15,1.26
		s1.22,2,1.22,3.48c0,1.2-0.18,2.15-0.54,2.83c-0.36,0.69-0.88,1.22-1.57,1.6s-1.44,0.57-2.25,0.57c-1.31,0-2.36-0.42-3.17-1.26
		S100.76,74.36,100.76,72.78z M102.38,72.78c0,1.2,0.26,2.09,0.78,2.68c0.52,0.6,1.18,0.89,1.97,0.89c0.79,0,1.44-0.3,1.96-0.9
		s0.78-1.51,0.78-2.73c0-1.15-0.26-2.03-0.79-2.62c-0.52-0.59-1.18-0.89-1.96-0.89c-0.79,0-1.45,0.3-1.97,0.89
		S102.38,71.58,102.38,72.78z"/>
	<path fill="#5A5A5A" d="M116.13,71.14c0-0.62,0.22-1.14,0.65-1.57s0.96-0.65,1.57-0.65c0.62,0,1.14,0.22,1.58,0.65
		s0.65,0.96,0.65,1.57s-0.22,1.14-0.65,1.58s-0.96,0.65-1.58,0.65c-0.61,0-1.13-0.22-1.57-0.65S116.13,71.75,116.13,71.14z"/>
	<path fill="#5A5A5A" d="M127.34,71.17c0-2.14,0.57-3.81,1.72-5.02c1.15-1.21,2.63-1.81,4.45-1.81c1.19,0,2.26,0.28,3.22,0.85
		s1.68,1.36,2.18,2.38s0.75,2.17,0.75,3.46c0,1.31-0.26,2.48-0.79,3.51s-1.27,1.81-2.24,2.34c-0.97,0.53-2.01,0.8-3.13,0.8
		c-1.21,0-2.3-0.29-3.25-0.88s-1.68-1.39-2.17-2.4S127.34,72.3,127.34,71.17z M129.1,71.2c0,1.55,0.42,2.78,1.25,3.67
		c0.83,0.89,1.88,1.34,3.14,1.34c1.28,0,2.34-0.45,3.17-1.35s1.24-2.18,1.24-3.84c0-1.05-0.18-1.96-0.53-2.75
		c-0.35-0.78-0.87-1.39-1.56-1.82c-0.68-0.43-1.45-0.65-2.3-0.65c-1.21,0-2.25,0.42-3.12,1.24C129.54,67.88,129.1,69.26,129.1,71.2z
		"/>
	<path fill="#5A5A5A" d="M145.12,76.03l0.23,1.4c-0.45,0.09-0.84,0.14-1.2,0.14c-0.57,0-1.02-0.09-1.34-0.27s-0.54-0.42-0.67-0.72
		s-0.19-0.92-0.19-1.87v-5.37h-1.16v-1.23h1.16V65.8l1.57-0.95v3.26h1.59v1.23h-1.59v5.46c0,0.45,0.03,0.74,0.08,0.87
		s0.15,0.23,0.27,0.31s0.31,0.11,0.54,0.11C144.6,76.09,144.83,76.07,145.12,76.03z"/>
	<path fill="#5A5A5A" d="M150.12,76.03l0.23,1.4c-0.45,0.09-0.84,0.14-1.2,0.14c-0.57,0-1.02-0.09-1.34-0.27s-0.54-0.42-0.67-0.72
		s-0.19-0.92-0.19-1.87v-5.37h-1.16v-1.23h1.16V65.8l1.57-0.95v3.26h1.59v1.23h-1.59v5.46c0,0.45,0.03,0.74,0.08,0.87
		s0.15,0.23,0.27,0.31s0.31,0.11,0.54,0.11C149.6,76.09,149.83,76.07,150.12,76.03z"/>
	<path fill="#5A5A5A" d="M157.75,76.3c-0.59,0.5-1.15,0.85-1.69,1.05s-1.12,0.31-1.74,0.31c-1.03,0-1.81-0.25-2.36-0.75
		c-0.55-0.5-0.83-1.14-0.83-1.92c0-0.46,0.1-0.88,0.31-1.25c0.21-0.38,0.48-0.68,0.82-0.91s0.72-0.4,1.14-0.52
		c0.31-0.08,0.78-0.16,1.41-0.24c1.28-0.15,2.22-0.33,2.82-0.54c0.01-0.22,0.01-0.35,0.01-0.41c0-0.64-0.15-1.1-0.45-1.36
		c-0.4-0.36-1-0.54-1.8-0.54c-0.74,0-1.29,0.13-1.65,0.39s-0.62,0.72-0.79,1.38l-1.55-0.21c0.14-0.66,0.37-1.2,0.69-1.6
		c0.32-0.41,0.79-0.72,1.4-0.94c0.61-0.22,1.32-0.33,2.12-0.33c0.8,0,1.44,0.09,1.94,0.28s0.86,0.42,1.1,0.71
		c0.23,0.29,0.4,0.64,0.49,1.08c0.05,0.27,0.08,0.76,0.08,1.46v2.11c0,1.47,0.03,2.4,0.1,2.79c0.07,0.39,0.2,0.76,0.4,1.12h-1.65
		C157.91,77.12,157.8,76.74,157.75,76.3z M157.62,72.76c-0.57,0.23-1.44,0.43-2.58,0.6c-0.65,0.09-1.11,0.2-1.38,0.32
		s-0.48,0.29-0.62,0.51s-0.22,0.48-0.22,0.75c0,0.42,0.16,0.77,0.48,1.05s0.79,0.42,1.4,0.42c0.61,0,1.15-0.13,1.63-0.4
		s0.82-0.63,1.05-1.09c0.17-0.36,0.25-0.88,0.25-1.58V72.76z"/>
	<path fill="#5A5A5A" d="M163.4,77.45l-2.86-9.33h1.63l1.49,5.39l0.55,2c0.02-0.1,0.18-0.74,0.48-1.92l1.49-5.47h1.63l1.4,5.41
		l0.47,1.78l0.54-1.8l1.6-5.4h1.54l-2.92,9.33h-1.64l-1.49-5.59l-0.36-1.59l-1.89,7.18H163.4z"/>
	<path fill="#5A5A5A" d="M180.76,76.3c-0.59,0.5-1.15,0.85-1.69,1.05s-1.12,0.31-1.74,0.31c-1.03,0-1.81-0.25-2.36-0.75
		c-0.55-0.5-0.83-1.14-0.83-1.92c0-0.46,0.1-0.88,0.31-1.25c0.21-0.38,0.48-0.68,0.82-0.91s0.72-0.4,1.14-0.52
		c0.31-0.08,0.78-0.16,1.41-0.24c1.28-0.15,2.22-0.33,2.82-0.54c0.01-0.22,0.01-0.35,0.01-0.41c0-0.64-0.15-1.1-0.45-1.36
		c-0.4-0.36-1-0.54-1.8-0.54c-0.74,0-1.29,0.13-1.65,0.39s-0.62,0.72-0.79,1.38l-1.55-0.21c0.14-0.66,0.37-1.2,0.69-1.6
		c0.32-0.41,0.79-0.72,1.4-0.94c0.61-0.22,1.32-0.33,2.12-0.33c0.8,0,1.44,0.09,1.94,0.28s0.86,0.42,1.1,0.71
		c0.23,0.29,0.4,0.64,0.49,1.08c0.05,0.27,0.08,0.76,0.08,1.46v2.11c0,1.47,0.03,2.4,0.1,2.79c0.07,0.39,0.2,0.76,0.4,1.12h-1.65
		C180.92,77.12,180.81,76.74,180.76,76.3z M180.63,72.76c-0.57,0.23-1.44,0.43-2.58,0.6c-0.65,0.09-1.11,0.2-1.38,0.32
		s-0.48,0.29-0.62,0.51s-0.22,0.48-0.22,0.75c0,0.42,0.16,0.77,0.48,1.05s0.79,0.42,1.4,0.42c0.61,0,1.15-0.13,1.63-0.4
		s0.82-0.63,1.05-1.09c0.17-0.36,0.25-0.88,0.25-1.58V72.76z"/>
	<path fill="#5A5A5A" d="M189.46,71.14c0-0.62,0.22-1.14,0.65-1.57s0.96-0.65,1.57-0.65c0.62,0,1.14,0.22,1.58,0.65
		s0.65,0.96,0.65,1.57s-0.22,1.14-0.65,1.58s-0.96,0.65-1.58,0.65c-0.61,0-1.13-0.22-1.57-0.65S189.46,71.75,189.46,71.14z"/>
	<path fill="#5A5A5A" d="M204.14,77.45V66.08h-4.25v-1.52h10.21v1.52h-4.26v11.36H204.14z"/>
	<path fill="#5A5A5A" d="M211.79,77.45V64.56h4.83c0.98,0,1.77,0.13,2.37,0.39c0.59,0.26,1.06,0.66,1.4,1.21s0.51,1.11,0.51,1.7
		c0,0.55-0.15,1.07-0.45,1.56s-0.75,0.88-1.35,1.18c0.78,0.23,1.38,0.62,1.8,1.17s0.63,1.2,0.63,1.95c0,0.6-0.13,1.17-0.38,1.68
		c-0.25,0.52-0.57,0.92-0.94,1.2s-0.85,0.49-1.41,0.64s-1.26,0.21-2.08,0.21H211.79z M213.49,69.98h2.79c0.76,0,1.3-0.05,1.63-0.15
		c0.43-0.13,0.76-0.34,0.98-0.64s0.33-0.67,0.33-1.12c0-0.43-0.1-0.8-0.31-1.13c-0.21-0.33-0.5-0.55-0.88-0.67s-1.03-0.18-1.96-0.18
		h-2.58V69.98z M213.49,75.93h3.21c0.55,0,0.94-0.02,1.16-0.06c0.39-0.07,0.72-0.19,0.98-0.35s0.48-0.4,0.65-0.72
		c0.17-0.31,0.25-0.67,0.25-1.08c0-0.48-0.12-0.9-0.37-1.25c-0.25-0.35-0.59-0.6-1.02-0.75s-1.06-0.22-1.89-0.22h-2.98V75.93z"/>
	<path fill="#5A5A5A" d="M223.87,77.45V64.56h4.44c1,0,1.77,0.06,2.29,0.18c0.74,0.17,1.37,0.48,1.89,0.92
		c0.68,0.57,1.19,1.31,1.52,2.2c0.34,0.89,0.51,1.92,0.51,3.06c0,0.98-0.11,1.85-0.34,2.6s-0.52,1.38-0.88,1.88
		c-0.36,0.5-0.75,0.89-1.17,1.17s-0.94,0.5-1.54,0.65s-1.29,0.22-2.07,0.22H223.87z M225.57,75.93h2.75c0.85,0,1.52-0.08,2-0.24
		s0.87-0.38,1.16-0.67c0.4-0.4,0.72-0.95,0.94-1.63c0.23-0.68,0.34-1.51,0.34-2.48c0-1.35-0.22-2.38-0.66-3.11
		c-0.44-0.72-0.98-1.21-1.61-1.45c-0.46-0.18-1.19-0.26-2.21-0.26h-2.71V75.93z"/>
</g>
</svg>
