<?xml version="1.0" encoding="iso-8859-1"?>
<!-- Generator: Adobe Illustrator 29.8.4, SVG Export Plug-In . SVG Version: 9.03 Build 0)  -->
<svg version="1.1" id="Layer_1" xmlns="http://www.w3.org/2000/svg" xmlns:xlink="http://www.w3.org/1999/xlink" x="0px" y="0px"
	 viewBox="0 0 1500 306" enable-background="new 0 0 1500 306" xml:space="preserve">
<rect id="bg-white" fill="#FFFFFF" width="1500" height="306"/>
<line fill="none" stroke="#005EB8" stroke-width="8" stroke-linecap="round" stroke-miterlimit="10" x1="95" y1="271" x2="1405" y2="271"/>
<circle fill="#FFFFFF" stroke="#000000" stroke-width="3" stroke-miterlimit="10" cx="95" cy="271" r="10"/>
<g>
	<path d="M92.41,252.41c0.31,0.08,0.6,0.04,0.85-0.14c0.25-0.18,0.66-0.65,1.21-1.42c0.55-0.77,1.04-1.3,1.49-1.6
		c0.72-0.5,1.59-0.61,2.62-0.34c1.03,0.28,1.79,0.86,2.27,1.73s0.57,1.89,0.26,3.03c-0.42,1.55-1.45,2.61-3.09,3.2l-0.96-1.74
		c1.11-0.25,1.8-0.88,2.07-1.9c0.13-0.49,0.1-0.94-0.1-1.33c-0.21-0.39-0.53-0.65-0.99-0.77c-0.46-0.12-0.87-0.03-1.25,0.29
		c-0.19,0.15-0.57,0.64-1.14,1.46s-1.14,1.37-1.69,1.66c-0.55,0.29-1.19,0.33-1.91,0.14c-0.92-0.25-1.6-0.77-2.03-1.58
		c-0.43-0.81-0.51-1.7-0.25-2.69c0.33-1.22,1.02-2.18,2.08-2.9l1.16,1.51c-0.73,0.36-1.19,0.88-1.36,1.54
		c-0.12,0.44-0.1,0.83,0.06,1.19C91.86,252.11,92.1,252.33,92.41,252.41z"/>
	<path d="M95.17,246.31l0.53-1.99l0.89,0.24c-0.65-0.83-0.78-1.57-0.52-2.53c0.23-0.87,0.7-1.49,1.41-1.84
		c0.53-0.26,1.23-0.27,2.12-0.03l4.52,1.21l-0.53,1.99l-3.95-1.06c-0.54-0.15-0.95-0.19-1.2-0.11c-0.43,0.11-0.72,0.44-0.87,1.01
		c-0.27,1,0.25,1.68,1.57,2.04l3.68,0.99l-0.53,1.99L95.17,246.31z"/>
	<path d="M98.28,233.79c0.32-1.2,0.93-2.07,1.83-2.63c0.9-0.56,1.91-0.69,3.04-0.39c1.12,0.3,1.94,0.92,2.43,1.86
		c0.49,0.95,0.58,2.02,0.26,3.23s-0.95,2.08-1.86,2.64c-0.91,0.55-1.92,0.68-3.03,0.38c-1.11-0.3-1.92-0.93-2.41-1.87
		C98.04,236.06,97.96,234.98,98.28,233.79z M100.07,234.29c-0.15,0.55-0.08,1.08,0.2,1.57c0.28,0.5,0.7,0.82,1.25,0.97
		c0.55,0.15,1.08,0.08,1.57-0.21c0.5-0.29,0.82-0.71,0.96-1.26c0.15-0.55,0.08-1.09-0.2-1.58c-0.28-0.5-0.69-0.81-1.25-0.96
		c-0.55-0.15-1.07-0.08-1.57,0.21C100.53,233.32,100.21,233.74,100.07,234.29z"/>
	<path d="M100.25,227.35l4.61-0.77l-3.78-3.09l0.23-0.85l4.88-0.77l-3.66-3.02l0.59-2.22l6.27,5.63l-0.24,0.9l-4.83,0.77l3.81,3.05
		l-0.25,0.91l-8.23,1.7L100.25,227.35z"/>
	<path d="M99.66,208.8l0.53-1.99l12.3,3.3l-0.53,1.99l-0.92-0.25c0.6,0.82,0.77,1.71,0.51,2.68c-0.26,0.97-0.84,1.69-1.74,2.16
		c-0.9,0.47-1.89,0.57-2.95,0.28c-1.07-0.29-1.88-0.86-2.43-1.73c-0.55-0.86-0.7-1.77-0.44-2.71c0.25-0.95,0.85-1.64,1.79-2.1
		L99.66,208.8z M105.94,212.38c-0.15,0.56-0.08,1.09,0.2,1.57c0.28,0.5,0.7,0.82,1.25,0.96c0.55,0.15,1.08,0.08,1.57-0.21
		c0.5-0.29,0.81-0.7,0.96-1.25c0.15-0.54,0.08-1.07-0.21-1.57c-0.28-0.5-0.69-0.81-1.25-0.96c-0.55-0.15-1.07-0.08-1.56,0.19
		C106.4,211.4,106.09,211.83,105.94,212.38z"/>
	<path d="M106.66,202.53c0.32-1.2,0.93-2.07,1.83-2.63s1.91-0.69,3.03-0.39c1.12,0.3,1.94,0.92,2.43,1.86
		c0.49,0.95,0.58,2.02,0.26,3.23c-0.33,1.21-0.95,2.08-1.86,2.64c-0.91,0.55-1.92,0.68-3.03,0.38c-1.11-0.3-1.92-0.93-2.41-1.88
		C106.42,204.8,106.34,203.72,106.66,202.53z M108.44,203.03c-0.15,0.55-0.08,1.08,0.2,1.57c0.28,0.5,0.7,0.82,1.25,0.97
		c0.55,0.15,1.08,0.08,1.57-0.21c0.5-0.29,0.82-0.71,0.97-1.26c0.15-0.55,0.08-1.09-0.2-1.58c-0.28-0.5-0.69-0.81-1.25-0.96
		c-0.55-0.15-1.07-0.08-1.57,0.21C108.91,202.06,108.59,202.48,108.44,203.03z"/>
	<path d="M108.38,197.02l0.53-1.99l0.89,0.24c-0.65-0.83-0.78-1.57-0.52-2.53c0.23-0.87,0.7-1.49,1.41-1.84
		c0.53-0.26,1.23-0.27,2.12-0.03l4.51,1.21l-0.53,1.99l-3.94-1.06c-0.54-0.15-0.95-0.19-1.2-0.11c-0.43,0.11-0.72,0.44-0.87,1.01
		c-0.27,1,0.25,1.68,1.57,2.04l3.68,0.99l-0.53,1.99L108.38,197.02z"/>
</g>
<circle fill="#FFFFFF" stroke="#000000" stroke-width="3" stroke-miterlimit="10" cx="214.09" cy="271" r="10"/>
<g>
	<path d="M213.22,246.59c-1.05,0.61-1.7,1.41-1.96,2.39c-0.26,0.98-0.12,1.91,0.43,2.8c0.54,0.89,1.36,1.48,2.42,1.77
		c1.07,0.29,2.05,0.18,2.95-0.33c0.9-0.5,1.48-1.27,1.76-2.3c0.14-0.51,0.17-0.99,0.09-1.44c-0.08-0.45-0.27-0.95-0.58-1.51
		l2.51,0.67c0.18,1.04,0.16,1.98-0.08,2.85c-0.43,1.62-1.35,2.84-2.74,3.66c-1.4,0.82-2.89,1.02-4.48,0.6
		c-1.6-0.43-2.8-1.35-3.63-2.79c-0.83-1.43-1.02-2.95-0.6-4.54c0.24-0.89,0.7-1.72,1.39-2.5L213.22,246.59z"/>
	<path d="M212.58,243.68l-1.53-3.38l3.03-2.22l0.71,1.28l-2,1.38l1.03,2.2L212.58,243.68z M215.34,241.39
		c0.32-1.19,0.93-2.07,1.83-2.63c0.9-0.56,1.91-0.69,3.03-0.39s1.94,0.92,2.43,1.86c0.49,0.95,0.58,2.02,0.26,3.23
		c-0.32,1.21-0.94,2.08-1.86,2.64c-0.91,0.55-1.92,0.68-3.03,0.38c-1.11-0.3-1.92-0.93-2.41-1.88
		C215.1,243.66,215.02,242.58,215.34,241.39z M217.12,241.89c-0.15,0.55-0.08,1.08,0.2,1.57c0.28,0.5,0.7,0.82,1.25,0.97
		s1.08,0.08,1.57-0.21c0.5-0.29,0.82-0.71,0.97-1.26c0.15-0.55,0.08-1.09-0.2-1.58c-0.28-0.5-0.69-0.81-1.25-0.96
		c-0.55-0.15-1.07-0.08-1.57,0.21C217.59,240.92,217.27,241.34,217.12,241.89z"/>
	<path d="M219.33,234.28l5.39,1.44l-0.53,1.99l-5.39-1.44l-0.21,0.79l-1.72-0.46l0.21-0.79l-2.43-0.65l0.53-1.99l2.43,0.65
		l0.38-1.41l1.72,0.46L219.33,234.28z"/>
	<path d="M224.02,225.4l-1.43,5.33c1.29,0.29,2.08-0.12,2.37-1.23c0.18-0.69,0.01-1.34-0.5-1.95l0.79-1.76
		c1.31,1.01,1.74,2.37,1.29,4.07c-0.31,1.16-0.9,1.99-1.78,2.51c-0.88,0.51-1.88,0.61-3.03,0.3c-1.15-0.31-1.97-0.89-2.48-1.75
		c-0.51-0.87-0.61-1.86-0.31-2.99c0.3-1.13,0.89-1.93,1.74-2.39c0.86-0.47,1.88-0.54,3.08-0.22L224.02,225.4z M221.35,230.32
		l0.9-3.37c-1-0.04-1.62,0.41-1.86,1.31C220.15,229.14,220.49,229.92,221.35,230.32z"/>
	<path d="M223,223.77l0.99-3.7l1.65,0.44l-0.99,3.7L223,223.77z"/>
	<path d="M218,211.61l0.53-1.99l12.3,3.3l-0.53,1.99l-0.92-0.25c0.6,0.82,0.77,1.71,0.51,2.68s-0.84,1.69-1.74,2.16
		c-0.9,0.47-1.89,0.57-2.95,0.28c-1.07-0.29-1.88-0.87-2.43-1.73c-0.55-0.86-0.69-1.77-0.44-2.71c0.25-0.95,0.85-1.64,1.79-2.1
		L218,211.61z M224.27,215.19c-0.15,0.56-0.08,1.09,0.2,1.57c0.28,0.5,0.7,0.81,1.25,0.96s1.08,0.08,1.57-0.21
		c0.5-0.29,0.82-0.7,0.96-1.25c0.15-0.55,0.08-1.07-0.21-1.57c-0.28-0.5-0.69-0.81-1.25-0.96c-0.55-0.15-1.07-0.08-1.56,0.19
		C224.74,214.22,224.42,214.64,224.27,215.19z"/>
	<path d="M229.98,203.16l-1.43,5.33c1.29,0.29,2.08-0.12,2.37-1.23c0.18-0.69,0.01-1.34-0.5-1.95l0.79-1.76
		c1.31,1.01,1.74,2.36,1.29,4.07c-0.31,1.16-0.9,1.99-1.78,2.5c-0.88,0.51-1.88,0.61-3.03,0.31c-1.15-0.31-1.97-0.89-2.48-1.75
		s-0.61-1.86-0.31-2.99s0.89-1.93,1.74-2.4s1.88-0.54,3.07-0.22L229.98,203.16z M227.3,208.09l0.9-3.37c-1-0.04-1.62,0.41-1.86,1.31
		C226.11,206.91,226.45,207.68,227.3,208.09z"/>
	<path d="M229.18,197.28c-0.42,0.33-0.68,0.64-0.76,0.94c-0.08,0.3-0.08,0.53-0.01,0.71c0.08,0.18,0.21,0.29,0.37,0.34
		s0.32,0.01,0.47-0.11c0.14-0.12,0.38-0.44,0.72-0.94c0.34-0.5,0.65-0.87,0.92-1.08c0.5-0.42,1.11-0.54,1.82-0.35
		c0.71,0.19,1.24,0.63,1.56,1.31c0.33,0.69,0.38,1.48,0.14,2.35c-0.29,1.08-0.92,1.87-1.91,2.38l-0.93-1.37
		c0.7-0.4,1.13-0.89,1.28-1.46c0.14-0.5-0.11-1-0.54-1.11c-0.22-0.06-0.39-0.04-0.54,0.07c-0.14,0.11-0.4,0.42-0.76,0.94
		c-0.36,0.52-0.65,0.87-0.88,1.04c-0.46,0.38-1.01,0.49-1.67,0.31c-0.67-0.18-1.14-0.56-1.43-1.16c-0.3-0.59-0.34-1.28-0.12-2.09
		s0.67-1.47,1.36-2.02L229.18,197.28z"/>
	<path d="M230.66,195.16l0.99-3.7l1.65,0.44l-0.99,3.7L230.66,195.16z"/>
	<path d="M236.59,191.44l-11.2-3l0.4-1.48l9.41-4.63l-7.38-1.98l0.57-2.13l11.17,2.99l-0.4,1.48l-9.41,4.62l7.41,1.98L236.59,191.44
		z"/>
	<path d="M238.6,171.01l-1.43,5.33c1.29,0.29,2.08-0.12,2.37-1.23c0.18-0.69,0.01-1.34-0.5-1.95l0.79-1.76
		c1.31,1.01,1.74,2.37,1.29,4.08c-0.31,1.16-0.9,1.99-1.78,2.5c-0.88,0.51-1.88,0.61-3.03,0.31c-1.15-0.31-1.97-0.89-2.48-1.76
		c-0.51-0.87-0.61-1.86-0.31-2.99c0.3-1.13,0.89-1.93,1.74-2.39c0.86-0.47,1.88-0.54,3.08-0.22L238.6,171.01z M235.92,175.94
		l0.9-3.37c-1-0.04-1.62,0.41-1.87,1.31C234.72,174.76,235.07,175.53,235.92,175.94z"/>
	<path d="M231.18,166.36c0.09-0.33,0.28-0.58,0.57-0.75c0.29-0.17,0.61-0.21,0.93-0.12c0.33,0.09,0.59,0.29,0.76,0.58
		c0.18,0.3,0.22,0.62,0.13,0.95c-0.09,0.33-0.28,0.58-0.58,0.75c-0.29,0.17-0.62,0.21-0.94,0.12s-0.59-0.29-0.75-0.59
		C231.13,167.01,231.09,166.69,231.18,166.36z M235.64,166.51l7.11,1.91l-0.53,1.98l-7.11-1.91L235.64,166.51z"/>
	<path d="M238.14,157.21l6.85,1.83c0.73,0.2,1.28,0.4,1.66,0.62c0.37,0.23,0.69,0.54,0.95,0.93c0.65,0.92,0.79,2.07,0.42,3.44
		s-1.17,2.28-2.4,2.73c-0.52,0.19-1.04,0.24-1.57,0.16l0.58-2.17c0.91,0.03,1.48-0.41,1.73-1.32c0.14-0.54,0.08-1.03-0.16-1.47
		c-0.23-0.38-0.69-0.66-1.36-0.85l-1.07-0.29c0.32,0.49,0.53,0.94,0.62,1.35c0.08,0.42,0.06,0.88-0.08,1.38
		c-0.26,0.97-0.82,1.69-1.69,2.14c-0.87,0.45-1.85,0.54-2.94,0.24c-1.1-0.29-1.93-0.87-2.48-1.72c-0.55-0.85-0.71-1.76-0.45-2.72
		c0.26-0.96,0.86-1.65,1.79-2.07l-0.92-0.25L238.14,157.21z M238.7,161.35c-0.15,0.55-0.08,1.07,0.2,1.57
		c0.28,0.5,0.7,0.82,1.25,0.96c0.55,0.15,1.08,0.08,1.57-0.21c0.5-0.29,0.82-0.7,0.96-1.25c0.15-0.54,0.08-1.07-0.21-1.57
		c-0.28-0.5-0.69-0.81-1.25-0.96c-0.55-0.15-1.07-0.08-1.57,0.2C239.17,160.39,238.85,160.8,238.7,161.35z"/>
	<path d="M244.42,149.28l-1.43,5.33c1.29,0.29,2.08-0.12,2.37-1.23c0.18-0.69,0.01-1.34-0.5-1.95l0.79-1.76
		c1.31,1.01,1.74,2.36,1.29,4.07c-0.31,1.16-0.9,1.99-1.78,2.51c-0.88,0.51-1.88,0.61-3.03,0.31c-1.15-0.31-1.97-0.89-2.48-1.76
		s-0.61-1.86-0.31-2.99c0.3-1.13,0.89-1.93,1.74-2.39c0.86-0.47,1.88-0.54,3.08-0.22L244.42,149.28z M241.74,154.21l0.9-3.37
		c-1-0.04-1.62,0.41-1.87,1.31C240.54,153.03,240.89,153.8,241.74,154.21z"/>
	<path d="M243.61,143.4c-0.42,0.33-0.68,0.64-0.76,0.94c-0.08,0.3-0.08,0.53-0.01,0.71c0.08,0.18,0.21,0.3,0.37,0.34
		s0.32,0.01,0.47-0.11c0.14-0.12,0.38-0.44,0.72-0.94c0.34-0.5,0.65-0.87,0.92-1.08c0.5-0.42,1.11-0.55,1.82-0.35
		s1.24,0.63,1.57,1.31c0.33,0.69,0.38,1.48,0.14,2.35c-0.29,1.07-0.92,1.87-1.91,2.38l-0.93-1.37c0.7-0.41,1.13-0.89,1.28-1.46
		c0.14-0.5-0.11-1-0.54-1.11c-0.22-0.06-0.39-0.04-0.54,0.07c-0.14,0.11-0.4,0.42-0.76,0.94c-0.36,0.52-0.65,0.87-0.88,1.04
		c-0.46,0.38-1.01,0.49-1.67,0.31c-0.67-0.18-1.14-0.56-1.43-1.16c-0.3-0.59-0.33-1.28-0.12-2.09c0.21-0.8,0.67-1.47,1.36-2.02
		L243.61,143.4z"/>
</g>
<circle fill="#FFFFFF" stroke="#000000" stroke-width="3" stroke-miterlimit="10" cx="333.18" cy="271" r="10"/>
<g>
	<path d="M327.83,251.57l6.27,1.68c0.55,0.15,0.97,0.23,1.23,0.26c0.27,0.03,0.56,0,0.89-0.1c0.64-0.18,1.25-0.82,1.47-1.63
		c0.21-0.8,0.01-1.67-0.46-2.14c-0.24-0.24-0.47-0.42-0.71-0.52c-0.24-0.11-0.64-0.24-1.2-0.39l-6.27-1.68l0.57-2.13l6.7,1.8
		c1.23,0.33,2.13,0.86,2.7,1.58c0.39,0.52,0.64,1.12,0.75,1.83c0.12,0.71,0.07,1.44-0.13,2.18c-0.2,0.75-0.52,1.4-0.98,1.95
		c-0.45,0.56-0.97,0.97-1.56,1.22c-0.86,0.35-1.9,0.35-3.13,0.02l-6.7-1.8L327.83,251.57z"/>
	<path d="M334.05,243.7l0.53-1.99l0.89,0.24c-0.65-0.83-0.78-1.57-0.52-2.53c0.23-0.87,0.7-1.49,1.41-1.84
		c0.53-0.26,1.23-0.27,2.12-0.03l4.51,1.21l-0.53,1.99l-3.94-1.06c-0.54-0.15-0.95-0.19-1.2-0.11c-0.43,0.11-0.72,0.44-0.87,1.01
		c-0.27,1,0.25,1.68,1.57,2.04l3.68,0.99l-0.53,1.99L334.05,243.7z"/>
	<path d="M332.46,232.84c0.09-0.33,0.28-0.58,0.57-0.75c0.29-0.17,0.61-0.21,0.93-0.12c0.33,0.09,0.59,0.29,0.76,0.58
		c0.18,0.3,0.22,0.62,0.13,0.95c-0.09,0.33-0.28,0.58-0.58,0.75c-0.29,0.17-0.62,0.21-0.94,0.12c-0.33-0.09-0.59-0.29-0.75-0.59
		C332.4,233.49,332.37,233.17,332.46,232.84z M336.92,233l7.11,1.91l-0.53,1.98l-7.11-1.91L336.92,233z"/>
	<path d="M337.79,229.76l4.53-0.79l-3.53-2.93l0.6-2.24l6.28,5.61l-0.24,0.9l-8.23,1.69L337.79,229.76z"/>
	<path d="M345.3,217.22l-1.43,5.33c1.29,0.29,2.08-0.12,2.37-1.23c0.18-0.69,0.01-1.34-0.5-1.95l0.79-1.76
		c1.31,1.01,1.74,2.37,1.29,4.07c-0.31,1.16-0.9,1.99-1.78,2.5c-0.88,0.51-1.88,0.61-3.03,0.31c-1.15-0.31-1.97-0.89-2.48-1.75
		c-0.51-0.87-0.61-1.86-0.31-2.99s0.89-1.93,1.74-2.4c0.86-0.47,1.88-0.54,3.07-0.22L345.3,217.22z M342.63,222.15l0.9-3.37
		c-1-0.04-1.62,0.41-1.86,1.31C341.43,220.97,341.77,221.75,342.63,222.15z"/>
	<path d="M349.47,214.6l-0.53,1.99l-7.11-1.91l0.53-1.99l1.08,0.29c-0.74-0.72-1-1.53-0.75-2.42c0.08-0.28,0.21-0.55,0.41-0.82
		l1.78,0.78c-0.25,0.25-0.41,0.54-0.49,0.88c-0.3,1.14,0.26,1.9,1.68,2.28L349.47,214.6z"/>
	<path d="M346.1,205.39c-0.42,0.33-0.68,0.64-0.76,0.94c-0.08,0.3-0.08,0.53-0.01,0.71c0.08,0.18,0.21,0.3,0.37,0.34
		s0.32,0.01,0.47-0.12c0.14-0.12,0.38-0.44,0.72-0.94c0.34-0.5,0.65-0.87,0.92-1.08c0.5-0.42,1.11-0.54,1.82-0.35
		c0.71,0.19,1.24,0.63,1.57,1.31c0.33,0.69,0.38,1.48,0.14,2.35c-0.29,1.07-0.92,1.87-1.91,2.38l-0.93-1.37
		c0.7-0.41,1.13-0.89,1.28-1.46c0.14-0.51-0.11-1-0.54-1.12c-0.22-0.06-0.39-0.04-0.54,0.07c-0.14,0.11-0.4,0.42-0.76,0.94
		c-0.36,0.52-0.65,0.87-0.88,1.04c-0.46,0.38-1.01,0.49-1.67,0.31c-0.67-0.18-1.14-0.56-1.43-1.16c-0.3-0.59-0.33-1.28-0.12-2.09
		s0.67-1.47,1.36-2.02L346.1,205.39z"/>
	<path d="M341.23,200.08c0.09-0.33,0.28-0.58,0.57-0.75c0.29-0.17,0.61-0.21,0.93-0.12c0.33,0.09,0.59,0.29,0.76,0.58
		c0.18,0.3,0.22,0.62,0.13,0.95c-0.09,0.33-0.28,0.58-0.58,0.75c-0.29,0.17-0.62,0.21-0.94,0.12s-0.59-0.29-0.75-0.59
		C341.18,200.73,341.15,200.41,341.23,200.08z M345.7,200.24l7.11,1.91l-0.53,1.98l-7.11-1.91L345.7,200.24z"/>
	<path d="M348.46,196.82l5.39,1.44l-0.53,1.99l-5.39-1.44l-0.21,0.79l-1.72-0.46l0.21-0.79l-2.43-0.65l0.53-1.99l2.43,0.65
		l0.38-1.41l1.72,0.46L348.46,196.82z"/>
	<path d="M345.44,187.35l1.56,3.06l-0.91,0.78l-1.96-2.62L345.44,187.35z M353.15,187.94l-1.43,5.33c1.29,0.29,2.08-0.12,2.37-1.23
		c0.18-0.69,0.01-1.34-0.5-1.95l0.79-1.76c1.31,1.01,1.74,2.37,1.29,4.08c-0.31,1.16-0.9,1.99-1.78,2.5
		c-0.88,0.51-1.88,0.61-3.03,0.31c-1.15-0.31-1.97-0.89-2.48-1.75c-0.51-0.87-0.61-1.86-0.31-2.99c0.3-1.13,0.89-1.93,1.74-2.39
		c0.86-0.47,1.88-0.54,3.08-0.22L353.15,187.94z M350.48,192.86l0.9-3.37c-1-0.04-1.62,0.41-1.87,1.31
		C349.28,191.68,349.62,192.46,350.48,192.86z"/>
	<path d="M352.13,186.31l0.99-3.7l1.65,0.44l-0.99,3.7L352.13,186.31z"/>
	<path d="M347.13,174.15l0.53-1.99l12.3,3.3l-0.53,1.99l-0.92-0.25c0.6,0.82,0.77,1.71,0.51,2.68c-0.26,0.97-0.84,1.69-1.74,2.16
		c-0.9,0.47-1.89,0.57-2.95,0.28c-1.07-0.29-1.88-0.87-2.43-1.73c-0.55-0.86-0.7-1.77-0.44-2.71c0.25-0.95,0.85-1.64,1.79-2.1
		L347.13,174.15z M353.4,177.73c-0.15,0.56-0.08,1.08,0.2,1.57c0.28,0.5,0.7,0.82,1.25,0.96c0.55,0.15,1.08,0.08,1.57-0.21
		c0.5-0.29,0.81-0.7,0.96-1.25c0.15-0.54,0.08-1.07-0.21-1.57c-0.28-0.5-0.69-0.81-1.25-0.96c-0.55-0.15-1.07-0.08-1.56,0.19
		C353.87,176.76,353.55,177.18,353.4,177.73z"/>
	<path d="M359.11,165.7l-1.43,5.33c1.29,0.29,2.08-0.12,2.37-1.23c0.19-0.69,0.02-1.34-0.5-1.95l0.79-1.76
		c1.31,1.01,1.74,2.37,1.29,4.07c-0.31,1.16-0.9,1.99-1.78,2.51c-0.88,0.51-1.88,0.61-3.03,0.3c-1.15-0.31-1.97-0.89-2.48-1.75
		c-0.51-0.87-0.61-1.86-0.31-2.99s0.89-1.93,1.74-2.39c0.86-0.47,1.88-0.54,3.08-0.22L359.11,165.7z M356.43,170.63l0.9-3.37
		c-1-0.03-1.62,0.41-1.86,1.31C355.24,169.45,355.58,170.22,356.43,170.63z"/>
	<path d="M358.08,164.08l0.99-3.7l1.65,0.44l-0.99,3.7L358.08,164.08z"/>
	<path d="M363.85,160.95l-10.61-5.02l0.39-1.46l7.96-1.07l-6.33-5.02l0.4-1.48l11.64,1.16l-0.58,2.16l-7.02-0.82l6.09,4.85
		l-0.16,0.59l-7.68,1.06l6.46,2.91L363.85,160.95z"/>
	<path d="M361.4,140.74c0.32-1.2,0.93-2.07,1.83-2.63c0.9-0.56,1.91-0.69,3.03-0.39c1.12,0.3,1.94,0.92,2.43,1.86
		c0.49,0.95,0.58,2.02,0.26,3.23c-0.32,1.21-0.94,2.08-1.86,2.64c-0.91,0.55-1.92,0.68-3.03,0.38c-1.11-0.3-1.92-0.93-2.41-1.88
		C361.16,143.01,361.08,141.94,361.4,140.74z M363.18,141.24c-0.15,0.55-0.08,1.08,0.2,1.57c0.28,0.5,0.7,0.82,1.25,0.97
		s1.08,0.08,1.57-0.21c0.5-0.29,0.82-0.71,0.97-1.26c0.15-0.55,0.08-1.09-0.2-1.58c-0.28-0.5-0.69-0.81-1.25-0.96
		c-0.55-0.15-1.07-0.08-1.57,0.21C363.65,140.27,363.33,140.69,363.18,141.24z"/>
	<path d="M363.11,135.24l0.53-1.99l0.89,0.24c-0.65-0.83-0.78-1.57-0.52-2.53c0.23-0.87,0.7-1.49,1.41-1.84
		c0.53-0.26,1.23-0.27,2.12-0.03l4.51,1.21l-0.53,1.99l-3.95-1.06c-0.54-0.15-0.95-0.19-1.2-0.11c-0.43,0.11-0.72,0.44-0.87,1.01
		c-0.27,1,0.25,1.68,1.57,2.04l3.68,0.99l-0.53,1.99L363.11,135.24z"/>
	<path d="M367.72,124.95l5.39,1.44l-0.53,1.99l-5.39-1.44l-0.21,0.79l-1.72-0.46l0.21-0.79l-2.43-0.65l0.53-1.99l2.43,0.65
		l0.38-1.41l1.72,0.46L367.72,124.95z"/>
	<path d="M374.32,121.85l-0.53,1.99l-7.11-1.91l0.53-1.99l1.08,0.29c-0.74-0.72-1-1.53-0.75-2.42c0.08-0.28,0.21-0.55,0.41-0.82
		l1.78,0.78c-0.25,0.25-0.41,0.54-0.49,0.88c-0.3,1.14,0.26,1.9,1.68,2.28L374.32,121.85z"/>
	<path d="M366.29,109.53l1.56,3.06l-0.91,0.78l-1.96-2.62L366.29,109.53z M374,110.12l-1.43,5.33c1.29,0.29,2.08-0.12,2.37-1.23
		c0.19-0.69,0.02-1.34-0.5-1.95l0.79-1.76c1.31,1.01,1.74,2.37,1.29,4.08c-0.31,1.16-0.9,1.99-1.78,2.5
		c-0.88,0.51-1.88,0.61-3.03,0.31c-1.15-0.31-1.97-0.89-2.48-1.75c-0.51-0.87-0.61-1.86-0.31-2.99c0.3-1.13,0.89-1.93,1.74-2.4
		c0.86-0.47,1.88-0.54,3.08-0.22L374,110.12z M371.32,115.05l0.9-3.37c-1-0.04-1.62,0.41-1.86,1.31
		C370.13,113.87,370.47,114.64,371.32,115.05z"/>
	<path d="M371.99,102.12l0.53-1.99l7.11,1.91l-0.53,1.99l-0.92-0.25c0.6,0.82,0.77,1.71,0.51,2.68c-0.26,0.97-0.84,1.69-1.74,2.16
		c-0.9,0.47-1.89,0.57-2.95,0.28c-1.07-0.29-1.88-0.87-2.43-1.73c-0.55-0.86-0.7-1.77-0.44-2.71c0.25-0.95,0.85-1.65,1.79-2.1
		L371.99,102.12z M373.08,104.31c-0.15,0.56-0.08,1.09,0.2,1.57c0.28,0.5,0.7,0.82,1.25,0.96s1.08,0.08,1.57-0.21
		c0.5-0.29,0.81-0.7,0.96-1.25c0.15-0.55,0.08-1.07-0.21-1.57c-0.28-0.5-0.69-0.81-1.25-0.96c-0.55-0.15-1.07-0.08-1.56,0.19
		C373.54,103.34,373.22,103.76,373.08,104.31z"/>
	<path d="M368.37,94.85l12.3,3.3l-0.53,1.99l-12.3-3.3L368.37,94.85z"/>
</g>
<circle fill="#FFFFFF" stroke="#000000" stroke-width="3" stroke-miterlimit="10" cx="452.27" cy="271" r="10"/>
<g>
	<path d="M446.23,247.33l1.13,3.24l-1.03,0.65l-1.59-2.83L446.23,247.33z M451.08,248.14l-1.05,3.92l2.44,0.65l1.01-3.78l1.85,0.5
		l-1.01,3.78l2.96,0.79l1.05-3.92l1.85,0.5l-1.62,6.05l-10.95-2.93l1.62-6.05L451.08,248.14z"/>
	<path d="M449.81,240.08l0.53-1.99l12.3,3.3l-0.53,1.99l-0.92-0.25c0.6,0.82,0.77,1.71,0.51,2.68c-0.26,0.97-0.84,1.69-1.74,2.16
		c-0.9,0.47-1.89,0.57-2.95,0.28c-1.07-0.29-1.88-0.87-2.43-1.73c-0.55-0.86-0.7-1.77-0.44-2.71c0.25-0.95,0.85-1.65,1.79-2.1
		L449.81,240.08z M456.09,243.66c-0.15,0.56-0.08,1.09,0.2,1.57c0.28,0.5,0.7,0.82,1.25,0.96s1.08,0.08,1.57-0.21
		c0.5-0.29,0.81-0.7,0.96-1.25c0.15-0.55,0.08-1.07-0.21-1.57c-0.28-0.5-0.69-0.81-1.25-0.96c-0.55-0.15-1.07-0.08-1.56,0.19
		C456.56,242.68,456.24,243.1,456.09,243.66z"/>
	<path d="M456.81,233.8c0.32-1.19,0.93-2.07,1.83-2.63s1.91-0.69,3.03-0.39c1.12,0.3,1.94,0.92,2.43,1.86
		c0.49,0.95,0.58,2.02,0.26,3.23c-0.32,1.21-0.94,2.08-1.86,2.64s-1.92,0.68-3.03,0.38c-1.11-0.3-1.92-0.93-2.41-1.88
		C456.57,236.08,456.49,235,456.81,233.8z M458.59,234.31c-0.15,0.55-0.08,1.08,0.2,1.57c0.28,0.5,0.7,0.82,1.25,0.97
		s1.08,0.08,1.57-0.21c0.5-0.29,0.82-0.71,0.97-1.26c0.15-0.55,0.08-1.09-0.2-1.58c-0.28-0.5-0.69-0.81-1.25-0.96
		c-0.55-0.15-1.07-0.08-1.57,0.21C459.06,233.33,458.74,233.75,458.59,234.31z"/>
	<path d="M459.06,226.31l4.03,1.08c1.08,0.29,1.76-0.04,2.02-1.01s-0.16-1.6-1.24-1.89l-4.03-1.08l0.53-1.99l4.35,1.17
		c1.92,0.52,2.66,2.02,2.07,4.23s-1.99,3.16-3.91,2.65l-4.35-1.17L459.06,226.31z"/>
	<path d="M462.34,214.07l0.53-1.99l7.11,1.91l-0.53,1.99l-0.92-0.25c0.6,0.82,0.77,1.71,0.51,2.68c-0.26,0.97-0.84,1.69-1.74,2.16
		c-0.9,0.47-1.89,0.57-2.96,0.28c-1.07-0.29-1.88-0.87-2.43-1.73c-0.55-0.86-0.7-1.77-0.44-2.71c0.25-0.95,0.85-1.64,1.79-2.1
		L462.34,214.07z M463.43,216.26c-0.15,0.56-0.08,1.09,0.2,1.57c0.28,0.5,0.7,0.81,1.25,0.96s1.08,0.08,1.57-0.21
		c0.5-0.29,0.81-0.7,0.96-1.25c0.15-0.55,0.08-1.07-0.21-1.57c-0.28-0.5-0.69-0.81-1.25-0.96c-0.55-0.15-1.07-0.08-1.56,0.19
		C463.9,215.29,463.58,215.71,463.43,216.26z"/>
	<path d="M471.03,210.1l-0.53,1.99l-7.11-1.91l0.53-1.99l1.08,0.29c-0.74-0.72-1-1.53-0.75-2.42c0.08-0.28,0.21-0.55,0.41-0.82
		l1.78,0.78c-0.25,0.25-0.41,0.54-0.5,0.88c-0.3,1.14,0.26,1.9,1.68,2.28L471.03,210.1z"/>
	<path d="M461.22,197.49l0.53-1.99l12.3,3.3l-0.53,1.99l-0.92-0.25c0.6,0.82,0.77,1.71,0.51,2.68c-0.26,0.97-0.84,1.69-1.74,2.16
		c-0.9,0.47-1.89,0.57-2.95,0.28c-1.07-0.29-1.88-0.87-2.43-1.73c-0.55-0.86-0.7-1.77-0.44-2.71c0.25-0.95,0.85-1.65,1.79-2.1
		L461.22,197.49z M467.5,201.07c-0.15,0.56-0.08,1.09,0.2,1.57c0.28,0.5,0.7,0.82,1.25,0.96s1.08,0.08,1.57-0.21
		c0.5-0.29,0.81-0.7,0.96-1.25c0.15-0.54,0.08-1.07-0.21-1.57c-0.28-0.5-0.69-0.81-1.25-0.96c-0.55-0.15-1.07-0.08-1.56,0.19
		C467.97,200.1,467.65,200.52,467.5,201.07z"/>
	<path d="M469.71,196.62l0.99-3.7l1.65,0.44l-0.99,3.7L469.71,196.62z"/>
	<path d="M475.48,193.49l-10.61-5.03l0.39-1.46l7.96-1.07l-6.33-5.02l0.39-1.47l11.64,1.16l-0.58,2.16l-7.01-0.82l6.09,4.85
		l-0.16,0.59l-7.67,1.06l6.46,2.91L475.48,193.49z"/>
	<path d="M473.03,173.29c0.32-1.19,0.93-2.07,1.83-2.63c0.9-0.56,1.91-0.69,3.04-0.39c1.12,0.3,1.94,0.92,2.43,1.86
		c0.49,0.95,0.58,2.02,0.26,3.23c-0.33,1.21-0.95,2.08-1.86,2.64c-0.91,0.55-1.92,0.68-3.03,0.38c-1.11-0.3-1.92-0.93-2.41-1.88
		C472.79,175.56,472.71,174.48,473.03,173.29z M474.81,173.79c-0.15,0.55-0.08,1.08,0.2,1.57c0.28,0.5,0.7,0.82,1.25,0.97
		s1.08,0.08,1.57-0.21c0.5-0.29,0.82-0.71,0.96-1.26c0.15-0.55,0.08-1.08-0.2-1.58c-0.28-0.5-0.69-0.81-1.25-0.96
		c-0.55-0.15-1.07-0.08-1.57,0.21S474.96,173.24,474.81,173.79z"/>
	<path d="M474.74,167.78l0.53-1.99l0.89,0.24c-0.65-0.83-0.78-1.57-0.52-2.53c0.23-0.87,0.7-1.49,1.41-1.84
		c0.53-0.26,1.23-0.27,2.12-0.03l4.51,1.21l-0.53,1.99l-3.94-1.06c-0.54-0.15-0.95-0.19-1.2-0.11c-0.43,0.11-0.72,0.44-0.87,1.01
		c-0.27,1,0.25,1.68,1.57,2.04l3.68,0.99l-0.53,1.99L474.74,167.78z"/>
	<path d="M479.35,157.49l5.39,1.44l-0.53,1.99l-5.39-1.44l-0.21,0.79l-1.72-0.46l0.21-0.79l-2.43-0.65l0.53-1.99l2.43,0.65
		l0.38-1.41l1.72,0.46L479.35,157.49z"/>
	<path d="M489.74,155.41l-0.53,1.99l-10.9-2.92l0.53-1.99l0.92,0.25c-0.6-0.82-0.77-1.71-0.51-2.67s0.84-1.68,1.74-2.16
		c0.9-0.48,1.89-0.58,2.96-0.29c1.08,0.29,1.88,0.87,2.43,1.73c0.55,0.86,0.7,1.77,0.44,2.71c-0.25,0.94-0.85,1.65-1.8,2.1
		L489.74,155.41z M480.88,151.13c-0.15,0.55-0.08,1.07,0.2,1.57c0.28,0.5,0.7,0.81,1.25,0.96s1.08,0.08,1.57-0.21
		c0.5-0.29,0.82-0.7,0.96-1.25c0.15-0.55,0.08-1.07-0.21-1.57c-0.28-0.5-0.69-0.82-1.24-0.97c-0.55-0.15-1.07-0.08-1.57,0.21
		S481.03,150.58,480.88,151.13z"/>
	<path d="M486.56,139.19l-1.43,5.33c1.29,0.29,2.08-0.12,2.37-1.23c0.18-0.69,0.01-1.34-0.5-1.95l0.79-1.76
		c1.31,1.01,1.74,2.37,1.29,4.07c-0.31,1.16-0.9,1.99-1.78,2.51c-0.88,0.51-1.88,0.61-3.03,0.31c-1.15-0.31-1.97-0.89-2.48-1.76
		c-0.51-0.87-0.61-1.86-0.31-2.99c0.3-1.13,0.89-1.93,1.74-2.39c0.86-0.47,1.88-0.54,3.08-0.22L486.56,139.19z M483.89,144.12
		l0.9-3.37c-1-0.04-1.62,0.41-1.86,1.31C482.69,142.94,483.03,143.71,483.89,144.12z"/>
	<path d="M485.38,134.98l5.39,1.44l-0.53,1.99l-5.39-1.44l-0.21,0.79l-1.72-0.46l0.21-0.79l-2.43-0.65l0.53-1.99l2.43,0.65
		l0.38-1.41l1.72,0.46L485.38,134.98z"/>
	<path d="M480.4,129.87c0.09-0.33,0.28-0.58,0.57-0.75c0.29-0.17,0.61-0.21,0.93-0.12c0.33,0.09,0.59,0.29,0.76,0.58
		c0.18,0.3,0.22,0.62,0.13,0.95s-0.28,0.58-0.58,0.75c-0.29,0.17-0.62,0.21-0.94,0.12s-0.59-0.29-0.75-0.59
		C480.35,130.52,480.31,130.2,480.4,129.87z M484.86,130.02l7.11,1.91l-0.53,1.98l-7.11-1.91L484.86,130.02z"/>
	<path d="M487.62,126.61l5.39,1.44l-0.53,1.99l-5.39-1.44l-0.21,0.79l-1.72-0.46l0.21-0.79l-2.43-0.65l0.53-1.99l2.43,0.65
		l0.38-1.41l1.72,0.46L487.62,126.61z"/>
</g>
<circle fill="#FFFFFF" stroke="#000000" stroke-width="3" stroke-miterlimit="10" cx="571.36" cy="271" r="10"/>
<g>
	<path d="M566.62,248.31c0.44-1.63,1.36-2.85,2.77-3.68c1.41-0.83,2.92-1.03,4.53-0.6c1.61,0.43,2.81,1.36,3.61,2.8
		c0.79,1.43,0.96,2.97,0.52,4.63c-0.44,1.65-1.37,2.88-2.78,3.7c-1.41,0.82-2.92,1.01-4.52,0.58s-2.8-1.37-3.6-2.81
		C566.36,251.47,566.18,249.94,566.62,248.31z M568.57,248.86c-0.27,1-0.13,1.97,0.41,2.88c0.54,0.92,1.33,1.52,2.37,1.8
		s2.03,0.16,2.96-0.36c0.93-0.52,1.53-1.28,1.8-2.29c0.27-1.01,0.13-1.97-0.41-2.89c-0.55-0.91-1.34-1.5-2.38-1.78
		c-1.04-0.28-2.03-0.17-2.95,0.35C569.43,247.09,568.83,247.85,568.57,248.86z"/>
	<path d="M573.24,239.93l4.03,1.08c1.08,0.29,1.76-0.04,2.02-1.02s-0.16-1.6-1.24-1.89l-4.03-1.08l0.53-1.99l4.35,1.17
		c1.92,0.52,2.66,2.02,2.07,4.23c-0.59,2.21-1.99,3.16-3.91,2.65l-4.35-1.17L573.24,239.93z"/>
	<path d="M577.32,231.6l5.39,1.44l-0.53,1.99l-5.39-1.44l-0.21,0.79l-1.72-0.46l0.21-0.79l-2.43-0.65l0.53-1.99l2.43,0.65l0.38-1.41
		l1.72,0.46L577.32,231.6z"/>
	<path d="M583.93,228.51l-0.53,1.99l-7.11-1.91l0.53-1.99l1.08,0.29c-0.74-0.72-1-1.53-0.75-2.42c0.08-0.28,0.21-0.55,0.41-0.82
		l1.78,0.78c-0.25,0.25-0.41,0.54-0.5,0.88c-0.3,1.14,0.26,1.9,1.68,2.28L583.93,228.51z"/>
	<path d="M583.61,216.78l-1.43,5.33c1.29,0.29,2.08-0.12,2.37-1.23c0.18-0.69,0.01-1.34-0.5-1.95l0.79-1.76
		c1.31,1.01,1.74,2.37,1.29,4.07c-0.31,1.16-0.9,1.99-1.78,2.51c-0.88,0.51-1.88,0.61-3.03,0.3c-1.15-0.31-1.97-0.89-2.48-1.75
		c-0.51-0.87-0.61-1.86-0.31-2.99c0.3-1.13,0.89-1.93,1.74-2.39c0.86-0.47,1.88-0.54,3.08-0.22L583.61,216.78z M580.93,221.71
		l0.9-3.37c-1-0.03-1.62,0.41-1.86,1.31C579.73,220.53,580.08,221.3,580.93,221.71z"/>
	<path d="M585.34,208.62l3.65,0.98l-0.53,1.99l-3.78-1.01c-0.55-0.15-0.96-0.21-1.2-0.18c-0.24,0.03-0.46,0.13-0.64,0.29
		c-0.18,0.17-0.3,0.37-0.36,0.59c-0.12,0.45,0.02,0.98,0.4,1.36c0.19,0.19,0.61,0.37,1.24,0.53l3.65,0.98l-0.53,1.99l-7.11-1.91
		l0.53-1.99l0.83,0.22c-0.53-0.8-0.68-1.65-0.44-2.55c0.24-0.9,0.86-1.49,1.86-1.76c-0.71-0.79-0.95-1.66-0.69-2.62
		c0.26-0.96,0.78-1.54,1.58-1.78c0.48-0.14,1.08-0.11,1.83,0.08l4.59,1.23l-0.53,1.99l-3.89-1.04c-0.51-0.14-0.91-0.18-1.18-0.14
		c-0.47,0.07-0.76,0.35-0.89,0.83C583.46,207.63,584.01,208.26,585.34,208.62z"/>
	<path d="M584.37,197.49c0.32-1.19,0.93-2.07,1.83-2.63c0.9-0.56,1.91-0.69,3.04-0.39c1.12,0.3,1.94,0.92,2.43,1.86
		c0.49,0.95,0.58,2.02,0.26,3.23s-0.94,2.08-1.86,2.64s-1.92,0.68-3.03,0.38c-1.11-0.3-1.92-0.93-2.41-1.88
		C584.13,199.77,584.05,198.69,584.37,197.49z M586.16,198c-0.15,0.55-0.08,1.08,0.2,1.57c0.28,0.5,0.7,0.82,1.25,0.97
		s1.08,0.08,1.57-0.21c0.5-0.29,0.82-0.71,0.96-1.26c0.15-0.55,0.08-1.09-0.2-1.58c-0.28-0.5-0.69-0.81-1.25-0.96
		c-0.55-0.15-1.07-0.08-1.57,0.21C586.62,197.02,586.3,197.44,586.16,198z"/>
	<path d="M586.09,191.99l0.53-1.99l0.89,0.24c-0.65-0.83-0.78-1.57-0.52-2.53c0.23-0.87,0.7-1.49,1.41-1.84
		c0.53-0.26,1.23-0.27,2.12-0.03l4.51,1.21l-0.53,1.99l-3.95-1.06c-0.54-0.15-0.95-0.19-1.2-0.11c-0.43,0.11-0.72,0.44-0.87,1.01
		c-0.27,1,0.25,1.68,1.57,2.04l3.68,0.99l-0.53,1.99L586.09,191.99z"/>
	<path d="M590.69,181.7l5.39,1.44l-0.53,1.99l-5.39-1.44l-0.21,0.79l-1.72-0.46l0.21-0.79l-2.43-0.65l0.53-1.99l2.43,0.65l0.38-1.41
		l1.72,0.46L590.69,181.7z"/>
</g>
<circle fill="#FFFFFF" stroke="#000000" stroke-width="3" stroke-miterlimit="10" cx="690.45" cy="271" r="10"/>
<g>
	<path d="M694.9,249.53l-1.2,4.48l2.05,1.61l-0.61,2.27l-9.91-7.74l0.43-1.61l12.42-1.6l-0.61,2.29L694.9,249.53z M693,249.74
		l-4.35,0.48l3.51,2.64L693,249.74z"/>
	<path d="M694.83,239.32c-0.55,0.41-0.89,0.9-1.05,1.47c-0.15,0.57-0.09,1.09,0.18,1.59c0.27,0.49,0.69,0.81,1.27,0.97
		c0.58,0.16,1.1,0.09,1.58-0.2s0.8-0.72,0.96-1.3c0.15-0.58,0.11-1.17-0.15-1.78l1.93,0.52c0.14,0.67,0.12,1.3-0.04,1.94
		c-0.3,1.11-0.9,1.93-1.83,2.48c-0.91,0.55-1.91,0.68-2.98,0.4c-1.07-0.29-1.87-0.91-2.41-1.85c-0.53-0.94-0.65-1.97-0.35-3.08
		c0.17-0.65,0.48-1.21,0.91-1.69L694.83,239.32z"/>
	<path d="M694.52,231.77l0.53-1.99l7.11,1.91l-0.53,1.99l-0.92-0.25c0.6,0.82,0.77,1.71,0.51,2.68c-0.26,0.97-0.84,1.69-1.74,2.16
		c-0.9,0.47-1.89,0.57-2.95,0.28c-1.07-0.29-1.88-0.87-2.43-1.73c-0.55-0.86-0.69-1.77-0.44-2.71c0.25-0.95,0.85-1.64,1.79-2.1
		L694.52,231.77z M695.61,233.96c-0.15,0.56-0.08,1.09,0.2,1.57c0.28,0.5,0.7,0.82,1.25,0.96c0.55,0.15,1.08,0.08,1.57-0.21
		c0.5-0.29,0.82-0.7,0.96-1.25c0.15-0.54,0.08-1.07-0.21-1.57c-0.28-0.5-0.69-0.81-1.25-0.96c-0.55-0.15-1.07-0.08-1.56,0.19
		C696.08,232.99,695.76,233.41,695.61,233.96z"/>
	<path d="M691.84,221.04l0.53-1.99l12.3,3.3l-0.53,1.99l-0.92-0.25c0.6,0.82,0.77,1.71,0.51,2.68c-0.26,0.97-0.84,1.69-1.74,2.16
		c-0.9,0.47-1.89,0.57-2.95,0.28c-1.07-0.29-1.88-0.87-2.43-1.73c-0.55-0.86-0.69-1.77-0.44-2.71c0.25-0.95,0.85-1.64,1.79-2.1
		L691.84,221.04z M698.11,224.62c-0.15,0.56-0.08,1.08,0.2,1.57c0.28,0.5,0.7,0.82,1.25,0.96c0.55,0.15,1.08,0.08,1.57-0.21
		c0.5-0.29,0.82-0.7,0.96-1.25c0.15-0.54,0.08-1.07-0.21-1.57c-0.28-0.5-0.69-0.81-1.25-0.96c-0.55-0.15-1.07-0.08-1.56,0.19
		C698.58,223.65,698.26,224.07,698.11,224.62z"/>
	<path d="M694.13,216.44c0.09-0.33,0.28-0.58,0.57-0.75c0.29-0.17,0.61-0.21,0.93-0.12c0.33,0.09,0.59,0.29,0.76,0.58
		c0.18,0.3,0.22,0.62,0.13,0.95c-0.09,0.33-0.28,0.58-0.58,0.75s-0.62,0.21-0.94,0.12s-0.59-0.29-0.75-0.59
		C694.07,217.09,694.04,216.77,694.13,216.44z M698.59,216.59l7.11,1.91l-0.53,1.98l-7.11-1.91L698.59,216.59z"/>
	<path d="M704.84,208.77l-1.43,5.33c1.29,0.29,2.08-0.12,2.37-1.23c0.19-0.69,0.02-1.34-0.5-1.95l0.79-1.76
		c1.31,1.01,1.74,2.37,1.29,4.07c-0.31,1.16-0.9,1.99-1.78,2.5c-0.88,0.51-1.88,0.61-3.03,0.31c-1.15-0.31-1.97-0.89-2.48-1.75
		c-0.51-0.87-0.61-1.86-0.31-2.99s0.89-1.93,1.74-2.4c0.86-0.47,1.88-0.54,3.08-0.22L704.84,208.77z M702.17,213.7l0.9-3.37
		c-1-0.04-1.62,0.41-1.86,1.31C700.97,212.52,701.31,213.29,702.17,213.7z"/>
</g>
<circle fill="#FFFFFF" stroke="#000000" stroke-width="3" stroke-miterlimit="10" cx="809.55" cy="271" r="10"/>
<g>
	<path d="M811.09,253.41l4.06,1.09l-0.57,2.13l-10.95-2.93l0.86-3.2c0.19-0.71,0.41-1.27,0.64-1.67c0.25-0.4,0.57-0.73,0.97-1
		c0.87-0.56,1.83-0.7,2.87-0.43c1.03,0.28,1.79,0.81,2.28,1.58s0.56,1.79,0.22,3.05L811.09,253.41z M809.24,252.92l0.23-0.87
		c0.36-1.34,0.01-2.15-1.04-2.43c-1.11-0.3-1.77,0.2-2.18,1.7l-0.2,0.74L809.24,252.92z"/>
	<path d="M811.11,241.12l0.53-1.99l7.11,1.91l-0.53,1.99l-0.92-0.25c0.6,0.82,0.77,1.71,0.51,2.68c-0.26,0.97-0.84,1.69-1.74,2.16
		c-0.9,0.47-1.89,0.57-2.95,0.28c-1.07-0.29-1.88-0.87-2.43-1.73c-0.55-0.86-0.69-1.77-0.44-2.71c0.25-0.95,0.85-1.65,1.79-2.1
		L811.11,241.12z M812.19,243.31c-0.15,0.56-0.08,1.09,0.2,1.57c0.28,0.5,0.7,0.82,1.25,0.96s1.08,0.08,1.57-0.21
		c0.5-0.29,0.81-0.7,0.96-1.25c0.15-0.55,0.08-1.07-0.21-1.57c-0.28-0.5-0.69-0.81-1.25-0.96c-0.55-0.15-1.07-0.08-1.56,0.19
		C812.66,242.34,812.34,242.76,812.19,243.31z"/>
	<path d="M819.79,237.15l-0.53,1.99l-7.11-1.91l0.53-1.99l1.08,0.29c-0.74-0.72-1-1.53-0.75-2.42c0.08-0.28,0.21-0.55,0.41-0.82
		l1.78,0.78c-0.25,0.25-0.41,0.54-0.49,0.88c-0.31,1.14,0.26,1.9,1.67,2.28L819.79,237.15z"/>
	<path d="M817.3,226.69c-0.55,0.41-0.89,0.9-1.05,1.47c-0.15,0.57-0.09,1.09,0.18,1.59c0.27,0.49,0.69,0.81,1.27,0.97
		c0.58,0.16,1.1,0.09,1.58-0.2s0.8-0.72,0.96-1.3c0.15-0.58,0.11-1.17-0.15-1.78l1.93,0.52c0.14,0.67,0.12,1.3-0.04,1.94
		c-0.3,1.11-0.9,1.93-1.83,2.48c-0.91,0.55-1.91,0.68-2.98,0.4c-1.07-0.29-1.87-0.9-2.41-1.85c-0.53-0.94-0.65-1.97-0.35-3.08
		c0.17-0.65,0.48-1.21,0.91-1.69L817.3,226.69z"/>
</g>
<circle fill="#FFFFFF" stroke="#000000" stroke-width="3" stroke-miterlimit="10" cx="928.64" cy="271" r="10"/>
<g>
	<path d="M933.66,256.63l-10.95-2.93l0.84-3.14c0.43-1.59,1.2-2.79,2.32-3.58c0.67-0.48,1.42-0.8,2.25-0.94
		c0.83-0.15,1.65-0.11,2.47,0.11c0.82,0.22,1.55,0.6,2.2,1.15c0.65,0.55,1.14,1.21,1.49,1.97c0.58,1.22,0.65,2.63,0.22,4.24
		L933.66,256.63z M932.38,254l0.15-0.58c0.35-1.31,0.32-2.36-0.09-3.15c-0.45-0.92-1.39-1.64-2.44-1.93
		c-1.12-0.3-2.13-0.15-3.04,0.46c-0.77,0.5-1.33,1.39-1.67,2.68l-0.15,0.58L932.38,254z"/>
	<path d="M935.17,238.09l-1.43,5.33c1.29,0.29,2.08-0.12,2.37-1.23c0.18-0.69,0.01-1.34-0.5-1.95l0.79-1.76
		c1.31,1.01,1.74,2.36,1.29,4.08c-0.31,1.16-0.9,1.99-1.78,2.5s-1.88,0.61-3.03,0.31c-1.15-0.31-1.97-0.89-2.48-1.76
		c-0.51-0.87-0.61-1.86-0.31-2.99c0.3-1.13,0.89-1.93,1.74-2.39s1.88-0.54,3.07-0.22L935.17,238.09z M932.49,243.02l0.9-3.37
		c-1-0.04-1.62,0.41-1.86,1.31C931.29,241.84,931.64,242.61,932.49,243.02z"/>
	<path d="M934.09,222.98c-1.05,0.61-1.7,1.41-1.96,2.39c-0.26,0.98-0.12,1.91,0.43,2.8c0.54,0.89,1.36,1.48,2.42,1.77
		c1.07,0.29,2.05,0.18,2.95-0.33c0.9-0.5,1.48-1.27,1.76-2.3c0.14-0.51,0.17-0.99,0.09-1.44c-0.08-0.45-0.27-0.95-0.58-1.51
		l2.51,0.67c0.18,1.04,0.16,1.98-0.08,2.85c-0.43,1.62-1.35,2.84-2.74,3.67c-1.4,0.82-2.89,1.02-4.48,0.59
		c-1.6-0.43-2.8-1.35-3.63-2.79c-0.83-1.43-1.02-2.95-0.6-4.54c0.24-0.89,0.7-1.72,1.39-2.5L934.09,222.98z"/>
	<path d="M936.9,216.12l0.53-1.99l7.11,1.91l-0.53,1.99l-0.92-0.25c0.6,0.82,0.77,1.71,0.51,2.68c-0.26,0.97-0.84,1.69-1.74,2.16
		c-0.9,0.47-1.89,0.57-2.95,0.28c-1.07-0.29-1.88-0.87-2.43-1.73c-0.55-0.86-0.7-1.77-0.44-2.71c0.25-0.95,0.85-1.65,1.79-2.1
		L936.9,216.12z M937.98,218.31c-0.15,0.56-0.08,1.09,0.2,1.57c0.28,0.5,0.7,0.82,1.25,0.96s1.08,0.08,1.57-0.21
		c0.5-0.29,0.81-0.7,0.96-1.25c0.15-0.55,0.08-1.07-0.21-1.57c-0.28-0.5-0.69-0.81-1.25-0.96c-0.55-0.15-1.07-0.08-1.56,0.19
		C938.45,217.34,938.13,217.76,937.98,218.31z"/>
	<path d="M940.63,208.82c-0.42,0.33-0.68,0.64-0.76,0.94c-0.08,0.3-0.08,0.53-0.01,0.71c0.08,0.18,0.2,0.3,0.37,0.34
		s0.32,0.01,0.47-0.12c0.14-0.12,0.38-0.44,0.72-0.94c0.34-0.5,0.65-0.87,0.92-1.08c0.5-0.42,1.11-0.54,1.82-0.35
		c0.71,0.19,1.24,0.63,1.56,1.31c0.33,0.69,0.38,1.48,0.14,2.35c-0.29,1.07-0.92,1.87-1.91,2.38l-0.93-1.37
		c0.7-0.41,1.13-0.89,1.29-1.46c0.13-0.5-0.11-1-0.54-1.12c-0.22-0.06-0.39-0.04-0.54,0.07c-0.14,0.11-0.39,0.42-0.76,0.94
		c-0.36,0.52-0.66,0.87-0.88,1.04c-0.46,0.39-1.01,0.49-1.67,0.31c-0.67-0.18-1.14-0.56-1.43-1.16c-0.3-0.59-0.34-1.28-0.12-2.09
		s0.67-1.47,1.36-2.02L940.63,208.82z"/>
	<path d="M942.01,203.92l5.39,1.44l-0.53,1.99l-5.39-1.44l-0.21,0.79l-1.72-0.46l0.21-0.79l-2.43-0.65l0.53-1.99l2.43,0.65
		l0.38-1.41l1.72,0.46L942.01,203.92z"/>
	<path d="M946.71,195.03l-1.43,5.33c1.29,0.29,2.08-0.12,2.37-1.23c0.18-0.69,0.01-1.34-0.5-1.95l0.79-1.76
		c1.31,1.01,1.74,2.37,1.29,4.08c-0.31,1.16-0.9,1.99-1.78,2.5c-0.88,0.51-1.88,0.61-3.03,0.31c-1.15-0.31-1.97-0.89-2.48-1.75
		s-0.61-1.86-0.31-2.99c0.3-1.13,0.89-1.93,1.74-2.4c0.86-0.47,1.88-0.54,3.08-0.22L946.71,195.03z M944.03,199.96l0.9-3.37
		c-1-0.04-1.62,0.41-1.87,1.31C942.83,198.78,943.17,199.55,944.03,199.96z"/>
	<path d="M938.59,189.06l12.3,3.29l-0.53,1.99l-12.3-3.29L938.59,189.06z"/>
	<path d="M944.28,188.55l0.53-1.99l0.89,0.24c-0.65-0.83-0.78-1.57-0.52-2.53c0.23-0.87,0.7-1.49,1.41-1.84
		c0.52-0.26,1.23-0.27,2.12-0.03l4.51,1.21l-0.53,1.99l-3.94-1.06c-0.54-0.15-0.95-0.18-1.2-0.11c-0.43,0.11-0.72,0.44-0.87,1.01
		c-0.27,1,0.25,1.68,1.57,2.04l3.68,0.99l-0.53,1.99L944.28,188.55z"/>
	<path d="M948.09,174.35l0.53-1.99l7.11,1.91l-0.53,1.99l-0.92-0.25c0.6,0.82,0.77,1.71,0.51,2.68c-0.26,0.97-0.84,1.69-1.74,2.16
		c-0.9,0.47-1.89,0.57-2.95,0.28c-1.07-0.29-1.88-0.87-2.43-1.73c-0.55-0.86-0.69-1.77-0.44-2.71c0.25-0.95,0.85-1.65,1.79-2.1
		L948.09,174.35z M949.18,176.54c-0.15,0.56-0.08,1.09,0.2,1.57c0.28,0.5,0.7,0.82,1.25,0.96s1.08,0.08,1.57-0.21
		c0.5-0.29,0.82-0.7,0.96-1.25c0.15-0.55,0.08-1.07-0.21-1.57c-0.28-0.5-0.69-0.81-1.25-0.96c-0.55-0.15-1.07-0.08-1.56,0.19
		C949.64,175.56,949.33,175.99,949.18,176.54z"/>
	<path d="M949.66,168.47l4.03,1.08c1.08,0.29,1.76-0.04,2.02-1.01s-0.16-1.6-1.24-1.89l-4.03-1.08l0.53-1.99l4.35,1.17
		c1.92,0.52,2.66,2.02,2.07,4.23s-1.99,3.16-3.91,2.65l-4.35-1.17L949.66,168.47z"/>
</g>
<circle fill="#FFFFFF" stroke="#000000" stroke-width="3" stroke-miterlimit="10" cx="1047.73" cy="271" r="10"/>
<g>
	<path d="M1042.96,249.38l7.39,1.98c1.44,0.38,2.37,0.98,2.81,1.79c0.36,0.69,0.41,1.49,0.17,2.38c-0.24,0.89-0.8,1.62-1.69,2.16
		l-1.22-1.69c0.49-0.17,0.8-0.48,0.92-0.94c0.12-0.46-0.01-0.82-0.41-1.09c-0.24-0.17-0.74-0.35-1.5-0.57l-7.05-1.89L1042.96,249.38
		z"/>
	<path d="M1053.14,242.25l-1.43,5.33c1.29,0.29,2.08-0.12,2.37-1.23c0.19-0.69,0.02-1.34-0.5-1.95l0.79-1.76
		c1.31,1.01,1.74,2.37,1.29,4.07c-0.31,1.16-0.9,1.99-1.78,2.51c-0.88,0.51-1.88,0.61-3.03,0.3c-1.15-0.31-1.97-0.89-2.48-1.75
		c-0.51-0.87-0.61-1.86-0.31-2.99s0.89-1.93,1.74-2.4c0.86-0.47,1.88-0.54,3.08-0.21L1053.14,242.25z M1050.47,247.18l0.9-3.37
		c-1-0.03-1.62,0.41-1.86,1.31C1049.27,246,1049.61,246.77,1050.47,247.18z"/>
	<path d="M1051.13,234.25l0.53-1.99l7.11,1.91l-0.53,1.99l-0.92-0.25c0.6,0.82,0.77,1.71,0.51,2.68c-0.26,0.97-0.84,1.69-1.74,2.16
		c-0.9,0.47-1.89,0.57-2.95,0.28c-1.07-0.29-1.88-0.87-2.43-1.73c-0.55-0.86-0.7-1.77-0.44-2.71c0.25-0.95,0.85-1.64,1.79-2.1
		L1051.13,234.25z M1052.22,236.44c-0.15,0.56-0.08,1.09,0.2,1.57c0.28,0.5,0.7,0.82,1.25,0.96c0.55,0.15,1.08,0.08,1.57-0.21
		c0.5-0.29,0.82-0.7,0.96-1.25c0.15-0.54,0.08-1.07-0.21-1.57c-0.28-0.5-0.69-0.81-1.25-0.96c-0.55-0.15-1.07-0.08-1.56,0.19
		C1052.68,235.47,1052.37,235.89,1052.22,236.44z"/>
	<path d="M1052.17,230.36l0.53-1.99l0.89,0.24c-0.65-0.83-0.78-1.57-0.52-2.53c0.23-0.87,0.7-1.49,1.41-1.84
		c0.53-0.26,1.23-0.27,2.12-0.03l4.51,1.21l-0.53,1.99l-3.95-1.06c-0.54-0.15-0.95-0.18-1.2-0.11c-0.43,0.11-0.72,0.44-0.87,1.01
		c-0.27,1,0.25,1.68,1.57,2.04l3.68,0.99l-0.53,1.99L1052.17,230.36z"/>
	<path d="M1056.78,223.24l0.99-3.7l1.65,0.44l-0.99,3.7L1056.78,223.24z"/>
	<path d="M1063.64,216.01l-0.57,2.14l-9.1-2.44l-0.66,2.45l-1.85-0.5l1.89-7.05l1.85,0.5l-0.66,2.46L1063.64,216.01z"/>
	<path d="M1058.76,205.76l0.53-1.99l7.11,1.91l-0.53,1.99l-0.92-0.25c0.6,0.82,0.77,1.71,0.51,2.68c-0.26,0.97-0.84,1.69-1.74,2.16
		c-0.9,0.47-1.89,0.57-2.95,0.28c-1.07-0.29-1.88-0.87-2.43-1.73c-0.55-0.86-0.7-1.77-0.44-2.71c0.25-0.95,0.85-1.65,1.79-2.1
		L1058.76,205.76z M1059.85,207.95c-0.15,0.56-0.08,1.09,0.2,1.57c0.28,0.5,0.7,0.82,1.25,0.96s1.08,0.08,1.57-0.21
		c0.5-0.29,0.81-0.7,0.96-1.25c0.15-0.54,0.08-1.07-0.21-1.57c-0.28-0.5-0.69-0.81-1.25-0.96c-0.55-0.15-1.07-0.08-1.56,0.19
		C1060.32,206.98,1060,207.4,1059.85,207.95z"/>
	<path d="M1055.15,198.49l12.3,3.3l-0.53,1.99l-12.3-3.3L1055.15,198.49z"/>
	<path d="M1061.62,194.21c0.32-1.19,0.93-2.07,1.83-2.63c0.9-0.56,1.91-0.69,3.04-0.39c1.12,0.3,1.94,0.92,2.43,1.86
		c0.49,0.95,0.58,2.02,0.26,3.23c-0.32,1.21-0.95,2.08-1.86,2.64c-0.91,0.55-1.92,0.68-3.03,0.38c-1.11-0.3-1.92-0.93-2.41-1.88
		C1061.38,196.49,1061.3,195.41,1061.62,194.21z M1063.4,194.71c-0.15,0.55-0.08,1.08,0.2,1.57c0.28,0.5,0.7,0.82,1.25,0.97
		c0.55,0.15,1.08,0.08,1.57-0.21c0.5-0.29,0.82-0.71,0.96-1.26c0.15-0.55,0.08-1.09-0.2-1.58c-0.28-0.5-0.69-0.81-1.25-0.96
		c-0.55-0.15-1.07-0.08-1.57,0.21C1063.87,193.74,1063.55,194.16,1063.4,194.71z"/>
	<path d="M1063.33,188.71l0.53-1.99l0.89,0.24c-0.65-0.83-0.78-1.57-0.52-2.53c0.23-0.87,0.7-1.49,1.41-1.84
		c0.53-0.26,1.23-0.27,2.12-0.03l4.51,1.21l-0.53,1.99l-3.95-1.06c-0.54-0.15-0.95-0.18-1.2-0.11c-0.43,0.11-0.72,0.44-0.87,1.01
		c-0.27,1,0.25,1.68,1.57,2.04l3.68,0.99l-0.53,1.99L1063.33,188.71z"/>
</g>
<circle fill="#FFFFFF" stroke="#000000" stroke-width="3" stroke-miterlimit="10" cx="1166.82" cy="271" r="10"/>
<g>
	<path d="M1164.3,248.4l-0.98,3.66l2.44,0.65l0.92-3.43l1.85,0.5l-0.92,3.43l4.81,1.29l-0.57,2.13l-10.95-2.93l1.55-5.8
		L1164.3,248.4z"/>
	<path d="M1168.11,242.11l0.53-1.99l7.11,1.91l-0.53,1.99l-0.92-0.25c0.6,0.82,0.77,1.71,0.51,2.68c-0.26,0.97-0.84,1.69-1.74,2.16
		c-0.9,0.47-1.89,0.57-2.96,0.28c-1.07-0.29-1.88-0.87-2.43-1.73c-0.55-0.86-0.7-1.77-0.44-2.71c0.25-0.95,0.85-1.65,1.79-2.1
		L1168.11,242.11z M1169.2,244.3c-0.15,0.56-0.09,1.09,0.2,1.57c0.28,0.5,0.7,0.82,1.25,0.96s1.08,0.08,1.57-0.21
		c0.5-0.29,0.81-0.7,0.96-1.25c0.14-0.54,0.08-1.07-0.21-1.57c-0.28-0.5-0.69-0.81-1.25-0.96c-0.55-0.15-1.07-0.08-1.56,0.19
		C1169.67,243.32,1169.35,243.75,1169.2,244.3z"/>
	<path d="M1164.5,234.84l6.11,1.64c-0.58-0.87-0.75-1.78-0.5-2.73c0.25-0.95,0.83-1.65,1.73-2.12c0.9-0.47,1.89-0.56,2.97-0.27
		s1.89,0.86,2.44,1.72s0.68,1.77,0.42,2.74c-0.26,0.97-0.86,1.66-1.79,2.07l0.92,0.25l-0.53,1.99l-12.3-3.3L1164.5,234.84z
		 M1171.73,234.87c-0.15,0.55-0.08,1.07,0.2,1.57c0.28,0.5,0.7,0.82,1.25,0.96c0.55,0.15,1.08,0.08,1.57-0.21
		c0.5-0.29,0.81-0.7,0.96-1.25s0.08-1.07-0.21-1.57c-0.28-0.5-0.69-0.82-1.24-0.97c-0.55-0.15-1.07-0.08-1.57,0.21
		C1172.19,233.9,1171.88,234.32,1171.73,234.87z"/>
	<path d="M1179.3,228.79l-0.53,1.99l-7.11-1.91l0.53-1.99l1.08,0.29c-0.74-0.72-1-1.53-0.75-2.42c0.07-0.28,0.21-0.55,0.41-0.82
		l1.78,0.78c-0.25,0.25-0.41,0.54-0.49,0.88c-0.3,1.14,0.26,1.9,1.68,2.28L1179.3,228.79z"/>
	<path d="M1178.98,217.06l-1.43,5.33c1.29,0.29,2.08-0.12,2.37-1.23c0.18-0.69,0.01-1.34-0.5-1.95l0.79-1.76
		c1.31,1.01,1.74,2.37,1.29,4.08c-0.31,1.16-0.9,1.99-1.78,2.5c-0.88,0.51-1.88,0.61-3.03,0.31c-1.15-0.31-1.97-0.89-2.48-1.75
		s-0.61-1.86-0.31-2.99c0.3-1.13,0.89-1.93,1.74-2.4c0.86-0.47,1.88-0.54,3.07-0.22L1178.98,217.06z M1176.3,221.99l0.9-3.37
		c-1-0.04-1.62,0.41-1.86,1.31C1175.11,220.81,1175.45,221.58,1176.3,221.99z"/>
</g>
<circle fill="#FFFFFF" stroke="#000000" stroke-width="3" stroke-miterlimit="10" cx="1285.91" cy="271" r="10"/>
<g>
	<path d="M1290.94,256.63l-10.95-2.93l0.84-3.14c0.43-1.59,1.2-2.79,2.32-3.58c0.67-0.48,1.42-0.8,2.25-0.94
		c0.83-0.15,1.65-0.11,2.47,0.11c0.82,0.22,1.55,0.6,2.2,1.15c0.65,0.55,1.14,1.21,1.49,1.97c0.58,1.22,0.65,2.63,0.22,4.24
		L1290.94,256.63z M1289.65,254l0.15-0.58c0.35-1.31,0.32-2.36-0.09-3.15c-0.45-0.92-1.39-1.64-2.44-1.93
		c-1.12-0.3-2.13-0.15-3.04,0.46c-0.77,0.5-1.33,1.39-1.67,2.68l-0.15,0.58L1289.65,254z"/>
	<path d="M1282.94,241.79l0.71-1.77l3.75,3.49l-0.51,1.22L1282.94,241.79z"/>
	<path d="M1284.78,235.81l10.95,2.93l-0.57,2.13l-10.95-2.93L1284.78,235.81z"/>
	<path d="M1284.55,231.26l6.11,1.64c-0.58-0.87-0.75-1.78-0.5-2.73c0.25-0.95,0.83-1.65,1.73-2.12c0.9-0.47,1.89-0.56,2.97-0.27
		c1.08,0.29,1.89,0.86,2.44,1.72c0.54,0.86,0.68,1.77,0.42,2.74s-0.86,1.66-1.79,2.07l0.92,0.25l-0.53,1.99l-12.3-3.3
		L1284.55,231.26z M1291.78,231.29c-0.15,0.55-0.08,1.07,0.2,1.57c0.28,0.5,0.7,0.82,1.25,0.96c0.55,0.15,1.08,0.08,1.57-0.21
		c0.5-0.29,0.81-0.7,0.96-1.25s0.08-1.07-0.21-1.57c-0.28-0.5-0.69-0.82-1.24-0.97c-0.55-0.15-1.07-0.08-1.57,0.21
		C1292.24,230.33,1291.93,230.74,1291.78,231.29z"/>
	<path d="M1297.46,219.35l-1.43,5.33c1.29,0.29,2.08-0.12,2.37-1.23c0.19-0.69,0.02-1.34-0.5-1.95l0.79-1.76
		c1.31,1.01,1.74,2.37,1.29,4.08c-0.31,1.16-0.9,1.99-1.78,2.5c-0.88,0.51-1.88,0.61-3.03,0.31c-1.15-0.31-1.97-0.89-2.48-1.75
		c-0.51-0.87-0.61-1.86-0.31-2.99c0.3-1.13,0.89-1.93,1.74-2.4c0.86-0.47,1.88-0.54,3.08-0.22L1297.46,219.35z M1294.78,224.28
		l0.9-3.37c-1-0.04-1.62,0.41-1.86,1.31C1293.59,223.1,1293.93,223.87,1294.78,224.28z"/>
	<path d="M1301.63,216.72l-0.53,1.99l-7.11-1.91l0.53-1.99l1.08,0.29c-0.74-0.72-1-1.53-0.75-2.42c0.08-0.28,0.21-0.55,0.41-0.82
		l1.78,0.78c-0.25,0.25-0.41,0.54-0.49,0.88c-0.3,1.14,0.26,1.9,1.68,2.28L1301.63,216.72z"/>
	<path d="M1296.05,209.09l4.53-0.79l-3.53-2.93l0.6-2.24l6.27,5.61l-0.24,0.9l-8.23,1.69L1296.05,209.09z"/>
	<path d="M1294,199.96c0.09-0.33,0.28-0.58,0.57-0.75c0.29-0.17,0.61-0.21,0.93-0.12c0.33,0.09,0.59,0.29,0.76,0.58
		c0.18,0.3,0.22,0.62,0.13,0.95c-0.09,0.33-0.28,0.58-0.58,0.75c-0.29,0.17-0.62,0.21-0.94,0.12s-0.59-0.29-0.75-0.59
		C1293.94,200.61,1293.91,200.29,1294,199.96z M1298.46,200.12l7.11,1.91l-0.53,1.98l-7.11-1.91L1298.46,200.12z"/>
	<path d="M1294.3,194.86l12.3,3.29l-0.53,1.99l-12.3-3.3L1294.3,194.86z"/>
	<path d="M1295.35,190.97l12.3,3.29l-0.53,1.99l-12.3-3.3L1295.35,190.97z"/>
	<path d="M1306.8,184.51l-1.43,5.33c1.29,0.29,2.08-0.12,2.37-1.23c0.18-0.69,0.01-1.34-0.5-1.95l0.79-1.76
		c1.31,1.01,1.74,2.37,1.29,4.08c-0.31,1.16-0.9,1.99-1.78,2.5s-1.88,0.61-3.03,0.31c-1.15-0.31-1.97-0.89-2.48-1.75
		c-0.51-0.87-0.61-1.86-0.31-2.99c0.3-1.13,0.89-1.93,1.74-2.4c0.86-0.47,1.88-0.54,3.07-0.22L1306.8,184.51z M1304.12,189.44
		l0.9-3.37c-1-0.04-1.62,0.41-1.86,1.31C1302.92,188.26,1303.27,189.03,1304.12,189.44z"/>
</g>
<circle fill="#FFFFFF" stroke="#000000" stroke-width="3" stroke-miterlimit="10" cx="1405" cy="271" r="10"/>
<g>
	<path d="M1402.41,252.41c0.31,0.08,0.6,0.04,0.85-0.14c0.25-0.18,0.66-0.65,1.21-1.42c0.55-0.77,1.04-1.3,1.49-1.6
		c0.72-0.5,1.59-0.61,2.62-0.34c1.03,0.28,1.79,0.86,2.27,1.73s0.57,1.89,0.26,3.03c-0.42,1.55-1.45,2.61-3.09,3.2l-0.96-1.74
		c1.11-0.25,1.8-0.88,2.07-1.9c0.13-0.49,0.1-0.94-0.1-1.33c-0.21-0.39-0.53-0.65-0.99-0.77c-0.46-0.12-0.87-0.03-1.25,0.29
		c-0.19,0.15-0.57,0.64-1.14,1.46s-1.14,1.37-1.69,1.66c-0.55,0.29-1.19,0.33-1.91,0.14c-0.92-0.25-1.6-0.77-2.03-1.58
		c-0.43-0.81-0.51-1.7-0.25-2.69c0.33-1.22,1.02-2.18,2.08-2.9l1.16,1.51c-0.73,0.36-1.19,0.88-1.36,1.54
		c-0.12,0.44-0.1,0.83,0.06,1.19C1401.86,252.11,1402.1,252.33,1402.41,252.41z"/>
	<path d="M1406.68,240.67l0.53-1.99l7.11,1.91l-0.53,1.99l-0.92-0.25c0.6,0.82,0.77,1.71,0.51,2.68s-0.84,1.69-1.74,2.16
		c-0.9,0.47-1.89,0.57-2.95,0.28c-1.07-0.29-1.88-0.87-2.43-1.73c-0.55-0.86-0.69-1.77-0.44-2.71c0.25-0.95,0.85-1.64,1.79-2.1
		L1406.68,240.67z M1407.77,242.86c-0.15,0.56-0.08,1.09,0.2,1.57c0.28,0.5,0.7,0.81,1.25,0.96s1.08,0.08,1.57-0.21
		c0.5-0.29,0.82-0.7,0.96-1.25c0.15-0.55,0.08-1.07-0.21-1.57c-0.28-0.5-0.69-0.81-1.25-0.96c-0.55-0.15-1.07-0.08-1.56,0.19
		C1408.24,241.89,1407.92,242.31,1407.77,242.86z"/>
	<path d="M1403.78,234.68c0.09-0.33,0.28-0.58,0.57-0.75c0.29-0.17,0.61-0.21,0.93-0.12c0.33,0.09,0.59,0.29,0.76,0.58
		c0.18,0.3,0.22,0.62,0.13,0.95c-0.09,0.33-0.28,0.58-0.58,0.75c-0.29,0.17-0.62,0.21-0.94,0.12c-0.33-0.09-0.58-0.29-0.75-0.59
		C1403.73,235.33,1403.7,235.01,1403.78,234.68z M1408.24,234.83l7.11,1.91l-0.53,1.98l-7.11-1.91L1408.24,234.83z"/>
	<path d="M1408.75,232.96l0.53-1.99l0.89,0.24c-0.65-0.83-0.78-1.57-0.52-2.53c0.23-0.87,0.7-1.49,1.41-1.84
		c0.53-0.26,1.23-0.27,2.12-0.03l4.51,1.21l-0.53,1.99l-3.95-1.06c-0.54-0.15-0.95-0.19-1.2-0.11c-0.43,0.11-0.72,0.44-0.87,1.01
		c-0.27,1,0.25,1.68,1.57,2.04l3.68,0.99l-0.53,1.99L1408.75,232.96z"/>
	<path d="M1413.35,222.67l5.39,1.44l-0.53,1.99l-5.39-1.44l-0.21,0.79l-1.72-0.46l0.21-0.79l-2.43-0.65l0.53-1.99l2.43,0.65
		l0.38-1.41l1.72,0.46L1413.35,222.67z"/>
	<path d="M1414.68,220.89l0.99-3.7l1.65,0.44l-0.99,3.7L1414.68,220.89z"/>
	<path d="M1420.44,217.75l-10.61-5.03l0.39-1.46l7.96-1.07l-6.33-5.02l0.39-1.47l11.64,1.16l-0.58,2.16l-7.01-0.82l6.09,4.85
		l-0.16,0.59l-7.68,1.06l6.46,2.91L1420.44,217.75z"/>
	<path d="M1413.29,199.22c0.09-0.33,0.28-0.58,0.57-0.75c0.29-0.17,0.61-0.21,0.93-0.12c0.33,0.09,0.58,0.29,0.76,0.58
		c0.18,0.3,0.22,0.62,0.13,0.95c-0.09,0.33-0.28,0.58-0.58,0.75c-0.29,0.17-0.62,0.21-0.94,0.12c-0.33-0.09-0.59-0.29-0.75-0.59
		C1413.23,199.86,1413.2,199.54,1413.29,199.22z M1417.75,199.37l7.11,1.91l-0.53,1.98l-7.11-1.91L1417.75,199.37z"/>
	<path d="M1421.85,192.75c-0.55,0.41-0.9,0.9-1.05,1.47c-0.15,0.57-0.09,1.09,0.18,1.59c0.27,0.49,0.69,0.81,1.27,0.97
		c0.58,0.16,1.1,0.09,1.58-0.2c0.48-0.29,0.8-0.72,0.96-1.3c0.16-0.58,0.11-1.17-0.15-1.78l1.93,0.52c0.14,0.66,0.12,1.3-0.04,1.94
		c-0.3,1.11-0.9,1.93-1.83,2.48c-0.91,0.55-1.91,0.68-2.98,0.4c-1.07-0.29-1.87-0.91-2.41-1.85c-0.53-0.94-0.65-1.97-0.35-3.08
		c0.17-0.65,0.48-1.21,0.91-1.69L1421.85,192.75z"/>
	<path d="M1414.94,189.1l0.53-1.99l6.11,1.64c-0.61-0.79-0.79-1.63-0.55-2.53c0.24-0.9,0.71-1.51,1.42-1.84
		c0.55-0.26,1.26-0.26,2.16-0.02l4.47,1.2l-0.53,1.99l-3.89-1.04c-0.57-0.15-0.98-0.19-1.24-0.12c-0.44,0.11-0.74,0.46-0.89,1.01
		c-0.27,1,0.26,1.69,1.6,2.04l3.65,0.98l-0.53,1.99L1414.94,189.1z"/>
	<path d="M1428.22,175.79l-1.43,5.33c1.29,0.29,2.08-0.12,2.37-1.23c0.18-0.69,0.01-1.34-0.5-1.95l0.79-1.76
		c1.31,1.01,1.74,2.37,1.29,4.08c-0.31,1.16-0.9,1.99-1.78,2.5c-0.88,0.51-1.88,0.61-3.03,0.31c-1.15-0.31-1.97-0.89-2.48-1.75
		c-0.51-0.87-0.61-1.86-0.31-2.99c0.3-1.13,0.89-1.93,1.74-2.4c0.86-0.47,1.88-0.54,3.08-0.22L1428.22,175.79z M1425.55,180.72
		l0.9-3.37c-1-0.04-1.62,0.41-1.86,1.31C1424.35,179.54,1424.69,180.31,1425.55,180.72z"/>
	<path d="M1420.11,169.81l12.3,3.3l-0.53,1.99l-12.3-3.3L1420.11,169.81z"/>
</g>
<g>
	<path fill="#9B9B9B" d="M668.61,303.01v-10.02h4.44c0.89,0,1.57,0.09,2.04,0.27c0.46,0.18,0.84,0.5,1.11,0.95s0.42,0.96,0.42,1.51
		c0,0.71-0.23,1.31-0.69,1.8s-1.17,0.8-2.13,0.93c0.35,0.17,0.62,0.33,0.8,0.5c0.39,0.36,0.75,0.8,1.1,1.33l1.74,2.73h-1.67
		l-1.33-2.08c-0.39-0.6-0.71-1.06-0.96-1.38s-0.48-0.54-0.67-0.67s-0.4-0.22-0.6-0.27c-0.15-0.03-0.4-0.05-0.74-0.05h-1.54v4.45
		H668.61z M669.93,297.42h2.85c0.61,0,1.08-0.06,1.42-0.19c0.34-0.12,0.6-0.33,0.78-0.6c0.18-0.28,0.27-0.58,0.27-0.9
		c0-0.47-0.17-0.86-0.52-1.17s-0.89-0.46-1.63-0.46h-3.17V297.42z"/>
	<path fill="#9B9B9B" d="M683.28,302.12c-0.46,0.39-0.89,0.66-1.32,0.82s-0.87,0.24-1.36,0.24c-0.8,0-1.41-0.2-1.84-0.58
		c-0.43-0.39-0.64-0.89-0.64-1.49c0-0.36,0.08-0.68,0.24-0.97c0.16-0.29,0.37-0.53,0.64-0.71s0.56-0.31,0.89-0.4
		c0.24-0.06,0.61-0.12,1.09-0.18c0.99-0.12,1.73-0.26,2.19-0.42c0-0.17,0.01-0.28,0.01-0.32c0-0.5-0.12-0.85-0.35-1.06
		c-0.31-0.28-0.78-0.42-1.4-0.42c-0.58,0-1.01,0.1-1.28,0.3c-0.28,0.2-0.48,0.56-0.61,1.08l-1.2-0.16c0.11-0.51,0.29-0.93,0.54-1.25
		c0.25-0.32,0.61-0.56,1.09-0.73c0.47-0.17,1.02-0.26,1.65-0.26c0.62,0,1.12,0.07,1.51,0.22s0.67,0.33,0.85,0.55
		c0.18,0.22,0.31,0.5,0.38,0.84c0.04,0.21,0.06,0.59,0.06,1.13v1.64c0,1.14,0.03,1.87,0.08,2.17c0.05,0.3,0.16,0.59,0.31,0.87h-1.29
		C683.4,302.76,683.31,302.46,683.28,302.12z M683.18,299.37c-0.45,0.18-1.12,0.34-2.01,0.46c-0.51,0.07-0.86,0.16-1.07,0.25
		s-0.37,0.22-0.49,0.4c-0.11,0.18-0.17,0.37-0.17,0.58c0,0.33,0.12,0.6,0.37,0.82s0.61,0.33,1.09,0.33c0.47,0,0.9-0.1,1.26-0.31
		c0.37-0.21,0.64-0.49,0.81-0.85c0.13-0.28,0.2-0.69,0.2-1.23V299.37z"/>
	<path fill="#9B9B9B" d="M686.33,294.41v-1.42h1.23v1.42H686.33z M686.33,303.01v-7.26h1.23v7.26H686.33z"/>
	<path fill="#9B9B9B" d="M689.41,303.01v-10.02h1.23v10.02H689.41z"/>
	<path fill="#9B9B9B" d="M696.66,303.01v-10.02h6.76v1.18h-5.43v3.1h4.7v1.18h-4.7v4.55H696.66z"/>
	<path fill="#9B9B9B" d="M709.73,302.12c-0.46,0.39-0.89,0.66-1.32,0.82s-0.87,0.24-1.36,0.24c-0.8,0-1.41-0.2-1.84-0.58
		c-0.43-0.39-0.64-0.89-0.64-1.49c0-0.36,0.08-0.68,0.24-0.97c0.16-0.29,0.37-0.53,0.64-0.71s0.56-0.31,0.89-0.4
		c0.24-0.06,0.61-0.12,1.09-0.18c0.99-0.12,1.73-0.26,2.19-0.42c0-0.17,0.01-0.28,0.01-0.32c0-0.5-0.12-0.85-0.35-1.06
		c-0.31-0.28-0.78-0.42-1.4-0.42c-0.58,0-1.01,0.1-1.28,0.3c-0.28,0.2-0.48,0.56-0.61,1.08l-1.2-0.16c0.11-0.51,0.29-0.93,0.54-1.25
		c0.25-0.32,0.61-0.56,1.09-0.73c0.47-0.17,1.02-0.26,1.65-0.26c0.62,0,1.12,0.07,1.51,0.22s0.67,0.33,0.85,0.55
		c0.18,0.22,0.31,0.5,0.38,0.84c0.04,0.21,0.06,0.59,0.06,1.13v1.64c0,1.14,0.03,1.87,0.08,2.17c0.05,0.3,0.16,0.59,0.31,0.87h-1.29
		C709.84,302.76,709.76,302.46,709.73,302.12z M709.62,299.37c-0.45,0.18-1.12,0.34-2.01,0.46c-0.51,0.07-0.86,0.16-1.07,0.25
		s-0.37,0.22-0.49,0.4c-0.11,0.18-0.17,0.37-0.17,0.58c0,0.33,0.12,0.6,0.37,0.82s0.61,0.33,1.09,0.33c0.47,0,0.9-0.1,1.26-0.31
		c0.37-0.21,0.64-0.49,0.81-0.85c0.13-0.28,0.2-0.69,0.2-1.23V299.37z"/>
	<path fill="#9B9B9B" d="M712.77,303.01v-7.26h1.11v1.03c0.53-0.8,1.3-1.2,2.31-1.2c0.44,0,0.84,0.08,1.21,0.24
		c0.37,0.16,0.64,0.36,0.82,0.62s0.31,0.56,0.38,0.91c0.05,0.23,0.07,0.63,0.07,1.2v4.46h-1.23v-4.42c0-0.5-0.05-0.88-0.14-1.12
		c-0.1-0.25-0.27-0.45-0.51-0.59c-0.24-0.15-0.53-0.22-0.86-0.22c-0.52,0-0.98,0.17-1.36,0.5s-0.57,0.96-0.57,1.89v3.96H712.77z"/>
	<path fill="#9B9B9B" d="M720.07,300.85l1.22-0.19c0.07,0.49,0.26,0.86,0.57,1.12s0.75,0.39,1.31,0.39c0.56,0,0.98-0.12,1.26-0.35
		c0.27-0.23,0.41-0.5,0.41-0.81c0-0.28-0.12-0.5-0.36-0.66c-0.17-0.11-0.59-0.25-1.26-0.42c-0.9-0.23-1.53-0.42-1.88-0.59
		c-0.35-0.17-0.61-0.4-0.79-0.69c-0.18-0.29-0.27-0.62-0.27-0.97c0-0.32,0.07-0.62,0.22-0.9c0.15-0.28,0.35-0.5,0.6-0.69
		c0.19-0.14,0.45-0.26,0.78-0.36c0.33-0.1,0.68-0.15,1.06-0.15c0.57,0,1.07,0.08,1.5,0.25s0.75,0.39,0.95,0.67
		c0.21,0.28,0.35,0.66,0.42,1.12l-1.2,0.16c-0.05-0.37-0.21-0.67-0.48-0.88s-0.63-0.31-1.11-0.31c-0.56,0-0.97,0.09-1.21,0.28
		s-0.36,0.41-0.36,0.66c0,0.16,0.05,0.3,0.15,0.43c0.1,0.13,0.26,0.24,0.47,0.33c0.12,0.05,0.49,0.15,1.09,0.31
		c0.87,0.23,1.48,0.42,1.82,0.57c0.34,0.15,0.61,0.36,0.81,0.65s0.29,0.63,0.29,1.05c0,0.41-0.12,0.8-0.36,1.16
		c-0.24,0.36-0.58,0.64-1.04,0.84c-0.45,0.2-0.96,0.3-1.53,0.3c-0.94,0-1.66-0.2-2.16-0.59S720.21,301.62,720.07,300.85z"/>
	<path fill="#9B9B9B" d="M738.76,299.5l1.33,0.33c-0.28,1.09-0.78,1.92-1.5,2.49c-0.72,0.57-1.61,0.86-2.65,0.86
		c-1.08,0-1.96-0.22-2.64-0.66c-0.68-0.44-1.19-1.08-1.54-1.91s-0.53-1.73-0.53-2.69c0-1.04,0.2-1.95,0.6-2.73
		c0.4-0.78,0.97-1.37,1.7-1.77c0.74-0.4,1.55-0.6,2.43-0.6c1,0,1.85,0.25,2.53,0.77s1.16,1.23,1.43,2.15l-1.31,0.31
		c-0.23-0.73-0.57-1.26-1.01-1.59s-1-0.5-1.67-0.5c-0.77,0-1.41,0.18-1.93,0.55s-0.88,0.87-1.09,1.49
		c-0.21,0.62-0.31,1.26-0.31,1.92c0,0.85,0.12,1.6,0.37,2.23c0.25,0.64,0.63,1.11,1.16,1.43s1.09,0.47,1.7,0.47
		c0.74,0,1.37-0.21,1.89-0.64S738.58,300.34,738.76,299.5z"/>
	<path fill="#9B9B9B" d="M746.3,302.12c-0.46,0.39-0.89,0.66-1.32,0.82s-0.87,0.24-1.36,0.24c-0.8,0-1.41-0.2-1.84-0.58
		c-0.43-0.39-0.64-0.89-0.64-1.49c0-0.36,0.08-0.68,0.24-0.97c0.16-0.29,0.37-0.53,0.64-0.71s0.56-0.31,0.89-0.4
		c0.24-0.06,0.61-0.12,1.09-0.18c0.99-0.12,1.73-0.26,2.19-0.42c0-0.17,0.01-0.28,0.01-0.32c0-0.5-0.12-0.85-0.35-1.06
		c-0.31-0.28-0.78-0.42-1.4-0.42c-0.58,0-1.01,0.1-1.28,0.3c-0.28,0.2-0.48,0.56-0.61,1.08l-1.2-0.16c0.11-0.51,0.29-0.93,0.54-1.25
		c0.25-0.32,0.61-0.56,1.09-0.73c0.47-0.17,1.02-0.26,1.65-0.26c0.62,0,1.12,0.07,1.51,0.22s0.67,0.33,0.85,0.55
		c0.18,0.22,0.31,0.5,0.38,0.84c0.04,0.21,0.06,0.59,0.06,1.13v1.64c0,1.14,0.03,1.87,0.08,2.17c0.05,0.3,0.16,0.59,0.31,0.87h-1.29
		C746.42,302.76,746.33,302.46,746.3,302.12z M746.2,299.37c-0.45,0.18-1.12,0.34-2.01,0.46c-0.51,0.07-0.86,0.16-1.07,0.25
		s-0.37,0.22-0.49,0.4c-0.11,0.18-0.17,0.37-0.17,0.58c0,0.33,0.12,0.6,0.37,0.82s0.61,0.33,1.09,0.33c0.47,0,0.9-0.1,1.26-0.31
		c0.37-0.21,0.64-0.49,0.81-0.85c0.13-0.28,0.2-0.69,0.2-1.23V299.37z"/>
	<path fill="#9B9B9B" d="M749.35,303.01v-7.26h1.11v1.03c0.53-0.8,1.3-1.2,2.31-1.2c0.44,0,0.84,0.08,1.21,0.24
		c0.37,0.16,0.64,0.36,0.82,0.62c0.18,0.25,0.31,0.56,0.38,0.91c0.05,0.23,0.07,0.63,0.07,1.2v4.46h-1.23v-4.42
		c0-0.5-0.05-0.88-0.14-1.12c-0.1-0.25-0.27-0.45-0.51-0.59c-0.24-0.15-0.53-0.22-0.86-0.22c-0.52,0-0.98,0.17-1.36,0.5
		c-0.38,0.33-0.57,0.96-0.57,1.89v3.96H749.35z"/>
	<path fill="#9B9B9B" d="M761.87,302.12c-0.46,0.39-0.89,0.66-1.32,0.82s-0.87,0.24-1.36,0.24c-0.8,0-1.41-0.2-1.84-0.58
		c-0.43-0.39-0.64-0.89-0.64-1.49c0-0.36,0.08-0.68,0.24-0.97c0.16-0.29,0.37-0.53,0.64-0.71s0.56-0.31,0.89-0.4
		c0.24-0.06,0.61-0.12,1.09-0.18c0.99-0.12,1.72-0.26,2.19-0.42c0-0.17,0.01-0.28,0.01-0.32c0-0.5-0.12-0.85-0.35-1.06
		c-0.31-0.28-0.78-0.42-1.4-0.42c-0.58,0-1.01,0.1-1.28,0.3c-0.28,0.2-0.48,0.56-0.61,1.08l-1.2-0.16c0.11-0.51,0.29-0.93,0.54-1.25
		c0.25-0.32,0.61-0.56,1.09-0.73c0.47-0.17,1.02-0.26,1.65-0.26c0.62,0,1.12,0.07,1.51,0.22c0.39,0.15,0.67,0.33,0.86,0.55
		c0.18,0.22,0.31,0.5,0.38,0.84c0.04,0.21,0.06,0.59,0.06,1.13v1.64c0,1.14,0.03,1.87,0.08,2.17c0.05,0.3,0.16,0.59,0.31,0.87h-1.29
		C761.99,302.76,761.91,302.46,761.87,302.12z M761.77,299.37c-0.45,0.18-1.12,0.34-2.01,0.46c-0.51,0.07-0.86,0.16-1.07,0.25
		c-0.21,0.09-0.37,0.22-0.49,0.4c-0.11,0.18-0.17,0.37-0.17,0.58c0,0.33,0.12,0.6,0.37,0.82s0.61,0.33,1.09,0.33
		c0.47,0,0.89-0.1,1.26-0.31c0.37-0.21,0.64-0.49,0.81-0.85c0.13-0.28,0.2-0.69,0.2-1.23V299.37z"/>
	<path fill="#9B9B9B" d="M769.63,303.01v-0.92c-0.46,0.72-1.14,1.08-2.03,1.08c-0.58,0-1.11-0.16-1.6-0.48s-0.86-0.76-1.13-1.34
		c-0.27-0.57-0.4-1.23-0.4-1.97c0-0.72,0.12-1.38,0.36-1.97c0.24-0.59,0.6-1.04,1.09-1.36c0.48-0.31,1.02-0.47,1.62-0.47
		c0.44,0,0.83,0.09,1.17,0.28c0.34,0.18,0.62,0.42,0.83,0.72v-3.6h1.22v10.02H769.63z M765.74,299.39c0,0.93,0.2,1.62,0.59,2.08
		c0.39,0.46,0.85,0.69,1.39,0.69c0.54,0,1-0.22,1.37-0.66c0.38-0.44,0.56-1.11,0.56-2.01c0-0.99-0.19-1.72-0.57-2.19
		s-0.86-0.7-1.42-0.7c-0.55,0-1,0.22-1.37,0.67S765.74,298.43,765.74,299.39z"/>
	<path fill="#9B9B9B" d="M777.44,302.12c-0.46,0.39-0.89,0.66-1.32,0.82s-0.87,0.24-1.36,0.24c-0.8,0-1.41-0.2-1.84-0.58
		c-0.43-0.39-0.64-0.89-0.64-1.49c0-0.36,0.08-0.68,0.24-0.97c0.16-0.29,0.37-0.53,0.64-0.71s0.56-0.31,0.89-0.4
		c0.24-0.06,0.61-0.12,1.09-0.18c0.99-0.12,1.72-0.26,2.19-0.42c0-0.17,0.01-0.28,0.01-0.32c0-0.5-0.12-0.85-0.35-1.06
		c-0.31-0.28-0.78-0.42-1.4-0.42c-0.58,0-1.01,0.1-1.28,0.3c-0.28,0.2-0.48,0.56-0.61,1.08l-1.2-0.16c0.11-0.51,0.29-0.93,0.54-1.25
		c0.25-0.32,0.61-0.56,1.09-0.73c0.47-0.17,1.02-0.26,1.65-0.26c0.62,0,1.12,0.07,1.51,0.22c0.39,0.15,0.67,0.33,0.86,0.55
		c0.18,0.22,0.31,0.5,0.38,0.84c0.04,0.21,0.06,0.59,0.06,1.13v1.64c0,1.14,0.03,1.87,0.08,2.17c0.05,0.3,0.16,0.59,0.31,0.87h-1.29
		C777.56,302.76,777.48,302.46,777.44,302.12z M777.34,299.37c-0.45,0.18-1.12,0.34-2.01,0.46c-0.51,0.07-0.86,0.16-1.07,0.25
		c-0.21,0.09-0.37,0.22-0.49,0.4c-0.11,0.18-0.17,0.37-0.17,0.58c0,0.33,0.12,0.6,0.37,0.82s0.61,0.33,1.09,0.33
		c0.47,0,0.89-0.1,1.26-0.31c0.37-0.21,0.64-0.49,0.81-0.85c0.13-0.28,0.2-0.69,0.2-1.23V299.37z"/>
	<path fill="#9B9B9B" d="M783.46,299.88v-0.99h14v0.99H783.46z"/>
	<path fill="#9B9B9B" d="M808.4,301.83v1.18h-6.62c-0.01-0.3,0.04-0.58,0.14-0.85c0.17-0.45,0.44-0.9,0.81-1.33s0.91-0.94,1.61-1.52
		c1.09-0.89,1.82-1.6,2.21-2.12c0.38-0.52,0.57-1.01,0.57-1.48c0-0.49-0.17-0.9-0.52-1.23c-0.35-0.34-0.8-0.5-1.36-0.5
		c-0.59,0-1.07,0.18-1.42,0.53s-0.54,0.85-0.54,1.48l-1.27-0.13c0.09-0.94,0.41-1.66,0.98-2.16c0.56-0.5,1.32-0.74,2.28-0.74
		c0.96,0,1.72,0.27,2.28,0.8s0.84,1.19,0.84,1.98c0,0.4-0.08,0.79-0.25,1.18s-0.44,0.79-0.82,1.22s-1.01,1.02-1.9,1.76
		c-0.74,0.62-1.21,1.04-1.42,1.26c-0.21,0.22-0.38,0.44-0.52,0.67H808.4z"/>
	<path fill="#9B9B9B" d="M809.71,298.07c0-1.18,0.12-2.14,0.37-2.86c0.24-0.72,0.61-1.28,1.09-1.67s1.09-0.59,1.81-0.59
		c0.54,0,1.01,0.11,1.42,0.32c0.41,0.22,0.74,0.53,1,0.94c0.26,0.41,0.47,0.9,0.62,1.49c0.15,0.58,0.22,1.38,0.22,2.37
		c0,1.18-0.12,2.12-0.36,2.85c-0.24,0.72-0.6,1.28-1.08,1.68c-0.48,0.39-1.09,0.59-1.82,0.59c-0.97,0-1.72-0.35-2.28-1.04
		C810.05,301.31,809.71,299.95,809.71,298.07z M810.98,298.07c0,1.65,0.19,2.74,0.58,3.28c0.39,0.54,0.86,0.82,1.42,0.82
		c0.57,0,1.04-0.27,1.43-0.82s0.58-1.64,0.58-3.28c0-1.65-0.19-2.75-0.58-3.29s-0.87-0.81-1.44-0.81c-0.56,0-1.02,0.24-1.35,0.72
		C811.19,295.3,810.98,296.43,810.98,298.07z"/>
	<path fill="#9B9B9B" d="M823.97,301.83v1.18h-6.62c-0.01-0.3,0.04-0.58,0.14-0.85c0.17-0.45,0.44-0.9,0.81-1.33
		s0.91-0.94,1.61-1.52c1.09-0.89,1.82-1.6,2.21-2.12c0.38-0.52,0.57-1.01,0.57-1.48c0-0.49-0.17-0.9-0.52-1.23
		c-0.35-0.34-0.8-0.5-1.36-0.5c-0.59,0-1.07,0.18-1.42,0.53s-0.54,0.85-0.54,1.48l-1.27-0.13c0.09-0.94,0.41-1.66,0.98-2.16
		c0.56-0.5,1.32-0.74,2.28-0.74c0.96,0,1.72,0.27,2.28,0.8s0.84,1.19,0.84,1.98c0,0.4-0.08,0.79-0.25,1.18s-0.44,0.79-0.82,1.22
		s-1.01,1.02-1.9,1.76c-0.74,0.62-1.21,1.04-1.42,1.26c-0.21,0.22-0.38,0.44-0.52,0.67H823.97z"/>
	<path fill="#9B9B9B" d="M831.67,295.45l-1.22,0.1c-0.11-0.48-0.26-0.83-0.46-1.05c-0.33-0.35-0.74-0.53-1.23-0.53
		c-0.39,0-0.74,0.11-1.03,0.33c-0.39,0.28-0.69,0.7-0.92,1.24c-0.22,0.54-0.34,1.31-0.35,2.32c0.3-0.45,0.66-0.79,1.09-1
		c0.43-0.22,0.88-0.33,1.35-0.33c0.82,0,1.52,0.3,2.09,0.91c0.58,0.6,0.86,1.38,0.86,2.34c0,0.63-0.13,1.21-0.41,1.75
		c-0.27,0.54-0.64,0.95-1.12,1.24c-0.47,0.29-1.01,0.43-1.61,0.43c-1.03,0-1.86-0.38-2.51-1.13c-0.65-0.75-0.97-2-0.97-3.73
		c0-1.94,0.36-3.34,1.07-4.22c0.62-0.77,1.46-1.15,2.52-1.15c0.79,0,1.44,0.22,1.94,0.66S831.57,294.67,831.67,295.45z
		 M826.65,299.77c0,0.42,0.09,0.83,0.27,1.22s0.43,0.68,0.76,0.89c0.32,0.2,0.66,0.3,1.02,0.3c0.52,0,0.97-0.21,1.34-0.63
		c0.37-0.42,0.56-0.99,0.56-1.71c0-0.69-0.18-1.24-0.55-1.64c-0.37-0.4-0.83-0.6-1.39-0.6c-0.56,0-1.03,0.2-1.42,0.6
		C826.84,298.6,826.65,299.12,826.65,299.77z"/>
</g>
<g>
	<path d="M19.71,21.33v24.38h9.02v4.96H14V21.33H19.71z"/>
	<path d="M34.65,20.36c0.88,0,1.63,0.3,2.26,0.92s0.92,1.38,0.92,2.26s-0.32,1.65-0.95,2.28c-0.62,0.64-1.4,0.97-2.28,0.97
		s-1.63-0.32-2.26-0.95s-0.95-1.4-0.95-2.28s0.32-1.65,0.97-2.28C32.99,20.66,33.77,20.36,34.65,20.36z M37.25,31.62v19.06h-5.31
		V31.62H37.25z"/>
	<path d="M42.27,31.62h5.33V34c1.63-2.17,3.39-2.99,5.97-2.99c2.34,0,4.19,0.75,5.54,2.28c1.01,1.14,1.5,2.9,1.5,5.29v12.1h-5.33
		V40.1c0-1.46-0.17-2.49-0.54-3.07c-0.56-1.01-1.59-1.5-3.12-1.5c-2.69,0-4.04,1.76-4.04,5.29v9.86h-5.33V31.62z"/>
	<path d="M84.45,42.02H70.16c0.15,3.42,1.7,5.11,4.66,5.09c1.85,0,3.35-0.86,4.53-2.56l4.92,0.79c-1.65,3.95-4.75,5.93-9.32,5.95
		c-3.12,0-5.59-0.92-7.46-2.77s-2.79-4.3-2.79-7.37s0.9-5.52,2.73-7.37s4.23-2.77,7.26-2.77s5.41,0.92,7.15,2.75s2.6,4.34,2.6,7.54
		V42.02z M70.33,38.62h9.02c-0.58-2.51-2.11-3.78-4.53-3.78C72.48,34.84,70.78,36.21,70.33,38.62z"/>
	<path d="M117.62,26.29h-9.69l-1.14,4.58c0.9-0.11,1.61-0.17,2.15-0.17c2.88,0,5.26,0.97,7.15,2.92s2.84,4.43,2.84,7.43
		s-1.07,5.48-3.2,7.43c-2.15,1.96-5.01,2.94-8.55,2.94s-6.6-1.27-9.11-3.82l1.89-4.98c2.15,2.49,4.6,3.74,7.35,3.74
		c1.65,0,3.05-0.56,4.19-1.65s1.72-2.43,1.72-4.04s-0.64-2.99-1.93-4.12s-2.9-1.7-4.81-1.7s-3.78,0.62-5.59,1.89h-0.3l3.48-15.4
		h13.56V26.29z"/>
	<path d="M132.87,38.36h9.9v4.43h-9.9V38.36z"/>
	<path d="M157.15,50.67V21.33h7.26c3.31,0,5.69,0.58,7.15,1.76c1.76,1.38,2.64,3.37,2.64,5.97c0,1.61-0.37,3.01-1.1,4.19
		c-0.41,0.56-1.12,1.14-2.11,1.76c1.76,0.39,3.03,1.01,3.82,1.85c1.4,1.4,2.11,3.29,2.11,5.67s-0.86,4.34-2.56,5.87
		s-4.15,2.28-7.35,2.28H157.15z M162.87,33.55h1.63c2.96,0,4.45-1.27,4.45-3.8s-1.46-3.8-4.36-3.8h-1.72V33.55z M162.87,46.05h2.47
		c3.8,0,5.71-1.35,5.71-4.04c0-1.48-0.58-2.58-1.72-3.27c-0.84-0.56-2.28-0.84-4.32-0.84h-2.15V46.05z"/>
	<path d="M186.71,17.72v32.96h-5.33V17.72H186.71z"/>
	<path d="M197.13,31.62V42.4c0,2.9,1.29,4.36,3.89,4.36s3.89-1.46,3.89-4.36V31.62h5.33v11.67c0,5.16-3.27,8.01-9.2,8.01
		s-9.24-2.86-9.24-8.01V31.62H197.13z"/>
	<path d="M234.06,42.02h-14.29c0.15,3.42,1.7,5.11,4.66,5.09c1.85,0,3.35-0.86,4.53-2.56l4.92,0.79c-1.65,3.95-4.75,5.93-9.32,5.95
		c-3.12,0-5.59-0.92-7.46-2.77s-2.79-4.3-2.79-7.37s0.9-5.52,2.73-7.37s4.23-2.77,7.26-2.77s5.41,0.92,7.15,2.75s2.6,4.34,2.6,7.54
		V42.02z M219.95,38.62h9.02c-0.58-2.51-2.11-3.78-4.53-3.78C222.1,34.84,220.4,36.21,219.95,38.62z"/>
	<path d="M255.66,21.33v24.38h9.02v4.96h-14.74V21.33H255.66z"/>
	<path d="M270.59,20.36c0.88,0,1.63,0.3,2.26,0.92s0.92,1.38,0.92,2.26s-0.32,1.65-0.95,2.28c-0.62,0.64-1.4,0.97-2.28,0.97
		s-1.63-0.32-2.26-0.95s-0.95-1.4-0.95-2.28s0.32-1.65,0.97-2.28C268.93,20.66,269.71,20.36,270.59,20.36z M273.19,31.62v19.06
		h-5.31V31.62H273.19z"/>
	<path d="M278.21,31.62h5.33V34c1.63-2.17,3.39-2.99,5.97-2.99c2.34,0,4.19,0.75,5.54,2.28c1.01,1.14,1.5,2.9,1.5,5.29v12.1h-5.33
		V40.1c0-1.46-0.17-2.49-0.54-3.07c-0.56-1.01-1.59-1.5-3.12-1.5c-2.69,0-4.04,1.76-4.04,5.29v9.86h-5.33V31.62z"/>
	<path d="M320.39,42.02H306.1c0.15,3.42,1.7,5.11,4.66,5.09c1.85,0,3.35-0.86,4.53-2.56l4.92,0.79c-1.65,3.95-4.75,5.93-9.32,5.95
		c-3.12,0-5.59-0.92-7.46-2.77s-2.79-4.3-2.79-7.37s0.9-5.52,2.73-7.37s4.23-2.77,7.26-2.77s5.41,0.92,7.15,2.75s2.6,4.34,2.6,7.54
		V42.02z M306.27,38.62h9.02c-0.58-2.51-2.11-3.78-4.53-3.78C308.42,34.84,306.72,36.21,306.27,38.62z"/>
</g>
<g>
	<path fill="#5A5A5A" d="M14,73.31l1.61-0.14c0.08,0.64,0.25,1.17,0.53,1.59c0.28,0.41,0.71,0.75,1.3,1
		c0.59,0.25,1.25,0.38,1.98,0.38c0.65,0,1.22-0.1,1.72-0.29s0.87-0.46,1.11-0.79s0.36-0.71,0.36-1.1c0-0.4-0.12-0.76-0.35-1.06
		s-0.62-0.56-1.16-0.76c-0.35-0.13-1.11-0.34-2.29-0.63s-2.01-0.55-2.49-0.8c-0.62-0.32-1.07-0.72-1.38-1.2s-0.45-1.01-0.45-1.6
		c0-0.65,0.18-1.26,0.55-1.82s0.91-1,1.62-1.29s1.5-0.44,2.36-0.44c0.96,0,1.8,0.15,2.53,0.46c0.73,0.31,1.29,0.76,1.68,1.36
		s0.6,1.27,0.63,2.03l-1.63,0.12c-0.09-0.81-0.39-1.43-0.89-1.85s-1.26-0.62-2.25-0.62c-1.03,0-1.78,0.19-2.25,0.57
		c-0.47,0.38-0.71,0.83-0.71,1.37c0,0.46,0.17,0.84,0.5,1.14c0.33,0.3,1.19,0.61,2.57,0.92c1.39,0.31,2.34,0.59,2.85,0.82
		c0.75,0.35,1.3,0.78,1.66,1.31s0.54,1.14,0.54,1.83c0,0.69-0.2,1.33-0.59,1.94c-0.39,0.61-0.96,1.08-1.69,1.42
		c-0.74,0.34-1.56,0.5-2.48,0.5c-1.17,0-2.14-0.17-2.93-0.51s-1.41-0.85-1.85-1.53C14.26,74.94,14.02,74.17,14,73.31z"/>
	<path fill="#5A5A5A" d="M25.79,72.78c0-1.73,0.48-3.01,1.44-3.84c0.8-0.69,1.78-1.04,2.94-1.04c1.28,0,2.33,0.42,3.15,1.26
		s1.22,2,1.22,3.48c0,1.2-0.18,2.15-0.54,2.83c-0.36,0.69-0.88,1.22-1.57,1.6s-1.44,0.57-2.25,0.57c-1.31,0-2.36-0.42-3.17-1.26
		S25.79,74.36,25.79,72.78z M27.42,72.78c0,1.2,0.26,2.09,0.78,2.68c0.52,0.6,1.18,0.89,1.97,0.89c0.79,0,1.44-0.3,1.96-0.9
		s0.78-1.51,0.78-2.73c0-1.15-0.26-2.03-0.79-2.62c-0.52-0.59-1.18-0.89-1.96-0.89c-0.79,0-1.45,0.3-1.97,0.89
		S27.42,71.58,27.42,72.78z"/>
	<path fill="#5A5A5A" d="M42.49,74.03l1.56,0.2c-0.17,1.07-0.6,1.91-1.31,2.52c-0.7,0.61-1.56,0.91-2.58,0.91
		c-1.28,0-2.3-0.42-3.08-1.25c-0.78-0.84-1.16-2.03-1.16-3.59c0-1.01,0.17-1.89,0.5-2.65s0.84-1.32,1.52-1.7
		c0.68-0.38,1.43-0.57,2.23-0.57c1.01,0,1.84,0.26,2.49,0.77s1.06,1.24,1.24,2.18l-1.54,0.24c-0.15-0.63-0.41-1.1-0.78-1.42
		s-0.82-0.47-1.35-0.47c-0.8,0-1.44,0.29-1.94,0.86c-0.5,0.57-0.75,1.47-0.75,2.71c0,1.25,0.24,2.17,0.72,2.73s1.11,0.85,1.88,0.85
		c0.62,0,1.14-0.19,1.56-0.57S42.37,74.82,42.49,74.03z"/>
	<path fill="#5A5A5A" d="M45.4,66.38v-1.82h1.58v1.82H45.4z M45.4,77.45v-9.33h1.58v9.33H45.4z"/>
	<path fill="#5A5A5A" d="M55.78,74.44l1.63,0.2c-0.26,0.96-0.74,1.7-1.43,2.22s-1.59,0.79-2.67,0.79c-1.37,0-2.45-0.42-3.25-1.26
		c-0.8-0.84-1.2-2.02-1.2-3.54c0-1.57,0.4-2.79,1.21-3.66s1.86-1.3,3.15-1.3c1.25,0,2.27,0.42,3.06,1.27s1.19,2.04,1.19,3.59
		c0,0.09,0,0.23-0.01,0.42H50.5c0.06,1.03,0.35,1.81,0.87,2.36s1.17,0.82,1.95,0.82c0.58,0,1.08-0.15,1.49-0.46
		S55.54,75.11,55.78,74.44z M50.59,71.88h5.21c-0.07-0.79-0.27-1.37-0.6-1.77c-0.5-0.61-1.16-0.91-1.96-0.91
		c-0.73,0-1.34,0.24-1.83,0.73S50.64,71.07,50.59,71.88z M52.29,66.95l1.17-2.46h2.07l-1.93,2.46H52.29z"/>
	<path fill="#5A5A5A" d="M62.86,76.03l0.23,1.4c-0.45,0.09-0.84,0.14-1.2,0.14c-0.57,0-1.02-0.09-1.34-0.27s-0.54-0.42-0.67-0.72
		s-0.19-0.92-0.19-1.87v-5.37h-1.16v-1.23h1.16V65.8l1.57-0.95v3.26h1.59v1.23h-1.59v5.46c0,0.45,0.03,0.74,0.08,0.87
		s0.15,0.23,0.27,0.31s0.31,0.11,0.54,0.11C62.34,76.09,62.57,76.07,62.86,76.03z"/>
	<path fill="#5A5A5A" d="M70.79,74.44l1.63,0.2c-0.26,0.96-0.74,1.7-1.43,2.22s-1.59,0.79-2.67,0.79c-1.37,0-2.45-0.42-3.25-1.26
		c-0.8-0.84-1.2-2.02-1.2-3.54c0-1.57,0.4-2.79,1.21-3.66s1.86-1.3,3.15-1.3c1.25,0,2.27,0.42,3.06,1.27s1.19,2.04,1.19,3.59
		c0,0.09,0,0.23-0.01,0.42h-6.96c0.06,1.03,0.35,1.81,0.87,2.36s1.17,0.82,1.95,0.82c0.58,0,1.08-0.15,1.49-0.46
		S70.55,75.11,70.79,74.44z M65.6,71.88h5.21c-0.07-0.79-0.27-1.37-0.6-1.77c-0.5-0.61-1.16-0.91-1.96-0.91
		c-0.73,0-1.34,0.24-1.83,0.73S65.65,71.07,65.6,71.88z M67.31,66.95l1.17-2.46h2.07l-1.93,2.46H67.31z"/>
	<path fill="#5A5A5A" d="M85.47,77.45v-1.18c-0.59,0.93-1.46,1.39-2.61,1.39c-0.74,0-1.43-0.21-2.05-0.62s-1.11-0.98-1.45-1.72
		c-0.34-0.73-0.51-1.58-0.51-2.54c0-0.93,0.16-1.78,0.47-2.54s0.78-1.34,1.4-1.75s1.32-0.61,2.08-0.61c0.56,0,1.06,0.12,1.5,0.36
		c0.44,0.24,0.8,0.55,1.07,0.93v-4.62h1.57v12.88H85.47z M80.47,72.79c0,1.2,0.25,2.09,0.76,2.68s1.1,0.89,1.78,0.89
		c0.69,0,1.28-0.28,1.76-0.85s0.73-1.43,0.73-2.59c0-1.28-0.25-2.21-0.74-2.81s-1.1-0.9-1.82-0.9c-0.7,0-1.29,0.29-1.76,0.86
		S80.47,71.55,80.47,72.79z"/>
	<path fill="#5A5A5A" d="M95.82,74.44l1.63,0.2c-0.26,0.96-0.74,1.7-1.43,2.22s-1.59,0.79-2.67,0.79c-1.37,0-2.45-0.42-3.25-1.26
		c-0.8-0.84-1.2-2.02-1.2-3.54c0-1.57,0.4-2.79,1.21-3.66s1.86-1.3,3.15-1.3c1.25,0,2.27,0.42,3.06,1.27s1.19,2.04,1.19,3.59
		c0,0.09,0,0.23-0.01,0.42h-6.96c0.06,1.03,0.35,1.81,0.87,2.36s1.17,0.82,1.95,0.82c0.58,0,1.08-0.15,1.49-0.46
		S95.58,75.11,95.82,74.44z M90.62,71.88h5.21c-0.07-0.79-0.27-1.37-0.6-1.77c-0.5-0.61-1.16-0.91-1.96-0.91
		c-0.73,0-1.34,0.24-1.83,0.73S90.68,71.07,90.62,71.88z"/>
	<path fill="#5A5A5A" d="M107.89,76.03l0.23,1.4c-0.45,0.09-0.84,0.14-1.2,0.14c-0.57,0-1.02-0.09-1.34-0.27s-0.54-0.42-0.67-0.72
		s-0.19-0.92-0.19-1.87v-5.37h-1.16v-1.23h1.16V65.8l1.57-0.95v3.26h1.59v1.23h-1.59v5.46c0,0.45,0.03,0.74,0.08,0.87
		s0.15,0.23,0.27,0.31s0.31,0.11,0.54,0.11C107.38,76.09,107.61,76.07,107.89,76.03z"/>
	<path fill="#5A5A5A" d="M109.42,77.45v-9.33h1.42v1.42c0.36-0.66,0.7-1.1,1.01-1.31s0.65-0.32,1.02-0.32
		c0.53,0,1.08,0.17,1.63,0.51l-0.54,1.47c-0.39-0.23-0.77-0.34-1.16-0.34c-0.35,0-0.66,0.1-0.93,0.31s-0.47,0.5-0.59,0.87
		c-0.18,0.56-0.26,1.18-0.26,1.85v4.89H109.42z"/>
	<path fill="#5A5A5A" d="M121.53,76.3c-0.59,0.5-1.15,0.85-1.69,1.05s-1.12,0.31-1.74,0.31c-1.03,0-1.81-0.25-2.36-0.75
		c-0.55-0.5-0.83-1.14-0.83-1.92c0-0.46,0.1-0.88,0.31-1.25c0.21-0.38,0.48-0.68,0.82-0.91s0.72-0.4,1.14-0.52
		c0.31-0.08,0.78-0.16,1.41-0.24c1.28-0.15,2.22-0.33,2.82-0.54c0.01-0.22,0.01-0.35,0.01-0.41c0-0.64-0.15-1.1-0.45-1.36
		c-0.4-0.36-1-0.54-1.8-0.54c-0.74,0-1.29,0.13-1.65,0.39s-0.62,0.72-0.79,1.38l-1.55-0.21c0.14-0.66,0.37-1.2,0.69-1.6
		c0.32-0.41,0.79-0.72,1.4-0.94c0.61-0.22,1.32-0.33,2.12-0.33c0.8,0,1.44,0.09,1.94,0.28s0.86,0.42,1.1,0.71
		c0.23,0.29,0.4,0.64,0.49,1.08c0.05,0.27,0.08,0.76,0.08,1.46v2.11c0,1.47,0.03,2.4,0.1,2.79c0.07,0.39,0.2,0.76,0.4,1.12h-1.65
		C121.68,77.12,121.57,76.74,121.53,76.3z M121.39,72.76c-0.57,0.23-1.44,0.43-2.58,0.6c-0.65,0.09-1.11,0.2-1.38,0.32
		s-0.48,0.29-0.62,0.51s-0.22,0.48-0.22,0.75c0,0.42,0.16,0.77,0.48,1.05s0.79,0.42,1.4,0.42c0.61,0,1.15-0.13,1.63-0.4
		s0.82-0.63,1.05-1.09c0.17-0.36,0.25-0.88,0.25-1.58V72.76z"/>
	<path fill="#5A5A5A" d="M125.45,77.45v-9.33h1.42v1.33c0.69-1.03,1.68-1.54,2.97-1.54c0.56,0,1.08,0.1,1.55,0.3
		c0.47,0.2,0.82,0.47,1.06,0.8s0.4,0.72,0.49,1.17c0.06,0.29,0.09,0.81,0.09,1.54v5.74h-1.58v-5.68c0-0.64-0.06-1.13-0.18-1.45
		s-0.34-0.57-0.65-0.77c-0.31-0.19-0.68-0.29-1.1-0.29c-0.67,0-1.26,0.21-1.74,0.64s-0.73,1.24-0.73,2.43v5.1H125.45z"/>
	<path fill="#5A5A5A" d="M134.82,74.66l1.56-0.25c0.09,0.63,0.33,1.11,0.73,1.44s0.96,0.5,1.68,0.5c0.73,0,1.27-0.15,1.62-0.44
		s0.53-0.64,0.53-1.04c0-0.36-0.16-0.64-0.47-0.84c-0.22-0.14-0.76-0.32-1.62-0.54c-1.16-0.29-1.96-0.55-2.41-0.76
		s-0.79-0.51-1.02-0.89c-0.23-0.38-0.35-0.79-0.35-1.25c0-0.42,0.1-0.8,0.29-1.16c0.19-0.35,0.45-0.65,0.78-0.88
		c0.25-0.18,0.58-0.33,1.01-0.46s0.88-0.19,1.37-0.19c0.73,0,1.38,0.11,1.93,0.32s0.96,0.5,1.23,0.86c0.26,0.36,0.45,0.84,0.54,1.45
		l-1.55,0.21c-0.07-0.48-0.27-0.86-0.61-1.12s-0.81-0.4-1.43-0.4c-0.73,0-1.25,0.12-1.56,0.36s-0.47,0.52-0.47,0.84
		c0,0.21,0.06,0.39,0.19,0.55c0.13,0.17,0.33,0.31,0.61,0.42c0.16,0.06,0.62,0.19,1.4,0.4c1.12,0.3,1.9,0.54,2.34,0.73
		s0.79,0.47,1.04,0.83s0.38,0.81,0.38,1.35c0,0.53-0.15,1.02-0.46,1.49c-0.31,0.46-0.75,0.83-1.33,1.08
		c-0.58,0.26-1.24,0.38-1.97,0.38c-1.21,0-2.14-0.25-2.77-0.76S135,75.65,134.82,74.66z"/>
	<path fill="#5A5A5A" d="M144.46,81.02V68.11h1.44v1.21c0.34-0.47,0.72-0.83,1.15-1.07c0.43-0.24,0.95-0.36,1.56-0.36
		c0.8,0,1.5,0.21,2.11,0.62s1.07,0.99,1.38,1.74c0.31,0.75,0.47,1.57,0.47,2.46c0,0.96-0.17,1.82-0.51,2.58
		c-0.34,0.77-0.84,1.35-1.49,1.76c-0.65,0.41-1.34,0.61-2.06,0.61c-0.53,0-1-0.11-1.42-0.33s-0.76-0.5-1.03-0.84v4.54H144.46z
		 M145.89,72.83c0,1.2,0.24,2.09,0.73,2.66s1.08,0.86,1.77,0.86c0.7,0,1.31-0.3,1.81-0.89c0.5-0.59,0.75-1.52,0.75-2.76
		c0-1.19-0.24-2.08-0.73-2.67s-1.07-0.89-1.75-0.89c-0.67,0-1.27,0.32-1.79,0.94C146.15,70.72,145.89,71.63,145.89,72.83z"/>
	<path fill="#5A5A5A" d="M153.88,72.78c0-1.73,0.48-3.01,1.44-3.84c0.8-0.69,1.78-1.04,2.94-1.04c1.28,0,2.33,0.42,3.15,1.26
		s1.22,2,1.22,3.48c0,1.2-0.18,2.15-0.54,2.83c-0.36,0.69-0.88,1.22-1.57,1.6s-1.44,0.57-2.25,0.57c-1.31,0-2.36-0.42-3.17-1.26
		S153.88,74.36,153.88,72.78z M155.5,72.78c0,1.2,0.26,2.09,0.78,2.68c0.52,0.6,1.18,0.89,1.97,0.89c0.79,0,1.44-0.3,1.96-0.9
		s0.78-1.51,0.78-2.73c0-1.15-0.26-2.03-0.79-2.62c-0.52-0.59-1.18-0.89-1.96-0.89c-0.79,0-1.45,0.3-1.97,0.89
		S155.5,71.58,155.5,72.78z"/>
	<path fill="#5A5A5A" d="M164.46,77.45v-9.33h1.42v1.42c0.36-0.66,0.7-1.1,1.01-1.31s0.65-0.32,1.02-0.32
		c0.53,0,1.08,0.17,1.63,0.51l-0.54,1.47c-0.39-0.23-0.77-0.34-1.16-0.34c-0.35,0-0.66,0.1-0.93,0.31s-0.47,0.5-0.59,0.87
		c-0.18,0.56-0.26,1.18-0.26,1.85v4.89H164.46z"/>
	<path fill="#5A5A5A" d="M173.93,76.03l0.23,1.4c-0.45,0.09-0.84,0.14-1.2,0.14c-0.57,0-1.02-0.09-1.34-0.27s-0.54-0.42-0.67-0.72
		s-0.19-0.92-0.19-1.87v-5.37h-1.16v-1.23h1.16V65.8l1.57-0.95v3.26h1.59v1.23h-1.59v5.46c0,0.45,0.03,0.74,0.08,0.87
		s0.15,0.23,0.27,0.31s0.31,0.11,0.54,0.11C173.41,76.09,173.64,76.07,173.93,76.03z"/>
	<path fill="#5A5A5A" d="M186.53,77.45v-1.18c-0.59,0.93-1.46,1.39-2.61,1.39c-0.74,0-1.43-0.21-2.05-0.62s-1.11-0.98-1.45-1.72
		c-0.34-0.73-0.51-1.58-0.51-2.54c0-0.93,0.16-1.78,0.47-2.54s0.78-1.34,1.4-1.75s1.32-0.61,2.08-0.61c0.56,0,1.06,0.12,1.5,0.36
		c0.44,0.24,0.8,0.55,1.07,0.93v-4.62H188v12.88H186.53z M181.53,72.79c0,1.2,0.25,2.09,0.76,2.68s1.1,0.89,1.78,0.89
		c0.69,0,1.28-0.28,1.76-0.85s0.73-1.43,0.73-2.59c0-1.28-0.25-2.21-0.74-2.81s-1.1-0.9-1.82-0.9c-0.7,0-1.29,0.29-1.76,0.86
		S181.53,71.55,181.53,72.79z"/>
	<path fill="#5A5A5A" d="M196.87,74.44l1.63,0.2c-0.26,0.96-0.74,1.7-1.43,2.22s-1.59,0.79-2.67,0.79c-1.37,0-2.45-0.42-3.25-1.26
		c-0.8-0.84-1.2-2.02-1.2-3.54c0-1.57,0.4-2.79,1.21-3.66s1.86-1.3,3.15-1.3c1.25,0,2.27,0.42,3.06,1.27s1.19,2.04,1.19,3.59
		c0,0.09,0,0.23-0.01,0.42h-6.96c0.06,1.03,0.35,1.81,0.87,2.36s1.17,0.82,1.95,0.82c0.58,0,1.08-0.15,1.49-0.46
		S196.63,75.11,196.87,74.44z M191.68,71.88h5.21c-0.07-0.79-0.27-1.37-0.6-1.77c-0.5-0.61-1.16-0.91-1.96-0.91
		c-0.73,0-1.34,0.24-1.83,0.73S191.73,71.07,191.68,71.88z"/>
	<path fill="#5A5A5A" d="M205.65,77.45V64.56h2.57l3.05,9.12c0.28,0.85,0.49,1.49,0.62,1.91c0.15-0.47,0.38-1.16,0.69-2.07
		l3.08-8.96h2.29v12.88h-1.64V66.66l-3.74,10.78h-1.54l-3.73-10.97v10.97H205.65z"/>
	<path fill="#5A5A5A" d="M219.9,72.78c0-1.73,0.48-3.01,1.44-3.84c0.8-0.69,1.78-1.04,2.94-1.04c1.28,0,2.33,0.42,3.15,1.26
		s1.22,2,1.22,3.48c0,1.2-0.18,2.15-0.54,2.83c-0.36,0.69-0.88,1.22-1.57,1.6s-1.44,0.57-2.25,0.57c-1.31,0-2.36-0.42-3.17-1.26
		S219.9,74.36,219.9,72.78z M221.53,72.78c0,1.2,0.26,2.09,0.78,2.68c0.52,0.6,1.18,0.89,1.97,0.89c0.79,0,1.44-0.3,1.96-0.9
		s0.78-1.51,0.78-2.73c0-1.15-0.26-2.03-0.79-2.62c-0.52-0.59-1.18-0.89-1.96-0.89c-0.79,0-1.45,0.3-1.97,0.89
		S221.53,71.58,221.53,72.78z"/>
	<path fill="#5A5A5A" d="M230.5,77.45v-9.33h1.42v1.33c0.69-1.03,1.68-1.54,2.97-1.54c0.56,0,1.08,0.1,1.55,0.3
		c0.47,0.2,0.82,0.47,1.06,0.8s0.4,0.72,0.49,1.17c0.06,0.29,0.09,0.81,0.09,1.54v5.74h-1.58v-5.68c0-0.64-0.06-1.13-0.18-1.45
		s-0.34-0.57-0.65-0.77c-0.31-0.19-0.68-0.29-1.1-0.29c-0.67,0-1.26,0.21-1.74,0.64s-0.73,1.24-0.73,2.43v5.1H230.5z"/>
	<path fill="#5A5A5A" d="M243.97,76.03l0.23,1.4c-0.45,0.09-0.84,0.14-1.2,0.14c-0.57,0-1.02-0.09-1.34-0.27s-0.54-0.42-0.67-0.72
		s-0.19-0.92-0.19-1.87v-5.37h-1.16v-1.23h1.16V65.8l1.57-0.95v3.26h1.59v1.23h-1.59v5.46c0,0.45,0.03,0.74,0.08,0.87
		s0.15,0.23,0.27,0.31s0.31,0.11,0.54,0.11C243.45,76.09,243.68,76.07,243.97,76.03z"/>
	<path fill="#5A5A5A" d="M245.5,77.45v-9.33h1.42v1.42c0.36-0.66,0.7-1.1,1.01-1.31s0.65-0.32,1.02-0.32c0.53,0,1.08,0.17,1.63,0.51
		l-0.54,1.47c-0.39-0.23-0.77-0.34-1.16-0.34c-0.35,0-0.66,0.1-0.93,0.31s-0.47,0.5-0.59,0.87c-0.18,0.56-0.26,1.18-0.26,1.85v4.89
		H245.5z"/>
	<path fill="#5A5A5A" d="M257.9,74.44l1.63,0.2c-0.26,0.96-0.74,1.7-1.43,2.22s-1.59,0.79-2.67,0.79c-1.37,0-2.45-0.42-3.25-1.26
		c-0.8-0.84-1.2-2.02-1.2-3.54c0-1.57,0.4-2.79,1.21-3.66s1.86-1.3,3.15-1.3c1.25,0,2.27,0.42,3.06,1.27s1.19,2.04,1.19,3.59
		c0,0.09,0,0.23-0.01,0.42h-6.96c0.06,1.03,0.35,1.81,0.87,2.36s1.17,0.82,1.95,0.82c0.58,0,1.08-0.15,1.49-0.46
		S257.66,75.11,257.9,74.44z M252.7,71.88h5.21c-0.07-0.79-0.27-1.37-0.6-1.77c-0.5-0.61-1.16-0.91-1.96-0.91
		c-0.73,0-1.34,0.24-1.83,0.73S252.75,71.07,252.7,71.88z M254.41,66.95l1.17-2.46h2.07l-1.93,2.46H254.41z"/>
	<path fill="#5A5A5A" d="M267.61,76.3c-0.59,0.5-1.15,0.85-1.69,1.05s-1.12,0.31-1.74,0.31c-1.03,0-1.81-0.25-2.36-0.75
		c-0.55-0.5-0.83-1.14-0.83-1.92c0-0.46,0.1-0.88,0.31-1.25c0.21-0.38,0.48-0.68,0.82-0.91s0.72-0.4,1.14-0.52
		c0.31-0.08,0.78-0.16,1.41-0.24c1.28-0.15,2.22-0.33,2.82-0.54c0.01-0.22,0.01-0.35,0.01-0.41c0-0.64-0.15-1.1-0.45-1.36
		c-0.4-0.36-1-0.54-1.8-0.54c-0.74,0-1.29,0.13-1.65,0.39s-0.62,0.72-0.79,1.38l-1.55-0.21c0.14-0.66,0.37-1.2,0.69-1.6
		c0.32-0.41,0.79-0.72,1.4-0.94c0.61-0.22,1.32-0.33,2.12-0.33c0.8,0,1.44,0.09,1.94,0.28s0.86,0.42,1.1,0.71
		c0.23,0.29,0.4,0.64,0.49,1.08c0.05,0.27,0.08,0.76,0.08,1.46v2.11c0,1.47,0.03,2.4,0.1,2.79c0.07,0.39,0.2,0.76,0.4,1.12h-1.65
		C267.76,77.12,267.66,76.74,267.61,76.3z M267.48,72.76c-0.57,0.23-1.44,0.43-2.58,0.6c-0.65,0.09-1.11,0.2-1.38,0.32
		s-0.48,0.29-0.62,0.51s-0.22,0.48-0.22,0.75c0,0.42,0.16,0.77,0.48,1.05s0.79,0.42,1.4,0.42c0.61,0,1.15-0.13,1.63-0.4
		s0.82-0.63,1.05-1.09c0.17-0.36,0.25-0.88,0.25-1.58V72.76z"/>
	<path fill="#5A5A5A" d="M271.49,77.45V64.56h1.58v12.88H271.49z"/>
	<path fill="#5A5A5A" d="M283.55,81.24c-0.87-1.1-1.61-2.39-2.21-3.87s-0.91-3.01-0.91-4.59c0-1.39,0.23-2.73,0.68-4.01
		c0.53-1.48,1.34-2.96,2.44-4.43h1.13c-0.71,1.22-1.18,2.09-1.41,2.61c-0.36,0.81-0.64,1.65-0.84,2.53c-0.25,1.1-0.38,2.2-0.38,3.3
		c0,2.82,0.88,5.63,2.63,8.45H283.55z"/>
	<path fill="#5A5A5A" d="M286.14,73.31l1.61-0.14c0.08,0.64,0.25,1.17,0.53,1.59c0.28,0.41,0.71,0.75,1.3,1
		c0.59,0.25,1.25,0.38,1.98,0.38c0.65,0,1.22-0.1,1.72-0.29s0.87-0.46,1.11-0.79s0.36-0.71,0.36-1.1c0-0.4-0.12-0.76-0.35-1.06
		s-0.62-0.56-1.16-0.76c-0.35-0.13-1.11-0.34-2.29-0.63s-2.01-0.55-2.49-0.8c-0.62-0.32-1.07-0.72-1.38-1.2s-0.45-1.01-0.45-1.6
		c0-0.65,0.18-1.26,0.55-1.82s0.91-1,1.62-1.29s1.5-0.44,2.36-0.44c0.96,0,1.8,0.15,2.53,0.46c0.73,0.31,1.29,0.76,1.68,1.36
		s0.6,1.27,0.63,2.03l-1.63,0.12c-0.09-0.81-0.39-1.43-0.89-1.85s-1.26-0.62-2.25-0.62c-1.03,0-1.78,0.19-2.25,0.57
		c-0.47,0.38-0.71,0.83-0.71,1.37c0,0.46,0.17,0.84,0.5,1.14c0.33,0.3,1.19,0.61,2.57,0.92c1.39,0.31,2.34,0.59,2.85,0.82
		c0.75,0.35,1.3,0.78,1.66,1.31s0.54,1.14,0.54,1.83c0,0.69-0.2,1.33-0.59,1.94c-0.39,0.61-0.96,1.08-1.69,1.42
		c-0.74,0.34-1.56,0.5-2.48,0.5c-1.17,0-2.14-0.17-2.93-0.51s-1.41-0.85-1.85-1.53C286.4,74.94,286.17,74.17,286.14,73.31z"/>
	<path fill="#5A5A5A" d="M302.01,77.45V66.08h-4.25v-1.52h10.21v1.52h-4.26v11.36H302.01z"/>
	<path fill="#5A5A5A" d="M309.67,77.45V64.56h2.57l3.05,9.12c0.28,0.85,0.49,1.49,0.62,1.91c0.15-0.47,0.38-1.16,0.69-2.07
		l3.08-8.96h2.29v12.88h-1.64V66.66l-3.74,10.78h-1.54l-3.73-10.97v10.97H309.67z"/>
	<path fill="#5A5A5A" d="M325.55,81.24h-1.13c1.75-2.81,2.63-5.63,2.63-8.45c0-1.1-0.13-2.19-0.38-3.28
		c-0.2-0.88-0.48-1.72-0.83-2.53c-0.23-0.53-0.7-1.41-1.42-2.64h1.13c1.1,1.47,1.92,2.95,2.44,4.43c0.45,1.28,0.68,2.61,0.68,4.01
		c0,1.58-0.3,3.11-0.91,4.59S326.42,80.13,325.55,81.24z"/>
	<path fill="#5A5A5A" d="M335.28,71.14c0-0.62,0.22-1.14,0.65-1.57s0.96-0.65,1.57-0.65c0.62,0,1.14,0.22,1.58,0.65
		s0.65,0.96,0.65,1.57s-0.22,1.14-0.65,1.58s-0.96,0.65-1.58,0.65c-0.61,0-1.13-0.22-1.57-0.65S335.28,71.75,335.28,71.14z"/>
	<path fill="#5A5A5A" d="M346.96,77.45V64.56h2.57l3.05,9.12c0.28,0.85,0.49,1.49,0.62,1.91c0.15-0.47,0.38-1.16,0.69-2.07
		l3.08-8.96h2.29v12.88h-1.64V66.66l-3.74,10.78h-1.54l-3.73-10.97v10.97H346.96z"/>
	<path fill="#5A5A5A" d="M361.22,72.78c0-1.73,0.48-3.01,1.44-3.84c0.8-0.69,1.78-1.04,2.94-1.04c1.28,0,2.33,0.42,3.15,1.26
		s1.22,2,1.22,3.48c0,1.2-0.18,2.15-0.54,2.83c-0.36,0.69-0.88,1.22-1.57,1.6s-1.44,0.57-2.25,0.57c-1.31,0-2.36-0.42-3.17-1.26
		S361.22,74.36,361.22,72.78z M362.85,72.78c0,1.2,0.26,2.09,0.78,2.68c0.52,0.6,1.18,0.89,1.97,0.89c0.79,0,1.44-0.3,1.96-0.9
		s0.78-1.51,0.78-2.73c0-1.15-0.26-2.03-0.79-2.62c-0.52-0.59-1.18-0.89-1.96-0.89c-0.79,0-1.45,0.3-1.97,0.89
		S362.85,71.58,362.85,72.78z"/>
	<path fill="#5A5A5A" d="M371.82,77.45v-9.33h1.42v1.33c0.69-1.03,1.68-1.54,2.97-1.54c0.56,0,1.08,0.1,1.55,0.3
		c0.47,0.2,0.82,0.47,1.06,0.8s0.4,0.72,0.49,1.17c0.06,0.29,0.09,0.81,0.09,1.54v5.74h-1.58v-5.68c0-0.64-0.06-1.13-0.18-1.45
		s-0.34-0.57-0.65-0.77c-0.31-0.19-0.68-0.29-1.1-0.29c-0.67,0-1.26,0.21-1.74,0.64s-0.73,1.24-0.73,2.43v5.1H371.82z"/>
	<path fill="#5A5A5A" d="M385.29,76.03l0.23,1.4c-0.45,0.09-0.84,0.14-1.2,0.14c-0.57,0-1.02-0.09-1.34-0.27s-0.54-0.42-0.67-0.72
		s-0.19-0.92-0.19-1.87v-5.37h-1.16v-1.23h1.16V65.8l1.57-0.95v3.26h1.59v1.23h-1.59v5.46c0,0.45,0.03,0.74,0.08,0.87
		s0.15,0.23,0.27,0.31s0.31,0.11,0.54,0.11C384.77,76.09,385,76.07,385.29,76.03z"/>
	<path fill="#5A5A5A" d="M386.81,77.45v-9.33h1.42v1.42c0.36-0.66,0.7-1.1,1.01-1.31s0.65-0.32,1.02-0.32
		c0.53,0,1.08,0.17,1.63,0.51l-0.54,1.47c-0.39-0.23-0.77-0.34-1.16-0.34c-0.35,0-0.66,0.1-0.93,0.31s-0.47,0.5-0.59,0.87
		c-0.18,0.56-0.26,1.18-0.26,1.85v4.89H386.81z"/>
	<path fill="#5A5A5A" d="M399.22,74.44l1.63,0.2c-0.26,0.96-0.74,1.7-1.43,2.22s-1.59,0.79-2.67,0.79c-1.37,0-2.45-0.42-3.25-1.26
		c-0.8-0.84-1.2-2.02-1.2-3.54c0-1.57,0.4-2.79,1.21-3.66s1.86-1.3,3.15-1.3c1.25,0,2.27,0.42,3.06,1.27s1.19,2.04,1.19,3.59
		c0,0.09,0,0.23-0.01,0.42h-6.96c0.06,1.03,0.35,1.81,0.87,2.36s1.17,0.82,1.95,0.82c0.58,0,1.08-0.15,1.49-0.46
		S398.98,75.11,399.22,74.44z M394.02,71.88h5.21c-0.07-0.79-0.27-1.37-0.6-1.77c-0.5-0.61-1.16-0.91-1.96-0.91
		c-0.73,0-1.34,0.24-1.83,0.73S394.07,71.07,394.02,71.88z M395.73,66.95l1.17-2.46h2.07l-1.93,2.46H395.73z"/>
	<path fill="#5A5A5A" d="M408.93,76.3c-0.59,0.5-1.15,0.85-1.69,1.05s-1.12,0.31-1.74,0.31c-1.03,0-1.81-0.25-2.36-0.75
		c-0.55-0.5-0.83-1.14-0.83-1.92c0-0.46,0.1-0.88,0.31-1.25c0.21-0.38,0.48-0.68,0.82-0.91s0.72-0.4,1.14-0.52
		c0.31-0.08,0.78-0.16,1.41-0.24c1.28-0.15,2.22-0.33,2.82-0.54c0.01-0.22,0.01-0.35,0.01-0.41c0-0.64-0.15-1.1-0.45-1.36
		c-0.4-0.36-1-0.54-1.8-0.54c-0.74,0-1.29,0.13-1.65,0.39s-0.62,0.72-0.79,1.38l-1.55-0.21c0.14-0.66,0.37-1.2,0.69-1.6
		c0.32-0.41,0.79-0.72,1.4-0.94c0.61-0.22,1.32-0.33,2.12-0.33c0.8,0,1.44,0.09,1.94,0.28s0.86,0.42,1.1,0.71
		c0.23,0.29,0.4,0.64,0.49,1.08c0.05,0.27,0.08,0.76,0.08,1.46v2.11c0,1.47,0.03,2.4,0.1,2.79c0.07,0.39,0.2,0.76,0.4,1.12h-1.65
		C409.08,77.12,408.97,76.74,408.93,76.3z M408.8,72.76c-0.57,0.23-1.44,0.43-2.58,0.6c-0.65,0.09-1.11,0.2-1.38,0.32
		s-0.48,0.29-0.62,0.51s-0.22,0.48-0.22,0.75c0,0.42,0.16,0.77,0.48,1.05s0.79,0.42,1.4,0.42c0.61,0,1.15-0.13,1.63-0.4
		s0.82-0.63,1.05-1.09c0.17-0.36,0.25-0.88,0.25-1.58V72.76z"/>
	<path fill="#5A5A5A" d="M412.81,77.45V64.56h1.58v12.88H412.81z"/>
	<path fill="#5A5A5A" d="M421.62,71.14c0-0.62,0.22-1.14,0.65-1.57s0.96-0.65,1.57-0.65c0.62,0,1.14,0.22,1.58,0.65
		s0.65,0.96,0.65,1.57s-0.22,1.14-0.65,1.58s-0.96,0.65-1.58,0.65c-0.61,0-1.13-0.22-1.57-0.65S421.62,71.75,421.62,71.14z"/>
	<path fill="#5A5A5A" d="M438.67,77.45h-1.58V67.37c-0.38,0.36-0.88,0.73-1.5,1.09s-1.17,0.64-1.67,0.82v-1.53
		c0.88-0.42,1.66-0.92,2.32-1.51s1.13-1.17,1.41-1.72h1.02V77.45z"/>
	<path fill="#5A5A5A" d="M442.96,74.47l1.52-0.14c0.13,0.71,0.38,1.23,0.74,1.56s0.83,0.48,1.4,0.48c0.49,0,0.91-0.11,1.28-0.33
		s0.67-0.52,0.9-0.89s0.43-0.88,0.59-1.51s0.24-1.28,0.24-1.93c0-0.07,0-0.18-0.01-0.32c-0.32,0.5-0.75,0.91-1.3,1.23
		s-1.14,0.47-1.78,0.47c-1.07,0-1.97-0.39-2.71-1.16s-1.11-1.79-1.11-3.06c0-1.31,0.39-2.36,1.16-3.16s1.74-1.2,2.9-1.2
		c0.84,0,1.6,0.23,2.3,0.68s1.22,1.09,1.58,1.93c0.36,0.84,0.54,2.04,0.54,3.63c0,1.65-0.18,2.96-0.54,3.93
		c-0.36,0.98-0.89,1.72-1.6,2.23s-1.53,0.76-2.48,0.76c-1.01,0-1.83-0.28-2.47-0.84S443.09,75.48,442.96,74.47z M449.44,68.78
		c0-0.91-0.24-1.63-0.73-2.16s-1.06-0.8-1.74-0.8c-0.7,0-1.32,0.29-1.84,0.86s-0.78,1.32-0.78,2.23c0,0.82,0.25,1.49,0.74,2
		c0.5,0.51,1.11,0.77,1.83,0.77c0.73,0,1.33-0.26,1.81-0.77C449.2,70.4,449.44,69.69,449.44,68.78z"/>
	<path fill="#5A5A5A" d="M455.17,70.46c-0.66-0.24-1.14-0.58-1.46-1.03s-0.47-0.98-0.47-1.6c0-0.94,0.34-1.73,1.01-2.36
		s1.57-0.96,2.69-0.96c1.12,0,2.03,0.33,2.72,0.98s1.03,1.45,1.03,2.39c0,0.6-0.16,1.12-0.47,1.56c-0.31,0.44-0.79,0.78-1.43,1.02
		c0.79,0.26,1.39,0.67,1.81,1.25s0.62,1.26,0.62,2.06c0,1.1-0.39,2.03-1.17,2.78s-1.8,1.12-3.08,1.12s-2.3-0.38-3.08-1.13
		c-0.78-0.75-1.17-1.69-1.17-2.82c0-0.84,0.21-1.54,0.64-2.11C453.78,71.05,454.38,70.67,455.17,70.46z M454.34,73.73
		c0,0.45,0.11,0.89,0.32,1.31s0.53,0.75,0.95,0.98s0.88,0.35,1.36,0.35c0.76,0,1.38-0.24,1.87-0.73s0.74-1.1,0.74-1.85
		c0-0.76-0.25-1.39-0.76-1.89s-1.14-0.75-1.9-0.75c-0.74,0-1.36,0.25-1.85,0.74S454.34,72.99,454.34,73.73z M454.85,67.78
		c0,0.61,0.2,1.11,0.59,1.49s0.9,0.58,1.53,0.58c0.61,0,1.11-0.19,1.5-0.58c0.39-0.38,0.58-0.85,0.58-1.41c0-0.58-0.2-1.07-0.6-1.46
		c-0.4-0.4-0.9-0.59-1.5-0.59c-0.6,0-1.1,0.19-1.5,0.58S454.85,67.24,454.85,67.78z"/>
	<path fill="#5A5A5A" d="M465.18,70.46c-0.66-0.24-1.14-0.58-1.46-1.03s-0.47-0.98-0.47-1.6c0-0.94,0.34-1.73,1.01-2.36
		s1.57-0.96,2.69-0.96c1.12,0,2.03,0.33,2.72,0.98s1.03,1.45,1.03,2.39c0,0.6-0.16,1.12-0.47,1.56c-0.31,0.44-0.79,0.78-1.43,1.02
		c0.79,0.26,1.39,0.67,1.81,1.25s0.62,1.26,0.62,2.06c0,1.1-0.39,2.03-1.17,2.78s-1.8,1.12-3.08,1.12s-2.3-0.38-3.08-1.13
		c-0.78-0.75-1.17-1.69-1.17-2.82c0-0.84,0.21-1.54,0.64-2.11C463.79,71.05,464.39,70.67,465.18,70.46z M464.35,73.73
		c0,0.45,0.11,0.89,0.32,1.31s0.53,0.75,0.95,0.98s0.88,0.35,1.36,0.35c0.76,0,1.38-0.24,1.87-0.73s0.74-1.1,0.74-1.85
		c0-0.76-0.25-1.39-0.76-1.89s-1.14-0.75-1.9-0.75c-0.74,0-1.36,0.25-1.85,0.74S464.35,72.99,464.35,73.73z M464.86,67.78
		c0,0.61,0.2,1.11,0.59,1.49s0.9,0.58,1.53,0.58c0.61,0,1.11-0.19,1.5-0.58c0.39-0.38,0.58-0.85,0.58-1.41c0-0.58-0.2-1.07-0.6-1.46
		c-0.4-0.4-0.9-0.59-1.5-0.59c-0.6,0-1.1,0.19-1.5,0.58S464.86,67.24,464.86,67.78z"/>
</g>
</svg>
