<?xml version="1.0" encoding="iso-8859-1"?>
<!-- Generator: Adobe Illustrator 29.8.4, SVG Export Plug-In . SVG Version: 9.03 Build 0)  -->
<svg version="1.1" id="Layer_1" xmlns="http://www.w3.org/2000/svg" xmlns:xlink="http://www.w3.org/1999/xlink" x="0px" y="0px"
	 viewBox="0 0 1500 397" enable-background="new 0 0 1500 397" xml:space="preserve">
<rect id="bg-white" fill="#FFFFFF" width="1500" height="397"/>
<line fill="none" stroke="#FFCD00" stroke-width="8" stroke-linecap="round" stroke-miterlimit="10" x1="95" y1="362" x2="1405" y2="362"/>
<circle fill="#FFFFFF" stroke="#000000" stroke-width="3" stroke-miterlimit="10" cx="95" cy="362" r="10"/>
<g>
	<path d="M100.03,347.63l-10.95-2.93l0.73-2.71c0.33-1.24,0.79-2.07,1.37-2.5c0.69-0.52,1.52-0.65,2.49-0.39
		c0.6,0.16,1.09,0.44,1.45,0.83c0.17,0.21,0.31,0.53,0.45,0.96c0.32-0.62,0.68-1.03,1.07-1.24c0.66-0.38,1.44-0.46,2.33-0.22
		s1.53,0.75,1.93,1.54c0.4,0.79,0.44,1.78,0.12,2.97L100.03,347.63z M94.21,343.79l0.16-0.61c0.3-1.11-0.03-1.79-0.97-2.04
		c-0.95-0.25-1.57,0.17-1.86,1.25l-0.17,0.64L94.21,343.79z M98.87,345.04l0.25-0.92c0.38-1.42,0.07-2.27-0.94-2.54
		c-0.55-0.15-1.02-0.04-1.39,0.31c-0.29,0.26-0.54,0.77-0.74,1.53l-0.21,0.8L98.87,345.04z"/>
	<path d="M101.09,330.73l-1.43,5.33c1.29,0.29,2.08-0.12,2.37-1.23c0.18-0.69,0.01-1.34-0.5-1.95l0.79-1.76
		c1.31,1.01,1.74,2.37,1.29,4.07c-0.31,1.16-0.9,1.99-1.78,2.51s-1.88,0.61-3.03,0.3c-1.15-0.31-1.97-0.89-2.48-1.75
		c-0.51-0.87-0.61-1.86-0.31-2.99c0.3-1.13,0.89-1.93,1.74-2.39c0.86-0.47,1.88-0.54,3.08-0.22L101.09,330.73z M98.41,335.66
		l0.9-3.37c-1-0.04-1.62,0.41-1.86,1.31C97.22,334.48,97.56,335.25,98.41,335.66z"/>
	<path d="M105.26,328.1l-0.53,1.99l-7.11-1.91l0.53-1.99l1.08,0.29c-0.74-0.72-1-1.53-0.75-2.42c0.08-0.28,0.21-0.55,0.41-0.82
		l1.78,0.78c-0.25,0.25-0.41,0.54-0.49,0.88c-0.3,1.14,0.26,1.9,1.67,2.28L105.26,328.1z"/>
	<path d="M106.86,322.13l-0.53,1.99l-7.11-1.91l0.53-1.99l1.08,0.29c-0.74-0.72-1-1.53-0.75-2.42c0.07-0.28,0.21-0.55,0.41-0.82
		l1.78,0.78c-0.25,0.25-0.41,0.54-0.49,0.88c-0.3,1.14,0.26,1.9,1.67,2.28L106.86,322.13z"/>
	<path d="M96.88,314.12c0.09-0.33,0.28-0.58,0.57-0.75c0.29-0.17,0.61-0.21,0.93-0.12c0.33,0.09,0.58,0.29,0.76,0.58
		c0.18,0.3,0.22,0.62,0.13,0.95c-0.09,0.33-0.28,0.58-0.58,0.75c-0.29,0.17-0.62,0.21-0.95,0.12c-0.33-0.09-0.58-0.29-0.75-0.59
		C96.83,314.77,96.79,314.45,96.88,314.12z M101.34,314.27l7.11,1.91l-0.53,1.98l-7.11-1.91L101.34,314.27z"/>
	<path d="M104.11,314.03l0.99-3.7l1.65,0.44l-0.99,3.7L104.11,314.03z"/>
	<path d="M99.65,305.23l6.27,1.68c0.55,0.15,0.97,0.23,1.23,0.26c0.27,0.03,0.56,0,0.89-0.1c0.64-0.18,1.25-0.83,1.47-1.63
		c0.21-0.8,0.01-1.67-0.46-2.14c-0.24-0.24-0.47-0.42-0.71-0.53c-0.24-0.11-0.64-0.24-1.2-0.39l-6.27-1.68l0.57-2.13l6.7,1.8
		c1.23,0.33,2.13,0.86,2.7,1.58c0.39,0.52,0.64,1.12,0.75,1.83c0.12,0.71,0.07,1.44-0.13,2.18c-0.2,0.75-0.52,1.4-0.98,1.96
		c-0.45,0.56-0.97,0.97-1.57,1.22c-0.86,0.35-1.9,0.35-3.13,0.02l-6.7-1.8L99.65,305.23z"/>
	<path d="M107.45,298.09c-1.61-0.43-2.82-1.37-3.62-2.8c-0.8-1.43-0.98-2.98-0.54-4.64c0.44-1.66,1.37-2.9,2.78-3.73
		c1.41-0.83,2.92-1.03,4.54-0.6c1.42,0.38,2.59,1.24,3.49,2.59l2.24-1.3l-0.37,2.2l-1.25,0.64c0.3,1.05,0.3,2.14,0.02,3.24
		c-0.45,1.68-1.37,2.93-2.77,3.78C110.57,298.31,109.06,298.52,107.45,298.09z M112.08,289.98c-0.48-0.74-1.22-1.24-2.2-1.5
		c-0.99-0.26-1.93-0.14-2.85,0.38c-0.91,0.52-1.51,1.3-1.78,2.33c-0.28,1.04-0.15,2.01,0.39,2.91c0.54,0.91,1.34,1.5,2.42,1.79
		s2.06,0.17,2.96-0.33c0.9-0.51,1.48-1.27,1.76-2.3c0.17-0.62,0.16-1.18-0.02-1.7l-2.63,1.56l0.41-2.26L112.08,289.98z"/>
	<path d="M115.98,278.81l-1.2,4.48l2.05,1.61l-0.61,2.27l-9.91-7.74l0.43-1.61l12.42-1.6l-0.61,2.29L115.98,278.81z M114.08,279.02
		l-4.35,0.48l3.51,2.64L114.08,279.02z"/>
	<path d="M119.35,275.51l-10.61-5.03l0.39-1.46l7.96-1.07l-6.33-5.02l0.39-1.47l11.64,1.16l-0.58,2.16l-7.01-0.82l6.09,4.85
		l-0.16,0.59l-7.67,1.06l6.46,2.91L119.35,275.51z"/>
</g>
<circle fill="#FFFFFF" stroke="#000000" stroke-width="3" stroke-miterlimit="10" cx="750" cy="362" r="10"/>
<g>
	<path d="M745.23,340.38l7.39,1.98c1.44,0.38,2.37,0.98,2.81,1.79c0.36,0.69,0.41,1.49,0.17,2.38c-0.24,0.89-0.8,1.62-1.69,2.16
		l-1.22-1.69c0.49-0.17,0.8-0.48,0.92-0.94c0.12-0.46-0.01-0.82-0.41-1.09c-0.24-0.17-0.74-0.35-1.5-0.57l-7.05-1.89L745.23,340.38z
		"/>
	<path d="M755.42,333.25l-1.43,5.33c1.29,0.29,2.08-0.12,2.37-1.23c0.19-0.69,0.02-1.34-0.5-1.95l0.79-1.76
		c1.31,1.01,1.74,2.37,1.29,4.07c-0.31,1.16-0.9,1.99-1.78,2.51c-0.88,0.51-1.88,0.61-3.03,0.3c-1.15-0.31-1.97-0.89-2.48-1.75
		c-0.51-0.87-0.61-1.86-0.31-2.99s0.89-1.93,1.74-2.4c0.86-0.47,1.88-0.54,3.08-0.21L755.42,333.25z M752.74,338.18l0.9-3.37
		c-1-0.03-1.62,0.41-1.86,1.31C751.54,337,751.89,337.77,752.74,338.18z"/>
	<path d="M753.4,325.25l0.53-1.99l7.11,1.91l-0.53,1.99l-0.92-0.25c0.6,0.82,0.77,1.71,0.51,2.68c-0.26,0.97-0.84,1.69-1.74,2.16
		c-0.9,0.47-1.89,0.57-2.95,0.28c-1.07-0.29-1.88-0.87-2.43-1.73c-0.55-0.86-0.7-1.77-0.44-2.71c0.25-0.95,0.85-1.64,1.79-2.1
		L753.4,325.25z M754.49,327.44c-0.15,0.56-0.08,1.09,0.2,1.57c0.28,0.5,0.7,0.82,1.25,0.96c0.55,0.15,1.08,0.08,1.57-0.21
		c0.5-0.29,0.82-0.7,0.96-1.25c0.15-0.54,0.08-1.07-0.21-1.57c-0.28-0.5-0.69-0.81-1.25-0.96c-0.55-0.15-1.07-0.08-1.56,0.19
		C754.96,326.47,754.64,326.89,754.49,327.44z"/>
	<path d="M754.44,321.36l0.53-1.99l0.89,0.24c-0.65-0.83-0.78-1.57-0.52-2.53c0.23-0.87,0.7-1.49,1.41-1.84
		c0.53-0.26,1.23-0.27,2.12-0.03l4.51,1.21l-0.53,1.99l-3.95-1.06c-0.54-0.15-0.95-0.18-1.2-0.11c-0.43,0.11-0.72,0.44-0.87,1.01
		c-0.27,1,0.25,1.68,1.57,2.04l3.68,0.99l-0.53,1.99L754.44,321.36z"/>
	<path d="M759.05,314.24l0.99-3.7l1.65,0.44l-0.99,3.7L759.05,314.24z"/>
	<path d="M764.97,310.52l-10.95-2.93l0.84-3.13c0.43-1.6,1.2-2.79,2.32-3.58c0.67-0.48,1.42-0.8,2.25-0.95
		c0.83-0.15,1.65-0.11,2.47,0.11c0.82,0.22,1.55,0.6,2.2,1.15c0.65,0.55,1.15,1.21,1.49,1.97c0.58,1.22,0.65,2.63,0.22,4.24
		L764.97,310.52z M763.69,307.89l0.15-0.58c0.35-1.31,0.32-2.35-0.09-3.15c-0.45-0.92-1.39-1.64-2.44-1.93
		c-1.11-0.3-2.13-0.15-3.04,0.46c-0.77,0.5-1.33,1.39-1.67,2.68l-0.15,0.58L763.69,307.89z"/>
	<path d="M768.36,297.86l-0.53,1.99l-7.11-1.91l0.53-1.99l1.08,0.29c-0.74-0.72-1-1.53-0.75-2.42c0.08-0.28,0.21-0.55,0.41-0.82
		l1.78,0.78c-0.25,0.25-0.41,0.54-0.49,0.88c-0.3,1.14,0.26,1.9,1.68,2.28L768.36,297.86z"/>
	<path d="M763.75,286.64l0.53-1.99l7.11,1.91l-0.53,1.99l-0.92-0.25c0.6,0.82,0.77,1.71,0.51,2.68s-0.84,1.69-1.74,2.16
		c-0.9,0.47-1.89,0.57-2.95,0.28c-1.07-0.29-1.88-0.86-2.43-1.73c-0.55-0.86-0.69-1.77-0.44-2.71c0.25-0.95,0.85-1.64,1.79-2.1
		L763.75,286.64z M764.83,288.83c-0.15,0.56-0.08,1.09,0.2,1.57c0.28,0.5,0.7,0.82,1.25,0.96c0.55,0.15,1.08,0.08,1.57-0.21
		c0.5-0.29,0.82-0.7,0.96-1.25c0.15-0.54,0.08-1.07-0.21-1.57c-0.28-0.5-0.69-0.81-1.25-0.96c-0.55-0.15-1.07-0.08-1.56,0.19
		C765.3,287.86,764.98,288.28,764.83,288.83z"/>
	<path d="M776.22,283.69l-0.53,1.99l-10.9-2.92l0.53-1.99l0.92,0.25c-0.6-0.82-0.77-1.71-0.51-2.67c0.26-0.96,0.84-1.68,1.74-2.16
		c0.9-0.48,1.89-0.58,2.96-0.29s1.88,0.87,2.43,1.73c0.55,0.86,0.7,1.77,0.44,2.71c-0.25,0.94-0.85,1.64-1.8,2.1L776.22,283.69z
		 M767.36,279.41c-0.15,0.55-0.08,1.07,0.2,1.57c0.28,0.5,0.7,0.82,1.25,0.96c0.55,0.15,1.08,0.08,1.57-0.21
		c0.5-0.29,0.81-0.7,0.96-1.25c0.15-0.54,0.08-1.07-0.21-1.57c-0.28-0.5-0.69-0.82-1.24-0.97c-0.55-0.15-1.07-0.08-1.57,0.21
		C767.83,278.44,767.51,278.85,767.36,279.41z"/>
	<path d="M773.04,267.46l-1.43,5.33c1.29,0.29,2.08-0.12,2.37-1.23c0.18-0.69,0.01-1.34-0.5-1.95l0.79-1.76
		c1.31,1.01,1.74,2.37,1.29,4.07c-0.31,1.16-0.9,1.99-1.78,2.5c-0.88,0.51-1.88,0.61-3.03,0.31c-1.15-0.31-1.97-0.89-2.48-1.75
		s-0.61-1.86-0.31-2.99s0.89-1.93,1.74-2.4c0.86-0.47,1.88-0.54,3.07-0.22L773.04,267.46z M770.37,272.39l0.9-3.37
		c-1-0.04-1.62,0.41-1.86,1.31C769.17,271.21,769.51,271.98,770.37,272.39z"/>
	<path d="M771.03,259.46l0.53-1.99l7.11,1.91l-0.53,1.99l-0.92-0.25c0.6,0.82,0.77,1.71,0.51,2.68s-0.84,1.69-1.74,2.16
		c-0.9,0.47-1.89,0.57-2.95,0.28c-1.07-0.29-1.88-0.87-2.43-1.73c-0.55-0.86-0.69-1.77-0.44-2.71c0.25-0.95,0.85-1.64,1.79-2.1
		L771.03,259.46z M772.12,261.65c-0.15,0.56-0.08,1.09,0.2,1.57c0.28,0.5,0.7,0.81,1.25,0.96s1.08,0.08,1.57-0.21
		c0.5-0.29,0.82-0.7,0.96-1.25c0.15-0.55,0.08-1.07-0.21-1.57c-0.28-0.5-0.69-0.81-1.25-0.96c-0.55-0.15-1.07-0.08-1.56,0.19
		C772.58,260.68,772.27,261.1,772.12,261.65z"/>
	<path d="M772.6,253.58l4.03,1.08c1.08,0.29,1.76-0.04,2.02-1.02c0.26-0.97-0.16-1.6-1.24-1.89l-4.03-1.08l0.53-1.99l4.35,1.17
		c1.92,0.52,2.66,2.02,2.07,4.23c-0.59,2.21-1.99,3.16-3.91,2.65l-4.35-1.17L772.6,253.58z"/>
</g>
<circle fill="#FFFFFF" stroke="#000000" stroke-width="3" stroke-miterlimit="10" cx="1405" cy="362" r="10"/>
<g>
	<path d="M1399.64,342.57l9.1,2.44l0.9-3.37l1.85,0.5l-1.47,5.5l-10.95-2.93L1399.64,342.57z"/>
	<path d="M1405.49,335.21c0.32-1.19,0.93-2.07,1.83-2.63c0.9-0.56,1.91-0.69,3.04-0.39c1.12,0.3,1.94,0.92,2.43,1.86
		c0.49,0.95,0.58,2.02,0.26,3.23c-0.32,1.21-0.95,2.08-1.86,2.64c-0.91,0.55-1.92,0.68-3.03,0.38c-1.11-0.3-1.92-0.93-2.41-1.88
		C1405.25,337.49,1405.17,336.41,1405.49,335.21z M1407.27,335.71c-0.15,0.55-0.08,1.08,0.2,1.57c0.28,0.5,0.7,0.82,1.25,0.97
		s1.08,0.08,1.57-0.21c0.5-0.29,0.82-0.71,0.96-1.26c0.15-0.55,0.08-1.09-0.2-1.58c-0.28-0.5-0.69-0.81-1.25-0.96
		s-1.07-0.08-1.57,0.21S1407.42,335.16,1407.27,335.71z"/>
	<path d="M1407.21,329.71l0.53-1.99l0.89,0.24c-0.65-0.83-0.78-1.57-0.52-2.53c0.23-0.87,0.7-1.49,1.41-1.84
		c0.53-0.26,1.23-0.27,2.12-0.03l4.51,1.21l-0.53,1.99l-3.95-1.06c-0.54-0.15-0.95-0.18-1.2-0.11c-0.43,0.11-0.72,0.44-0.87,1.01
		c-0.27,1,0.25,1.68,1.57,2.04l3.68,0.99l-0.53,1.99L1407.21,329.71z"/>
	<path d="M1411.54,313.54l6.85,1.83c0.73,0.2,1.28,0.4,1.65,0.62c0.37,0.23,0.69,0.54,0.95,0.93c0.65,0.92,0.79,2.07,0.42,3.44
		c-0.37,1.37-1.17,2.28-2.4,2.73c-0.52,0.19-1.04,0.24-1.56,0.16l0.58-2.17c0.91,0.03,1.48-0.41,1.73-1.32
		c0.14-0.54,0.09-1.03-0.16-1.47c-0.23-0.38-0.69-0.66-1.36-0.85l-1.07-0.29c0.32,0.49,0.53,0.94,0.62,1.35
		c0.08,0.42,0.06,0.88-0.08,1.38c-0.26,0.97-0.82,1.69-1.69,2.14c-0.87,0.45-1.85,0.54-2.94,0.24s-1.92-0.87-2.48-1.72
		c-0.55-0.85-0.71-1.76-0.45-2.72c0.26-0.96,0.86-1.65,1.79-2.07l-0.92-0.25L1411.54,313.54z M1412.1,317.69
		c-0.15,0.55-0.08,1.07,0.2,1.57c0.28,0.5,0.7,0.82,1.25,0.96c0.55,0.15,1.08,0.08,1.57-0.21c0.5-0.29,0.81-0.7,0.96-1.25
		c0.15-0.54,0.08-1.07-0.21-1.57c-0.28-0.5-0.69-0.81-1.25-0.96c-0.55-0.15-1.07-0.08-1.57,0.2
		C1412.57,316.72,1412.25,317.14,1412.1,317.69z"/>
	<path d="M1412.58,309.65l4.03,1.08c1.08,0.29,1.76-0.04,2.02-1.01c0.26-0.97-0.16-1.6-1.24-1.89l-4.03-1.08l0.53-1.99l4.35,1.17
		c1.92,0.52,2.66,2.02,2.07,4.23c-0.59,2.21-1.99,3.16-3.91,2.65l-4.35-1.17L1412.58,309.65z"/>
	<path d="M1420.16,296.9l-1.43,5.33c1.29,0.29,2.08-0.12,2.37-1.23c0.18-0.69,0.01-1.34-0.5-1.95l0.79-1.76
		c1.31,1.01,1.74,2.36,1.29,4.07c-0.31,1.16-0.9,1.99-1.78,2.5c-0.88,0.51-1.88,0.61-3.03,0.31c-1.15-0.31-1.97-0.89-2.48-1.75
		c-0.51-0.87-0.61-1.86-0.31-2.99c0.3-1.13,0.89-1.93,1.74-2.4c0.86-0.47,1.88-0.54,3.08-0.22L1420.16,296.9z M1417.48,301.83
		l0.9-3.37c-1-0.04-1.62,0.41-1.87,1.31C1416.28,300.65,1416.62,301.42,1417.48,301.83z"/>
	<path d="M1417.21,292.37l4.03,1.08c1.08,0.29,1.76-0.04,2.02-1.02c0.26-0.97-0.16-1.6-1.24-1.89l-4.03-1.08l0.53-1.99l4.35,1.17
		c1.92,0.52,2.66,2.02,2.07,4.23c-0.59,2.21-1.99,3.16-3.91,2.65l-4.35-1.17L1417.21,292.37z"/>
	<path d="M1415.09,283.47c0.09-0.33,0.28-0.58,0.57-0.75c0.29-0.17,0.61-0.21,0.93-0.12c0.33,0.09,0.58,0.29,0.76,0.58
		c0.18,0.3,0.22,0.62,0.13,0.95s-0.28,0.58-0.58,0.75s-0.62,0.21-0.94,0.12c-0.33-0.09-0.59-0.29-0.75-0.59
		C1415.04,284.12,1415,283.8,1415.09,283.47z M1419.55,283.63l7.11,1.91l-0.53,1.98l-7.11-1.91L1419.55,283.63z"/>
	<path d="M1415.4,278.37l12.3,3.3l-0.53,1.99l-12.3-3.29L1415.4,278.37z"/>
	<path d="M1423.36,279.49l0.99-3.7l1.65,0.44l-0.99,3.7L1423.36,279.49z"/>
	<path d="M1418.9,270.7l6.27,1.68c0.55,0.15,0.97,0.23,1.23,0.26c0.27,0.03,0.56,0,0.89-0.1c0.64-0.18,1.25-0.83,1.47-1.63
		c0.21-0.8,0.01-1.67-0.46-2.14c-0.24-0.24-0.47-0.42-0.71-0.53c-0.24-0.11-0.64-0.24-1.2-0.39l-6.27-1.68l0.57-2.13l6.7,1.8
		c1.23,0.33,2.13,0.86,2.7,1.58c0.39,0.52,0.64,1.12,0.75,1.83c0.12,0.71,0.07,1.44-0.13,2.18c-0.2,0.75-0.52,1.4-0.98,1.96
		c-0.45,0.56-0.97,0.97-1.57,1.22c-0.86,0.35-1.9,0.35-3.13,0.02l-6.7-1.8L1418.9,270.7z"/>
	<path d="M1425.13,262.83l0.53-1.99l0.89,0.24c-0.65-0.83-0.78-1.57-0.52-2.53c0.23-0.87,0.7-1.49,1.41-1.84
		c0.52-0.26,1.23-0.27,2.12-0.03l4.51,1.21l-0.53,1.99l-3.94-1.06c-0.54-0.15-0.95-0.19-1.2-0.11c-0.43,0.11-0.72,0.44-0.87,1.01
		c-0.27,1,0.25,1.68,1.57,2.04l3.68,0.99l-0.53,1.99L1425.13,262.83z"/>
	<path d="M1423.53,251.98c0.09-0.33,0.28-0.58,0.57-0.75c0.29-0.17,0.61-0.21,0.93-0.12c0.33,0.09,0.59,0.29,0.76,0.58
		c0.18,0.3,0.22,0.62,0.13,0.95c-0.09,0.33-0.28,0.58-0.58,0.75c-0.29,0.17-0.62,0.21-0.94,0.12s-0.58-0.29-0.75-0.59
		C1423.48,252.63,1423.44,252.31,1423.53,251.98z M1427.99,252.13l7.11,1.91l-0.53,1.98l-7.11-1.91L1427.99,252.13z"/>
	<path d="M1428.86,248.9l4.53-0.79l-3.53-2.93l0.6-2.24l6.28,5.61l-0.24,0.9l-8.23,1.69L1428.86,248.9z"/>
	<path d="M1436.38,236.36l-1.43,5.33c1.29,0.29,2.08-0.12,2.37-1.23c0.18-0.69,0.01-1.34-0.5-1.95l0.79-1.76
		c1.31,1.01,1.74,2.37,1.29,4.07c-0.31,1.16-0.9,1.99-1.78,2.51c-0.88,0.51-1.88,0.61-3.03,0.31c-1.15-0.31-1.97-0.89-2.48-1.76
		c-0.51-0.87-0.61-1.86-0.31-2.99c0.3-1.13,0.89-1.93,1.74-2.39c0.86-0.47,1.88-0.54,3.08-0.22L1436.38,236.36z M1433.7,241.29
		l0.9-3.37c-1-0.04-1.62,0.41-1.86,1.31C1432.5,240.11,1432.85,240.88,1433.7,241.29z"/>
	<path d="M1440.55,233.73l-0.53,1.99l-7.11-1.91l0.53-1.99l1.08,0.29c-0.74-0.72-1-1.53-0.75-2.42c0.08-0.28,0.21-0.55,0.41-0.82
		l1.78,0.78c-0.25,0.25-0.41,0.54-0.5,0.88c-0.3,1.14,0.26,1.9,1.68,2.28L1440.55,233.73z"/>
	<path d="M1437.17,224.52c-0.42,0.33-0.68,0.64-0.76,0.94c-0.08,0.3-0.08,0.53-0.01,0.71c0.08,0.18,0.21,0.3,0.37,0.34
		s0.32,0.01,0.47-0.11c0.14-0.12,0.38-0.44,0.72-0.94c0.34-0.5,0.65-0.87,0.92-1.08c0.5-0.42,1.11-0.55,1.82-0.35
		c0.71,0.19,1.24,0.63,1.56,1.31c0.33,0.69,0.38,1.48,0.14,2.35c-0.29,1.07-0.92,1.87-1.91,2.38l-0.93-1.37
		c0.7-0.4,1.13-0.89,1.28-1.46c0.14-0.5-0.11-1-0.53-1.11c-0.22-0.06-0.39-0.04-0.54,0.07c-0.14,0.11-0.4,0.42-0.76,0.94
		c-0.36,0.52-0.65,0.87-0.88,1.04c-0.46,0.38-1.01,0.49-1.67,0.31c-0.67-0.18-1.14-0.56-1.43-1.16c-0.3-0.59-0.34-1.29-0.12-2.09
		s0.67-1.47,1.36-2.02L1437.17,224.52z"/>
	<path d="M1432.31,219.22c0.09-0.33,0.28-0.58,0.57-0.75c0.29-0.17,0.61-0.21,0.93-0.12c0.33,0.09,0.59,0.29,0.76,0.58
		c0.18,0.3,0.22,0.62,0.13,0.95c-0.09,0.33-0.28,0.58-0.58,0.75c-0.29,0.17-0.62,0.21-0.94,0.13s-0.58-0.29-0.75-0.59
		C1432.26,219.87,1432.22,219.55,1432.31,219.22z M1436.77,219.37l7.11,1.91l-0.53,1.98l-7.11-1.91L1436.77,219.37z"/>
	<path d="M1439.53,215.95l5.39,1.44l-0.53,1.99l-5.39-1.44l-0.21,0.79l-1.72-0.46l0.21-0.79l-2.43-0.65l0.53-1.99l2.43,0.65
		l0.38-1.41l1.72,0.46L1439.53,215.95z"/>
	<path d="M1436.51,206.48l1.56,3.06l-0.91,0.78l-1.96-2.62L1436.51,206.48z M1444.23,207.07l-1.43,5.33
		c1.29,0.29,2.08-0.12,2.37-1.23c0.18-0.69,0.01-1.34-0.5-1.95l0.79-1.76c1.31,1.01,1.74,2.36,1.29,4.07
		c-0.31,1.16-0.9,1.99-1.78,2.5c-0.88,0.51-1.88,0.61-3.03,0.31c-1.15-0.31-1.97-0.89-2.48-1.75s-0.61-1.86-0.31-2.99
		s0.89-1.93,1.74-2.4c0.86-0.47,1.88-0.54,3.08-0.22L1444.23,207.07z M1441.55,212l0.9-3.37c-1-0.04-1.62,0.41-1.86,1.31
		C1440.35,210.82,1440.7,211.59,1441.55,212z"/>
	<path d="M1443.2,205.45l0.99-3.7l1.65,0.44l-0.99,3.7L1443.2,205.45z"/>
	<path d="M1438.2,193.29l0.53-1.99l12.3,3.3l-0.53,1.99l-0.92-0.25c0.6,0.82,0.77,1.71,0.51,2.68c-0.26,0.97-0.84,1.69-1.74,2.16
		c-0.9,0.47-1.89,0.57-2.95,0.28c-1.07-0.29-1.88-0.87-2.43-1.73c-0.55-0.86-0.7-1.77-0.44-2.71c0.25-0.95,0.85-1.65,1.79-2.1
		L1438.2,193.29z M1444.48,196.87c-0.15,0.56-0.08,1.09,0.2,1.57c0.28,0.5,0.7,0.82,1.25,0.96s1.08,0.08,1.57-0.21
		c0.5-0.29,0.81-0.7,0.96-1.25c0.15-0.54,0.08-1.07-0.21-1.57c-0.28-0.5-0.69-0.81-1.25-0.96c-0.55-0.15-1.07-0.08-1.56,0.19
		C1444.94,195.89,1444.62,196.32,1444.48,196.87z"/>
	<path d="M1450.18,184.84l-1.43,5.33c1.29,0.29,2.08-0.12,2.37-1.23c0.18-0.69,0.01-1.34-0.5-1.95l0.79-1.76
		c1.31,1.01,1.74,2.37,1.29,4.08c-0.31,1.16-0.9,1.99-1.78,2.5c-0.88,0.51-1.88,0.61-3.03,0.31s-1.97-0.89-2.48-1.75
		c-0.51-0.87-0.61-1.86-0.31-2.99c0.3-1.13,0.89-1.93,1.74-2.4c0.86-0.47,1.88-0.54,3.08-0.22L1450.18,184.84z M1447.51,189.77
		l0.9-3.37c-1-0.04-1.62,0.41-1.86,1.31C1446.31,188.59,1446.65,189.36,1447.51,189.77z"/>
	<path d="M1449.16,183.21l0.99-3.7l1.65,0.44l-0.99,3.7L1449.16,183.21z"/>
	<path d="M1447.55,174.94c0.31,0.08,0.6,0.04,0.85-0.14c0.26-0.18,0.66-0.65,1.21-1.42c0.55-0.77,1.04-1.3,1.49-1.6
		c0.72-0.5,1.59-0.61,2.62-0.34s1.79,0.86,2.27,1.73c0.48,0.88,0.57,1.89,0.26,3.03c-0.42,1.55-1.45,2.61-3.09,3.2l-0.96-1.74
		c1.11-0.25,1.8-0.88,2.07-1.9c0.13-0.49,0.1-0.94-0.11-1.33c-0.2-0.39-0.53-0.65-0.99-0.77c-0.46-0.12-0.87-0.03-1.25,0.29
		c-0.19,0.15-0.57,0.64-1.14,1.46c-0.57,0.82-1.14,1.37-1.69,1.66s-1.19,0.33-1.91,0.14c-0.92-0.25-1.6-0.77-2.02-1.58
		s-0.51-1.7-0.25-2.69c0.33-1.22,1.02-2.18,2.08-2.9l1.16,1.51c-0.73,0.36-1.19,0.88-1.36,1.54c-0.12,0.44-0.09,0.83,0.06,1.19
		C1447,174.63,1447.24,174.85,1447.55,174.94z"/>
	<path d="M1445.17,167.26l0.53-1.99l6.11,1.64c-0.61-0.79-0.79-1.63-0.55-2.53c0.24-0.9,0.71-1.51,1.42-1.84
		c0.55-0.26,1.26-0.26,2.16-0.02l4.47,1.2l-0.53,1.99l-3.89-1.04c-0.57-0.15-0.98-0.19-1.24-0.12c-0.44,0.11-0.74,0.45-0.89,1.01
		c-0.27,1,0.26,1.69,1.6,2.04l3.65,0.98l-0.53,1.99L1445.17,167.26z"/>
	<path d="M1458.46,153.95l-1.43,5.33c1.29,0.29,2.08-0.12,2.37-1.23c0.18-0.69,0.01-1.34-0.5-1.95l0.79-1.76
		c1.31,1.01,1.74,2.36,1.29,4.07c-0.31,1.16-0.9,1.99-1.78,2.51c-0.88,0.51-1.88,0.61-3.03,0.31c-1.15-0.31-1.97-0.89-2.48-1.76
		s-0.61-1.86-0.31-2.99c0.3-1.13,0.89-1.93,1.74-2.39c0.86-0.47,1.88-0.54,3.08-0.22L1458.46,153.95z M1455.78,158.88l0.9-3.37
		c-1-0.04-1.62,0.41-1.87,1.31C1454.59,157.7,1454.93,158.47,1455.78,158.88z"/>
	<path d="M1462.63,151.32l-0.53,1.99l-7.11-1.91l0.53-1.99l1.08,0.29c-0.74-0.72-1-1.53-0.75-2.42c0.08-0.28,0.21-0.55,0.41-0.82
		l1.78,0.78c-0.25,0.25-0.41,0.54-0.49,0.88c-0.31,1.14,0.26,1.9,1.67,2.28L1462.63,151.32z"/>
	<path d="M1451.93,142.05l6.11,1.64c-0.58-0.87-0.75-1.78-0.5-2.73s0.83-1.65,1.73-2.12c0.9-0.47,1.89-0.56,2.97-0.27
		c1.08,0.29,1.89,0.86,2.44,1.72c0.54,0.86,0.68,1.77,0.42,2.74c-0.26,0.97-0.86,1.66-1.79,2.07l0.92,0.25l-0.53,1.99l-12.3-3.3
		L1451.93,142.05z M1459.16,142.08c-0.15,0.55-0.08,1.07,0.2,1.57c0.28,0.5,0.7,0.81,1.25,0.96s1.08,0.08,1.57-0.21
		c0.5-0.29,0.82-0.7,0.96-1.25c0.15-0.55,0.08-1.07-0.21-1.57c-0.28-0.5-0.69-0.82-1.24-0.97c-0.55-0.15-1.07-0.08-1.57,0.21
		C1459.62,141.12,1459.3,141.53,1459.16,142.08z"/>
	<path d="M1466.73,136.01l-0.53,1.99l-7.11-1.91l0.53-1.99l1.08,0.29c-0.74-0.72-1-1.53-0.75-2.42c0.08-0.28,0.21-0.55,0.41-0.82
		l1.78,0.78c-0.25,0.25-0.41,0.54-0.49,0.88c-0.31,1.14,0.26,1.9,1.67,2.28L1466.73,136.01z"/>
	<path d="M1461.42,126.49c0.32-1.19,0.93-2.07,1.83-2.63c0.9-0.56,1.91-0.69,3.04-0.39s1.94,0.92,2.43,1.86
		c0.49,0.95,0.58,2.02,0.26,3.23c-0.32,1.21-0.94,2.08-1.86,2.64c-0.91,0.55-1.92,0.68-3.03,0.38c-1.12-0.3-1.92-0.93-2.41-1.87
		C1461.18,128.76,1461.1,127.68,1461.42,126.49z M1463.2,126.99c-0.15,0.55-0.08,1.08,0.2,1.57c0.28,0.5,0.7,0.82,1.25,0.97
		s1.08,0.08,1.57-0.21c0.5-0.29,0.82-0.71,0.97-1.26c0.15-0.55,0.08-1.09-0.2-1.58c-0.28-0.5-0.69-0.81-1.25-0.96
		c-0.55-0.15-1.07-0.08-1.57,0.21C1463.67,126.02,1463.35,126.44,1463.2,126.99z"/>
	<path d="M1463.9,117.21c0.32-1.2,0.93-2.07,1.83-2.63c0.9-0.56,1.91-0.69,3.03-0.39c1.12,0.3,1.94,0.92,2.43,1.86
		c0.49,0.95,0.58,2.02,0.26,3.23c-0.33,1.21-0.95,2.08-1.86,2.64c-0.91,0.55-1.92,0.68-3.03,0.38c-1.11-0.3-1.92-0.93-2.41-1.88
		C1463.66,119.49,1463.58,118.41,1463.9,117.21z M1465.69,117.72c-0.15,0.55-0.08,1.08,0.2,1.57c0.28,0.5,0.7,0.82,1.25,0.97
		s1.08,0.08,1.57-0.21c0.5-0.29,0.82-0.71,0.96-1.26c0.15-0.55,0.08-1.09-0.2-1.58c-0.28-0.5-0.69-0.81-1.25-0.96
		c-0.55-0.15-1.07-0.08-1.57,0.21C1466.15,116.74,1465.83,117.16,1465.69,117.72z"/>
	<path d="M1460.96,108.33l7.79,2.09l-1.89-3.35l0.72-2.69l2.23,4.17l4.96-2.53l-0.74,2.74l-3.77,1.84l0.16,0.27l2.84,0.76
		l-0.53,1.99l-12.3-3.3L1460.96,108.33z"/>
	<path d="M1473.55,97.63l-1.43,5.33c1.29,0.29,2.08-0.12,2.37-1.23c0.19-0.69,0.02-1.34-0.5-1.95l0.79-1.76
		c1.31,1.01,1.74,2.37,1.29,4.08c-0.31,1.16-0.9,1.99-1.78,2.5c-0.88,0.51-1.88,0.61-3.03,0.31s-1.97-0.89-2.48-1.75
		c-0.51-0.87-0.61-1.86-0.31-2.99c0.3-1.13,0.89-1.93,1.74-2.4c0.86-0.47,1.88-0.54,3.07-0.22L1473.55,97.63z M1470.87,102.56
		l0.9-3.37c-1-0.04-1.62,0.41-1.86,1.31C1469.68,101.38,1470.02,102.15,1470.87,102.56z"/>
</g>
<g>
	<path fill="#9B9B9B" d="M668.61,394.01v-10.02h4.44c0.89,0,1.57,0.09,2.04,0.27c0.46,0.18,0.84,0.5,1.11,0.95s0.42,0.96,0.42,1.51
		c0,0.71-0.23,1.31-0.69,1.8s-1.17,0.8-2.13,0.93c0.35,0.17,0.62,0.33,0.8,0.5c0.39,0.36,0.75,0.8,1.1,1.33l1.74,2.73h-1.67
		l-1.33-2.08c-0.39-0.6-0.71-1.06-0.96-1.38s-0.48-0.54-0.67-0.67s-0.4-0.22-0.6-0.27c-0.15-0.03-0.4-0.05-0.74-0.05h-1.54v4.45
		H668.61z M669.93,388.42h2.85c0.61,0,1.08-0.06,1.42-0.19c0.34-0.12,0.6-0.33,0.78-0.6c0.18-0.28,0.27-0.58,0.27-0.9
		c0-0.47-0.17-0.86-0.52-1.17s-0.89-0.46-1.63-0.46h-3.17V388.42z"/>
	<path fill="#9B9B9B" d="M683.28,393.12c-0.46,0.39-0.89,0.66-1.32,0.82s-0.87,0.24-1.36,0.24c-0.8,0-1.41-0.2-1.84-0.58
		c-0.43-0.39-0.64-0.89-0.64-1.49c0-0.36,0.08-0.68,0.24-0.97c0.16-0.29,0.37-0.53,0.64-0.71s0.56-0.31,0.89-0.4
		c0.24-0.06,0.61-0.12,1.09-0.18c0.99-0.12,1.73-0.26,2.19-0.42c0-0.17,0.01-0.28,0.01-0.32c0-0.5-0.12-0.85-0.35-1.06
		c-0.31-0.28-0.78-0.42-1.4-0.42c-0.58,0-1.01,0.1-1.28,0.3c-0.28,0.2-0.48,0.56-0.61,1.08l-1.2-0.16c0.11-0.51,0.29-0.93,0.54-1.25
		c0.25-0.32,0.61-0.56,1.09-0.73c0.47-0.17,1.02-0.26,1.65-0.26c0.62,0,1.12,0.07,1.51,0.22s0.67,0.33,0.85,0.55
		c0.18,0.22,0.31,0.5,0.38,0.84c0.04,0.21,0.06,0.59,0.06,1.13v1.64c0,1.14,0.03,1.87,0.08,2.17c0.05,0.3,0.16,0.59,0.31,0.87h-1.29
		C683.4,393.76,683.31,393.46,683.28,393.12z M683.18,390.37c-0.45,0.18-1.12,0.34-2.01,0.46c-0.51,0.07-0.86,0.16-1.07,0.25
		s-0.37,0.22-0.49,0.4c-0.11,0.18-0.17,0.37-0.17,0.58c0,0.33,0.12,0.6,0.37,0.82s0.61,0.33,1.09,0.33c0.47,0,0.9-0.1,1.26-0.31
		c0.37-0.21,0.64-0.49,0.81-0.85c0.13-0.28,0.2-0.69,0.2-1.23V390.37z"/>
	<path fill="#9B9B9B" d="M686.33,385.41v-1.42h1.23v1.42H686.33z M686.33,394.01v-7.26h1.23v7.26H686.33z"/>
	<path fill="#9B9B9B" d="M689.41,394.01v-10.02h1.23v10.02H689.41z"/>
	<path fill="#9B9B9B" d="M696.66,394.01v-10.02h6.76v1.18h-5.43v3.1h4.7v1.18h-4.7v4.55H696.66z"/>
	<path fill="#9B9B9B" d="M709.73,393.12c-0.46,0.39-0.89,0.66-1.32,0.82s-0.87,0.24-1.36,0.24c-0.8,0-1.41-0.2-1.84-0.58
		c-0.43-0.39-0.64-0.89-0.64-1.49c0-0.36,0.08-0.68,0.24-0.97c0.16-0.29,0.37-0.53,0.64-0.71s0.56-0.31,0.89-0.4
		c0.24-0.06,0.61-0.12,1.09-0.18c0.99-0.12,1.73-0.26,2.19-0.42c0-0.17,0.01-0.28,0.01-0.32c0-0.5-0.12-0.85-0.35-1.06
		c-0.31-0.28-0.78-0.42-1.4-0.42c-0.58,0-1.01,0.1-1.28,0.3c-0.28,0.2-0.48,0.56-0.61,1.08l-1.2-0.16c0.11-0.51,0.29-0.93,0.54-1.25
		c0.25-0.32,0.61-0.56,1.09-0.73c0.47-0.17,1.02-0.26,1.65-0.26c0.62,0,1.12,0.07,1.51,0.22s0.67,0.33,0.85,0.55
		c0.18,0.22,0.31,0.5,0.38,0.84c0.04,0.21,0.06,0.59,0.06,1.13v1.64c0,1.14,0.03,1.87,0.08,2.17c0.05,0.3,0.16,0.59,0.31,0.87h-1.29
		C709.84,393.76,709.76,393.46,709.73,393.12z M709.62,390.37c-0.45,0.18-1.12,0.34-2.01,0.46c-0.51,0.07-0.86,0.16-1.07,0.25
		s-0.37,0.22-0.49,0.4c-0.11,0.18-0.17,0.37-0.17,0.58c0,0.33,0.12,0.6,0.37,0.82s0.61,0.33,1.09,0.33c0.47,0,0.9-0.1,1.26-0.31
		c0.37-0.21,0.64-0.49,0.81-0.85c0.13-0.28,0.2-0.69,0.2-1.23V390.37z"/>
	<path fill="#9B9B9B" d="M712.77,394.01v-7.26h1.11v1.03c0.53-0.8,1.3-1.2,2.31-1.2c0.44,0,0.84,0.08,1.21,0.24
		c0.37,0.16,0.64,0.36,0.82,0.62s0.31,0.56,0.38,0.91c0.05,0.23,0.07,0.63,0.07,1.2v4.46h-1.23v-4.42c0-0.5-0.05-0.88-0.14-1.12
		c-0.1-0.25-0.27-0.45-0.51-0.59c-0.24-0.15-0.53-0.22-0.86-0.22c-0.52,0-0.98,0.17-1.36,0.5s-0.57,0.96-0.57,1.89v3.96H712.77z"/>
	<path fill="#9B9B9B" d="M720.07,391.85l1.22-0.19c0.07,0.49,0.26,0.86,0.57,1.12s0.75,0.39,1.31,0.39c0.56,0,0.98-0.12,1.26-0.35
		c0.27-0.23,0.41-0.5,0.41-0.81c0-0.28-0.12-0.5-0.36-0.66c-0.17-0.11-0.59-0.25-1.26-0.42c-0.9-0.23-1.53-0.42-1.88-0.59
		c-0.35-0.17-0.61-0.4-0.79-0.69c-0.18-0.29-0.27-0.62-0.27-0.97c0-0.32,0.07-0.62,0.22-0.9c0.15-0.28,0.35-0.5,0.6-0.69
		c0.19-0.14,0.45-0.26,0.78-0.36c0.33-0.1,0.68-0.15,1.06-0.15c0.57,0,1.07,0.08,1.5,0.25s0.75,0.39,0.95,0.67
		c0.21,0.28,0.35,0.66,0.42,1.12l-1.2,0.16c-0.05-0.37-0.21-0.67-0.48-0.88s-0.63-0.31-1.11-0.31c-0.56,0-0.97,0.09-1.21,0.28
		s-0.36,0.41-0.36,0.66c0,0.16,0.05,0.3,0.15,0.43c0.1,0.13,0.26,0.24,0.47,0.33c0.12,0.05,0.49,0.15,1.09,0.31
		c0.87,0.23,1.48,0.42,1.82,0.57c0.34,0.15,0.61,0.36,0.81,0.65s0.29,0.63,0.29,1.05c0,0.41-0.12,0.8-0.36,1.16
		c-0.24,0.36-0.58,0.64-1.04,0.84c-0.45,0.2-0.96,0.3-1.53,0.3c-0.94,0-1.66-0.2-2.16-0.59S720.21,392.62,720.07,391.85z"/>
	<path fill="#9B9B9B" d="M738.76,390.5l1.33,0.33c-0.28,1.09-0.78,1.92-1.5,2.49c-0.72,0.57-1.61,0.86-2.65,0.86
		c-1.08,0-1.96-0.22-2.64-0.66c-0.68-0.44-1.19-1.08-1.54-1.91s-0.53-1.73-0.53-2.69c0-1.04,0.2-1.95,0.6-2.73
		c0.4-0.78,0.97-1.37,1.7-1.77c0.74-0.4,1.55-0.6,2.43-0.6c1,0,1.85,0.25,2.53,0.77s1.16,1.23,1.43,2.15l-1.31,0.31
		c-0.23-0.73-0.57-1.26-1.01-1.59s-1-0.5-1.67-0.5c-0.77,0-1.41,0.18-1.93,0.55s-0.88,0.87-1.09,1.49
		c-0.21,0.62-0.31,1.26-0.31,1.92c0,0.85,0.12,1.6,0.37,2.23c0.25,0.64,0.63,1.11,1.16,1.43s1.09,0.47,1.7,0.47
		c0.74,0,1.37-0.21,1.89-0.64S738.58,391.34,738.76,390.5z"/>
	<path fill="#9B9B9B" d="M746.3,393.12c-0.46,0.39-0.89,0.66-1.32,0.82s-0.87,0.24-1.36,0.24c-0.8,0-1.41-0.2-1.84-0.58
		c-0.43-0.39-0.64-0.89-0.64-1.49c0-0.36,0.08-0.68,0.24-0.97c0.16-0.29,0.37-0.53,0.64-0.71s0.56-0.31,0.89-0.4
		c0.24-0.06,0.61-0.12,1.09-0.18c0.99-0.12,1.73-0.26,2.19-0.42c0-0.17,0.01-0.28,0.01-0.32c0-0.5-0.12-0.85-0.35-1.06
		c-0.31-0.28-0.78-0.42-1.4-0.42c-0.58,0-1.01,0.1-1.28,0.3c-0.28,0.2-0.48,0.56-0.61,1.08l-1.2-0.16c0.11-0.51,0.29-0.93,0.54-1.25
		c0.25-0.32,0.61-0.56,1.09-0.73c0.47-0.17,1.02-0.26,1.65-0.26c0.62,0,1.12,0.07,1.51,0.22s0.67,0.33,0.85,0.55
		c0.18,0.22,0.31,0.5,0.38,0.84c0.04,0.21,0.06,0.59,0.06,1.13v1.64c0,1.14,0.03,1.87,0.08,2.17c0.05,0.3,0.16,0.59,0.31,0.87h-1.29
		C746.42,393.76,746.33,393.46,746.3,393.12z M746.2,390.37c-0.45,0.18-1.12,0.34-2.01,0.46c-0.51,0.07-0.86,0.16-1.07,0.25
		s-0.37,0.22-0.49,0.4c-0.11,0.18-0.17,0.37-0.17,0.58c0,0.33,0.12,0.6,0.37,0.82s0.61,0.33,1.09,0.33c0.47,0,0.9-0.1,1.26-0.31
		c0.37-0.21,0.64-0.49,0.81-0.85c0.13-0.28,0.2-0.69,0.2-1.23V390.37z"/>
	<path fill="#9B9B9B" d="M749.35,394.01v-7.26h1.11v1.03c0.53-0.8,1.3-1.2,2.31-1.2c0.44,0,0.84,0.08,1.21,0.24
		c0.37,0.16,0.64,0.36,0.82,0.62c0.18,0.25,0.31,0.56,0.38,0.91c0.05,0.23,0.07,0.63,0.07,1.2v4.46h-1.23v-4.42
		c0-0.5-0.05-0.88-0.14-1.12c-0.1-0.25-0.27-0.45-0.51-0.59c-0.24-0.15-0.53-0.22-0.86-0.22c-0.52,0-0.98,0.17-1.36,0.5
		c-0.38,0.33-0.57,0.96-0.57,1.89v3.96H749.35z"/>
	<path fill="#9B9B9B" d="M761.87,393.12c-0.46,0.39-0.89,0.66-1.32,0.82s-0.87,0.24-1.36,0.24c-0.8,0-1.41-0.2-1.84-0.58
		c-0.43-0.39-0.64-0.89-0.64-1.49c0-0.36,0.08-0.68,0.24-0.97c0.16-0.29,0.37-0.53,0.64-0.71s0.56-0.31,0.89-0.4
		c0.24-0.06,0.61-0.12,1.09-0.18c0.99-0.12,1.72-0.26,2.19-0.42c0-0.17,0.01-0.28,0.01-0.32c0-0.5-0.12-0.85-0.35-1.06
		c-0.31-0.28-0.78-0.42-1.4-0.42c-0.58,0-1.01,0.1-1.28,0.3c-0.28,0.2-0.48,0.56-0.61,1.08l-1.2-0.16c0.11-0.51,0.29-0.93,0.54-1.25
		c0.25-0.32,0.61-0.56,1.09-0.73c0.47-0.17,1.02-0.26,1.65-0.26c0.62,0,1.12,0.07,1.51,0.22c0.39,0.15,0.67,0.33,0.86,0.55
		c0.18,0.22,0.31,0.5,0.38,0.84c0.04,0.21,0.06,0.59,0.06,1.13v1.64c0,1.14,0.03,1.87,0.08,2.17c0.05,0.3,0.16,0.59,0.31,0.87h-1.29
		C761.99,393.76,761.91,393.46,761.87,393.12z M761.77,390.37c-0.45,0.18-1.12,0.34-2.01,0.46c-0.51,0.07-0.86,0.16-1.07,0.25
		c-0.21,0.09-0.37,0.22-0.49,0.4c-0.11,0.18-0.17,0.37-0.17,0.58c0,0.33,0.12,0.6,0.37,0.82s0.61,0.33,1.09,0.33
		c0.47,0,0.89-0.1,1.26-0.31c0.37-0.21,0.64-0.49,0.81-0.85c0.13-0.28,0.2-0.69,0.2-1.23V390.37z"/>
	<path fill="#9B9B9B" d="M769.63,394.01v-0.92c-0.46,0.72-1.14,1.08-2.03,1.08c-0.58,0-1.11-0.16-1.6-0.48s-0.86-0.76-1.13-1.34
		c-0.27-0.57-0.4-1.23-0.4-1.97c0-0.72,0.12-1.38,0.36-1.97c0.24-0.59,0.6-1.04,1.09-1.36c0.48-0.31,1.02-0.47,1.62-0.47
		c0.44,0,0.83,0.09,1.17,0.28c0.34,0.18,0.62,0.42,0.83,0.72v-3.6h1.22v10.02H769.63z M765.74,390.39c0,0.93,0.2,1.62,0.59,2.08
		c0.39,0.46,0.85,0.69,1.39,0.69c0.54,0,1-0.22,1.37-0.66c0.38-0.44,0.56-1.11,0.56-2.01c0-0.99-0.19-1.72-0.57-2.19
		s-0.86-0.7-1.42-0.7c-0.55,0-1,0.22-1.37,0.67S765.74,389.43,765.74,390.39z"/>
	<path fill="#9B9B9B" d="M777.44,393.12c-0.46,0.39-0.89,0.66-1.32,0.82s-0.87,0.24-1.36,0.24c-0.8,0-1.41-0.2-1.84-0.58
		c-0.43-0.39-0.64-0.89-0.64-1.49c0-0.36,0.08-0.68,0.24-0.97c0.16-0.29,0.37-0.53,0.64-0.71s0.56-0.31,0.89-0.4
		c0.24-0.06,0.61-0.12,1.09-0.18c0.99-0.12,1.72-0.26,2.19-0.42c0-0.17,0.01-0.28,0.01-0.32c0-0.5-0.12-0.85-0.35-1.06
		c-0.31-0.28-0.78-0.42-1.4-0.42c-0.58,0-1.01,0.1-1.28,0.3c-0.28,0.2-0.48,0.56-0.61,1.08l-1.2-0.16c0.11-0.51,0.29-0.93,0.54-1.25
		c0.25-0.32,0.61-0.56,1.09-0.73c0.47-0.17,1.02-0.26,1.65-0.26c0.62,0,1.12,0.07,1.51,0.22c0.39,0.15,0.67,0.33,0.86,0.55
		c0.18,0.22,0.31,0.5,0.38,0.84c0.04,0.21,0.06,0.59,0.06,1.13v1.64c0,1.14,0.03,1.87,0.08,2.17c0.05,0.3,0.16,0.59,0.31,0.87h-1.29
		C777.56,393.76,777.48,393.46,777.44,393.12z M777.34,390.37c-0.45,0.18-1.12,0.34-2.01,0.46c-0.51,0.07-0.86,0.16-1.07,0.25
		c-0.21,0.09-0.37,0.22-0.49,0.4c-0.11,0.18-0.17,0.37-0.17,0.58c0,0.33,0.12,0.6,0.37,0.82s0.61,0.33,1.09,0.33
		c0.47,0,0.89-0.1,1.26-0.31c0.37-0.21,0.64-0.49,0.81-0.85c0.13-0.28,0.2-0.69,0.2-1.23V390.37z"/>
	<path fill="#9B9B9B" d="M783.46,390.88v-0.99h14v0.99H783.46z"/>
	<path fill="#9B9B9B" d="M808.4,392.83v1.18h-6.62c-0.01-0.3,0.04-0.58,0.14-0.85c0.17-0.45,0.44-0.9,0.81-1.33s0.91-0.94,1.61-1.52
		c1.09-0.89,1.82-1.6,2.21-2.12c0.38-0.52,0.57-1.01,0.57-1.48c0-0.49-0.17-0.9-0.52-1.23c-0.35-0.34-0.8-0.5-1.36-0.5
		c-0.59,0-1.07,0.18-1.42,0.53s-0.54,0.85-0.54,1.48l-1.27-0.13c0.09-0.94,0.41-1.66,0.98-2.16c0.56-0.5,1.32-0.74,2.28-0.74
		c0.96,0,1.72,0.27,2.28,0.8s0.84,1.19,0.84,1.98c0,0.4-0.08,0.79-0.25,1.18s-0.44,0.79-0.82,1.22s-1.01,1.02-1.9,1.76
		c-0.74,0.62-1.21,1.04-1.42,1.26c-0.21,0.22-0.38,0.44-0.52,0.67H808.4z"/>
	<path fill="#9B9B9B" d="M809.71,389.07c0-1.18,0.12-2.14,0.37-2.86c0.24-0.72,0.61-1.28,1.09-1.67s1.09-0.59,1.81-0.59
		c0.54,0,1.01,0.11,1.42,0.32c0.41,0.22,0.74,0.53,1,0.94c0.26,0.41,0.47,0.9,0.62,1.49c0.15,0.58,0.22,1.38,0.22,2.37
		c0,1.18-0.12,2.12-0.36,2.85c-0.24,0.72-0.6,1.28-1.08,1.68c-0.48,0.39-1.09,0.59-1.82,0.59c-0.97,0-1.72-0.35-2.28-1.04
		C810.05,392.31,809.71,390.95,809.71,389.07z M810.98,389.07c0,1.65,0.19,2.74,0.58,3.28c0.39,0.54,0.86,0.82,1.42,0.82
		c0.57,0,1.04-0.27,1.43-0.82s0.58-1.64,0.58-3.28c0-1.65-0.19-2.75-0.58-3.29s-0.87-0.81-1.44-0.81c-0.56,0-1.02,0.24-1.35,0.72
		C811.19,386.3,810.98,387.43,810.98,389.07z"/>
	<path fill="#9B9B9B" d="M823.97,392.83v1.18h-6.62c-0.01-0.3,0.04-0.58,0.14-0.85c0.17-0.45,0.44-0.9,0.81-1.33
		s0.91-0.94,1.61-1.52c1.09-0.89,1.82-1.6,2.21-2.12c0.38-0.52,0.57-1.01,0.57-1.48c0-0.49-0.17-0.9-0.52-1.23
		c-0.35-0.34-0.8-0.5-1.36-0.5c-0.59,0-1.07,0.18-1.42,0.53s-0.54,0.85-0.54,1.48l-1.27-0.13c0.09-0.94,0.41-1.66,0.98-2.16
		c0.56-0.5,1.32-0.74,2.28-0.74c0.96,0,1.72,0.27,2.28,0.8s0.84,1.19,0.84,1.98c0,0.4-0.08,0.79-0.25,1.18s-0.44,0.79-0.82,1.22
		s-1.01,1.02-1.9,1.76c-0.74,0.62-1.21,1.04-1.42,1.26c-0.21,0.22-0.38,0.44-0.52,0.67H823.97z"/>
	<path fill="#9B9B9B" d="M831.67,386.45l-1.22,0.1c-0.11-0.48-0.26-0.83-0.46-1.05c-0.33-0.35-0.74-0.53-1.23-0.53
		c-0.39,0-0.74,0.11-1.03,0.33c-0.39,0.28-0.69,0.7-0.92,1.24c-0.22,0.54-0.34,1.31-0.35,2.32c0.3-0.45,0.66-0.79,1.09-1
		c0.43-0.22,0.88-0.33,1.35-0.33c0.82,0,1.52,0.3,2.09,0.91c0.58,0.6,0.86,1.38,0.86,2.34c0,0.63-0.13,1.21-0.41,1.75
		c-0.27,0.54-0.64,0.95-1.12,1.24c-0.47,0.29-1.01,0.43-1.61,0.43c-1.03,0-1.86-0.38-2.51-1.13c-0.65-0.75-0.97-2-0.97-3.73
		c0-1.94,0.36-3.34,1.07-4.22c0.62-0.77,1.46-1.15,2.52-1.15c0.79,0,1.44,0.22,1.94,0.66S831.57,385.67,831.67,386.45z
		 M826.65,390.77c0,0.42,0.09,0.83,0.27,1.22s0.43,0.68,0.76,0.89c0.32,0.2,0.66,0.3,1.02,0.3c0.52,0,0.97-0.21,1.34-0.63
		c0.37-0.42,0.56-0.99,0.56-1.71c0-0.69-0.18-1.24-0.55-1.64c-0.37-0.4-0.83-0.6-1.39-0.6c-0.56,0-1.03,0.2-1.42,0.6
		C826.84,389.6,826.65,390.12,826.65,390.77z"/>
</g>
<g>
	<path d="M19.71,21.33v24.38h9.02v4.96H14V21.33H19.71z"/>
	<path d="M34.65,20.36c0.88,0,1.63,0.3,2.26,0.92s0.92,1.38,0.92,2.26s-0.32,1.65-0.95,2.28c-0.62,0.64-1.4,0.97-2.28,0.97
		s-1.63-0.32-2.26-0.95s-0.95-1.4-0.95-2.28s0.32-1.65,0.97-2.28C32.99,20.66,33.77,20.36,34.65,20.36z M37.25,31.62v19.06h-5.31
		V31.62H37.25z"/>
	<path d="M42.27,31.62h5.33V34c1.63-2.17,3.39-2.99,5.97-2.99c2.34,0,4.19,0.75,5.54,2.28c1.01,1.14,1.5,2.9,1.5,5.29v12.1h-5.33
		V40.1c0-1.46-0.17-2.49-0.54-3.07c-0.56-1.01-1.59-1.5-3.12-1.5c-2.69,0-4.04,1.76-4.04,5.29v9.86h-5.33V31.62z"/>
	<path d="M84.45,42.02H70.16c0.15,3.42,1.7,5.11,4.66,5.09c1.85,0,3.35-0.86,4.53-2.56l4.92,0.79c-1.65,3.95-4.75,5.93-9.32,5.95
		c-3.12,0-5.59-0.92-7.46-2.77s-2.79-4.3-2.79-7.37s0.9-5.52,2.73-7.37s4.23-2.77,7.26-2.77s5.41,0.92,7.15,2.75s2.6,4.34,2.6,7.54
		V42.02z M70.33,38.62h9.02c-0.58-2.51-2.11-3.78-4.53-3.78C72.48,34.84,70.78,36.21,70.33,38.62z"/>
	<path d="M117.51,40.9h3.48v4.58h-3.48v5.2h-5.31v-5.2H97.85v-2.54l14.52-22.15h5.13V40.9z M112.21,40.9V29.25l-7.58,11.64H112.21z"
		/>
	<path d="M132.87,38.36h9.9v4.43h-9.9V38.36z"/>
	<path d="M169.38,50.67h-5.71V37.2l-10.12-15.88h6.77l6.34,10.21l6.21-10.21h6.81L169.38,37.2V50.67z"/>
	<path d="M197.82,42.02h-14.29c0.15,3.42,1.7,5.11,4.66,5.09c1.85,0,3.35-0.86,4.53-2.56l4.92,0.79c-1.65,3.95-4.75,5.93-9.32,5.95
		c-3.12,0-5.59-0.92-7.46-2.77s-2.79-4.3-2.79-7.37s0.9-5.52,2.73-7.37s4.23-2.77,7.26-2.77s5.41,0.92,7.15,2.75s2.6,4.34,2.6,7.54
		V42.02z M183.71,38.62h9.02c-0.58-2.51-2.11-3.78-4.53-3.78C185.85,34.84,184.16,36.21,183.71,38.62z"/>
	<path d="M207.32,17.72v32.96h-5.33V17.72H207.32z"/>
	<path d="M217.74,17.72v32.96h-5.33V17.72H217.74z"/>
	<path d="M232.78,31.02c3.2,0,5.8,0.95,7.8,2.81s3.01,4.32,3.01,7.33s-1.01,5.46-3.03,7.33c-2.04,1.87-4.66,2.81-7.91,2.81
		s-5.84-0.97-7.84-2.88s-2.99-4.34-2.99-7.33s1.03-5.41,3.07-7.28S229.57,31.02,232.78,31.02z M232.71,35.81
		c-1.48,0-2.75,0.52-3.8,1.55s-1.59,2.3-1.59,3.78s0.52,2.75,1.57,3.78c1.05,1.05,2.32,1.57,3.8,1.57s2.77-0.52,3.82-1.57
		c1.05-1.03,1.57-2.28,1.57-3.76s-0.52-2.73-1.57-3.78S234.19,35.81,232.71,35.81z"/>
	<path d="M250.2,31.62l5.01,11l5.2-11.52h2.28l5.2,11.69l5.09-11.17h5.95l-9.86,19.44h-2.41L261.5,39.5l-5.07,11.56h-2.45
		l-9.78-19.44H250.2z"/>
	<path d="M299.12,21.33v24.38h9.02v4.96H293.4V21.33H299.12z"/>
	<path d="M314.05,20.36c0.88,0,1.63,0.3,2.26,0.92s0.92,1.38,0.92,2.26s-0.32,1.65-0.95,2.28c-0.62,0.64-1.4,0.97-2.28,0.97
		s-1.63-0.32-2.26-0.95s-0.95-1.4-0.95-2.28s0.32-1.65,0.97-2.28C312.4,20.66,313.17,20.36,314.05,20.36z M316.65,31.62v19.06h-5.31
		V31.62H316.65z"/>
	<path d="M321.68,31.62h5.33V34c1.63-2.17,3.39-2.99,5.97-2.99c2.34,0,4.19,0.75,5.54,2.28c1.01,1.14,1.5,2.9,1.5,5.29v12.1h-5.33
		V40.1c0-1.46-0.17-2.49-0.54-3.07c-0.56-1.01-1.59-1.5-3.12-1.5c-2.69,0-4.04,1.76-4.04,5.29v9.86h-5.33V31.62z"/>
	<path d="M363.85,42.02h-14.29c0.15,3.42,1.7,5.11,4.66,5.09c1.85,0,3.35-0.86,4.53-2.56l4.92,0.79c-1.65,3.95-4.75,5.93-9.32,5.95
		c-3.12,0-5.59-0.92-7.46-2.77s-2.79-4.3-2.79-7.37s0.9-5.52,2.73-7.37s4.23-2.77,7.26-2.77s5.41,0.92,7.15,2.75s2.6,4.34,2.6,7.54
		V42.02z M349.74,38.62h9.02c-0.58-2.51-2.11-3.78-4.53-3.78C351.88,34.84,350.19,36.21,349.74,38.62z"/>
</g>
<g>
	<path fill="#5A5A5A" d="M14,73.31l1.61-0.14c0.08,0.64,0.25,1.17,0.53,1.59c0.28,0.41,0.71,0.75,1.3,1
		c0.59,0.25,1.25,0.38,1.98,0.38c0.65,0,1.22-0.1,1.72-0.29s0.87-0.46,1.11-0.79s0.36-0.71,0.36-1.1c0-0.4-0.12-0.76-0.35-1.06
		s-0.62-0.56-1.16-0.76c-0.35-0.13-1.11-0.34-2.29-0.63s-2.01-0.55-2.49-0.8c-0.62-0.32-1.07-0.72-1.38-1.2s-0.45-1.01-0.45-1.6
		c0-0.65,0.18-1.26,0.55-1.82s0.91-1,1.62-1.29s1.5-0.44,2.36-0.44c0.96,0,1.8,0.15,2.53,0.46c0.73,0.31,1.29,0.76,1.68,1.36
		s0.6,1.27,0.63,2.03l-1.63,0.12c-0.09-0.81-0.39-1.43-0.89-1.85s-1.26-0.62-2.25-0.62c-1.03,0-1.78,0.19-2.25,0.57
		c-0.47,0.38-0.71,0.83-0.71,1.37c0,0.46,0.17,0.84,0.5,1.14c0.33,0.3,1.19,0.61,2.57,0.92c1.39,0.31,2.34,0.59,2.85,0.82
		c0.75,0.35,1.3,0.78,1.66,1.31s0.54,1.14,0.54,1.83c0,0.69-0.2,1.33-0.59,1.94c-0.39,0.61-0.96,1.08-1.69,1.42
		c-0.74,0.34-1.56,0.5-2.48,0.5c-1.17,0-2.14-0.17-2.93-0.51s-1.41-0.85-1.85-1.53C14.26,74.94,14.02,74.17,14,73.31z"/>
	<path fill="#5A5A5A" d="M25.79,72.78c0-1.73,0.48-3.01,1.44-3.84c0.8-0.69,1.78-1.04,2.94-1.04c1.28,0,2.33,0.42,3.15,1.26
		s1.22,2,1.22,3.48c0,1.2-0.18,2.15-0.54,2.83c-0.36,0.69-0.88,1.22-1.57,1.6s-1.44,0.57-2.25,0.57c-1.31,0-2.36-0.42-3.17-1.26
		S25.79,74.36,25.79,72.78z M27.42,72.78c0,1.2,0.26,2.09,0.78,2.68c0.52,0.6,1.18,0.89,1.97,0.89c0.79,0,1.44-0.3,1.96-0.9
		s0.78-1.51,0.78-2.73c0-1.15-0.26-2.03-0.79-2.62c-0.52-0.59-1.18-0.89-1.96-0.89c-0.79,0-1.45,0.3-1.97,0.89
		S27.42,71.58,27.42,72.78z"/>
	<path fill="#5A5A5A" d="M42.49,74.03l1.56,0.2c-0.17,1.07-0.6,1.91-1.31,2.52c-0.7,0.61-1.56,0.91-2.58,0.91
		c-1.28,0-2.3-0.42-3.08-1.25c-0.78-0.84-1.16-2.03-1.16-3.59c0-1.01,0.17-1.89,0.5-2.65s0.84-1.32,1.52-1.7
		c0.68-0.38,1.43-0.57,2.23-0.57c1.01,0,1.84,0.26,2.49,0.77s1.06,1.24,1.24,2.18l-1.54,0.24c-0.15-0.63-0.41-1.1-0.78-1.42
		s-0.82-0.47-1.35-0.47c-0.8,0-1.44,0.29-1.94,0.86c-0.5,0.57-0.75,1.47-0.75,2.71c0,1.25,0.24,2.17,0.72,2.73s1.11,0.85,1.88,0.85
		c0.62,0,1.14-0.19,1.56-0.57S42.37,74.82,42.49,74.03z"/>
	<path fill="#5A5A5A" d="M45.4,66.38v-1.82h1.58v1.82H45.4z M45.4,77.45v-9.33h1.58v9.33H45.4z"/>
	<path fill="#5A5A5A" d="M55.78,74.44l1.63,0.2c-0.26,0.96-0.74,1.7-1.43,2.22s-1.59,0.79-2.67,0.79c-1.37,0-2.45-0.42-3.25-1.26
		c-0.8-0.84-1.2-2.02-1.2-3.54c0-1.57,0.4-2.79,1.21-3.66s1.86-1.3,3.15-1.3c1.25,0,2.27,0.42,3.06,1.27s1.19,2.04,1.19,3.59
		c0,0.09,0,0.23-0.01,0.42H50.5c0.06,1.03,0.35,1.81,0.87,2.36s1.17,0.82,1.95,0.82c0.58,0,1.08-0.15,1.49-0.46
		S55.54,75.11,55.78,74.44z M50.59,71.88h5.21c-0.07-0.79-0.27-1.37-0.6-1.77c-0.5-0.61-1.16-0.91-1.96-0.91
		c-0.73,0-1.34,0.24-1.83,0.73S50.64,71.07,50.59,71.88z M52.29,66.95l1.17-2.46h2.07l-1.93,2.46H52.29z"/>
	<path fill="#5A5A5A" d="M62.86,76.03l0.23,1.4c-0.45,0.09-0.84,0.14-1.2,0.14c-0.57,0-1.02-0.09-1.34-0.27s-0.54-0.42-0.67-0.72
		s-0.19-0.92-0.19-1.87v-5.37h-1.16v-1.23h1.16V65.8l1.57-0.95v3.26h1.59v1.23h-1.59v5.46c0,0.45,0.03,0.74,0.08,0.87
		s0.15,0.23,0.27,0.31s0.31,0.11,0.54,0.11C62.34,76.09,62.57,76.07,62.86,76.03z"/>
	<path fill="#5A5A5A" d="M70.79,74.44l1.63,0.2c-0.26,0.96-0.74,1.7-1.43,2.22s-1.59,0.79-2.67,0.79c-1.37,0-2.45-0.42-3.25-1.26
		c-0.8-0.84-1.2-2.02-1.2-3.54c0-1.57,0.4-2.79,1.21-3.66s1.86-1.3,3.15-1.3c1.25,0,2.27,0.42,3.06,1.27s1.19,2.04,1.19,3.59
		c0,0.09,0,0.23-0.01,0.42h-6.96c0.06,1.03,0.35,1.81,0.87,2.36s1.17,0.82,1.95,0.82c0.58,0,1.08-0.15,1.49-0.46
		S70.55,75.11,70.79,74.44z M65.6,71.88h5.21c-0.07-0.79-0.27-1.37-0.6-1.77c-0.5-0.61-1.16-0.91-1.96-0.91
		c-0.73,0-1.34,0.24-1.83,0.73S65.65,71.07,65.6,71.88z M67.31,66.95l1.17-2.46h2.07l-1.93,2.46H67.31z"/>
	<path fill="#5A5A5A" d="M85.47,77.45v-1.18c-0.59,0.93-1.46,1.39-2.61,1.39c-0.74,0-1.43-0.21-2.05-0.62s-1.11-0.98-1.45-1.72
		c-0.34-0.73-0.51-1.58-0.51-2.54c0-0.93,0.16-1.78,0.47-2.54s0.78-1.34,1.4-1.75s1.32-0.61,2.08-0.61c0.56,0,1.06,0.12,1.5,0.36
		c0.44,0.24,0.8,0.55,1.07,0.93v-4.62h1.57v12.88H85.47z M80.47,72.79c0,1.2,0.25,2.09,0.76,2.68s1.1,0.89,1.78,0.89
		c0.69,0,1.28-0.28,1.76-0.85s0.73-1.43,0.73-2.59c0-1.28-0.25-2.21-0.74-2.81s-1.1-0.9-1.82-0.9c-0.7,0-1.29,0.29-1.76,0.86
		S80.47,71.55,80.47,72.79z"/>
	<path fill="#5A5A5A" d="M95.82,74.44l1.63,0.2c-0.26,0.96-0.74,1.7-1.43,2.22s-1.59,0.79-2.67,0.79c-1.37,0-2.45-0.42-3.25-1.26
		c-0.8-0.84-1.2-2.02-1.2-3.54c0-1.57,0.4-2.79,1.21-3.66s1.86-1.3,3.15-1.3c1.25,0,2.27,0.42,3.06,1.27s1.19,2.04,1.19,3.59
		c0,0.09,0,0.23-0.01,0.42h-6.96c0.06,1.03,0.35,1.81,0.87,2.36s1.17,0.82,1.95,0.82c0.58,0,1.08-0.15,1.49-0.46
		S95.58,75.11,95.82,74.44z M90.62,71.88h5.21c-0.07-0.79-0.27-1.37-0.6-1.77c-0.5-0.61-1.16-0.91-1.96-0.91
		c-0.73,0-1.34,0.24-1.83,0.73S90.68,71.07,90.62,71.88z"/>
	<path fill="#5A5A5A" d="M107.89,76.03l0.23,1.4c-0.45,0.09-0.84,0.14-1.2,0.14c-0.57,0-1.02-0.09-1.34-0.27s-0.54-0.42-0.67-0.72
		s-0.19-0.92-0.19-1.87v-5.37h-1.16v-1.23h1.16V65.8l1.57-0.95v3.26h1.59v1.23h-1.59v5.46c0,0.45,0.03,0.74,0.08,0.87
		s0.15,0.23,0.27,0.31s0.31,0.11,0.54,0.11C107.38,76.09,107.61,76.07,107.89,76.03z"/>
	<path fill="#5A5A5A" d="M109.42,77.45v-9.33h1.42v1.42c0.36-0.66,0.7-1.1,1.01-1.31s0.65-0.32,1.02-0.32
		c0.53,0,1.08,0.17,1.63,0.51l-0.54,1.47c-0.39-0.23-0.77-0.34-1.16-0.34c-0.35,0-0.66,0.1-0.93,0.31s-0.47,0.5-0.59,0.87
		c-0.18,0.56-0.26,1.18-0.26,1.85v4.89H109.42z"/>
	<path fill="#5A5A5A" d="M121.53,76.3c-0.59,0.5-1.15,0.85-1.69,1.05s-1.12,0.31-1.74,0.31c-1.03,0-1.81-0.25-2.36-0.75
		c-0.55-0.5-0.83-1.14-0.83-1.92c0-0.46,0.1-0.88,0.31-1.25c0.21-0.38,0.48-0.68,0.82-0.91s0.72-0.4,1.14-0.52
		c0.31-0.08,0.78-0.16,1.41-0.24c1.28-0.15,2.22-0.33,2.82-0.54c0.01-0.22,0.01-0.35,0.01-0.41c0-0.64-0.15-1.1-0.45-1.36
		c-0.4-0.36-1-0.54-1.8-0.54c-0.74,0-1.29,0.13-1.65,0.39s-0.62,0.72-0.79,1.38l-1.55-0.21c0.14-0.66,0.37-1.2,0.69-1.6
		c0.32-0.41,0.79-0.72,1.4-0.94c0.61-0.22,1.32-0.33,2.12-0.33c0.8,0,1.44,0.09,1.94,0.28s0.86,0.42,1.1,0.71
		c0.23,0.29,0.4,0.64,0.49,1.08c0.05,0.27,0.08,0.76,0.08,1.46v2.11c0,1.47,0.03,2.4,0.1,2.79c0.07,0.39,0.2,0.76,0.4,1.12h-1.65
		C121.68,77.12,121.57,76.74,121.53,76.3z M121.39,72.76c-0.57,0.23-1.44,0.43-2.58,0.6c-0.65,0.09-1.11,0.2-1.38,0.32
		s-0.48,0.29-0.62,0.51s-0.22,0.48-0.22,0.75c0,0.42,0.16,0.77,0.48,1.05s0.79,0.42,1.4,0.42c0.61,0,1.15-0.13,1.63-0.4
		s0.82-0.63,1.05-1.09c0.17-0.36,0.25-0.88,0.25-1.58V72.76z"/>
	<path fill="#5A5A5A" d="M125.45,77.45v-9.33h1.42v1.33c0.69-1.03,1.68-1.54,2.97-1.54c0.56,0,1.08,0.1,1.55,0.3
		c0.47,0.2,0.82,0.47,1.06,0.8s0.4,0.72,0.49,1.17c0.06,0.29,0.09,0.81,0.09,1.54v5.74h-1.58v-5.68c0-0.64-0.06-1.13-0.18-1.45
		s-0.34-0.57-0.65-0.77c-0.31-0.19-0.68-0.29-1.1-0.29c-0.67,0-1.26,0.21-1.74,0.64s-0.73,1.24-0.73,2.43v5.1H125.45z"/>
	<path fill="#5A5A5A" d="M134.82,74.66l1.56-0.25c0.09,0.63,0.33,1.11,0.73,1.44s0.96,0.5,1.68,0.5c0.73,0,1.27-0.15,1.62-0.44
		s0.53-0.64,0.53-1.04c0-0.36-0.16-0.64-0.47-0.84c-0.22-0.14-0.76-0.32-1.62-0.54c-1.16-0.29-1.96-0.55-2.41-0.76
		s-0.79-0.51-1.02-0.89c-0.23-0.38-0.35-0.79-0.35-1.25c0-0.42,0.1-0.8,0.29-1.16c0.19-0.35,0.45-0.65,0.78-0.88
		c0.25-0.18,0.58-0.33,1.01-0.46s0.88-0.19,1.37-0.19c0.73,0,1.38,0.11,1.93,0.32s0.96,0.5,1.23,0.86c0.26,0.36,0.45,0.84,0.54,1.45
		l-1.55,0.21c-0.07-0.48-0.27-0.86-0.61-1.12s-0.81-0.4-1.43-0.4c-0.73,0-1.25,0.12-1.56,0.36s-0.47,0.52-0.47,0.84
		c0,0.21,0.06,0.39,0.19,0.55c0.13,0.17,0.33,0.31,0.61,0.42c0.16,0.06,0.62,0.19,1.4,0.4c1.12,0.3,1.9,0.54,2.34,0.73
		s0.79,0.47,1.04,0.83s0.38,0.81,0.38,1.35c0,0.53-0.15,1.02-0.46,1.49c-0.31,0.46-0.75,0.83-1.33,1.08
		c-0.58,0.26-1.24,0.38-1.97,0.38c-1.21,0-2.14-0.25-2.77-0.76S135,75.65,134.82,74.66z"/>
	<path fill="#5A5A5A" d="M144.46,81.02V68.11h1.44v1.21c0.34-0.47,0.72-0.83,1.15-1.07c0.43-0.24,0.95-0.36,1.56-0.36
		c0.8,0,1.5,0.21,2.11,0.62s1.07,0.99,1.38,1.74c0.31,0.75,0.47,1.57,0.47,2.46c0,0.96-0.17,1.82-0.51,2.58
		c-0.34,0.77-0.84,1.35-1.49,1.76c-0.65,0.41-1.34,0.61-2.06,0.61c-0.53,0-1-0.11-1.42-0.33s-0.76-0.5-1.03-0.84v4.54H144.46z
		 M145.89,72.83c0,1.2,0.24,2.09,0.73,2.66s1.08,0.86,1.77,0.86c0.7,0,1.31-0.3,1.81-0.89c0.5-0.59,0.75-1.52,0.75-2.76
		c0-1.19-0.24-2.08-0.73-2.67s-1.07-0.89-1.75-0.89c-0.67,0-1.27,0.32-1.79,0.94C146.15,70.72,145.89,71.63,145.89,72.83z"/>
	<path fill="#5A5A5A" d="M153.88,72.78c0-1.73,0.48-3.01,1.44-3.84c0.8-0.69,1.78-1.04,2.94-1.04c1.28,0,2.33,0.42,3.15,1.26
		s1.22,2,1.22,3.48c0,1.2-0.18,2.15-0.54,2.83c-0.36,0.69-0.88,1.22-1.57,1.6s-1.44,0.57-2.25,0.57c-1.31,0-2.36-0.42-3.17-1.26
		S153.88,74.36,153.88,72.78z M155.5,72.78c0,1.2,0.26,2.09,0.78,2.68c0.52,0.6,1.18,0.89,1.97,0.89c0.79,0,1.44-0.3,1.96-0.9
		s0.78-1.51,0.78-2.73c0-1.15-0.26-2.03-0.79-2.62c-0.52-0.59-1.18-0.89-1.96-0.89c-0.79,0-1.45,0.3-1.97,0.89
		S155.5,71.58,155.5,72.78z"/>
	<path fill="#5A5A5A" d="M164.46,77.45v-9.33h1.42v1.42c0.36-0.66,0.7-1.1,1.01-1.31s0.65-0.32,1.02-0.32
		c0.53,0,1.08,0.17,1.63,0.51l-0.54,1.47c-0.39-0.23-0.77-0.34-1.16-0.34c-0.35,0-0.66,0.1-0.93,0.31s-0.47,0.5-0.59,0.87
		c-0.18,0.56-0.26,1.18-0.26,1.85v4.89H164.46z"/>
	<path fill="#5A5A5A" d="M173.93,76.03l0.23,1.4c-0.45,0.09-0.84,0.14-1.2,0.14c-0.57,0-1.02-0.09-1.34-0.27s-0.54-0.42-0.67-0.72
		s-0.19-0.92-0.19-1.87v-5.37h-1.16v-1.23h1.16V65.8l1.57-0.95v3.26h1.59v1.23h-1.59v5.46c0,0.45,0.03,0.74,0.08,0.87
		s0.15,0.23,0.27,0.31s0.31,0.11,0.54,0.11C173.41,76.09,173.64,76.07,173.93,76.03z"/>
	<path fill="#5A5A5A" d="M186.53,77.45v-1.18c-0.59,0.93-1.46,1.39-2.61,1.39c-0.74,0-1.43-0.21-2.05-0.62s-1.11-0.98-1.45-1.72
		c-0.34-0.73-0.51-1.58-0.51-2.54c0-0.93,0.16-1.78,0.47-2.54s0.78-1.34,1.4-1.75s1.32-0.61,2.08-0.61c0.56,0,1.06,0.12,1.5,0.36
		c0.44,0.24,0.8,0.55,1.07,0.93v-4.62H188v12.88H186.53z M181.53,72.79c0,1.2,0.25,2.09,0.76,2.68s1.1,0.89,1.78,0.89
		c0.69,0,1.28-0.28,1.76-0.85s0.73-1.43,0.73-2.59c0-1.28-0.25-2.21-0.74-2.81s-1.1-0.9-1.82-0.9c-0.7,0-1.29,0.29-1.76,0.86
		S181.53,71.55,181.53,72.79z"/>
	<path fill="#5A5A5A" d="M196.87,74.44l1.63,0.2c-0.26,0.96-0.74,1.7-1.43,2.22s-1.59,0.79-2.67,0.79c-1.37,0-2.45-0.42-3.25-1.26
		c-0.8-0.84-1.2-2.02-1.2-3.54c0-1.57,0.4-2.79,1.21-3.66s1.86-1.3,3.15-1.3c1.25,0,2.27,0.42,3.06,1.27s1.19,2.04,1.19,3.59
		c0,0.09,0,0.23-0.01,0.42h-6.96c0.06,1.03,0.35,1.81,0.87,2.36s1.17,0.82,1.95,0.82c0.58,0,1.08-0.15,1.49-0.46
		S196.63,75.11,196.87,74.44z M191.68,71.88h5.21c-0.07-0.79-0.27-1.37-0.6-1.77c-0.5-0.61-1.16-0.91-1.96-0.91
		c-0.73,0-1.34,0.24-1.83,0.73S191.73,71.07,191.68,71.88z"/>
	<path fill="#5A5A5A" d="M205.65,77.45V64.56h2.57l3.05,9.12c0.28,0.85,0.49,1.49,0.62,1.91c0.15-0.47,0.38-1.16,0.69-2.07
		l3.08-8.96h2.29v12.88h-1.64V66.66l-3.74,10.78h-1.54l-3.73-10.97v10.97H205.65z"/>
	<path fill="#5A5A5A" d="M219.9,72.78c0-1.73,0.48-3.01,1.44-3.84c0.8-0.69,1.78-1.04,2.94-1.04c1.28,0,2.33,0.42,3.15,1.26
		s1.22,2,1.22,3.48c0,1.2-0.18,2.15-0.54,2.83c-0.36,0.69-0.88,1.22-1.57,1.6s-1.44,0.57-2.25,0.57c-1.31,0-2.36-0.42-3.17-1.26
		S219.9,74.36,219.9,72.78z M221.53,72.78c0,1.2,0.26,2.09,0.78,2.68c0.52,0.6,1.18,0.89,1.97,0.89c0.79,0,1.44-0.3,1.96-0.9
		s0.78-1.51,0.78-2.73c0-1.15-0.26-2.03-0.79-2.62c-0.52-0.59-1.18-0.89-1.96-0.89c-0.79,0-1.45,0.3-1.97,0.89
		S221.53,71.58,221.53,72.78z"/>
	<path fill="#5A5A5A" d="M230.5,77.45v-9.33h1.42v1.33c0.69-1.03,1.68-1.54,2.97-1.54c0.56,0,1.08,0.1,1.55,0.3
		c0.47,0.2,0.82,0.47,1.06,0.8s0.4,0.72,0.49,1.17c0.06,0.29,0.09,0.81,0.09,1.54v5.74h-1.58v-5.68c0-0.64-0.06-1.13-0.18-1.45
		s-0.34-0.57-0.65-0.77c-0.31-0.19-0.68-0.29-1.1-0.29c-0.67,0-1.26,0.21-1.74,0.64s-0.73,1.24-0.73,2.43v5.1H230.5z"/>
	<path fill="#5A5A5A" d="M243.97,76.03l0.23,1.4c-0.45,0.09-0.84,0.14-1.2,0.14c-0.57,0-1.02-0.09-1.34-0.27s-0.54-0.42-0.67-0.72
		s-0.19-0.92-0.19-1.87v-5.37h-1.16v-1.23h1.16V65.8l1.57-0.95v3.26h1.59v1.23h-1.59v5.46c0,0.45,0.03,0.74,0.08,0.87
		s0.15,0.23,0.27,0.31s0.31,0.11,0.54,0.11C243.45,76.09,243.68,76.07,243.97,76.03z"/>
	<path fill="#5A5A5A" d="M245.5,77.45v-9.33h1.42v1.42c0.36-0.66,0.7-1.1,1.01-1.31s0.65-0.32,1.02-0.32c0.53,0,1.08,0.17,1.63,0.51
		l-0.54,1.47c-0.39-0.23-0.77-0.34-1.16-0.34c-0.35,0-0.66,0.1-0.93,0.31s-0.47,0.5-0.59,0.87c-0.18,0.56-0.26,1.18-0.26,1.85v4.89
		H245.5z"/>
	<path fill="#5A5A5A" d="M257.9,74.44l1.63,0.2c-0.26,0.96-0.74,1.7-1.43,2.22s-1.59,0.79-2.67,0.79c-1.37,0-2.45-0.42-3.25-1.26
		c-0.8-0.84-1.2-2.02-1.2-3.54c0-1.57,0.4-2.79,1.21-3.66s1.86-1.3,3.15-1.3c1.25,0,2.27,0.42,3.06,1.27s1.19,2.04,1.19,3.59
		c0,0.09,0,0.23-0.01,0.42h-6.96c0.06,1.03,0.35,1.81,0.87,2.36s1.17,0.82,1.95,0.82c0.58,0,1.08-0.15,1.49-0.46
		S257.66,75.11,257.9,74.44z M252.7,71.88h5.21c-0.07-0.79-0.27-1.37-0.6-1.77c-0.5-0.61-1.16-0.91-1.96-0.91
		c-0.73,0-1.34,0.24-1.83,0.73S252.75,71.07,252.7,71.88z M254.41,66.95l1.17-2.46h2.07l-1.93,2.46H254.41z"/>
	<path fill="#5A5A5A" d="M267.61,76.3c-0.59,0.5-1.15,0.85-1.69,1.05s-1.12,0.31-1.74,0.31c-1.03,0-1.81-0.25-2.36-0.75
		c-0.55-0.5-0.83-1.14-0.83-1.92c0-0.46,0.1-0.88,0.31-1.25c0.21-0.38,0.48-0.68,0.82-0.91s0.72-0.4,1.14-0.52
		c0.31-0.08,0.78-0.16,1.41-0.24c1.28-0.15,2.22-0.33,2.82-0.54c0.01-0.22,0.01-0.35,0.01-0.41c0-0.64-0.15-1.1-0.45-1.36
		c-0.4-0.36-1-0.54-1.8-0.54c-0.74,0-1.29,0.13-1.65,0.39s-0.62,0.72-0.79,1.38l-1.55-0.21c0.14-0.66,0.37-1.2,0.69-1.6
		c0.32-0.41,0.79-0.72,1.4-0.94c0.61-0.22,1.32-0.33,2.12-0.33c0.8,0,1.44,0.09,1.94,0.28s0.86,0.42,1.1,0.71
		c0.23,0.29,0.4,0.64,0.49,1.08c0.05,0.27,0.08,0.76,0.08,1.46v2.11c0,1.47,0.03,2.4,0.1,2.79c0.07,0.39,0.2,0.76,0.4,1.12h-1.65
		C267.76,77.12,267.66,76.74,267.61,76.3z M267.48,72.76c-0.57,0.23-1.44,0.43-2.58,0.6c-0.65,0.09-1.11,0.2-1.38,0.32
		s-0.48,0.29-0.62,0.51s-0.22,0.48-0.22,0.75c0,0.42,0.16,0.77,0.48,1.05s0.79,0.42,1.4,0.42c0.61,0,1.15-0.13,1.63-0.4
		s0.82-0.63,1.05-1.09c0.17-0.36,0.25-0.88,0.25-1.58V72.76z"/>
	<path fill="#5A5A5A" d="M271.49,77.45V64.56h1.58v12.88H271.49z"/>
	<path fill="#5A5A5A" d="M283.55,81.24c-0.87-1.1-1.61-2.39-2.21-3.87s-0.91-3.01-0.91-4.59c0-1.39,0.23-2.73,0.68-4.01
		c0.53-1.48,1.34-2.96,2.44-4.43h1.13c-0.71,1.22-1.18,2.09-1.41,2.61c-0.36,0.81-0.64,1.65-0.84,2.53c-0.25,1.1-0.38,2.2-0.38,3.3
		c0,2.82,0.88,5.63,2.63,8.45H283.55z"/>
	<path fill="#5A5A5A" d="M286.14,73.31l1.61-0.14c0.08,0.64,0.25,1.17,0.53,1.59c0.28,0.41,0.71,0.75,1.3,1
		c0.59,0.25,1.25,0.38,1.98,0.38c0.65,0,1.22-0.1,1.72-0.29s0.87-0.46,1.11-0.79s0.36-0.71,0.36-1.1c0-0.4-0.12-0.76-0.35-1.06
		s-0.62-0.56-1.16-0.76c-0.35-0.13-1.11-0.34-2.29-0.63s-2.01-0.55-2.49-0.8c-0.62-0.32-1.07-0.72-1.38-1.2s-0.45-1.01-0.45-1.6
		c0-0.65,0.18-1.26,0.55-1.82s0.91-1,1.62-1.29s1.5-0.44,2.36-0.44c0.96,0,1.8,0.15,2.53,0.46c0.73,0.31,1.29,0.76,1.68,1.36
		s0.6,1.27,0.63,2.03l-1.63,0.12c-0.09-0.81-0.39-1.43-0.89-1.85s-1.26-0.62-2.25-0.62c-1.03,0-1.78,0.19-2.25,0.57
		c-0.47,0.38-0.71,0.83-0.71,1.37c0,0.46,0.17,0.84,0.5,1.14c0.33,0.3,1.19,0.61,2.57,0.92c1.39,0.31,2.34,0.59,2.85,0.82
		c0.75,0.35,1.3,0.78,1.66,1.31s0.54,1.14,0.54,1.83c0,0.69-0.2,1.33-0.59,1.94c-0.39,0.61-0.96,1.08-1.69,1.42
		c-0.74,0.34-1.56,0.5-2.48,0.5c-1.17,0-2.14-0.17-2.93-0.51s-1.41-0.85-1.85-1.53C286.4,74.94,286.17,74.17,286.14,73.31z"/>
	<path fill="#5A5A5A" d="M302.01,77.45V66.08h-4.25v-1.52h10.21v1.52h-4.26v11.36H302.01z"/>
	<path fill="#5A5A5A" d="M309.67,77.45V64.56h2.57l3.05,9.12c0.28,0.85,0.49,1.49,0.62,1.91c0.15-0.47,0.38-1.16,0.69-2.07
		l3.08-8.96h2.29v12.88h-1.64V66.66l-3.74,10.78h-1.54l-3.73-10.97v10.97H309.67z"/>
	<path fill="#5A5A5A" d="M325.55,81.24h-1.13c1.75-2.81,2.63-5.63,2.63-8.45c0-1.1-0.13-2.19-0.38-3.28
		c-0.2-0.88-0.48-1.72-0.83-2.53c-0.23-0.53-0.7-1.41-1.42-2.64h1.13c1.1,1.47,1.92,2.95,2.44,4.43c0.45,1.28,0.68,2.61,0.68,4.01
		c0,1.58-0.3,3.11-0.91,4.59S326.42,80.13,325.55,81.24z"/>
	<path fill="#5A5A5A" d="M335.28,71.14c0-0.62,0.22-1.14,0.65-1.57s0.96-0.65,1.57-0.65c0.62,0,1.14,0.22,1.58,0.65
		s0.65,0.96,0.65,1.57s-0.22,1.14-0.65,1.58s-0.96,0.65-1.58,0.65c-0.61,0-1.13-0.22-1.57-0.65S335.28,71.75,335.28,71.14z"/>
	<path fill="#5A5A5A" d="M346.96,77.45V64.56h2.57l3.05,9.12c0.28,0.85,0.49,1.49,0.62,1.91c0.15-0.47,0.38-1.16,0.69-2.07
		l3.08-8.96h2.29v12.88h-1.64V66.66l-3.74,10.78h-1.54l-3.73-10.97v10.97H346.96z"/>
	<path fill="#5A5A5A" d="M361.22,72.78c0-1.73,0.48-3.01,1.44-3.84c0.8-0.69,1.78-1.04,2.94-1.04c1.28,0,2.33,0.42,3.15,1.26
		s1.22,2,1.22,3.48c0,1.2-0.18,2.15-0.54,2.83c-0.36,0.69-0.88,1.22-1.57,1.6s-1.44,0.57-2.25,0.57c-1.31,0-2.36-0.42-3.17-1.26
		S361.22,74.36,361.22,72.78z M362.85,72.78c0,1.2,0.26,2.09,0.78,2.68c0.52,0.6,1.18,0.89,1.97,0.89c0.79,0,1.44-0.3,1.96-0.9
		s0.78-1.51,0.78-2.73c0-1.15-0.26-2.03-0.79-2.62c-0.52-0.59-1.18-0.89-1.96-0.89c-0.79,0-1.45,0.3-1.97,0.89
		S362.85,71.58,362.85,72.78z"/>
	<path fill="#5A5A5A" d="M371.82,77.45v-9.33h1.42v1.33c0.69-1.03,1.68-1.54,2.97-1.54c0.56,0,1.08,0.1,1.55,0.3
		c0.47,0.2,0.82,0.47,1.06,0.8s0.4,0.72,0.49,1.17c0.06,0.29,0.09,0.81,0.09,1.54v5.74h-1.58v-5.68c0-0.64-0.06-1.13-0.18-1.45
		s-0.34-0.57-0.65-0.77c-0.31-0.19-0.68-0.29-1.1-0.29c-0.67,0-1.26,0.21-1.74,0.64s-0.73,1.24-0.73,2.43v5.1H371.82z"/>
	<path fill="#5A5A5A" d="M385.29,76.03l0.23,1.4c-0.45,0.09-0.84,0.14-1.2,0.14c-0.57,0-1.02-0.09-1.34-0.27s-0.54-0.42-0.67-0.72
		s-0.19-0.92-0.19-1.87v-5.37h-1.16v-1.23h1.16V65.8l1.57-0.95v3.26h1.59v1.23h-1.59v5.46c0,0.45,0.03,0.74,0.08,0.87
		s0.15,0.23,0.27,0.31s0.31,0.11,0.54,0.11C384.77,76.09,385,76.07,385.29,76.03z"/>
	<path fill="#5A5A5A" d="M386.81,77.45v-9.33h1.42v1.42c0.36-0.66,0.7-1.1,1.01-1.31s0.65-0.32,1.02-0.32
		c0.53,0,1.08,0.17,1.63,0.51l-0.54,1.47c-0.39-0.23-0.77-0.34-1.16-0.34c-0.35,0-0.66,0.1-0.93,0.31s-0.47,0.5-0.59,0.87
		c-0.18,0.56-0.26,1.18-0.26,1.85v4.89H386.81z"/>
	<path fill="#5A5A5A" d="M399.22,74.44l1.63,0.2c-0.26,0.96-0.74,1.7-1.43,2.22s-1.59,0.79-2.67,0.79c-1.37,0-2.45-0.42-3.25-1.26
		c-0.8-0.84-1.2-2.02-1.2-3.54c0-1.57,0.4-2.79,1.21-3.66s1.86-1.3,3.15-1.3c1.25,0,2.27,0.42,3.06,1.27s1.19,2.04,1.19,3.59
		c0,0.09,0,0.23-0.01,0.42h-6.96c0.06,1.03,0.35,1.81,0.87,2.36s1.17,0.82,1.95,0.82c0.58,0,1.08-0.15,1.49-0.46
		S398.98,75.11,399.22,74.44z M394.02,71.88h5.21c-0.07-0.79-0.27-1.37-0.6-1.77c-0.5-0.61-1.16-0.91-1.96-0.91
		c-0.73,0-1.34,0.24-1.83,0.73S394.07,71.07,394.02,71.88z M395.73,66.95l1.17-2.46h2.07l-1.93,2.46H395.73z"/>
	<path fill="#5A5A5A" d="M408.93,76.3c-0.59,0.5-1.15,0.85-1.69,1.05s-1.12,0.31-1.74,0.31c-1.03,0-1.81-0.25-2.36-0.75
		c-0.55-0.5-0.83-1.14-0.83-1.92c0-0.46,0.1-0.88,0.31-1.25c0.21-0.38,0.48-0.68,0.82-0.91s0.72-0.4,1.14-0.52
		c0.31-0.08,0.78-0.16,1.41-0.24c1.28-0.15,2.22-0.33,2.82-0.54c0.01-0.22,0.01-0.35,0.01-0.41c0-0.64-0.15-1.1-0.45-1.36
		c-0.4-0.36-1-0.54-1.8-0.54c-0.74,0-1.29,0.13-1.65,0.39s-0.62,0.72-0.79,1.38l-1.55-0.21c0.14-0.66,0.37-1.2,0.69-1.6
		c0.32-0.41,0.79-0.72,1.4-0.94c0.61-0.22,1.32-0.33,2.12-0.33c0.8,0,1.44,0.09,1.94,0.28s0.86,0.42,1.1,0.71
		c0.23,0.29,0.4,0.64,0.49,1.08c0.05,0.27,0.08,0.76,0.08,1.46v2.11c0,1.47,0.03,2.4,0.1,2.79c0.07,0.39,0.2,0.76,0.4,1.12h-1.65
		C409.08,77.12,408.97,76.74,408.93,76.3z M408.8,72.76c-0.57,0.23-1.44,0.43-2.58,0.6c-0.65,0.09-1.11,0.2-1.38,0.32
		s-0.48,0.29-0.62,0.51s-0.22,0.48-0.22,0.75c0,0.42,0.16,0.77,0.48,1.05s0.79,0.42,1.4,0.42c0.61,0,1.15-0.13,1.63-0.4
		s0.82-0.63,1.05-1.09c0.17-0.36,0.25-0.88,0.25-1.58V72.76z"/>
	<path fill="#5A5A5A" d="M412.81,77.45V64.56h1.58v12.88H412.81z"/>
	<path fill="#5A5A5A" d="M421.62,71.14c0-0.62,0.22-1.14,0.65-1.57s0.96-0.65,1.57-0.65c0.62,0,1.14,0.22,1.58,0.65
		s0.65,0.96,0.65,1.57s-0.22,1.14-0.65,1.58s-0.96,0.65-1.58,0.65c-0.61,0-1.13-0.22-1.57-0.65S421.62,71.75,421.62,71.14z"/>
	<path fill="#5A5A5A" d="M438.67,77.45h-1.58V67.37c-0.38,0.36-0.88,0.73-1.5,1.09s-1.17,0.64-1.67,0.82v-1.53
		c0.88-0.42,1.66-0.92,2.32-1.51s1.13-1.17,1.41-1.72h1.02V77.45z"/>
	<path fill="#5A5A5A" d="M442.96,74.47l1.52-0.14c0.13,0.71,0.38,1.23,0.74,1.56s0.83,0.48,1.4,0.48c0.49,0,0.91-0.11,1.28-0.33
		s0.67-0.52,0.9-0.89s0.43-0.88,0.59-1.51s0.24-1.28,0.24-1.93c0-0.07,0-0.18-0.01-0.32c-0.32,0.5-0.75,0.91-1.3,1.23
		s-1.14,0.47-1.78,0.47c-1.07,0-1.97-0.39-2.71-1.16s-1.11-1.79-1.11-3.06c0-1.31,0.39-2.36,1.16-3.16s1.74-1.2,2.9-1.2
		c0.84,0,1.6,0.23,2.3,0.68s1.22,1.09,1.58,1.93c0.36,0.84,0.54,2.04,0.54,3.63c0,1.65-0.18,2.96-0.54,3.93
		c-0.36,0.98-0.89,1.72-1.6,2.23s-1.53,0.76-2.48,0.76c-1.01,0-1.83-0.28-2.47-0.84S443.09,75.48,442.96,74.47z M449.44,68.78
		c0-0.91-0.24-1.63-0.73-2.16s-1.06-0.8-1.74-0.8c-0.7,0-1.32,0.29-1.84,0.86s-0.78,1.32-0.78,2.23c0,0.82,0.25,1.49,0.74,2
		c0.5,0.51,1.11,0.77,1.83,0.77c0.73,0,1.33-0.26,1.81-0.77C449.2,70.4,449.44,69.69,449.44,68.78z"/>
	<path fill="#5A5A5A" d="M460.94,67.72l-1.57,0.12c-0.14-0.62-0.34-1.07-0.6-1.35c-0.43-0.45-0.96-0.68-1.58-0.68
		c-0.5,0-0.95,0.14-1.33,0.42c-0.5,0.36-0.89,0.89-1.18,1.59s-0.44,1.69-0.45,2.98c0.38-0.58,0.85-1.01,1.4-1.29
		s1.13-0.42,1.73-0.42c1.05,0,1.95,0.39,2.69,1.17s1.11,1.78,1.11,3.01c0,0.81-0.17,1.56-0.52,2.25c-0.35,0.7-0.83,1.23-1.44,1.6
		s-1.3,0.55-2.07,0.55c-1.32,0-2.39-0.48-3.23-1.45s-1.25-2.57-1.25-4.79c0-2.49,0.46-4.3,1.38-5.43c0.8-0.98,1.88-1.48,3.24-1.48
		c1.01,0,1.84,0.28,2.49,0.85S460.81,66.72,460.94,67.72z M454.48,73.27c0,0.54,0.12,1.07,0.35,1.56s0.56,0.88,0.97,1.14
		c0.42,0.26,0.85,0.39,1.31,0.39c0.67,0,1.24-0.27,1.72-0.81s0.72-1.27,0.72-2.2c0-0.89-0.24-1.59-0.71-2.1s-1.07-0.77-1.79-0.77
		c-0.71,0-1.32,0.26-1.82,0.77S454.48,72.44,454.48,73.27z"/>
	<path fill="#5A5A5A" d="M462.85,66.25v-1.52h8.34v1.23c-0.82,0.87-1.63,2.03-2.44,3.48s-1.43,2.94-1.87,4.46
		c-0.32,1.08-0.52,2.26-0.61,3.54h-1.63c0.02-1.01,0.22-2.24,0.6-3.67s0.93-2.82,1.64-4.15s1.47-2.46,2.27-3.37H462.85z"/>
</g>
</svg>
